<?xml version="1.0" encoding="utf-8"?>
<!-- Generator: Adobe Illustrator 24.0.1, SVG Export Plug-In . SVG Version: 6.00 Build 0)  -->
<svg version="1.1" id="Layer_1" xmlns="http://www.w3.org/2000/svg" xmlns:xlink="http://www.w3.org/1999/xlink" x="0px" y="0px"
	 viewBox="0 0 785 589" style="enable-background:new 0 0 785 589;" xml:space="preserve">
<style type="text/css">
	.st0{fill:#FF84F9;}
	.st1{fill:#BF0096;}
	.st2{fill:#D9EDFF;}
	.st3{fill:#4CA9FF;}
	.st4{fill:#04377D;}
	.st5{fill:#FFFFFF;}
	.st6{fill:#0084FF;}
	.st7{fill:#FF9D8A;}
	.st8{fill:#7591B7;}
	.st9{fill:#7F99BD;}
	.st10{fill:#D9E1EB;}
	.st11{fill:#708DB5;}
	.st12{fill:#0BC300;}
	.st13{fill:#2A5590;}
	.st14{fill:#000109;}
	.st15{fill:#F5F7FA;}
	.st16{fill:#D4DDE9;}
	.st17{fill:#43699D;}
	.st18{fill:#6987B1;}
	.st19{fill:#B4C3D8;}
	.st20{fill:#5C7DAA;}
	.st21{fill:#8EA5C4;}
	.st22{fill:none;}
	.st23{font-family:'Chiret-Regular';}
	.st24{font-size:39.8355px;}
	.st25{fill:#FF5E3F;}
	.st26{font-family:'Quicksand-Bold';}
	.st27{font-size:20.6145px;}
	.st28{fill:#54ADFF;}
	.st29{fill:#F8FBFF;}
	.st30{font-family:'MyriadPro-Regular';}
	.st31{font-size:23.2374px;}
</style>
<path class="st0" d="M142.1,542.9c0,0-93.8-66.8-120.8-180.6c-27-113.7,14.2-251.6,92.4-321.3c78.2-69.7,218.9-22.7,281.5,35.5
	s62.6,58.3,62.6,58.3s59.7,32.7,137.9,29.9c78.2-2.8,147.9,103.8,166.3,187.7c18.5,83.9-25.6,194.8-25.6,194.8L142.1,542.9z"/>
<path class="st1" d="M99.4,560c0,0-65.4-35.5-82.5-118s56.9-157.8,64-199c7.1-41.2-8.5-92.4,56.9-132.2c65.4-39.8,182-25.6,226-35.5
	c44.1-10,95.3-78.2,183.4-62.6C635.4,28.3,720.7,75.2,725,177.5c4.3,102.4-28.4,105.2,4.3,160.7c32.7,55.4,45.5,93.8,29.9,150.7
	c-15.6,56.9-48.3,72.5-48.3,72.5L99.4,560z"/>
<path class="st2" d="M236,541.5c-4.1-4.3-63.7-123.7,2.7-233.2c66.4-109.5,233.2-96.7,299.7-54s99,98.1,105.8,156.4
	c6.8,58.3-38,149.3-38,149.3L236,541.5z"/>
<g>
	<g>
		<path class="st3" d="M707.4,340.4h-83.8c-2.8,0-5-2.2-5-5V290c0-2.8,2.2-5,5-5h83.8c2.8,0,5,2.2,5,5v45.4
			C712.4,338.2,710.2,340.4,707.4,340.4z"/>
		<polygon class="st3" points="665.5,362.1 677.6,333.3 653.3,333.3 		"/>
	</g>
	<g>
		<g>
			<g>
				<polygon class="st4" points="665.2,303.2 687.1,303.2 687.1,306.4 697.9,300.2 687.1,294 687.1,297.2 665.2,297.2 				"/>
			</g>
			<g>
				<polygon class="st5" points="697.9,315.8 675.9,315.8 675.9,312.6 665.2,318.8 675.9,325 675.9,321.8 697.9,321.8 				"/>
			</g>
		</g>
		<g>
			<path class="st4" d="M651.7,321.5l-1,0.4c0,0-3.3-3.7-4.9-7.8c-1.7-4-1.7-9-1.7-9l0.8-0.3l-4.6-11.1c-0.8,0.6-1.6,1.5-2.3,2.6
				c-2.6,4.4-2.4,11.2,0.3,17.9c2.6,6.7,5.5,12.6,10.6,16.3c3,2.2,5.6,2.6,7.7,2.3L651.7,321.5z"/>
			<path class="st4" d="M655.1,320.2l-1.4,0.5l4.7,11.4c0.5-0.2,1-0.4,1.4-0.6c1.2-0.7,1.8-2.1,1.2-3.4l-2.5-6.2
				C658,320.3,656.5,319.6,655.1,320.2z"/>
			<path class="st4" d="M643.7,291.7c-0.6,0.2-1.2,0.5-1.9,0.9l4.7,11.3l1.6-0.7c1.4-0.6,2.1-2.2,1.5-3.6l-2.5-6.4
				C646.7,291.9,645.1,291.2,643.7,291.7z"/>
		</g>
	</g>
</g>
<g>
	<path class="st6" d="M213.8,522.3v-128c0,0-1.4-34.5,16.7-44.4s94.5-4.6,94.5-4.6v177H213.8z"/>
</g>
<g>
	<g>
		<path class="st7" d="M348.9,225.5c0,0-4.6,38.7-6.4,41.9c-1.8,3.2-1.8,3.2-1.8,3.2l-8.9,6c0,0,17.1,24.2,38,28.1
			c21,3.9,19.2-8.5,19.2-8.5l-3.2-6.8l4.3-37C390.1,252.5,352.1,235.1,348.9,225.5z"/>
	</g>
	<path class="st5" d="M320.8,279.9l13.9-6c0,0,8.9,14.6,29.5,23.1c20.6,8.5,21,3.6,22,0c1.1-3.6-0.4-7.5-0.4-7.5l1.5-12.4l8.2,2.7
		l28.6,231.5l-73.6,3.6L320.8,279.9z"/>
	<g>
		<path class="st4" d="M388.7,277.3c0,0,5,11.5,9.6,38.5c4.6,27,8.9,72.5,10,103.8s1.8,102.7,1.8,102.7s91.7,0,92.8,0
			s7.5-35.2,7.5-35.2s-40.5-34.7-42.7-40.4c-1.4-3.8-0.7-74-6.8-106.4c-6-32.3-13.9-38.9-30.2-46.9
			C413.8,285.1,388.7,277.3,388.7,277.3z"/>
	</g>
	<g>
		<path class="st8" d="M437.1,481.6c-0.5,0-0.9-0.4-0.9-0.9c0-2.5-0.5-38.6-0.9-73.6c-0.4-34.9-0.9-71-0.9-73.6
			c0-0.5,0.4-0.9,0.9-0.9s0.9,0.4,0.9,0.9c0,2.5,0.5,38.6,0.9,73.6c0.4,34.9,0.9,71,0.9,73.6C437.9,481.2,437.5,481.6,437.1,481.6z"
			/>
	</g>
	<g>
		<path class="st4" d="M252.2,472.9l-0.7,49.4h108c0,0,4.6-41.9,2.8-45.8C360.6,472.5,252.2,472.9,252.2,472.9z"/>
	</g>
	<g>
		<path class="st9" d="M372.5,266.4c4.4,3.5,10.4,6.4,15.1,8.1l2.5-22c0,0-28.6-13.1-38.3-22.8C353.9,240.8,358.9,255.4,372.5,266.4
			z"/>
	</g>
	<g>
		<path class="st7" d="M423.6,153.4c0,0,7.5,12.8,8.9,28.4c1.4,15.6,0,55.8-12.8,72.9c-12.8,17.1-39.5,12.1-51.5,1.8
			c-11.1-9.5-22-19.9-24.9-40.5c-2.8-20.6,6-59.7,31.3-67.9C399.7,139.9,423.6,153.4,423.6,153.4z"/>
	</g>
	<g>
		<g>
			<path class="st7" d="M455.6,500c0,0-1.3,0-3.2-0.1c-0.4,0-0.9,0-1.5,0c-1.8-0.1-4.1-0.1-6.3-0.2c-0.5,0-1,0-1.5-0.1
				c-2.2-0.1-4.1,0.2-5.9,0.1h-0.1c-0.4,0-0.9,0-1.4,0.1c-0.2,0-0.4,0-0.6,0c-1-0.2-1.2-0.4-2.4-0.9c-1.4-0.7-21-5-36.9-4.9
				c-15.9,0.1-30.1,1.2-32.4-0.8c-2.3-2-3.7-21.9,9.8-23.2l16.7,6.3c0,0,38.1-4.5,52,5.8C456.1,492.4,455.6,500,455.6,500z"/>
		</g>
		<g>
			<g>
				<path class="st4" d="M437.2,499.8c-0.4,0-0.9,0-1.4,0.1c-0.3-0.5-1.1-1.5-1.5-2c-4.3-4.4-14.7-7.2-18.4-8.1
					c-0.3-0.1-0.6-0.4-0.5-0.8c0.1-0.3,0.4-0.5,0.8-0.5c5.5,1.3,17.1,4.7,20.4,10.3C436.7,498.9,437,499.4,437.2,499.8z"/>
			</g>
		</g>
		<g>
			<g>
				<path class="st4" d="M444.7,499.7c-0.5,0-1,0-1.5-0.1c-4.7-8.6-12.4-11-21.8-14.1l-0.6-0.2c-0.3-0.1-0.5-0.5-0.4-0.8
					c0.1-0.3,0.5-0.5,0.8-0.4l0.5,0.2C431.7,487.6,439.8,490.2,444.7,499.7z"/>
			</g>
		</g>
		<g>
			<g>
				<path class="st4" d="M452.5,499.9c-0.4,0-0.9,0-1.5,0c-2.8-6-12.3-16-24.7-18.3c-0.4-0.1-0.6-0.4-0.5-0.8
					c0.1-0.3,0.4-0.6,0.8-0.5C439.3,482.7,449.7,493.2,452.5,499.9z"/>
			</g>
		</g>
	</g>
	<g>
		<path class="st4" d="M351.8,198.3c0,0,7.8-3.7,13.3-14.2c5.5-10.5,4.8-19.9,4.8-19.9s10-1.6,24.9,2.8c14.9,4.4,32.7,10.5,47.6,2
			c14.9-8.5,14.9-22.2,7.6-27.9c-8.2-6.4-24.3-2.5-24.3-2.5s6.2-6,2.8-9.6c-3.4-3.6-15.6,1.1-15.6,1.1s-14.9-11.9-43.2-10.5
			c-28.3,1.4-41.8,21.1-43.4,43.2c-1.6,22,6.4,44.1,6.4,44.1L351.8,198.3z"/>
	</g>
	<g>
		<g>
			<path class="st9" d="M409.1,203.7c-1.6,3.9-1.6,8.5-2,12.7c-0.3,3.3-0.9,7.1,2.1,9.3c1.4,1.1,8.2,3.9,4.7,6.2
				c-1.3,0.9-3.5,0.6-5,0.6c-1,0-2.1-0.1-3.1-0.2c-1.1-0.1-2.2-0.4-3.3-0.4c-0.7,0-0.9,0.9-0.3,1.2c1.8,1.1,4.4,1.5,6.5,1.6
				c2.1,0.1,3.5,0,5.4-0.9c1.2-0.6,2.3-1.4,2.5-2.8c0.2-1.6-1-2.9-2.1-3.8c-1.3-1-3-1.5-4.3-2.4c-1.9-1.3-1.7-3.6-1.6-5.7
				c0.3-5.1,1.5-10,1.9-15C410.4,203.1,409.3,203.1,409.1,203.7L409.1,203.7z"/>
		</g>
	</g>
	<g>
		<path class="st4" d="M423.6,215.5c-0.5,3-2.7,5.1-4.9,4.7c-2.2-0.4-3.5-3.1-2.9-6.1c0.5-3,2.7-5.1,4.9-4.7
			C422.8,209.8,424.1,212.5,423.6,215.5z"/>
	</g>
	<g>
		<path class="st4" d="M396.4,213.1c-0.5,3.2-2.8,5.6-5.1,5.2c-2.3-0.3-3.8-3.2-3.3-6.5c0.5-3.2,2.8-5.6,5.1-5.2
			S396.9,209.9,396.4,213.1z"/>
	</g>
	<g>
		<g>
			<path class="st4" d="M417.3,203.1c1.7,0.3,3.3,0,5,0.1c0.4,0,0.8,0.1,1.2,0.1c0.3,0-0.5-0.1-0.1,0c0.1,0,0.2,0,0.3,0
				c0.2,0,0.4,0.1,0.6,0.1c0.4,0.1,0.7,0.2,1.1,0.3c0.3,0.1,0.7,0.1,1,0.1c0.2,0,0.4,0,0.5-0.1c-0.1,0-0.2,0-0.3,0.1
				c0,0,0.6-0.1,0.7-0.1c1-0.2,1.5-1.3,1.3-2.2c-0.1-0.3-0.2-0.5-0.4-0.7c-0.1-0.1-0.1-0.2-0.2-0.3c0.1,0.1,0.1,0.2,0.2,0.2
				c-0.1-0.1-0.1-0.2-0.2-0.3c-0.1-0.2-0.2-0.3-0.4-0.4c-0.1-0.1-0.3-0.2-0.4-0.3c-0.4-0.3-1-0.5-1.5-0.6c-1-0.3-2-0.4-3.1-0.4
				c-1,0-2,0.1-3,0.2c-0.9,0.1-1.9,0.4-2.6,1c-0.6,0.4-0.9,0.9-0.8,1.7C416.2,202.4,416.6,203,417.3,203.1L417.3,203.1z"/>
		</g>
	</g>
	<g>
		<g>
			<path class="st4" d="M398.3,198.4c-0.2-0.1-0.5-0.3-0.7-0.4c-0.2-0.1-0.8-0.4-0.3-0.2c-0.2-0.1-0.3-0.2-0.5-0.2
				c-0.7-0.3-1.4-0.6-2.1-0.8c-1.6-0.4-3.3-0.5-5-0.3c-1.8,0.2-3.4,0.6-4.9,1.5c-0.2,0.1-0.4,0.3-0.6,0.4c-0.1,0.2-0.2,0.3-0.4,0.5
				c0-0.1,0.1-0.1,0.1-0.2c-0.5,0.3-0.7,0.9-0.7,1.4c0,0.6,0.3,1,0.8,1.3c0.6,0.3,1.1,0.2,1.7,0c-0.3,0-0.6,0-0.9,0
				c0.5,0.1,0.8,0.1,1.3,0c0,0,0.5-0.1,0.2-0.1c-0.3,0.1,0.5-0.1,0.6-0.1c0.1,0,0.6-0.1,0.1,0c0.1,0,0.2,0,0.3,0
				c0.3,0,0.5-0.1,0.8-0.1c1.2-0.1,2.3-0.1,3.5-0.2c1.1,0,2.2,0,3.3,0c0.5,0,0.9,0,1.4,0c0.3,0,0.2,0,0,0c0.1,0,0.2,0,0.3,0.1
				c0.2,0.1,0.4,0.1,0.6,0.2c0.8,0.3,1.7-0.3,1.9-1C399.3,199.7,399,198.8,398.3,198.4L398.3,198.4z"/>
		</g>
	</g>
	<g>
		<path class="st4" d="M409.1,249.1c2.2-2.6,5.8-4.6,10-5.9c-3.5,0-20.1-0.1-24.4,1.7c-4.9,2,0.1,8.4,9.8,8.2c1,0,2-0.1,2.9-0.3
			C407.6,251.5,408.1,250.3,409.1,249.1z"/>
	</g>
	<g>
		<path class="st10" d="M341.8,228.7c0,0,1.4,5.5,9.6,11.9c8.2,6.4,20,11.1,20,11.1l0.9-4.1c0,0-12.3-5.3-17.9-11.2
			c-5.7-5.9-6.4-9.1-6.4-9.1L341.8,228.7z"/>
	</g>
	<g>
		<path class="st4" d="M373.8,244.5c6.6-0.3,10.3,4.9,10.7,8.3c0.5,3.4-2.7,7.1-10.1,3.8C365.2,252.5,367.2,244.8,373.8,244.5z"/>
	</g>
	<g>
		<path class="st10" d="M347,188c0,0,2.8-20.4,16.5-34.3c26.1-26.5,48.3-24.9,48.3-24.9s-0.2-3.7-8.5-6.6
			c-7.8-2.7-11.4-1.2-11.4-1.2s-21.5,1.8-39.6,21.9c-18.1,20.1-20.1,45.7-20.1,45.7L347,188z"/>
	</g>
	<g>
		<g>
			<path class="st5" d="M345,185.5c-17.1-2.9-26.7,10.5-27.4,24c-0.7,13.5,9.1,23.8,22.2,22.7C369.4,230,366,189.1,345,185.5z"/>
		</g>
		<g>
			<path class="st11" d="M336.5,219.2c-4.5,0-8.3-2.3-10.5-6.3c-2.3-4.3-2.1-9.6,0.5-13.4c0.2-0.3,0.6-0.4,0.9-0.2
				c0.3,0.2,0.4,0.6,0.2,0.9c-2.4,3.5-2.5,8.2-0.4,12.1c2,3.7,5.5,5.7,9.7,5.6c3.9-0.1,7.2-1.9,9.3-5c2.4-3.6,3-8.5,1.4-12.6
				c-1.5-4-5.8-6.8-9.6-6.3c-0.3,0-0.7-0.2-0.7-0.6c0-0.4,0.2-0.7,0.6-0.7c4.5-0.6,9.2,2.5,11,7.1c1.7,4.5,1.1,9.9-1.5,13.8
				c-2.3,3.5-6,5.5-10.4,5.6C336.7,219.2,336.6,219.2,336.5,219.2z"/>
		</g>
	</g>
	<g>
		<path class="st4" d="M324,274.9c0,0-51.9,12.8-70,33.4s-26.7,122.3-27,141.1c-0.4,18.8,12.8,26.7,20.6,32
			c7.8,5.3,42.3,14.9,70,16.3c27.7,1.4,54,0,54,0s-0.1-6,4.2-14.9c4-8.2,9-10,9-10l-23.8-8.5c0,0-4.2-74.7-10.7-110.9
			C342.9,311.9,324,274.9,324,274.9z"/>
	</g>
	<g>
		<path class="st8" d="M410.1,452.4c-0.1,0-0.2,0-0.3-0.1c-0.4-0.2-0.6-0.7-0.4-1.1c4.9-11,9.9-32.5,12.7-47.6l0.2-1.2
			c0.9-4.4,1.9-10-0.2-13.8c-1.1-1.9-3.5-6.2-5.9-10.2c-2.5-4.2-4.8-8.2-5.4-9.4c-1.3-2.3,2.7-8.5,8.4-17c1.5-2.3,2.9-4.3,3.6-5.6
			c2-3.5,0.7-6.7-0.9-10.5l-0.5-1.3c-1.4-3.5-3-7-4.6-10.4c-0.6-1.4-1.3-2.8-1.9-4.2c-0.8-1.8-1.7-3.7-2.5-5.6
			c-5-11.2-10.2-22.8-16.9-34c-0.2-0.4-0.1-0.9,0.3-1.2c0.4-0.2,0.9-0.1,1.2,0.3c6.7,11.3,11.9,22.9,17,34.1
			c0.8,1.9,1.7,3.8,2.5,5.6c0.6,1.4,1.3,2.8,1.9,4.1c1.6,3.4,3.2,6.9,4.6,10.4l0.5,1.3c1.6,3.8,3.3,7.7,0.8,12
			c-0.8,1.4-2.2,3.4-3.7,5.7c-3,4.4-9.2,13.7-8.3,15.2c0.6,1.2,2.9,5.1,5.4,9.3c2.4,4.1,4.8,8.3,5.9,10.3c2.4,4.4,1.3,10.2,0.4,15
			l-0.2,1.2c-1,5.5-6.5,33.7-12.9,48C410.7,452.2,410.4,452.4,410.1,452.4z"/>
	</g>
	<g>
		<path class="st8" d="M359.4,455.5c-0.2,0-0.4-0.1-0.6-0.3c-4-4.1-23.5-37.8-25-44.1c-0.8-3.5,1.2-12.3,3.1-20.8
			c1.5-6.6,3-13.4,2.6-15.3c-0.7-2.8-5.6-6.8-10.5-10.8c-5.8-4.8-11.8-9.7-13-14.1c-1.3-5-0.2-36.5,0.6-57.4
			c0.3-7.5,0.5-13.4,0.5-15.5c0-0.5,0.4-0.9,0.9-0.9c0,0,0,0,0,0c0.5,0,0.9,0.4,0.9,0.9c0,2.1-0.2,8.1-0.5,15.6
			c-0.7,19.5-1.9,52.1-0.6,56.9c1,3.9,7.1,8.8,12.4,13.2c5.3,4.3,10.2,8.4,11,11.7c0.5,2.2-0.9,8.6-2.6,16c-1.8,7.9-3.8,16.9-3.1,20
			c1.4,6.2,20.5,39.3,24.5,43.3c0.3,0.3,0.3,0.9,0,1.2C359.8,455.4,359.6,455.5,359.4,455.5z"/>
	</g>
	<g>
		<path class="st8" d="M289.6,440.7c0,0-0.1,0-0.1,0c-0.5-0.1-0.8-0.5-0.7-1c0.6-4.5,10.5-93.5,10.9-100.3c0-0.5,0.4-0.8,0.9-0.8
			c0.5,0,0.8,0.4,0.8,0.9c-0.5,6.8-10.3,95.9-11,100.4C290.4,440.4,290,440.7,289.6,440.7z"/>
	</g>
	<g>
		<path class="st8" d="M360.3,464.9c-0.1,0-0.2,0-0.3-0.1c-2.2-0.9-11.8-4.1-24.1-8.3c-24.7-8.3-58.4-19.7-64.9-23
			c-0.4-0.2-0.6-0.7-0.4-1.2c0.2-0.4,0.7-0.6,1.2-0.4c6.3,3.3,41.4,15.1,64.6,22.9c12.2,4.1,21.9,7.4,24.2,8.3
			c0.4,0.2,0.7,0.7,0.5,1.1C361,464.7,360.6,464.9,360.3,464.9z"/>
	</g>
	<g>
		<path class="st8" d="M348.4,500.3c-21.7,0-63.8-3.9-95.8-15.2c-0.4-0.2-0.7-0.6-0.5-1.1c0.2-0.4,0.7-0.7,1.1-0.5
			c40.4,14.3,96.9,16.7,107.4,14.4c0.5-0.1,0.9,0.2,1,0.7c0.1,0.5-0.2,0.9-0.7,1C358.7,500,354.3,500.3,348.4,500.3z"/>
	</g>
</g>
<g>
	<g>
		<g>
			<path class="st12" d="M100,286.9c6.7,5.9,15.3,9.7,21.2,16.6c2.3,2.7,4.4,5.6,6.6,8.4c1.6,2.1,5.8,5.5,6.4,8.1
				c0.3,1.1,0.2-0.4-0.1-1.5c0,0,0-0.1-0.1-0.1c-0.6-5.2-1-10.5-1.2-15.8c-0.2-5.3,0.1-10.5-0.2-15.8c-0.5-7.4-2.8-14.6-8.8-19.2
				c-3-2.3-6.8-3.6-9.5-6.2c-2.6-2.4-1.5-5.1,0-7.8c1.4-2.5,3.1-4.9,3.7-7.8c0.6-3.3-0.6-6.6-2.3-9.4c-3.5-5.9-11.3-12.5-18.7-11.6
				c-6.2,0.7-6.9,7.8-6.8,12.8c0.1,4.8,0.6,9.6,0.6,14.4c0,5-0.8,9.8-0.9,14.7C89.9,275.1,93.8,281.5,100,286.9z"/>
			<path class="st12" d="M162.6,363.8c1.9-4.5,4-8.7,6.7-12.7c3.6-5.6,7.7-11,10.1-17.3c2.5-6.4,2.1-13.2,2.4-19.9
				c0.2-4.9,1.6-9.9,1.3-14.8c-0.2-2.4-1.6-6.2-4.6-5.8c-2.4,0.3-3.8,3.3-4.7,5.2c-1.6,3.3-2.7,6.8-3.9,10.3c-0.5,1.4-0.9,2.7-1.5,4
				c-0.3,0.8-1.4,2.6-2.5,2.4c-1.7-0.4-0.2-7.6,0.1-8.8c1.3-6.3,3.3-12.2,3.5-18.8c0.4-9.5-0.3-20.7-9.6-25.9
				c-2.4-1.4-5.5-2.2-7.8-0.1c-2.3,2-2.9,5.5-3.2,8.3c-1,8.7,1,17,3.8,25.2c2.3,6.8,5.1,13.8,5.3,21.1c0.2,7-3.4,13.2-5.1,19.8
				c-2.7,10.5-2.2,16.1-2.2,19.5c0,4.3,0.1,8.5,0.4,12.7c0.3,3.9,0.6,7.8,1.1,11.7c0.1,0.8,0.2,1.6,0.3,2.4c-1.5-3.6-2-7.8-3.3-11.4
				c-2.2-6.5-4.8-12.8-6.9-19.3c-1.8-5.4-3.4-10.8-5.7-15.9c-2.2-4.8-4.8-10-8.8-13.5c-2.4-2.1-5.4-3.4-8.7-3.4c-2.1,0-4,0.7-6,1.3
				c-2.5,0.7-4.4,0.4-6.4-1.1c-6.6-5.1-8.6-14.2-13.6-20.7c-3.7-4.8-12.4-13-18.7-7.8c-3.4,2.8-4.3,8.2-4.1,12.3
				c0.2,5.2,2.5,9.9,5.2,14.2c2.9,4.6,6.6,8.7,9.2,13.5c1.6,2.8,1.8,5.5,1.6,8.6c-0.2,3-0.5,5.8,0.5,8.7c3,8.6,12.5,7.4,19.9,7.6
				c5.2,0.2,10.7,0.9,15.6,2.6c5.7,1.9,9.4,5.6,11.4,11.2c1.5,4.1,2.3,8.7,5,12.1c1.3,1.6,3,2.8,4.9,3.7c2.9,1.3,11.7,1.8,11.7,1
				c0.2-2.7,1.5-5.5,2.3-8.1C158.9,373.1,160.6,368.5,162.6,363.8z"/>
			<path class="st12" d="M203.4,362.2c-0.8-4.9-0.6-10.3-2.9-14.9c-0.2-0.3-0.6-0.4-0.9-0.2c-1.7,0.9-1.7,3.6-1.9,5.3
				c-0.2,2.7-0.1,5.5-0.4,8.2c-0.6,4.8-1.7,9.8-3.4,14.3c-2,5.1-5.5,8-10.7,9.6c-3.3,1-6.6,1.9-9.4,4.1c-2.5,2-4.2,4.7-5.5,7.6
				c-3.5,7.7-5.1,16.4-6.7,24.7c-1.1,5.6-2,11.2-3.3,16.7c-1.4,5.5-2.8,11-3.6,16.6c-0.1,0.3-0.3,0.6-0.4,0.9
				c-0.4,0.8,1,1.3,1.4,0.6c5.3-8.2,11.8-15.6,20.7-20.1c4-2,9.3-2.5,12.7-5.7c2.5-2.4,2.9-6.2,2.5-9.5c-0.5-4.4-2.6-8-4.8-11.7
				c-1.2-2-2.6-4.2-2.1-6.7c0.5-2.3,2.4-4.1,4.3-5.3c3.7-2.3,8-3.3,11-6.6c2.8-3.1,4.4-6.9,4.7-11
				C205.1,373.6,204.2,367.7,203.4,362.2z"/>
			<path class="st12" d="M130.6,390.6c-4.7-6.1-10.4-11.3-16.8-15.5c-3.4-2.3-11.5-6.7-13.1-0.1c-1,3.9,2.9,7.8,5.4,10.2
				c3.8,3.7,8.2,6.9,11.4,11.1c-4,1.3-8.1,1.5-11.5,4.3c-4.1,3.2-5.9,9.5-1.9,13.5c2,1.9,4.6,3.1,7,4.3c3.2,1.5,6.4,2.9,9.7,4.3
				c7.1,2.9,14.2,5.9,20.2,10.8c6.1,4.9,11.9,13.2,12.4,21.3c0,0.8-0.2,0.1,0.2-0.3c0.2,0.2,1.1-0.2,1.1-0.6
				c-0.1-11.9-2.3-23.3-7.1-34.2C143.1,409.5,137.4,399.4,130.6,390.6z"/>
		</g>
		<g>
			<path class="st13" d="M114.3,279.7c2.6,5.4,5.3,10.7,8.2,15.9c2.8,5.1,5.6,10.1,7.6,15.5c2.6,6.7,5.2,13.2,7.9,19.8
				c2.8,6.9,5.3,13.8,7.3,21c3.9,13.9,6.9,28.2,8.3,42.6c0.7,7.3,1.1,14.7,0.9,22c-0.2,5.7-0.8,11.4-1.3,17.1
				c-0.6,5.9-1,12-0.5,17.9c0.4,5,1.2,10.9,5.1,14.5c0.8,0.7,1.8-0.2,1.4-1.1c-4.6-9.4-4.3-19.7-3.5-30c0.5-5.6,1.2-11.3,1.3-16.9
				c0.2-7.2,0-14.4-0.7-21.6c-1.3-14.1-4.1-28.1-7.8-41.8c-1.9-7-4.2-13.9-6.9-20.7c-2.7-6.8-5.8-13.4-8.4-20.2
				c-4.7-12.3-11.8-23.2-18.2-34.7C114.9,278.6,114,279.1,114.3,279.7L114.3,279.7z"/>
		</g>
		<g>
			<path class="st13" d="M153.9,380.4c0.7-9,1.5-17.6,4.6-26.2c1.4-4,3.1-7.9,4.5-11.9c1.1-3.3,2.8-7.8,1.9-11.4
				c-0.1-0.4-0.7-0.4-0.8,0c-0.6,2-0.5,4.2-0.9,6.3c-0.4,2-0.9,4-1.6,5.9c-1.3,4.1-3.1,8.1-4.6,12.2c-2.9,7.9-4.4,16.6-3.8,25
				C153.3,380.8,153.9,380.8,153.9,380.4L153.9,380.4z"/>
		</g>
		<g>
			<path class="st13" d="M102,328.8c3.6,8.6,14.3,9.1,22,11c5.6,1.4,9.7,5.1,12.6,9.9c3.2,5.3,5.4,11.5,7.2,17.3c0,0.1,0.1,0,0.1,0
				c-2.2-10.3-5.3-22.7-15.9-27.5c-8.5-3.8-19.7-1.9-25.2-11.1C102.6,328,101.8,328.3,102,328.8L102,328.8z"/>
		</g>
		<g>
			<path class="st13" d="M148.3,379c0.4,0.6,0.8,1.2,1.2,1.7c0.2,0.3,0.4,0.5,0.7,0.8c0.3,0.2,0.6,0.5,1,0.5c0.2,0,0.3-0.2,0.2-0.3
				c-0.2-0.3-0.5-0.5-0.7-0.7c-0.3-0.2-0.5-0.4-0.8-0.7c-0.5-0.5-1-1-1.4-1.5C148.4,378.8,148.2,378.9,148.3,379L148.3,379z"/>
		</g>
		<g>
			<path class="st13" d="M126,406.3c6.1,5,11.8,11,16.3,17.5c2.2,3.1,4.1,6.4,5.9,9.8c2,3.6,3.3,7.5,4.8,11.3
				c0.1,0.3,0.6,0.3,0.6-0.1c-0.9-8.1-6-15-10.1-21.7c-2.1-3.5-4.8-6.3-7.6-9.2c-2.9-3-5.9-5.9-9.4-8.3
				C126.2,405.3,125.6,406,126,406.3L126,406.3z"/>
		</g>
		<g>
			<path class="st13" d="M174.9,396.8c-3,1.7-3.1,6.3-3.1,9.3c-0.1,5.7,1.3,11.1-1.2,16.6c-2.3,4.9-5.9,9-8.8,13.6
				c-2.7,4.3-5.3,9.8-5.2,14.9c0,0.3,0.5,0.5,0.6,0.2c1.1-2.3,1.5-5,2.2-7.5c0.9-2.8,2.1-5.3,3.6-7.7c2.7-4.3,6.1-8.1,8.3-12.7
				c2.3-4.8,2-9.6,1.8-14.8c-0.1-3.3-0.4-8.7,2.3-11.2C175.9,397.2,175.4,396.5,174.9,396.8L174.9,396.8z"/>
		</g>
	</g>
	<path class="st14" d="M155.2,451.8c-11.9-0.2-34.6-0.3-34.6-0.3l5.6,41.7c1.3,9.4,9.3,16.4,18.7,16.4h9.8h0.9h9.8
		c9.5,0,17.5-7,18.7-16.4l5.6-41.7C189.8,451.5,167.1,451.6,155.2,451.8z"/>
</g>
<g>
	<g>
		<g>
			<polygon class="st15" points="730.8,375.2 662.9,509.7 464.8,511.2 525.9,373.3 			"/>
		</g>
		<g>
			<path class="st16" d="M333.3,510.3l0-10.8h128.2l59-129.4h205.1l5.2,5H530.5l-61.3,135.1C469.2,510.2,333.3,510,333.3,510.3z"/>
		</g>
		<g>
			<path class="st16" d="M628,449.4c-2.2,6.7-14.4,11.9-27.1,11.6c-12.7-0.3-21.3-6-19-12.7c2.2-6.7,14.4-11.9,27.1-11.6
				C621.7,437,630.2,442.7,628,449.4z"/>
		</g>
	</g>
	<g>
		<path class="st5" d="M469.2,511.1c-0.1,0-0.2,0-0.4-0.1c-0.4-0.2-0.6-0.7-0.4-1.1l61.5-135.6h200.9c0.5,0,0.9,0.4,0.9,0.9
			c0,0.5-0.4,0.9-0.9,0.9H531L470,510.6C469.8,510.9,469.5,511.1,469.2,511.1z"/>
	</g>
</g>
<g>
	<g>
		<rect x="88.8" y="520.5" class="st17" width="235.6" height="52.2"/>
		<rect x="323" y="520.5" class="st18" width="424" height="52.2"/>
	</g>
	<polygon class="st19" points="324.4,520.5 323,520.5 88.8,520.5 88.8,530.1 323,530.1 324.4,530.1 747,530.1 747,520.5 	"/>
	<rect x="77.4" y="510.2" class="st20" width="257.3" height="12.8"/>
	<rect x="333.4" y="510.2" class="st21" width="424" height="12.8"/>
</g>
<g>
	<path class="st5" d="M268.8,236.1h-91c-3,0-5.4-2.4-5.4-5.4v-49.3c0-3,2.4-5.4,5.4-5.4h91c3,0,5.4,2.4,5.4,5.4v49.3
		C274.2,233.7,271.8,236.1,268.8,236.1z"/>
	<polygon class="st5" points="297.9,206 266.7,192.8 266.7,219.2 	"/>
	<rect x="181.9" y="184.7" class="st22" width="152.3" height="65.8"/>
	<text transform="matrix(1 0 0 1 181.8947 218.5528)" class="st6 st23 st24">ሰላም </text>
</g>
<g>
	<path class="st3" d="M688.4,48.2h-192c-12.3,0-22.3,10-22.3,22.3v91.1c0,12.3,10,22.3,22.3,22.3h17.2c0.5,8.3-0.7,20.5-7.6,36.3
		c22.2-10.2,35-25.6,41.6-36.3h140.8c12.3,0,22.3-10,22.3-22.3V70.5C710.7,58.2,700.7,48.2,688.4,48.2z"/>
	<path class="st5" d="M606.5,91.6h-95.3c-2.6,0-4.7-2.1-4.7-4.7l0,0c0-2.6,2.1-4.7,4.7-4.7h95.3c2.6,0,4.7,2.1,4.7,4.7l0,0
		C611.2,89.5,609.1,91.6,606.5,91.6z"/>
	<path class="st5" d="M673.5,91.6H628c-2.6,0-4.7-2.1-4.7-4.7l0,0c0-2.6,2.1-4.7,4.7-4.7h45.4c2.6,0,4.7,2.1,4.7,4.7l0,0
		C678.2,89.5,676.1,91.6,673.5,91.6z"/>
</g>
<g>
	<path class="st5" d="M560.4,301.1h-54.5c-1.1,0-2-0.9-2-2V261c0-1.1,0.9-2,2-2h54.5c1.1,0,2,0.9,2,2v38.1
		C562.4,300.2,561.5,301.1,560.4,301.1z"/>
	<g>
		<g>
			<path class="st20" d="M533.5,286.4c-0.3,0-0.6-0.1-0.8-0.3l-28.1-23.2c-0.5-0.5-0.6-1.3-0.2-1.8c0.5-0.5,1.3-0.6,1.8-0.2
				l27.2,22.5l26.5-23.1c0.5-0.5,1.4-0.4,1.8,0.1c0.5,0.5,0.4,1.4-0.1,1.8L534.4,286C534.1,286.2,533.8,286.4,533.5,286.4z"/>
		</g>
		<g>
			<path class="st20" d="M505.4,300.2c-0.3,0-0.6-0.1-0.9-0.4c-0.5-0.5-0.5-1.3,0-1.8l19.6-20.6c0.5-0.5,1.3-0.5,1.8,0
				c0.5,0.5,0.5,1.3,0,1.8l-19.6,20.6C506.1,300,505.8,300.2,505.4,300.2z"/>
		</g>
		<g>
			<path class="st20" d="M560.9,299.4c-0.3,0-0.7-0.1-0.9-0.4l-19.6-19.6c-0.5-0.5-0.5-1.3,0-1.8c0.5-0.5,1.3-0.5,1.8,0l19.6,19.6
				c0.5,0.5,0.5,1.3,0,1.8C561.5,299.3,561.2,299.4,560.9,299.4z"/>
		</g>
	</g>
	<g>
		<g>
			<circle class="st25" cx="565.1" cy="257.7" r="17.2"/>
		</g>
		<text transform="matrix(1 0 0 1 552.9587 264.9703)" class="st5 st26 st27">85</text>
	</g>
</g>
<g>
	<g>
		<path class="st4" d="M741.1,251.3H634.6c-2.2,0-4-1.8-4-4v-21.5c0-2.2,1.8-4,4-4h106.4c2.2,0,4,1.8,4,4v21.5
			C745.1,249.6,743.3,251.3,741.1,251.3z"/>
	</g>
	<g>
		<path class="st5" d="M644.8,244.3c-0.5,0-0.8-0.2-1.1-0.5c-0.3-0.3-0.4-0.7-0.4-1.2l0.4-3.8c0-0.1,0-0.2,0-0.2c-0.1,0-0.1,0-0.2,0
			l-3.1,2.3c-0.4,0.3-0.8,0.4-1.2,0.3c-0.4-0.1-0.8-0.3-1-0.7c-0.3-0.5-0.3-1-0.2-1.4c0.2-0.4,0.5-0.7,0.9-0.8l3.5-1.6
			c0.1,0,0.1-0.1,0.1-0.1c0-0.1,0-0.1-0.1-0.1l-3.5-1.6c-0.5-0.2-0.7-0.5-0.9-0.9c-0.1-0.4-0.1-0.8,0.1-1.3c0.3-0.4,0.6-0.7,1-0.7
			c0.4-0.1,0.8,0,1.2,0.3l3.1,2.3c0.1,0.1,0.2,0.1,0.2,0c0.1,0,0.1-0.1,0-0.2l-0.4-3.8c0-0.5,0.1-0.9,0.4-1.2
			c0.3-0.3,0.7-0.5,1.2-0.5c0.5,0,0.8,0.2,1.1,0.5c0.3,0.3,0.4,0.7,0.3,1.2l-0.4,3.8c0,0.1,0,0.2,0,0.2c0.1,0,0.1,0,0.2,0l3.1-2.3
			c0.4-0.3,0.8-0.4,1.2-0.3c0.4,0.1,0.8,0.3,1,0.7c0.3,0.5,0.3,1,0.2,1.4c-0.2,0.4-0.5,0.7-0.9,0.8l-3.5,1.6c-0.1,0-0.1,0.1-0.1,0.1
			c0,0.1,0,0.1,0.1,0.1l3.5,1.6c0.5,0.2,0.8,0.5,0.9,0.9c0.1,0.4,0.1,0.8-0.2,1.3c-0.2,0.4-0.6,0.7-1,0.7c-0.4,0.1-0.8,0-1.2-0.3
			l-3.1-2.3c-0.1-0.1-0.2-0.1-0.2,0c-0.1,0-0.1,0.1,0,0.2l0.4,3.8c0.1,0.5-0.1,0.9-0.4,1.2C645.7,244.2,645.3,244.3,644.8,244.3z"/>
	</g>
	<g>
		<path class="st5" d="M665.6,244.3c-0.5,0-0.8-0.2-1.1-0.5c-0.3-0.3-0.4-0.7-0.4-1.2l0.4-3.8c0-0.1,0-0.2,0-0.2c-0.1,0-0.1,0-0.2,0
			l-3.1,2.3c-0.4,0.3-0.8,0.4-1.2,0.3c-0.4-0.1-0.8-0.3-1-0.7c-0.3-0.5-0.3-1-0.2-1.4c0.2-0.4,0.5-0.7,0.9-0.8l3.5-1.6
			c0.1,0,0.1-0.1,0.1-0.1c0-0.1,0-0.1-0.1-0.1l-3.5-1.6c-0.5-0.2-0.7-0.5-0.9-0.9c-0.1-0.4-0.1-0.8,0.1-1.3c0.3-0.4,0.6-0.7,1-0.7
			c0.4-0.1,0.8,0,1.2,0.3l3.1,2.3c0.1,0.1,0.2,0.1,0.2,0c0.1,0,0.1-0.1,0-0.2l-0.4-3.8c0-0.5,0.1-0.9,0.4-1.2
			c0.3-0.3,0.7-0.5,1.2-0.5c0.5,0,0.8,0.2,1.1,0.5c0.3,0.3,0.4,0.7,0.3,1.2l-0.4,3.8c0,0.1,0,0.2,0,0.2c0.1,0,0.1,0,0.2,0l3.1-2.3
			c0.4-0.3,0.8-0.4,1.2-0.3c0.4,0.1,0.8,0.3,1,0.7c0.3,0.5,0.3,1,0.2,1.4c-0.2,0.4-0.5,0.7-0.9,0.8l-3.5,1.6c-0.1,0-0.1,0.1-0.1,0.1
			c0,0.1,0,0.1,0.1,0.1l3.5,1.6c0.5,0.2,0.8,0.5,0.9,0.9c0.1,0.4,0.1,0.8-0.2,1.3c-0.2,0.4-0.6,0.7-1,0.7c-0.4,0.1-0.8,0-1.2-0.3
			l-3.1-2.3c-0.1-0.1-0.2-0.1-0.2,0c-0.1,0-0.1,0.1,0,0.2l0.4,3.8c0.1,0.5-0.1,0.9-0.4,1.2C666.5,244.2,666.1,244.3,665.6,244.3z"/>
	</g>
	<g>
		<path class="st5" d="M686.4,244.3c-0.5,0-0.8-0.2-1.1-0.5c-0.3-0.3-0.4-0.7-0.4-1.2l0.4-3.8c0-0.1,0-0.2,0-0.2c-0.1,0-0.1,0-0.2,0
			L682,241c-0.4,0.3-0.8,0.4-1.2,0.3c-0.4-0.1-0.8-0.3-1-0.7c-0.3-0.5-0.3-1-0.2-1.4c0.2-0.4,0.5-0.7,0.9-0.8l3.5-1.6
			c0.1,0,0.1-0.1,0.1-0.1c0-0.1,0-0.1-0.1-0.1l-3.5-1.6c-0.5-0.2-0.7-0.5-0.9-0.9c-0.1-0.4-0.1-0.8,0.1-1.3c0.3-0.4,0.6-0.7,1-0.7
			c0.4-0.1,0.8,0,1.2,0.3l3.1,2.3c0.1,0.1,0.2,0.1,0.2,0c0.1,0,0.1-0.1,0-0.2l-0.4-3.8c0-0.5,0.1-0.9,0.4-1.2
			c0.3-0.3,0.7-0.5,1.2-0.5c0.5,0,0.8,0.2,1.1,0.5c0.3,0.3,0.4,0.7,0.3,1.2l-0.4,3.8c0,0.1,0,0.2,0,0.2c0.1,0,0.1,0,0.2,0l3.1-2.3
			c0.4-0.3,0.8-0.4,1.2-0.3c0.4,0.1,0.8,0.3,1,0.7c0.3,0.5,0.3,1,0.2,1.4c-0.2,0.4-0.5,0.7-0.9,0.8l-3.5,1.6c-0.1,0-0.1,0.1-0.1,0.1
			c0,0.1,0,0.1,0.1,0.1l3.5,1.6c0.5,0.2,0.8,0.5,0.9,0.9c0.1,0.4,0.1,0.8-0.2,1.3c-0.2,0.4-0.6,0.7-1,0.7c-0.4,0.1-0.8,0-1.2-0.3
			l-3.1-2.3c-0.1-0.1-0.2-0.1-0.2,0c-0.1,0-0.1,0.1,0,0.2l0.4,3.8c0.1,0.5-0.1,0.9-0.4,1.2C687.3,244.2,686.9,244.3,686.4,244.3z"/>
	</g>
	<g>
		<path class="st5" d="M707.3,244.3c-0.5,0-0.8-0.2-1.1-0.5c-0.3-0.3-0.4-0.7-0.4-1.2l0.4-3.8c0-0.1,0-0.2,0-0.2c-0.1,0-0.1,0-0.2,0
			l-3.1,2.3c-0.4,0.3-0.8,0.4-1.2,0.3c-0.4-0.1-0.8-0.3-1-0.7c-0.3-0.5-0.3-1-0.2-1.4c0.2-0.4,0.5-0.7,0.9-0.8l3.5-1.6
			c0.1,0,0.1-0.1,0.1-0.1c0-0.1,0-0.1-0.1-0.1l-3.5-1.6c-0.5-0.2-0.7-0.5-0.9-0.9c-0.1-0.4-0.1-0.8,0.1-1.3c0.3-0.4,0.6-0.7,1-0.7
			c0.4-0.1,0.8,0,1.2,0.3l3.1,2.3c0.1,0.1,0.2,0.1,0.2,0c0.1,0,0.1-0.1,0-0.2l-0.4-3.8c0-0.5,0.1-0.9,0.4-1.2
			c0.3-0.3,0.7-0.5,1.2-0.5c0.5,0,0.8,0.2,1.1,0.5c0.3,0.3,0.4,0.7,0.3,1.2l-0.4,3.8c0,0.1,0,0.2,0,0.2c0.1,0,0.1,0,0.2,0l3.1-2.3
			c0.4-0.3,0.8-0.4,1.2-0.3c0.4,0.1,0.8,0.3,1,0.7c0.3,0.5,0.3,1,0.2,1.4c-0.2,0.4-0.5,0.7-0.9,0.8l-3.5,1.6c-0.1,0-0.1,0.1-0.1,0.1
			c0,0.1,0,0.1,0.1,0.1l3.5,1.6c0.5,0.2,0.8,0.5,0.9,0.9c0.1,0.4,0.1,0.8-0.2,1.3c-0.2,0.4-0.6,0.7-1,0.7c-0.4,0.1-0.8,0-1.2-0.3
			l-3.1-2.3c-0.1-0.1-0.2-0.1-0.2,0c-0.1,0-0.1,0.1,0,0.2l0.4,3.8c0.1,0.5-0.1,0.9-0.4,1.2C708.1,244.2,707.7,244.3,707.3,244.3z"/>
	</g>
	<g>
		<path class="st28" d="M728.1,244.3c-0.5,0-0.8-0.2-1.1-0.5c-0.3-0.3-0.4-0.7-0.4-1.2l0.4-3.8c0-0.1,0-0.2,0-0.2
			c-0.1,0-0.1,0-0.2,0l-3.1,2.3c-0.4,0.3-0.8,0.4-1.2,0.3c-0.4-0.1-0.8-0.3-1-0.7c-0.3-0.5-0.3-1-0.2-1.4c0.2-0.4,0.5-0.7,0.9-0.8
			l3.5-1.6c0.1,0,0.1-0.1,0.1-0.1c0-0.1,0-0.1-0.1-0.1l-3.5-1.6c-0.5-0.2-0.7-0.5-0.9-0.9c-0.1-0.4-0.1-0.8,0.1-1.3
			c0.3-0.4,0.6-0.7,1-0.7c0.4-0.1,0.8,0,1.2,0.3l3.1,2.3c0.1,0.1,0.2,0.1,0.2,0c0.1,0,0.1-0.1,0-0.2l-0.4-3.8c0-0.5,0.1-0.9,0.4-1.2
			c0.3-0.3,0.7-0.5,1.2-0.5c0.5,0,0.8,0.2,1.1,0.5c0.3,0.3,0.4,0.7,0.3,1.2l-0.4,3.8c0,0.1,0,0.2,0,0.2c0.1,0,0.1,0,0.2,0l3.1-2.3
			c0.4-0.3,0.8-0.4,1.2-0.3c0.4,0.1,0.8,0.3,1,0.7c0.3,0.5,0.3,1,0.2,1.4c-0.2,0.4-0.5,0.7-0.9,0.8l-3.5,1.6c-0.1,0-0.1,0.1-0.1,0.1
			c0,0.1,0,0.1,0.1,0.1l3.5,1.6c0.5,0.2,0.8,0.5,0.9,0.9c0.1,0.4,0.1,0.8-0.2,1.3c-0.2,0.4-0.6,0.7-1,0.7c-0.4,0.1-0.8,0-1.2-0.3
			l-3.1-2.3c-0.1-0.1-0.2-0.1-0.2,0c-0.1,0-0.1,0.1,0,0.2l0.4,3.8c0.1,0.5-0.1,0.9-0.4,1.2C729,244.2,728.6,244.3,728.1,244.3z"/>
	</g>
</g>
<rect x="486.5" y="98.9" class="st22" width="209.6" height="84.1"/>
<text transform="matrix(1 0 0 1 486.5231 115.3873)"><tspan x="0" y="0" class="st29 st30 st31">Hey this is </tspan><tspan x="102.4" y="0" class="st30 st31">luxm .com</tspan></text>
</svg>
