<?xml version="1.0" encoding="utf-8"?>
<!-- Generator: Adobe Illustrator 24.0.1, SVG Export Plug-In . SVG Version: 6.00 Build 0)  -->
<svg version="1.1" id="Layer_1" xmlns="http://www.w3.org/2000/svg" xmlns:xlink="http://www.w3.org/1999/xlink" x="0px" y="0px"
	 viewBox="0 0 785 589" style="enable-background:new 0 0 785 589;" xml:space="preserve">
<style type="text/css">
	.st0{fill:#D9EDFF;}
	.st1{fill:#0084FF;}
	.st2{fill:#FF9D8A;}
	.st3{fill:#FFFFFF;}
	.st4{fill:#04377D;}
	.st5{fill:#7591B7;}
	.st6{fill:#7F99BD;}
	.st7{fill:#D9E1EB;}
	.st8{fill:#708DB5;}
	.st9{fill:#F5F7FA;}
	.st10{fill:#D4DDE9;}
	.st11{fill:#43699D;}
	.st12{fill:#6987B1;}
	.st13{fill:#B4C3D8;}
	.st14{fill:#5C7DAA;}
	.st15{fill:#8EA5C4;}
	.st16{fill:#4CA9FF;}
	.st17{fill:#FF5E3F;}
	.st18{font-family:'ArialMT';}
	.st19{font-size:20.6145px;}
	.st20{fill:none;}
	.st21{fill:#F8FBFF;}
	.st22{font-size:23.2374px;}
</style>
<path class="st0" d="M236,541.5c-4.1-4.3-63.7-123.7,2.7-233.2s233.2-96.7,299.7-54s99,98.1,105.8,156.4s-38,149.3-38,149.3
	L236,541.5z"/>
<g>
	<path class="st1" d="M213.8,522.3v-128c0,0-1.4-34.5,16.7-44.4s94.5-4.6,94.5-4.6v177H213.8z"/>
</g>
<g>
	<g>
		<path class="st2" d="M348.9,225.5c0,0-4.6,38.7-6.4,41.9c-1.8,3.2-1.8,3.2-1.8,3.2l-8.9,6c0,0,17.1,24.2,38,28.1
			c21,3.9,19.2-8.5,19.2-8.5l-3.2-6.8l4.3-37C390.1,252.5,352.1,235.1,348.9,225.5z"/>
	</g>
	<path class="st3" d="M320.8,279.9l13.9-6c0,0,8.9,14.6,29.5,23.1s21,3.6,22,0c1.1-3.6-0.4-7.5-0.4-7.5l1.5-12.4l8.2,2.7l28.6,231.5
		l-73.6,3.6L320.8,279.9z"/>
	<g>
		<path class="st4" d="M388.7,277.3c0,0,5,11.5,9.6,38.5s8.9,72.5,10,103.8s1.8,102.7,1.8,102.7s91.7,0,92.8,0s7.5-35.2,7.5-35.2
			s-40.5-34.7-42.7-40.4c-1.4-3.8-0.7-74-6.8-106.4c-6-32.3-13.9-38.9-30.2-46.9C413.8,285.1,388.7,277.3,388.7,277.3z"/>
	</g>
	<g>
		<path class="st5" d="M437.1,481.6c-0.5,0-0.9-0.4-0.9-0.9c0-2.5-0.5-38.6-0.9-73.6c-0.4-34.9-0.9-71-0.9-73.6
			c0-0.5,0.4-0.9,0.9-0.9s0.9,0.4,0.9,0.9c0,2.5,0.5,38.6,0.9,73.6c0.4,34.9,0.9,71,0.9,73.6C437.9,481.2,437.5,481.6,437.1,481.6z"
			/>
	</g>
	<g>
		<path class="st4" d="M252.2,472.9l-0.7,49.4h108c0,0,4.6-41.9,2.8-45.8C360.6,472.5,252.2,472.9,252.2,472.9z"/>
	</g>
	<g>
		<path class="st6" d="M372.5,266.4c4.4,3.5,10.4,6.4,15.1,8.1l2.5-22c0,0-28.6-13.1-38.3-22.8C353.9,240.8,358.9,255.4,372.5,266.4
			z"/>
	</g>
	<g>
		<path class="st2" d="M423.6,153.4c0,0,7.5,12.8,8.9,28.4s0,55.8-12.8,72.9s-39.5,12.1-51.5,1.8c-11.1-9.5-22-19.9-24.9-40.5
			c-2.8-20.6,6-59.7,31.3-67.9C399.7,139.9,423.6,153.4,423.6,153.4z"/>
	</g>
	<g>
		<g>
			<path class="st2" d="M455.6,500c0,0-1.3,0-3.2-0.1c-0.4,0-0.9,0-1.5,0c-1.8-0.1-4.1-0.1-6.3-0.2c-0.5,0-1,0-1.5-0.1
				c-2.2-0.1-4.1,0.2-5.9,0.1h-0.1c-0.4,0-0.9,0-1.4,0.1c-0.2,0-0.4,0-0.6,0c-1-0.2-1.2-0.4-2.4-0.9c-1.4-0.7-21-5-36.9-4.9
				s-30.1,1.2-32.4-0.8s-3.7-21.9,9.8-23.2l16.7,6.3c0,0,38.1-4.5,52,5.8C456.1,492.4,455.6,500,455.6,500z"/>
		</g>
		<g>
			<g>
				<path class="st4" d="M437.2,499.8c-0.4,0-0.9,0-1.4,0.1c-0.3-0.5-1.1-1.5-1.5-2c-4.3-4.4-14.7-7.2-18.4-8.1
					c-0.3-0.1-0.6-0.4-0.5-0.8c0.1-0.3,0.4-0.5,0.8-0.5c5.5,1.3,17.1,4.7,20.4,10.3C436.7,498.9,437,499.4,437.2,499.8z"/>
			</g>
		</g>
		<g>
			<g>
				<path class="st4" d="M444.7,499.7c-0.5,0-1,0-1.5-0.1c-4.7-8.6-12.4-11-21.8-14.1l-0.6-0.2c-0.3-0.1-0.5-0.5-0.4-0.8
					s0.5-0.5,0.8-0.4l0.5,0.2C431.7,487.6,439.8,490.2,444.7,499.7z"/>
			</g>
		</g>
		<g>
			<g>
				<path class="st4" d="M452.5,499.9c-0.4,0-0.9,0-1.5,0c-2.8-6-12.3-16-24.7-18.3c-0.4-0.1-0.6-0.4-0.5-0.8
					c0.1-0.3,0.4-0.6,0.8-0.5C439.3,482.7,449.7,493.2,452.5,499.9z"/>
			</g>
		</g>
	</g>
	<g>
		<path class="st4" d="M351.8,198.3c0,0,7.8-3.7,13.3-14.2s4.8-19.9,4.8-19.9s10-1.6,24.9,2.8c14.9,4.4,32.7,10.5,47.6,2
			s14.9-22.2,7.6-27.9c-8.2-6.4-24.3-2.5-24.3-2.5s6.2-6,2.8-9.6c-3.4-3.6-15.6,1.1-15.6,1.1s-14.9-11.9-43.2-10.5
			c-28.3,1.4-41.8,21.1-43.4,43.2c-1.6,22,6.4,44.1,6.4,44.1L351.8,198.3z"/>
	</g>
	<g>
		<g>
			<path class="st6" d="M409.1,203.7c-1.6,3.9-1.6,8.5-2,12.7c-0.3,3.3-0.9,7.1,2.1,9.3c1.4,1.1,8.2,3.9,4.7,6.2
				c-1.3,0.9-3.5,0.6-5,0.6c-1,0-2.1-0.1-3.1-0.2c-1.1-0.1-2.2-0.4-3.3-0.4c-0.7,0-0.9,0.9-0.3,1.2c1.8,1.1,4.4,1.5,6.5,1.6
				s3.5,0,5.4-0.9c1.2-0.6,2.3-1.4,2.5-2.8c0.2-1.6-1-2.9-2.1-3.8c-1.3-1-3-1.5-4.3-2.4c-1.9-1.3-1.7-3.6-1.6-5.7
				c0.3-5.1,1.5-10,1.9-15C410.4,203.1,409.3,203.1,409.1,203.7L409.1,203.7z"/>
		</g>
	</g>
	<g>
		<path class="st4" d="M423.6,215.5c-0.5,3-2.7,5.1-4.9,4.7c-2.2-0.4-3.5-3.1-2.9-6.1c0.5-3,2.7-5.1,4.9-4.7
			C422.8,209.8,424.1,212.5,423.6,215.5z"/>
	</g>
	<g>
		<path class="st4" d="M396.4,213.1c-0.5,3.2-2.8,5.6-5.1,5.2c-2.3-0.3-3.8-3.2-3.3-6.5c0.5-3.2,2.8-5.6,5.1-5.2
			S396.9,209.9,396.4,213.1z"/>
	</g>
	<g>
		<g>
			<path class="st4" d="M417.3,203.1c1.7,0.3,3.3,0,5,0.1c0.4,0,0.8,0.1,1.2,0.1c0.3,0-0.5-0.1-0.1,0c0.1,0,0.2,0,0.3,0
				c0.2,0,0.4,0.1,0.6,0.1c0.4,0.1,0.7,0.2,1.1,0.3c0.3,0.1,0.7,0.1,1,0.1c0.2,0,0.4,0,0.5-0.1c-0.1,0-0.2,0-0.3,0.1
				c0,0,0.6-0.1,0.7-0.1c1-0.2,1.5-1.3,1.3-2.2c-0.1-0.3-0.2-0.5-0.4-0.7c-0.1-0.1-0.1-0.2-0.2-0.3c0.1,0.1,0.1,0.2,0.2,0.2
				c-0.1-0.1-0.1-0.2-0.2-0.3c-0.1-0.2-0.2-0.3-0.4-0.4c-0.1-0.1-0.3-0.2-0.4-0.3c-0.4-0.3-1-0.5-1.5-0.6c-1-0.3-2-0.4-3.1-0.4
				c-1,0-2,0.1-3,0.2c-0.9,0.1-1.9,0.4-2.6,1c-0.6,0.4-0.9,0.9-0.8,1.7C416.2,202.4,416.6,203,417.3,203.1L417.3,203.1z"/>
		</g>
	</g>
	<g>
		<g>
			<path class="st4" d="M398.3,198.4c-0.2-0.1-0.5-0.3-0.7-0.4c-0.2-0.1-0.8-0.4-0.3-0.2c-0.2-0.1-0.3-0.2-0.5-0.2
				c-0.7-0.3-1.4-0.6-2.1-0.8c-1.6-0.4-3.3-0.5-5-0.3c-1.8,0.2-3.4,0.6-4.9,1.5c-0.2,0.1-0.4,0.3-0.6,0.4c-0.1,0.2-0.2,0.3-0.4,0.5
				c0-0.1,0.1-0.1,0.1-0.2c-0.5,0.3-0.7,0.9-0.7,1.4c0,0.6,0.3,1,0.8,1.3c0.6,0.3,1.1,0.2,1.7,0c-0.3,0-0.6,0-0.9,0
				c0.5,0.1,0.8,0.1,1.3,0c0,0,0.5-0.1,0.2-0.1c-0.3,0.1,0.5-0.1,0.6-0.1s0.6-0.1,0.1,0c0.1,0,0.2,0,0.3,0c0.3,0,0.5-0.1,0.8-0.1
				c1.2-0.1,2.3-0.1,3.5-0.2c1.1,0,2.2,0,3.3,0c0.5,0,0.9,0,1.4,0c0.3,0,0.2,0,0,0c0.1,0,0.2,0,0.3,0.1c0.2,0.1,0.4,0.1,0.6,0.2
				c0.8,0.3,1.7-0.3,1.9-1C399.3,199.7,399,198.8,398.3,198.4L398.3,198.4z"/>
		</g>
	</g>
	<g>
		<path class="st4" d="M409.1,249.1c2.2-2.6,5.8-4.6,10-5.9c-3.5,0-20.1-0.1-24.4,1.7c-4.9,2,0.1,8.4,9.8,8.2c1,0,2-0.1,2.9-0.3
			C407.6,251.5,408.1,250.3,409.1,249.1z"/>
	</g>
	<g>
		<path class="st7" d="M341.8,228.7c0,0,1.4,5.5,9.6,11.9s20,11.1,20,11.1l0.9-4.1c0,0-12.3-5.3-17.9-11.2c-5.7-5.9-6.4-9.1-6.4-9.1
			L341.8,228.7z"/>
	</g>
	<g>
		<path class="st4" d="M373.8,244.5c6.6-0.3,10.3,4.9,10.7,8.3c0.5,3.4-2.7,7.1-10.1,3.8C365.2,252.5,367.2,244.8,373.8,244.5z"/>
	</g>
	<g>
		<path class="st7" d="M347,188c0,0,2.8-20.4,16.5-34.3c26.1-26.5,48.3-24.9,48.3-24.9s-0.2-3.7-8.5-6.6c-7.8-2.7-11.4-1.2-11.4-1.2
			s-21.5,1.8-39.6,21.9s-20.1,45.7-20.1,45.7L347,188z"/>
	</g>
	<g>
		<g>
			<path class="st3" d="M345,185.5c-17.1-2.9-26.7,10.5-27.4,24c-0.7,13.5,9.1,23.8,22.2,22.7C369.4,230,366,189.1,345,185.5z"/>
		</g>
		<g>
			<path class="st8" d="M336.5,219.2c-4.5,0-8.3-2.3-10.5-6.3c-2.3-4.3-2.1-9.6,0.5-13.4c0.2-0.3,0.6-0.4,0.9-0.2s0.4,0.6,0.2,0.9
				c-2.4,3.5-2.5,8.2-0.4,12.1c2,3.7,5.5,5.7,9.7,5.6c3.9-0.1,7.2-1.9,9.3-5c2.4-3.6,3-8.5,1.4-12.6c-1.5-4-5.8-6.8-9.6-6.3
				c-0.3,0-0.7-0.2-0.7-0.6c0-0.4,0.2-0.7,0.6-0.7c4.5-0.6,9.2,2.5,11,7.1c1.7,4.5,1.1,9.9-1.5,13.8c-2.3,3.5-6,5.5-10.4,5.6
				C336.7,219.2,336.6,219.2,336.5,219.2z"/>
		</g>
	</g>
	<g>
		<path class="st4" d="M324,274.9c0,0-51.9,12.8-70,33.4s-26.7,122.3-27,141.1c-0.4,18.8,12.8,26.7,20.6,32s42.3,14.9,70,16.3
			s54,0,54,0s-0.1-6,4.2-14.9c4-8.2,9-10,9-10l-23.8-8.5c0,0-4.2-74.7-10.7-110.9C342.9,311.9,324,274.9,324,274.9z"/>
	</g>
	<g>
		<path class="st5" d="M410.1,452.4c-0.1,0-0.2,0-0.3-0.1c-0.4-0.2-0.6-0.7-0.4-1.1c4.9-11,9.9-32.5,12.7-47.6l0.2-1.2
			c0.9-4.4,1.9-10-0.2-13.8c-1.1-1.9-3.5-6.2-5.9-10.2c-2.5-4.2-4.8-8.2-5.4-9.4c-1.3-2.3,2.7-8.5,8.4-17c1.5-2.3,2.9-4.3,3.6-5.6
			c2-3.5,0.7-6.7-0.9-10.5l-0.5-1.3c-1.4-3.5-3-7-4.6-10.4c-0.6-1.4-1.3-2.8-1.9-4.2c-0.8-1.8-1.7-3.7-2.5-5.6
			c-5-11.2-10.2-22.8-16.9-34c-0.2-0.4-0.1-0.9,0.3-1.2c0.4-0.2,0.9-0.1,1.2,0.3c6.7,11.3,11.9,22.9,17,34.1
			c0.8,1.9,1.7,3.8,2.5,5.6c0.6,1.4,1.3,2.8,1.9,4.1c1.6,3.4,3.2,6.9,4.6,10.4l0.5,1.3c1.6,3.8,3.3,7.7,0.8,12
			c-0.8,1.4-2.2,3.4-3.7,5.7c-3,4.4-9.2,13.7-8.3,15.2c0.6,1.2,2.9,5.1,5.4,9.3c2.4,4.1,4.8,8.3,5.9,10.3c2.4,4.4,1.3,10.2,0.4,15
			l-0.2,1.2c-1,5.5-6.5,33.7-12.9,48C410.7,452.2,410.4,452.4,410.1,452.4z"/>
	</g>
	<g>
		<path class="st5" d="M359.4,455.5c-0.2,0-0.4-0.1-0.6-0.3c-4-4.1-23.5-37.8-25-44.1c-0.8-3.5,1.2-12.3,3.1-20.8
			c1.5-6.6,3-13.4,2.6-15.3c-0.7-2.8-5.6-6.8-10.5-10.8c-5.8-4.8-11.8-9.7-13-14.1c-1.3-5-0.2-36.5,0.6-57.4
			c0.3-7.5,0.5-13.4,0.5-15.5c0-0.5,0.4-0.9,0.9-0.9l0,0c0.5,0,0.9,0.4,0.9,0.9c0,2.1-0.2,8.1-0.5,15.6c-0.7,19.5-1.9,52.1-0.6,56.9
			c1,3.9,7.1,8.8,12.4,13.2c5.3,4.3,10.2,8.4,11,11.7c0.5,2.2-0.9,8.6-2.6,16c-1.8,7.9-3.8,16.9-3.1,20c1.4,6.2,20.5,39.3,24.5,43.3
			c0.3,0.3,0.3,0.9,0,1.2C359.8,455.4,359.6,455.5,359.4,455.5z"/>
	</g>
	<g>
		<path class="st5" d="M289.6,440.7h-0.1c-0.5-0.1-0.8-0.5-0.7-1c0.6-4.5,10.5-93.5,10.9-100.3c0-0.5,0.4-0.8,0.9-0.8
			s0.8,0.4,0.8,0.9c-0.5,6.8-10.3,95.9-11,100.4C290.4,440.4,290,440.7,289.6,440.7z"/>
	</g>
	<g>
		<path class="st5" d="M360.3,464.9c-0.1,0-0.2,0-0.3-0.1c-2.2-0.9-11.8-4.1-24.1-8.3c-24.7-8.3-58.4-19.7-64.9-23
			c-0.4-0.2-0.6-0.7-0.4-1.2c0.2-0.4,0.7-0.6,1.2-0.4c6.3,3.3,41.4,15.1,64.6,22.9c12.2,4.1,21.9,7.4,24.2,8.3
			c0.4,0.2,0.7,0.7,0.5,1.1C361,464.7,360.6,464.9,360.3,464.9z"/>
	</g>
	<g>
		<path class="st5" d="M348.4,500.3c-21.7,0-63.8-3.9-95.8-15.2c-0.4-0.2-0.7-0.6-0.5-1.1c0.2-0.4,0.7-0.7,1.1-0.5
			c40.4,14.3,96.9,16.7,107.4,14.4c0.5-0.1,0.9,0.2,1,0.7s-0.2,0.9-0.7,1C358.7,500,354.3,500.3,348.4,500.3z"/>
	</g>
</g>
<g>
	<g>
		<g>
			<polygon class="st9" points="730.8,375.2 662.9,509.7 464.8,511.2 525.9,373.3 			"/>
		</g>
		<g>
			<path class="st10" d="M333.3,510.3v-10.8h128.2l59-129.4h205.1l5.2,5H530.5l-61.3,135.1C469.2,510.2,333.3,510,333.3,510.3z"/>
		</g>
		<g>
			<path class="st10" d="M628,449.4c-2.2,6.7-14.4,11.9-27.1,11.6c-12.7-0.3-21.3-6-19-12.7c2.2-6.7,14.4-11.9,27.1-11.6
				C621.7,437,630.2,442.7,628,449.4z"/>
		</g>
	</g>
	<g>
		<path class="st3" d="M469.2,511.1c-0.1,0-0.2,0-0.4-0.1c-0.4-0.2-0.6-0.7-0.4-1.1l61.5-135.6h200.9c0.5,0,0.9,0.4,0.9,0.9
			s-0.4,0.9-0.9,0.9H531l-61,134.5C469.8,510.9,469.5,511.1,469.2,511.1z"/>
	</g>
</g>
<g>
	<g>
		<rect x="88.8" y="520.5" class="st11" width="235.6" height="52.2"/>
		<rect x="323" y="520.5" class="st12" width="424" height="52.2"/>
	</g>
	<polygon class="st13" points="324.4,520.5 323,520.5 88.8,520.5 88.8,530.1 323,530.1 324.4,530.1 747,530.1 747,520.5 	"/>
	<rect x="77.4" y="510.2" class="st14" width="257.3" height="12.8"/>
	<rect x="333.4" y="510.2" class="st15" width="424" height="12.8"/>
</g>
<g>
	<path class="st16" d="M688.4,48.2h-192c-12.3,0-22.3,10-22.3,22.3v91.1c0,12.3,10,22.3,22.3,22.3h17.2c0.5,8.3-0.7,20.5-7.6,36.3
		c22.2-10.2,35-25.6,41.6-36.3h140.8c12.3,0,22.3-10,22.3-22.3V70.5C710.7,58.2,700.7,48.2,688.4,48.2z"/>
	<path class="st3" d="M606.5,91.6h-95.3c-2.6,0-4.7-2.1-4.7-4.7l0,0c0-2.6,2.1-4.7,4.7-4.7h95.3c2.6,0,4.7,2.1,4.7,4.7l0,0
		C611.2,89.5,609.1,91.6,606.5,91.6z"/>
	<path class="st3" d="M673.5,91.6H628c-2.6,0-4.7-2.1-4.7-4.7l0,0c0-2.6,2.1-4.7,4.7-4.7h45.4c2.6,0,4.7,2.1,4.7,4.7l0,0
		C678.2,89.5,676.1,91.6,673.5,91.6z"/>
</g>
<g>
	<path class="st3" d="M560.4,301.1h-54.5c-1.1,0-2-0.9-2-2V261c0-1.1,0.9-2,2-2h54.5c1.1,0,2,0.9,2,2v38.1
		C562.4,300.2,561.5,301.1,560.4,301.1z"/>
	<g>
		<g>
			<path class="st14" d="M533.5,286.4c-0.3,0-0.6-0.1-0.8-0.3l-28.1-23.2c-0.5-0.5-0.6-1.3-0.2-1.8c0.5-0.5,1.3-0.6,1.8-0.2
				l27.2,22.5l26.5-23.1c0.5-0.5,1.4-0.4,1.8,0.1c0.5,0.5,0.4,1.4-0.1,1.8L534.4,286C534.1,286.2,533.8,286.4,533.5,286.4z"/>
		</g>
		<g>
			<path class="st14" d="M505.4,300.2c-0.3,0-0.6-0.1-0.9-0.4c-0.5-0.5-0.5-1.3,0-1.8l19.6-20.6c0.5-0.5,1.3-0.5,1.8,0
				s0.5,1.3,0,1.8l-19.6,20.6C506.1,300,505.8,300.2,505.4,300.2z"/>
		</g>
		<g>
			<path class="st14" d="M560.9,299.4c-0.3,0-0.7-0.1-0.9-0.4l-19.6-19.6c-0.5-0.5-0.5-1.3,0-1.8s1.3-0.5,1.8,0l19.6,19.6
				c0.5,0.5,0.5,1.3,0,1.8C561.5,299.3,561.2,299.4,560.9,299.4z"/>
		</g>
	</g>
	<g>
		<g>
			<circle class="st17" cx="565.1" cy="257.7" r="17.2"/>
		</g>
		<text transform="matrix(1 0 0 1 552.9587 264.9703)" class="st3 st18 st19">85</text>
	</g>
</g>
<rect x="486.5" y="98.9" class="st20" width="209.6" height="84.1"/>
<text transform="matrix(1 0 0 1 486.5231 115.3873)" class="st21 st18 st22">Hey this is </text>
<text transform="matrix(1 0 0 1 491.9231 137.3873)" class="st18 st22">  harifsite.com</text>
</svg>
