<?xml version="1.0" encoding="utf-8"?>
<!-- Generator: Adobe Illustrator 24.0.1, SVG Export Plug-In . SVG Version: 6.00 Build 0)  -->
<svg version="1.1" id="Layer_1" xmlns="http://www.w3.org/2000/svg" xmlns:xlink="http://www.w3.org/1999/xlink" x="0px" y="0px"
	 viewBox="0 0 792 720" style="enable-background:new 0 0 792 720;" xml:space="preserve">
<style type="text/css">
	.st0{fill:#A7A7A7;stroke:#F5F6F6;stroke-miterlimit:10;}
	.st1{fill:#5B7FAD;}
	.st2{opacity:0.5;fill:#5B7FAD;enable-background:new    ;}
	.st3{fill:#4075BA;}
	.st4{opacity:0.5;fill:#FFFFFF;enable-background:new    ;}
	.st5{opacity:0.5;}
	.st6{fill:#FFFFFF;}
	.st7{opacity:0.4;fill:#FFFFFF;enable-background:new    ;}
	.st8{opacity:0.5;enable-background:new    ;}
	.st9{opacity:0.4;enable-background:new    ;}
	.st10{fill:#923D39;}
	.st11{opacity:0.2;enable-background:new    ;}
	.st12{fill:#192E35;}
	.st13{fill:#731012;}
	.st14{opacity:0.1;fill:#FFFFFF;enable-background:new    ;}
	.st15{fill:#743A4F;}
	.st16{fill:#AE5776;}
	.st17{opacity:0.7;fill:#E8749D;enable-background:new    ;}
	.st18{opacity:0.5;fill:#AE5776;enable-background:new    ;}
	.st19{fill:#3A1D27;}
	.st20{opacity:0.7;fill:#3A1D27;enable-background:new    ;}
	.st21{fill:#BB2526;}
	.st22{fill:#CE5B51;}
	.st23{fill:#27689E;}
	.st24{opacity:0.2;fill:#FBD873;enable-background:new    ;}
	.st25{fill:#A5A1AA;}
	.st26{opacity:0.2;}
	.st27{opacity:0.3;enable-background:new    ;}
	.st28{opacity:0.7;fill:#FFFFFF;enable-background:new    ;}
	.st29{fill:none;}
</style>
<g id="Shadow--inject-214">
	<ellipse id="path--inject-214" class="st0" cx="377.3" cy="594.7" rx="365.5" ry="32.1"/>
</g>
<g>
	<g id="Group">
		<rect x="56" y="373.9" class="st1" width="704.2" height="9.4"/>
		<polygon class="st1" points="97.9,380.6 97.9,603.7 103.4,603.7 110.3,380.6 		"/>
		<g>
			<polygon class="st1" points="162.8,387.9 162.8,594.6 168.3,594.6 175.2,387.9 			"/>
			<polygon class="st2" points="162.8,387.9 162.8,594.6 168.3,594.6 175.2,387.9 			"/>
		</g>
		<polygon class="st1" points="720.7,380.6 720.7,603.7 715.2,603.7 708.3,380.6 		"/>
		<g>
			<polygon class="st1" points="655.9,387.9 655.9,594.6 650.4,594.6 643.5,387.9 			"/>
			<polygon class="st2" points="655.9,387.9 655.9,594.6 650.4,594.6 643.5,387.9 			"/>
		</g>
		<g>
			<polygon class="st1" points="733.2,393.2 84.9,393.2 70.6,383.2 747.6,383.2 			"/>
			<polygon class="st2" points="733.2,393.2 84.9,393.2 70.6,383.2 747.6,383.2 			"/>
		</g>
	</g>
</g>
<g>
	<path class="st3" d="M92.5,346v7.2c0,1.2,0.4,2.4,1.3,3.2l5.5,5.8c0.5,0.5,1.1,0.9,1.8,1.1c2.2,5.1,7.1,8.6,12.8,8.6h2.1
		c7.8,0,14.1-6.6,14.1-14.9v-17H99.7v1.4h-2.9C94.4,341.4,92.5,343.5,92.5,346z M95.9,346c0-0.5,0.4-0.9,0.9-0.9h2.9v12
		c0,0.2,0,0.3,0,0.5l-3.5-3.7c-0.2-0.2-0.3-0.4-0.3-0.6V346z"/>
	<path class="st4" d="M92.5,346v7.2c0,1.2,0.4,2.4,1.3,3.2l5.5,5.8c0.5,0.5,1.1,0.9,1.8,1.1c2.2,5.1,7.1,8.6,12.8,8.6h2.1
		c7.8,0,14.1-6.6,14.1-14.9v-17H99.7v1.4h-2.9C94.4,341.4,92.5,343.5,92.5,346z M95.9,346c0-0.5,0.4-0.9,0.9-0.9h2.9v12
		c0,0.2,0,0.3,0,0.5l-3.5-3.7c-0.2-0.2-0.3-0.4-0.3-0.6V346z"/>
	<g>
		<path class="st3" d="M137,374.3H93.6c-2.8,0-5.1-2.7-5.1-2.7h53.7C142.1,371.6,139.8,374.3,137,374.3z"/>
		<path class="st4" d="M137,374.3H93.6c-2.8,0-5.1-2.7-5.1-2.7h53.7C142.1,371.6,139.8,374.3,137,374.3z"/>
	</g>
</g>
<g>
	<g>
		<g>
			<path class="st3" d="M732.2,350.6c-0.2-7.2-5.5-9-12.3-9.8v-2.6c0-0.6-0.5-1.1-1.1-1.1c0,0,0,0,0,0h-23.5c-0.6,0-1.1,0.5-1.2,1.1
				l0,0v34.5H720v-3.8C726.8,368,732,357.8,732.2,350.6z M720,364.3v-19.2c5,0.8,8.5,1.5,7.7,6.8C727.1,356.2,724,363.7,720,364.3z"
				/>
		</g>
	</g>
	<g class="st5">
		<path class="st6" d="M732.2,350.6c-0.2-7.2-5.5-9-12.3-9.8v-2.6c0-0.6-0.5-1.1-1.1-1.1c0,0,0,0,0,0h-23.5c-0.6,0-1.1,0.5-1.2,1.1
			l0,0v34.5H720v-3.8C726.8,368,732,357.8,732.2,350.6z M720,364.3v-19.2c5,0.8,8.5,1.5,7.7,6.8C727.1,356.2,724,363.7,720,364.3z"
			/>
	</g>
</g>
<g>
	<g>
		<path class="st6" d="M343.7,120.2c-4.9,7.5-11.4,13.2-19,17.8c-7.3,4.5-14.9,8.4-20.1,15.5c-1.6,2.2,1.6,7.9,0,10
			c5.2-7.1,12.8-11,20.1-15.5c7.6-4.6,14.1-10.4,19-17.9C345.3,127.9,342.2,122.5,343.7,120.2L343.7,120.2z"/>
	</g>
</g>
<g>
	<g>
		<path class="st6" d="M326.2,138c-1.9,4.4-5.6,7.6-10.4,8.3c-0.6,0.1,0.4,9.9,0,10c4.7-0.8,8.5-3.9,10.4-8.3c0.1-0.3,0-1.3,0-1.5
			c0-1.2,0-2.4,0-3.5s0-2.4,0-3.5C326.3,139.1,326.1,138.3,326.2,138L326.2,138z"/>
	</g>
</g>
<g>
	<g>
		<path class="st6" d="M330.3,143.6c-15.9-3-31.2-8-45.8-14.8c1.2,0.6-1.3,9.4,0,10c14.6,6.8,30,11.8,45.8,14.8
			C329.8,153.5,331,143.7,330.3,143.6L330.3,143.6z"/>
	</g>
</g>
<g>
	<g>
		<g>
			<rect x="383.5" y="320.8" class="st3" width="27.3" height="49.5"/>
			<rect x="383.5" y="320.8" class="st4" width="27.3" height="49.5"/>
		</g>
		<g>
			<polygon class="st3" points="423.2,371.2 371.4,371.2 384.1,361.3 410.5,361.3 			"/>
			<polygon class="st4" points="423.2,371.2 371.4,371.2 384.1,361.3 410.5,361.3 			"/>
		</g>
	</g>
	<g>
		<g>
			<g>
				<polygon class="st3" points="536.9,355.2 407.6,355.2 431,371.3 560.2,371.3 				"/>
				<polygon class="st7" points="536.9,355.2 407.6,355.2 431,371.3 560.2,371.3 				"/>
			</g>
		</g>
		<g>
			<polygon class="st3" points="410.6,371.3 407.6,355.2 431,371.3 			"/>
			<polygon class="st8" points="410.6,371.3 407.6,355.2 431,371.3 			"/>
		</g>
	</g>
	<g>
		<path class="st3" d="M278.9,203.6h235.3c2.5,0,4.5,1.8,4.5,4v128.9c0,2.2-2,4-4.5,4H278.9c-2.5,0-4.5-1.8-4.5-4V207.6
			C274.4,205.4,276.4,203.6,278.9,203.6z"/>
		<rect x="283.3" y="212.1" class="st8" width="226.3" height="119.3"/>
	</g>
	<g>
		<g>
			<rect x="388.2" y="236.7" class="st9" width="114.2" height="70.2"/>
			<rect x="388.2" y="236.7" class="st3" width="114.2" height="6.4"/>
		</g>
		<g>
			<path class="st6" d="M409.1,275.5l18.7,9.2c0.9,0.5,1.6,0.9,1.9,1.3s0.5,0.8,0.5,1.4c0,0.7-0.3,1.3-0.9,1.9s-1.3,0.8-2,0.8
				c-0.5,0-1.3-0.3-2.3-0.8l-24.1-12c-1.6-0.8-1.6-2.9,0-3.7l24.1-12c1-0.5,1.8-0.7,2.3-0.7c0.8,0,1.5,0.3,2,0.8s0.9,1.1,0.9,1.9
				c0,0.6-0.1,1-0.5,1.4s-0.9,0.8-1.9,1.3L409.1,275.5z"/>
			<path class="st6" d="M457.1,258.3l-18.5,35.5c-0.5,0.9-0.9,1.5-1.3,1.7c-0.5,0.4-1.1,0.5-1.8,0.5c-0.8,0-1.5-0.3-2-0.8
				s-0.9-1.1-0.9-1.7c0-0.5,0.2-1.1,0.7-2l18.5-35.5c0.5-0.9,0.9-1.5,1.2-1.7c0.5-0.4,1.1-0.5,1.8-0.5c0.8,0,1.5,0.3,2,0.7
				s0.8,1.1,0.8,1.7C457.8,256.7,457.6,257.4,457.1,258.3z"/>
			<path class="st6" d="M480.4,275.5l-18.7-9.2c-0.9-0.5-1.6-0.9-1.9-1.3c-0.3-0.4-0.5-0.8-0.5-1.4c0-0.7,0.3-1.3,0.9-1.9
				s1.3-0.8,2-0.8c0.5,0,1.2,0.2,2.3,0.7l24.1,12c1.6,0.8,1.6,2.9,0,3.7l-24.1,12c-1,0.5-1.8,0.8-2.3,0.8c-0.8,0-1.5-0.3-2.1-0.8
				c-0.5-0.5-0.9-1.2-0.9-1.9c0-0.6,0.1-1,0.5-1.4c0.3-0.4,0.9-0.8,1.9-1.3L480.4,275.5z"/>
		</g>
	</g>
	<g>
		<g>
			<rect x="292.5" y="223.2" class="st6" width="7.7" height="6.9"/>
			<rect x="292.5" y="241" class="st6" width="7.7" height="6.9"/>
			<rect x="292.5" y="258.9" class="st6" width="7.7" height="6.9"/>
			<rect x="292.5" y="276.8" class="st6" width="7.7" height="6.9"/>
			<rect x="292.5" y="294.6" class="st6" width="7.7" height="6.9"/>
			<rect x="292.5" y="312.5" class="st6" width="7.7" height="6.9"/>
		</g>
		<g>
			<rect x="307.6" y="224.7" class="st6" width="30.8" height="2.1"/>
		</g>
		<g>
			<rect x="314.8" y="242.6" class="st6" width="11" height="2.1"/>
		</g>
		<g>
			<rect x="362.6" y="262.7" class="st6" width="11" height="2.1"/>
		</g>
		<g>
			<rect x="314.8" y="278.7" class="st6" width="11" height="2.1"/>
		</g>
		<g>
			<rect x="330.6" y="278.7" class="st6" width="11" height="2.1"/>
		</g>
		<g>
			<rect x="330.6" y="262.7" class="st6" width="28" height="2.1"/>
		</g>
		<g>
			<rect x="347" y="278.7" class="st6" width="18.5" height="2.1"/>
		</g>
		<g>
			<rect x="346.9" y="317" class="st6" width="11" height="2.1"/>
		</g>
		<g>
			<rect x="362.7" y="317" class="st6" width="11" height="2.1"/>
		</g>
		<g>
			<rect x="379.1" y="317" class="st6" width="6.1" height="2.1"/>
		</g>
		<g>
			<rect x="331.3" y="242.6" class="st6" width="34.1" height="2.1"/>
		</g>
		<g>
			<rect x="330.6" y="297.3" class="st6" width="11" height="2.1"/>
		</g>
		<g>
			<rect x="345.3" y="297.3" class="st6" width="6.4" height="2.1"/>
		</g>
		<g>
			<rect x="356.5" y="297.3" class="st6" width="17.9" height="2.1"/>
		</g>
	</g>
</g>
<g>
	<g>
		<g>
			<path class="st3" d="M340.8,121.6c-5.9-1.3-11.3-3.9-14.6-8.1c-5.8-2-12.3-3-19.1-2.8c-26.4,0.7-48.1,19.2-48.5,41.3
				c-0.1,5,0.9,9.9,2.9,14.2c3.8,10.2,13,21.7-3.8,35.4c16-2.7,21.7-8.6,24.3-15.5c7.5,3.3,15.5,4.9,23.6,4.6
				c26.4-0.7,48.1-19.2,48.5-41.3C354.3,138.3,349.2,128.5,340.8,121.6z"/>
		</g>
	</g>
	<g>
		<g>
			<rect x="283.9" y="126.2" class="st6" width="23" height="1.8"/>
		</g>
		<g>
			<rect x="289.2" y="142" class="st6" width="8.2" height="1.8"/>
		</g>
		<g>
			<rect x="324.9" y="159.7" class="st6" width="8.2" height="1.8"/>
		</g>
		<g>
			<rect x="289.2" y="173.8" class="st6" width="8.2" height="1.8"/>
		</g>
		<g>
			<rect x="301" y="173.8" class="st6" width="8.2" height="1.8"/>
		</g>
		<g>
			<rect x="301" y="159.7" class="st6" width="20.9" height="1.8"/>
		</g>
		<g>
			<rect x="313.2" y="173.8" class="st6" width="13.8" height="1.8"/>
		</g>
		<g>
			<rect x="301.5" y="142" class="st6" width="25.5" height="1.8"/>
		</g>
	</g>
</g>
<g>
	<g>
		<g>
			<g>
				<g>
					<polygon class="st10" points="511.1,584.7 498.5,580.8 501.5,548.2 514,552.2 					"/>
					<polygon class="st11" points="515.1,544.8 502.5,540.8 500.9,559.1 513.6,561.6 					"/>
				</g>
				<path class="st3" d="M585.7,383.4c0,0-86.6,7.7-84.5,47.4c1.7,32.5,6.3,23.7-2.7,120.3l21.8,1.3c0,0,22.2-79.1,19.2-110.5
					c24.4,0,80.3,2.3,88.4-21c4-11.8,6-24.3,5.8-36.8L585.7,383.4z"/>
			</g>
			<polygon class="st12" points="523.8,556.9 495.3,551.8 495.8,538.5 525.2,545.4 			"/>
		</g>
		<g>
			<path class="st12" d="M497.2,575.3l14.5,3c0.5,0.1,0.9,0.7,0.8,1.3l-1.2,14.5c-0.2,1.6-1.4,2.6-2.7,2.4c-5-1.2-7.4-2-13.8-3.4
				c-3.9-0.8-12.9-2.8-18.4-3.5c-5.5-0.7-4.8-7.4-2.5-7.8c10.6-1.5,16.7-3.3,20.8-6.1C495.6,575.3,496.4,575.2,497.2,575.3z"/>
			<g>
				<path class="st3" d="M490.7,577.9c1.1,0.2,2.3,0.2,3.5,0.1c0.1,0,0.2-0.1,0.3-0.2c0.1-0.1,0.1-0.2,0-0.3
					c-0.4-0.4-3.6-3.7-5.3-3.3c-0.4,0.1-0.7,0.4-0.9,0.8c-0.3,0.6-0.2,1.3,0.1,1.8C489,577.5,489.8,577.9,490.7,577.9z M493.5,577.4
					c-2.4,0-4.1-0.3-4.6-1c-0.2-0.4-0.2-0.8,0-1.2c0.1-0.2,0.2-0.3,0.4-0.4C490.1,574.6,492.1,576.2,493.5,577.4z"/>
				<path class="st3" d="M494.2,578c0,0,0.1,0,0.1,0c0.1,0,0.2-0.1,0.2-0.2c0-0.2,1-4-0.2-5.6c-0.3-0.4-0.7-0.7-1.2-0.7
					c-0.5-0.1-1,0.2-1.2,0.8c-0.5,1.4,1,4.6,2.1,5.7C494,578,494.1,578,494.2,578z M493.3,572.2c0.2,0,0.5,0.2,0.6,0.4
					c0.5,1.4,0.6,3,0.2,4.5c-1-1.3-1.6-2.9-1.5-4.5c0-0.2,0.2-0.4,0.6-0.4L493.3,572.2z"/>
			</g>
		</g>
		<g>
			<g>
				<polygon class="st10" points="455,589.8 443,584.1 451.3,552.9 463.3,558.6 				"/>
				<polygon class="st11" points="465.3,550.5 453.3,544.9 449,561 461,566.7 				"/>
			</g>
			<g>
				<path class="st3" d="M559.9,383.4c-0.6,0-97.1,10.5-97.2,45c-0.2,57.2-15.7,122.7-15.7,122.7l19.1,10c0,0,33.2-71,32.7-115.6
					c26.5-8,95.2,5.5,103.4-17.8c6.7-19,3.1-44.4,3.1-44.4L559.9,383.4z"/>
				<polygon class="st12" points="469.1,564 443.5,551.9 445.6,540.8 472.6,550.7 				"/>
			</g>
		</g>
		<g>
			<path class="st12" d="M444.2,573.6l14.6,3.2c0.5,0.1,0.9,0.7,0.8,1.4l-1.1,16c-0.2,1.7-1.4,2.9-2.6,2.7l0,0
				c-5-1.2-7.4-2.2-13.8-3.6c-3.9-0.8-14.7-3.6-20.1-5.1c-5.4-1.5-4.2-8.8-1.7-8.8c10.7-0.2,17.6-2,21.7-5.2
				C442.6,573.7,443.4,573.5,444.2,573.6z"/>
			<g>
				<path class="st3" d="M438.2,577.1c1-0.6,2-1.3,2.9-2.1c0.1-0.1,0.1-0.2,0.1-0.3c0-0.1-0.1-0.2-0.3-0.2c-0.5-0.1-5-0.7-6.1,0.7
					c-0.3,0.3-0.4,0.8-0.2,1.2c0.1,0.6,0.5,1.2,1.1,1.4C436.5,577.8,437.4,577.6,438.2,577.1z M440.1,575c-1.9,1.5-3.5,2.3-4.3,2
					c-0.4-0.2-0.6-0.5-0.7-1c-0.1-0.2,0-0.4,0.1-0.6C435.9,574.8,438.3,574.8,440.1,575z"/>
				<path class="st3" d="M441,575l0.1-0.1c0.1-0.1,0.1-0.2,0-0.3c-0.1-0.1-1.5-3.9-3.3-4.4c-0.5-0.2-1-0.1-1.3,0.2
					c-0.5,0.3-0.7,0.9-0.6,1.4c0.4,1.5,3.4,3.1,4.9,3.2C440.9,575,441,575,441,575z M437,570.8c0.2-0.1,0.5-0.2,0.7-0.1
					c1.2,0.8,2.1,2.1,2.7,3.5c-1.5-0.3-2.9-1.3-3.8-2.7c-0.1-0.2-0.1-0.4,0.3-0.7L437,570.8z"/>
			</g>
		</g>
		<g>
			<path class="st10" d="M592.7,273.1c2.5,5.8,4.6,11.3,6.7,17.1c2.1,5.8,3.9,11.5,5.7,17.4s3.2,12,4.4,18.2
				c1.3,6.5,2,13.2,1.9,19.8c0,3.9-0.6,7.8-1.6,11.5c-0.7,2.3-1.6,4.5-2.9,6.5c-0.7,1.1-1.5,2.2-2.5,3.2l-0.7,0.8
				c-0.4,0.4-0.9,0.8-1.3,1.1c-0.7,0.5-1.5,1-2.3,1.4c-1.2,0.6-2.5,1-3.7,1.3c-1,0.2-2,0.4-3.1,0.5c-1.8,0.1-3.5,0.1-5.3,0
				c-3.1-0.2-6.2-0.5-9.3-1.1c-11.5-2.2-22.7-5.6-33.5-10.1l2.5-10c11,1.4,22.2,2.9,32.7,3.4c2.6,0,5.2,0.1,7.6,0
				c1.1-0.1,2.1-0.2,3.2-0.4c0.9-0.2,1.6-0.5,1.3-0.5c-0.2,0.1-0.3,0.1-0.5,0.3c-0.2,0.1-0.3,0.2-0.5,0.4l0,0c0,0,0.1-0.1,0.2-0.3
				c0.2-0.5,0.4-1.1,0.5-1.6c0.4-2,0.5-4,0.5-6.1c-0.3-5.2-1-10.4-2.2-15.5c-1.2-5.5-2.7-10.8-4.3-16.2c-1.7-5.4-3.5-10.8-5.4-16.2
				c-2-5.4-4-10.8-6.1-15.9L592.7,273.1z"/>
			<path class="st10" d="M552.4,353.3l-11.5-6.8l-5.8,13.1c0,0,13.4,5.9,16.2,2.2L552.4,353.3z"/>
			<polygon class="st10" points="531.7,349 526.4,357.7 535.2,359.5 540.9,346.4 			"/>
		</g>
		<g>
			<path class="st10" d="M566,283.5c-2.2,5.8-4.5,11.4-6.9,17s-4.8,11.2-7.4,16.7c-5.2,11.3-10.9,22.3-17.3,32.8
				c-1.7,2.7-3.5,5.4-5.4,8.1c-1,1.4-2,2.7-3.2,4c-0.6,0.7-1.1,1.3-1.8,2l-1,1.1l-0.6,0.6c-1.6,1.5-3.6,2.6-5.7,3.2
				c-1.1,0.3-2.2,0.6-3.3,0.8c-1.9,0.2-3.7,0.3-5.6,0.2c-3.2-0.1-6.4-0.4-9.6-1c-11.7-2.2-23.2-5.6-34.2-10.3l2.5-10.1
				c11.2,1.4,22.6,2.9,33.3,3.4c2.5,0.1,5.1,0.1,7.6-0.1c1-0.1,2-0.3,3-0.5c0.3-0.1,0.6-0.2,0.9-0.4c0.1,0,0-0.1-0.5,0.2
				c-0.2,0.1-0.3,0.2-0.5,0.4c0,0,0.1-0.2,0.2-0.2l0.5-0.6c0.3-0.3,0.7-0.9,1-1.3c0.7-1,1.4-2,2.2-3.1c1.4-2.2,2.8-4.6,4.2-7
				c2.8-4.9,5.3-10.1,7.9-15.3c2.5-5.3,4.9-10.6,7.3-16c4.8-10.8,9.4-21.8,13.8-32.6L566,283.5z"/>
			<g>
				<path class="st10" d="M471.4,351.4l-11.5-6.9l-5.8,13.1c0,0,13.4,5.9,16.2,2.2L471.4,351.4z"/>
				<polygon class="st10" points="450.6,347.1 445.4,355.8 454.1,357.6 459.9,344.5 				"/>
			</g>
		</g>
		<g>
			<path class="st10" d="M595.6,218.8l-7.3,9L577.1,240c0.2,0.6,0.5,1.4,0.9,2.2c0.9,2.3,1.4,4.6,1.5,7.1c0.2,4.9-0.2,9-7.5,12.3
				c0,0-7.7,10.6,10.6,7.6c18.2-2.9,21-12.9,21-12.9C595.4,250.3,595,230.1,595.6,218.8z"/>
			<g>
				<path class="st12" d="M558.4,208.7c0,1.2-0.6,2.2-1.3,2.3c-0.8,0-1.4-0.9-1.4-2.1c0-1.2,0.6-2.2,1.3-2.3
					C557.8,206.6,558.4,207.5,558.4,208.7z"/>
				<path class="st12" d="M562.2,204.2c-0.2,0-0.4-0.1-0.5-0.3c-0.9-1.6-2.5-2.6-4.2-2.8c-0.4,0-0.7-0.3-0.7-0.7
					c0-0.4,0.3-0.7,0.7-0.7l0,0l0,0c2.2,0.2,4.1,1.5,5.3,3.5c0.2,0.3,0.1,0.8-0.2,1C562.5,204.2,562.4,204.2,562.2,204.2z"/>
				<path class="st13" d="M558,209.4c-0.9,3.3-2.3,6.4-4,9.3c1.4,0.9,3.2,1,4.7,0.4L558,209.4z"/>
				<path class="st10" d="M596.7,202.6c-0.7,14.9-0.4,23.7-7.4,31.6c-6.8,7.9-18.4,8.5-25.9,1.3c-2.8-2.6-4.7-6.1-5.5-9.9
					c-3.2-13.2-1.5-35.3,12.1-41.9c9.2-4.8,20.3-0.8,24.9,8.9C596.2,195.7,596.9,199.2,596.7,202.6z"/>
			</g>
		</g>
		<g>
			<g>
				<path class="st12" d="M603,207.6c-2,6.3-5.1,12.2-9.2,17.3l-18.3,3.6c0,0-14.5-6.4-10.6-16.9c-2.5-2.2-1.5-9,0.2-12.7
					c2.8,2.3,7.3,2.5,9.8-0.3c2,3.9,8,4.4,10.6,0.9c3,3.5,9.4,2.4,11.2-1.9c2.2,1.5,5.4,1.3,7.4-0.5c0.1-0.1,0.2-0.2,0.3-0.3
					C604.6,199.6,604.3,203.1,603,207.6z"/>
				<path class="st14" d="M603,207.6c-2,6.3-5.1,12.2-9.2,17.3l-18.3,3.6c0,0-14.5-6.4-10.6-16.9c-2.5-2.2-1.5-9,0.2-12.7
					c2.8,2.3,7.3,2.5,9.8-0.3c2,3.9,8,4.4,10.6,0.9c3,3.5,9.4,2.4,11.2-1.9c2.2,1.5,5.4,1.3,7.4-0.5c0.1-0.1,0.2-0.2,0.3-0.3
					C604.6,199.6,604.3,203.1,603,207.6z"/>
			</g>
			<path class="st12" d="M605.7,189.6c1,2.4,0.5,5.5-1.3,7.4c-0.1,0.1-0.2,0.2-0.3,0.3c-2,1.8-5.2,2-7.4,0.5
				c-1.8,4.3-8.2,5.4-11.2,1.9c-2.6,3.5-8.6,2.9-10.6-0.9c-2.5,2.8-7,2.6-9.8,0.3c-0.7-0.6-1.3-1.4-1.7-2.3
				c-0.1-0.2-0.2-0.4-0.2-0.6c-0.2,0.2-0.3,0.4-0.5,0.5c-1.7,1.5-4.3,1.7-6.2,0.4c-1.5-1.1-2.3-3-2.2-4.9c0-0.4,0.1-0.8,0.2-1.2
				c-0.1,0.3-0.3,0.5-0.5,0.8c-1.5,1.7-4.7,1.8-6.2-0.2c-1.8-2.4-0.8-6.4,1.7-7.9c1-0.6,2.1-0.9,3.3-0.9c1.8,0,3.6,0.7,5,1.8
				c-1.5-2.3-1-5.8,1.1-7.4c2.1-1.6,5.4-1.2,7,1c-0.2-2.6,0.6-4.1,1.8-4.9c2.4-1.5,6.4-0.2,8.3,2.2c0,0,2.7-6.8,7.3-6
				c1,0.1,5.7,2.4,5.6,4.1c0,0.1,0,0.2-0.1,0.4c0.1-0.1,0.1-0.3,0.2-0.4c0.9-1.5,2.7-2.2,4.4-2.2c1.8,0,3.6,0.8,5.3,1.5
				c3.6,1.6,7.4,3.3,9.5,6.7C610.3,182.9,609.4,188.5,605.7,189.6z"/>
			<path class="st10" d="M573,213c-0.5,3.7-2.1,7.1-4.6,9.7c-3.1,3.2-5.8,0-5.8-4.8c0-4.3,1.5-11.2,5.2-12.5
				C571.5,204.2,573.7,208.3,573,213z"/>
		</g>
		<g>
			<path class="st12" d="M628.3,261.5c-1.3-3.6-7.3-7.3-11.1-7.3h-2.5c-4.3,0-9.6,0.4-14.8,1c-9.9,1.2-19.7,2.9-29.4,5.2
				c-4.5,1.2-8.8,2.8-12.2,4.2c-4.3,1.8-6.9,3-6.9,3s4.8,33.5,7.2,66.8c1.4,18.5,0.8,36.9,1.2,49.6h73.7c2.5-15.2,2.1-28.5,2.3-56
				C636.2,311.6,633.6,276.5,628.3,261.5z"/>
			<path class="st11" d="M557.1,315.9c0.5,7,1.1,14.3,1.7,21.6c8.6-13.3,13.4-49.7,13.4-49.7L557.1,315.9z"/>
		</g>
		<path class="st12" d="M547.3,270.1c-10.6,6.3-20.9,38.4-20.9,38.4l24.2,19.3c9.2-9.2,22.7-32.1,24.2-41.2
			C577.2,272.5,564.3,260.1,547.3,270.1z"/>
	</g>
	<g>
		<g>
			<path class="st12" d="M526.5,596.9c0,4.4-3.4,7.9-7.5,7.9c-4.2,0-7.5-3.5-7.5-7.9s3.4-7.9,7.5-7.9
				C523.1,589,526.5,592.6,526.5,596.9L526.5,596.9z"/>
			<path class="st12" d="M638.6,596.9c0,4.4,3.4,7.9,7.5,7.9c4.2,0,7.5-3.5,7.5-7.9s-3.4-7.9-7.5-7.9S638.6,592.6,638.6,596.9
				L638.6,596.9z"/>
			<path class="st12" d="M575.2,594.4c0,4.4,3.4,7.9,7.5,7.9c4.2,0,7.5-3.5,7.5-7.9s-3.4-7.9-7.5-7.9
				C578.6,586.5,575.2,590,575.2,594.4L575.2,594.4z"/>
		</g>
		<g>
			<path class="st12" d="M580.4,584.6v-15.3h-21.5c-4.2,0-8.4,0.4-12.6,1.2l-40.1,8.2c-2,0.4-3.3,2.4-2.9,4.5
				c0.3,1.8,1.9,3.2,3.7,3.1L580.4,584.6z"/>
			<path class="st12" d="M580.4,584.6v-15.3h21.5c4.2,0,8.4,0.4,12.6,1.2l45,7.6c2,0.4,3.3,2.4,2.9,4.5c-0.3,1.8-1.9,3.2-3.7,3.1
				L580.4,584.6z"/>
		</g>
		<g>
			<rect x="567.1" y="499" class="st12" width="26.7" height="70.2"/>
			<rect x="570.9" y="466.4" class="st12" width="19" height="32.7"/>
			<polygon class="st8" points="570.9,476 589.9,481 589.9,466.4 570.9,466.4 			"/>
		</g>
		<g>
			<g>
				<rect x="509.3" y="392.5" class="st15" width="9.7" height="43.5"/>
				<path class="st16" d="M567.4,466.4V277.2c0-7.2,2.9-14,8-18.7l12.8-11.8c4.3-4,9.8-6.1,15.5-6.1h46.1l22.5,25.3v200.4H567.4z"/>
				<path class="st16" d="M498.7,429.8h105.2v36.6H481.6c-6.9,0-12.4-5.9-12.5-13.1c0-2.4,0.6-4.7,1.7-6.7l0,0
					C476.7,436.1,487.3,429.8,498.7,429.8z"/>
				<path class="st17" d="M672.3,265.9v200.4H481.6c-6.9,0-12.4-5.9-12.4-13.1c0-2.4,0.6-4.7,1.7-6.7c5.8-10.4,16.4-16.8,27.8-16.8
					h53c8.7,0,15.7-7.4,15.7-16.6V277.2c0-7.1,2.9-14,8-18.7l12.8-11.8c4.3-4,9.8-6.1,15.5-6.1h46.1L672.3,265.9z"/>
				<g>
					<path class="st16" d="M582.7,466.4V277.2c0-7.2,2.9-14,8-18.7l12.8-11.8c4.3-4,9.8-6.1,15.5-6.1h36c6.5,0,12.7,2.8,17.1,7.8
						l9.2,10.3c4.1,4.6,6.4,10.7,6.4,17v171.7c0,10.5-8,18.9-17.9,18.9L582.7,466.4L582.7,466.4z"/>
					<path class="st18" d="M582.7,466.4V277.2c0-7.2,2.9-14,8-18.7l12.8-11.8c4.3-4,9.8-6.1,15.5-6.1h36c6.5,0,12.7,2.8,17.1,7.8
						l9.2,10.3c4.1,4.6,6.4,10.7,6.4,17v171.7c0,10.5-8,18.9-17.9,18.9L582.7,466.4L582.7,466.4z"/>
				</g>
			</g>
			<g>
				<path class="st19" d="M546.9,405.7c-21.3-7.8-44.4-7.8-65.6,0c-4.4,1.8-9.4-0.2-11.6-4.6l0,0c-2-4.4,0.7-10.1,6-12.1
					c24.8-9.2,51.8-9.2,76.7,0c5.4,2,8,7.7,6,12.1l0,0C556.3,405.5,551.3,407.5,546.9,405.7z"/>
				<path class="st20" d="M546.9,405.7c-21.3-7.8-44.4-7.8-65.6,0c-4.4,1.8-9.4-0.2-11.6-4.6l0,0c-2-4.4,0.7-10.1,6-12.1
					c24.8-9.2,51.8-9.2,76.7,0c5.4,2,8,7.7,6,12.1l0,0C556.3,405.5,551.3,407.5,546.9,405.7z"/>
			</g>
		</g>
	</g>
</g>
<g>
	<g id="_x3C_Group_x3E_">
		<g>
			<g>
				<path class="st12" d="M255.5,227.6c-0.4,1.1-0.1,2.1,0.6,2.4s1.5-0.4,1.9-1.5s0.1-2.2-0.5-2.4
					C256.7,225.8,255.9,226.5,255.5,227.6z"/>
				<path class="st21" d="M255.3,228.7c0.1,3.8,0.8,7.5,1.9,11.1c-1.8,0.5-3.6,0.2-5.2-0.8L255.3,228.7z"/>
				<path class="st12" d="M253.8,220.2c0.1,0.1,0.3,0.1,0.4,0c1.5-0.5,3.2-0.3,4.5,0.7c0.3,0.2,0.7,0.1,0.9-0.1
					c0.2-0.3,0.2-0.6-0.1-0.9c-1.6-1.3-3.8-1.7-5.7-1c-0.3,0.1-0.5,0.5-0.4,0.9C253.5,220,253.7,220.2,253.8,220.2L253.8,220.2z"/>
				<path class="st22" d="M217.6,231.5c1.9,10.4,3.9,29.4-3,36.3c0,0,2.7,10.5,21,10.5c20.1,0,9.6-10.5,9.6-10.5
					c-11-2.8-9.2-11.4-7.3-19.4L217.6,231.5z"/>
				<path class="st22" d="M222.1,212.7c-3.6,13.6-6.4,21.3-2.3,30.5c6.2,13.8,27.7,15.6,33.6-0.2c4.5-14.5,8.9-29.9-1.7-39.7
					c-7.5-7.1-19-6.3-25.7,1.6C224.2,207.2,222.8,209.8,222.1,212.7z"/>
			</g>
			<path class="st12" d="M208.2,217.2c-0.9-5-1.2-10.5,1.2-14.9c2.4-4.4,8.1-7.2,12.3-4.6c3.6-8,12.3-13.1,20.6-12.1
				c8.3,1,15.7,8.1,17.4,16.7c1.8,8.6-2.2,18.3-9.4,22.8c1-3.7,1.9-7.5,2.9-11.2c-0.8,5.1-3.5,9.9-7.4,13.2
				c0.6-3.7,1.1-7.5,1.7-11.2c-0.5,5.3-3.5,10.2-7.9,12.9c0.7-2.6,1.3-5.2,2-7.8c-0.3,1.1-3,9.4-3.9,10.5
				c-1.7,2.1-2.8,15.8-8.8,16.2C208.6,252.1,210.3,228.9,208.2,217.2z"/>
			<path class="st22" d="M235.6,223.7c-0.4,3.5,0.4,7,2.1,10c2.3,3.9,5.7,2.4,6.9-1.6c1.1-3.6,1.2-9.9-2-12.5
				C239.5,217.1,236.1,219.5,235.6,223.7z"/>
		</g>
		<g>
			<path class="st22" d="M186.9,355.2c-2.2-0.8-12.5-6.4-14.1-5.4c4.7-12.8,7.7-14.7,9.9-22.9c1.2-4.5,0.4-8.1-2.3-11.9
				c-3-4.3-4.1-6.5-9.1-5.9c-6.9,12.3-15.7,27.4-19.1,41.2c-1.1,4.6-2,8.2,0.6,12.1c2.3,3.5,6.6,4.9,10.6,5.2c9.6,0.9,23.9-1,23.7-7
				C187,356.9,186.9,355.2,186.9,355.2z"/>
			<g>
				<path class="st22" d="M185.3,354.8l8.2-2.8l-0.7,15.6c0,0-6.5,0.3-10-4.4L185.3,354.8z"/>
				<polygon class="st22" points="203.7,351.7 202.5,364.5 192.8,367.5 193.5,352 				"/>
			</g>
		</g>
		<g>
			<path class="st22" d="M297.2,365.8c0,0-11.4-9.4-26.3-40.5c-2.2-4.4-4.3-8.7-6.4-13.1c-2-4.5-4-8.8-5.9-13.5l17.6-8
				c3.6,8.4,9.3,17,13.3,25.3c4,8.3,13.5,28,14.6,29.8c0.6,0.9,1.2,1.7,1.8,2.6l0.9,1.3l-11.4,13.9L297.2,365.8z"/>
			<g>
				<g>
					<path class="st22" d="M312.1,305.3l-3.5-4.5l-1.6-6.7l10.7-10.5c0,0,2.6,3.4,4.4,7c0.3,0.5,0.4,1.2,0.4,1.8l-0.4,11.7
						L312.1,305.3z"/>
					<polygon class="st22" points="307.1,287 315.1,279.3 317.6,283.8 306.9,294.2 					"/>
				</g>
				<path class="st22" d="M312.3,302.1c0.3-1.3,0.5,1.2,1.3,0.2c2.4-3,5.8-3.3,7.8-0.1c2,3.2,0.3,35.8-3,46
					c-2.2,6.8-3.3,12.2-8.9,16.3c-2.3,1.7-5,3-7.8,2.9s-5.7-1.7-6.7-4.4c-1.6-4.3,4.5-19.6,6.6-24.5
					C308.5,323,309,316.8,312.3,302.1z"/>
			</g>
			<g>
				<g>
					<path class="st3" d="M289.4,300.7c4.7,0,9.4-0.1,14.1-0.1c2,0,4.1-0.1,5.9-1c2.4-1.2,3.9-3.8,4.8-6.4c2-5.4,2.2-11.3,3-17.1
						c0.8-5.7,2.4-11.7,6.5-15.6c-7.5,1-20.8-1.4-26.5,5.1C294.2,269,288.8,300.7,289.4,300.7z"/>
					<path class="st4" d="M289.4,300.7c4.7,0,9.4-0.1,14.1-0.1c2,0,4.1-0.1,5.9-1c2.4-1.2,3.9-3.8,4.8-6.4c2-5.4,2.2-11.3,3-17.1
						c0.8-5.7,2.4-11.7,6.5-15.6c-7.5,1-20.8-1.4-26.5,5.1C294.2,269,288.8,300.7,289.4,300.7z"/>
				</g>
				<path class="st22" d="M313.6,278.5L313.6,278.5c-0.8,0.2-1.4,3.3-1.2,4.1l0.8,1.5l1.6,7.4l5.4-3.1l-4.9-9.1
					C315,278.7,314.3,278.3,313.6,278.5z"/>
			</g>
		</g>
		<path class="st3" d="M191.8,270.5c-12.6,3-31.3,44.5-31.3,44.5l25.3,18.2c6.3-9.5,14.9-23.9,19.7-34.4
			C213,282.4,204.7,267.4,191.8,270.5z"/>
		<g>
			<path class="st23" d="M210.2,271.5c-1.4-3.3-3-7.1,0.2-8.3c3.6-1.3,23.4-2.7,30.2-0.2c3.7,1.1,5.9,5.1,4.9,9.1c0,0,0,0.1,0,0.1
				L210.2,271.5z"/>
			<path class="st24" d="M199.6,294.4l-18,35.8l4.2,3.1c0,0,8.1-12,13.8-22.3V294.4z"/>
			<path class="st25" d="M268.5,288.7c2.7,14.6-3.6,49.2-3.6,105.7H193c-0.5-11.4,7.4-38.5-2.4-92.4c-0.3-1.8-0.5-31.3,1.2-31.6
				c7-1.3,14-2.2,21.1-2.6c10.2-0.6,20.4-0.6,30.6,0c4.2,0.4,10.7,3.2,14.8,4.7C264.7,275,267.2,281.6,268.5,288.7z"/>
			<path class="st24" d="M249.5,303.2c1.9,12,9.3,27.8,16.7,37.1c0.3-6.8,0.9-13.9,0.9-19.4L249.5,303.2z"/>
		</g>
		<path class="st3" d="M244.4,285.2c-1.7,13.4,23.3,47.8,23.3,47.8l25.2-18.2c0,0-7-18.9-18.8-31.3
			C260.7,269.2,246.3,270.6,244.4,285.2z"/>
		<g>
			<polygon class="st22" points="326.7,582.8 340.2,582.8 343.2,549.9 329.8,549.9 			"/>
			<polygon class="st11" points="343,551.9 341.5,568.8 328,568.8 329.6,551.9 			"/>
		</g>
		<g>
			<polygon class="st22" points="273.7,582.8 287.1,582.8 293.9,549.9 280.5,549.9 			"/>
			<g class="st26">
				<polygon points="280.2,551.6 293.6,551.6 290.1,568.6 276.7,568.6 				"/>
			</g>
		</g>
		<path class="st12" d="M340.9,576.4h-14.7c-0.6,0-1,0.5-1.2,1.3l-2.7,16.2c-0.3,1.4,0.4,2.9,1.5,3.2c0.2,0,0.3,0.1,0.5,0.1
			c5.3-0.1,12.9-0.5,19.6-0.5c7.8,0,14.5,0.6,23.6,0.6c5.5,0,7.1-7.6,4.8-8.3c-10.5-3.1-19.1-3.5-28.2-11.1
			C343.2,576.9,342.1,576.4,340.9,576.4z"/>
		<g>
			<path class="st3" d="M351.6,581.7c1.7,0,3.5-0.3,4-1.1c0.3-0.4,0.3-1,0-1.5c-0.2-0.4-0.6-0.7-1-0.8c-2.3-0.6-6.9,2.2-7.1,2.3
				c-0.1,0.1-0.2,0.2-0.2,0.3c0,0.1,0.1,0.2,0.2,0.3C348.9,581.5,350.2,581.7,351.6,581.7z M353.8,578.9c0.2,0,0.4,0,0.6,0
				c0.3,0,0.5,0.2,0.6,0.5c0.2,0.4,0.2,0.6,0,0.7c-0.6,0.9-4,1-6.5,0.6C350.1,579.7,351.9,579.1,353.8,578.9z"/>
			<path class="st3" d="M347.5,581.3h0.1c1.6-0.8,4.8-3.8,4.6-5.5c0-0.4-0.3-0.8-1.2-1c-0.6-0.1-1.3,0.2-1.7,0.6
				c-1.7,1.5-2.1,5.3-2.1,5.5c0,0.1,0,0.2,0.1,0.3C347.4,581.2,347.5,581.3,347.5,581.3z M350.8,575.5h0.2c0.6,0,0.6,0.3,0.6,0.4
				c0.2,1-2,3.4-3.7,4.4c0.1-1.6,0.7-3.1,1.7-4.4C350,575.7,350.4,575.5,350.8,575.5z"/>
		</g>
		<path class="st12" d="M288.1,576.4H273c-0.5,0-1,0.5-1.1,1.3l-2.7,16.2c-0.2,1.5,0.5,2.9,1.5,3.2c0.1,0,0.3,0.1,0.4,0.1
			c5.3-0.1,7.8-0.5,14.5-0.5c4.1,0,9.3,0.6,15,0.6c5.6,0,6.4-7.6,4.1-8.3c-10.4-3.1-11.1-7.4-14.4-11.5
			C289.7,576.7,288.9,576.3,288.1,576.4z"/>
		<g>
			<path class="st3" d="M296,583.5c1.1,0.2,2.3-0.2,3.2-0.9c0.3-0.5,0.3-1.1,0-1.6c-0.2-0.4-0.6-0.7-1-0.8c-2-0.5-5.7,2.2-5.8,2.3
				c-0.1,0.1-0.1,0.2-0.1,0.3c0,0.1,0.1,0.2,0.2,0.3C293.6,583.3,294.8,583.5,296,583.5z M297.7,580.8c0.1,0,0.3,0,0.4,0
				c0.3,0,0.5,0.2,0.6,0.4c0.3,0.6,0.1,0.8,0,0.9c-0.6,0.8-3.3,0.8-5.3,0.5C294.7,581.6,296.1,581,297.7,580.8L297.7,580.8
				L297.7,580.8z"/>
			<path class="st3" d="M292.6,583.1h0.1c1.4-0.8,4.1-3.9,3.8-5.5c-0.1-0.5-0.5-0.9-1-0.9c-0.5-0.1-1,0.1-1.4,0.4
				c-1.5,1.3-1.9,5.5-1.9,5.6c0,0.1,0.1,0.2,0.2,0.3C292.5,583.1,292.5,583.1,292.6,583.1z M295.3,577.3h0.1c0.4,0,0.5,0.3,0.5,0.3
				c0.2,0.9-1.5,3.3-2.9,4.4c0.1-1.6,0.6-3.2,1.6-4.5C294.8,577.4,295,577.3,295.3,577.3L295.3,577.3z"/>
		</g>
		<g>
			<g>
				<path class="st12" d="M243.4,394.5c0,0,63.7,27.8,76.8,49.1c-7.8,54.2-21.9,116-21.9,116h-23.9c0,0-0.7-34.4,6.2-79.8
					c3.5-66.3-109.6,2.3-87.6-85.3L243.4,394.5L243.4,394.5z"/>
				<path class="st27" d="M287.4,440.2c-4.5,0.2-8.9,0.9-13.3,1.6c-4.6,0.8-9.3,1.5-14,2.3c7.2,6.4,14.8,12.2,22.7,17.5
					c4.8,3.2,10.1,6.3,15.8,6.4c6.4,0,23.7-8.7,20.9-17.6C316.5,441.3,294.6,439.9,287.4,440.2z"/>
			</g>
			<path class="st12" d="M264.9,394.5c0,0,58.8,8,91.3,27.5c10,6,8.6,25.3,8.3,38c-0.7,34.1-6.9,67.8-18.4,99.6h-20
				c0,0,1-34.4,0.4-90c-0.2-16.6-32-22.1-63.2-24.1c-26.9-1.8-50.5-19.5-60.9-45.7l-2.1-5.4L264.9,394.5L264.9,394.5z"/>
			<path class="st3" d="M351.1,554c0.1,0-1.3,10-1.3,10h-27.6l-0.8-8.9L351.1,554z"/>
			<path class="st3" d="M300.6,554c0.1,0-2.5,10-2.5,10h-27.6l0.5-8.9L300.6,554z"/>
		</g>
		<g>
			<g>
				<polygon class="st3" points="226.4,444.8 206.5,599 203,598.5 218.3,443.7 				"/>
				<polygon class="st9" points="225.6,450.4 206.5,599 203,598.5 217.6,450.3 				"/>
			</g>
			<g>
				<path class="st3" d="M296,450.4H183.7c0-7.5,5.7-13.5,12.8-13.5l0,0h86.7C290.3,436.8,296,442.9,296,450.4L296,450.4z"/>
				<path class="st28" d="M296,450.4H183.7c0-7.5,5.7-13.5,12.8-13.5l0,0h86.7C290.3,436.8,296,442.9,296,450.4L296,450.4z"/>
			</g>
			<polygon class="st3" points="188.9,450.3 172,600.2 175.6,600.2 197.1,450.3 			"/>
			<g>
				<polygon class="st3" points="290.8,450.3 307.8,600.2 304.1,600.2 282.7,450.3 				"/>
				<polygon class="st9" points="290.8,450.3 307.8,600.2 304.1,600.2 282.7,450.3 				"/>
			</g>
			<polygon class="st3" points="268.2,450.3 268.5,600.2 264.9,600.2 260,450.3 			"/>
		</g>
	</g>
</g>
<rect x="148.2" y="27.7" class="st29" width="532.5" height="86.3"/>
<rect x="601.1" y="263.4" class="st29" width="80" height="38.9"/>
</svg>
