<?xml version="1.0" encoding="utf-8"?>
<!-- Generator: Adobe Illustrator 24.0.1, SVG Export Plug-In . SVG Version: 6.00 Build 0)  -->
<svg version="1.1" id="Layer_1" xmlns="http://www.w3.org/2000/svg" xmlns:xlink="http://www.w3.org/1999/xlink" x="0px" y="0px"
	 viewBox="0 0 792 720" style="enable-background:new 0 0 792 720;" xml:space="preserve">
<style type="text/css">
	.st0{fill:#A7A7A7;stroke:#F5F6F6;stroke-miterlimit:10;}
	.st1{fill:#4075BA;}
	.st2{opacity:0.5;enable-background:new    ;}
	.st3{opacity:0.5;fill:#FFFFFF;enable-background:new    ;}
	.st4{opacity:0.5;}
	.st5{fill:#FFFFFF;}
	.st6{opacity:0.4;fill:#FFFFFF;enable-background:new    ;}
	.st7{opacity:0.4;enable-background:new    ;}
	.st8{fill:#923D39;}
	.st9{opacity:0.2;enable-background:new    ;}
	.st10{fill:#192E35;}
	.st11{fill:#731012;}
	.st12{opacity:0.1;fill:#FFFFFF;enable-background:new    ;}
	.st13{opacity:0.7;fill:#FFFFFF;enable-background:new    ;}
	.st14{fill:#BB2526;}
	.st15{fill:#CE5B51;}
	.st16{opacity:0.2;}
	.st17{opacity:0.3;enable-background:new    ;}
	.st18{fill:none;}
	.st19{fill:#F5E8D0;}
	.st20{font-family:'Chiret-Regular';}
	.st21{font-size:12px;}
	.st22{fill:#E3BC3D;}
	.st23{fill:#65994C;}
	.st24{fill:#E18256;}
	.st25{fill:#67ADA9;}
</style>
<g id="Shadow--inject-214">
	<ellipse id="path--inject-214" class="st0" cx="377.29" cy="594.73" rx="365.51" ry="32.13"/>
</g>
<g>
	<g id="Group">
		<rect x="55.96" y="373.85" class="st1" width="704.21" height="9.36"/>
		<polygon class="st1" points="97.9,380.57 97.9,603.71 103.4,603.71 110.31,380.57 		"/>
		<g>
			<polygon class="st1" points="162.76,387.86 162.76,594.59 168.25,594.59 175.16,387.86 			"/>
			<polygon class="st2" points="162.76,387.86 162.76,594.59 168.25,594.59 175.16,387.86 			"/>
		</g>
		<polygon class="st1" points="720.72,380.57 720.72,603.71 715.24,603.71 708.31,380.57 		"/>
		<g>
			<polygon class="st1" points="655.88,387.86 655.88,594.59 650.38,594.59 643.47,387.86 			"/>
			<polygon class="st2" points="655.88,387.86 655.88,594.59 650.38,594.59 643.47,387.86 			"/>
		</g>
		<g>
			<polygon class="st1" points="733.24,393.22 84.95,393.22 70.61,383.21 747.58,383.21 			"/>
			<polygon class="st2" points="733.24,393.22 84.95,393.22 70.61,383.21 747.58,383.21 			"/>
		</g>
	</g>
</g>
<g>
	<path class="st1" d="M92.46,345.97v7.22c0,1.22,0.45,2.36,1.26,3.22l5.48,5.79c0.5,0.53,1.11,0.89,1.77,1.11
		c2.24,5.08,7.1,8.6,12.75,8.6h2.05c7.77,0,14.07-6.65,14.07-14.85v-17.02H99.66v1.38h-2.89C94.39,341.41,92.46,343.46,92.46,345.97
		z M95.91,345.97c0-0.5,0.38-0.91,0.86-0.91h2.89v11.99c0,0.16,0.02,0.32,0.02,0.49l-3.52-3.71c-0.16-0.17-0.25-0.4-0.25-0.64
		V345.97z"/>
	<path class="st3" d="M92.46,345.97v7.22c0,1.22,0.45,2.36,1.26,3.22l5.48,5.79c0.5,0.53,1.11,0.89,1.77,1.11
		c2.24,5.08,7.1,8.6,12.75,8.6h2.05c7.77,0,14.07-6.65,14.07-14.85v-17.02H99.66v1.38h-2.89C94.39,341.41,92.46,343.46,92.46,345.97
		z M95.91,345.97c0-0.5,0.38-0.91,0.86-0.91h2.89v11.99c0,0.16,0.02,0.32,0.02,0.49l-3.52-3.71c-0.16-0.17-0.25-0.4-0.25-0.64
		V345.97z"/>
	<g>
		<path class="st1" d="M137.02,374.34H93.59c-2.82,0-5.11-2.7-5.11-2.7h53.66C142.13,371.64,139.84,374.34,137.02,374.34z"/>
		<path class="st3" d="M137.02,374.34H93.59c-2.82,0-5.11-2.7-5.11-2.7h53.66C142.13,371.64,139.84,374.34,137.02,374.34z"/>
	</g>
</g>
<g>
	<g>
		<g>
			<path class="st1" d="M732.21,350.56c-0.23-7.24-5.45-9.01-12.26-9.83v-2.64c-0.01-0.63-0.51-1.14-1.11-1.13
				c-0.01,0-0.02,0-0.02,0H695.3c-0.61-0.03-1.13,0.48-1.15,1.13l0,0v34.49h25.81v-3.77C726.78,367.99,732.01,357.81,732.21,350.56z
				 M719.95,364.34v-19.16c5.01,0.78,8.47,1.5,7.73,6.79C727.09,356.2,723.95,363.72,719.95,364.34z"/>
		</g>
	</g>
	<g class="st4">
		<path class="st5" d="M732.21,350.56c-0.23-7.24-5.45-9.01-12.26-9.83v-2.64c-0.01-0.63-0.51-1.14-1.11-1.13c-0.01,0-0.02,0-0.02,0
			H695.3c-0.61-0.03-1.13,0.48-1.15,1.13l0,0v34.49h25.81v-3.77C726.78,367.99,732.01,357.81,732.21,350.56z M719.95,364.34v-19.16
			c5.01,0.78,8.47,1.5,7.73,6.79C727.09,356.2,723.95,363.72,719.95,364.34z"/>
	</g>
</g>
<g>
	<g>
		<path class="st5" d="M343.69,120.24c-4.9,7.46-11.43,13.22-19.02,17.85c-7.33,4.47-14.91,8.37-20.09,15.46
			c-1.61,2.21,1.56,7.87,0,10c5.19-7.09,12.76-10.99,20.09-15.46c7.58-4.63,14.12-10.4,19.02-17.85
			C345.25,127.88,342.19,122.53,343.69,120.24L343.69,120.24z"/>
	</g>
</g>
<g>
	<g>
		<path class="st5" d="M326.24,137.97c-1.85,4.37-5.62,7.55-10.35,8.3c-0.59,0.09,0.44,9.93,0,10c4.72-0.75,8.5-3.93,10.35-8.3
			c0.13-0.3,0.03-1.25,0.04-1.46c0.01-1.18,0.01-2.36,0.01-3.54s0-2.36-0.01-3.54C326.27,139.07,326.1,138.28,326.24,137.97
			L326.24,137.97z"/>
	</g>
</g>
<g>
	<g>
		<path class="st5" d="M330.34,143.58c-15.86-3.03-31.18-8.01-45.81-14.83c1.21,0.57-1.34,9.38,0,10
			c14.64,6.82,29.95,11.79,45.81,14.83C329.8,153.48,331.03,143.71,330.34,143.58L330.34,143.58z"/>
	</g>
</g>
<g>
	<g>
		<g>
			<rect x="383.54" y="320.81" class="st1" width="27.3" height="49.52"/>
			<rect x="383.54" y="320.81" class="st3" width="27.3" height="49.52"/>
		</g>
		<g>
			<polygon class="st1" points="423.16,371.22 371.44,371.22 384.06,361.3 410.55,361.3 			"/>
			<polygon class="st3" points="423.16,371.22 371.44,371.22 384.06,361.3 410.55,361.3 			"/>
		</g>
	</g>
	<g>
		<g>
			<g>
				<polygon class="st1" points="536.88,355.18 407.58,355.18 430.95,371.28 560.22,371.28 				"/>
				<polygon class="st6" points="536.88,355.18 407.58,355.18 430.95,371.28 560.22,371.28 				"/>
			</g>
		</g>
		<g>
			<polygon class="st1" points="410.57,371.28 407.58,355.18 430.95,371.28 			"/>
			<polygon class="st2" points="410.57,371.28 407.58,355.18 430.95,371.28 			"/>
		</g>
	</g>
	<g>
		<path class="st1" d="M278.86,203.6H514.2c2.47,0,4.46,1.78,4.46,3.99v128.86c0,2.2-2,3.99-4.46,3.99H278.86
			c-2.47,0-4.46-1.78-4.46-3.99V207.59C274.39,205.38,276.39,203.6,278.86,203.6z"/>
		<rect x="283.27" y="212.15" class="st2" width="226.27" height="119.25"/>
	</g>
	<g>
		<g>
			<rect x="388.17" y="236.68" class="st7" width="114.18" height="70.19"/>
			<rect x="388.17" y="236.68" class="st1" width="114.18" height="6.43"/>
		</g>
		<g>
			<path class="st5" d="M409.09,275.5l18.67,9.24c0.94,0.47,1.56,0.89,1.87,1.26s0.46,0.84,0.46,1.41c0,0.72-0.29,1.34-0.87,1.87
				s-1.26,0.79-2.02,0.79c-0.51,0-1.26-0.25-2.28-0.75l-24.08-11.96c-1.62-0.81-1.62-2.89,0-3.7l24.08-11.96
				c1.01-0.49,1.76-0.73,2.25-0.73c0.79,0,1.47,0.26,2.05,0.78s0.87,1.14,0.87,1.86c0,0.57-0.15,1.04-0.46,1.41
				s-0.93,0.79-1.87,1.25L409.09,275.5z"/>
			<path class="st5" d="M457.12,258.28l-18.47,35.55c-0.47,0.89-0.89,1.46-1.27,1.73c-0.49,0.35-1.08,0.53-1.77,0.53
				c-0.79,0-1.47-0.25-2.04-0.75s-0.86-1.07-0.86-1.71c0-0.45,0.22-1.11,0.67-1.98l18.53-35.52c0.47-0.89,0.88-1.46,1.24-1.73
				c0.51-0.35,1.1-0.53,1.77-0.53c0.79,0,1.46,0.25,2.02,0.74s0.84,1.06,0.84,1.69C457.8,256.74,457.57,257.4,457.12,258.28z"/>
			<path class="st5" d="M480.35,275.5l-18.67-9.24c-0.94-0.47-1.56-0.89-1.87-1.25c-0.31-0.37-0.46-0.84-0.46-1.41
				c0-0.72,0.29-1.34,0.87-1.86s1.26-0.78,2.05-0.78c0.49,0,1.24,0.24,2.25,0.73l24.08,11.96c1.62,0.81,1.62,2.89,0,3.7
				l-24.08,11.96c-1.01,0.5-1.76,0.75-2.25,0.75c-0.8,0-1.49-0.27-2.07-0.8c-0.55-0.5-0.85-1.16-0.85-1.87
				c0-0.57,0.15-1.04,0.46-1.4c0.31-0.37,0.93-0.79,1.87-1.26L480.35,275.5z"/>
		</g>
	</g>
	<g>
		<g>
			<rect x="292.54" y="223.16" class="st5" width="7.73" height="6.9"/>
			<rect x="292.54" y="241.03" class="st5" width="7.73" height="6.9"/>
			<rect x="292.54" y="258.89" class="st5" width="7.73" height="6.9"/>
			<rect x="292.54" y="276.76" class="st5" width="7.73" height="6.9"/>
			<rect x="292.54" y="294.63" class="st5" width="7.73" height="6.9"/>
			<rect x="292.54" y="312.5" class="st5" width="7.73" height="6.9"/>
		</g>
		<g>
			<rect x="307.62" y="224.71" class="st5" width="30.81" height="2.07"/>
		</g>
		<g>
			<rect x="314.8" y="242.63" class="st5" width="10.98" height="2.07"/>
		</g>
		<g>
			<rect x="362.57" y="262.72" class="st5" width="10.98" height="2.07"/>
		</g>
		<g>
			<rect x="314.8" y="278.67" class="st5" width="10.98" height="2.07"/>
		</g>
		<g>
			<rect x="330.63" y="278.67" class="st5" width="10.98" height="2.07"/>
		</g>
		<g>
			<rect x="330.63" y="262.72" class="st5" width="28.05" height="2.07"/>
		</g>
		<g>
			<rect x="346.96" y="278.67" class="st5" width="18.47" height="2.07"/>
		</g>
		<g>
			<rect x="346.9" y="316.98" class="st5" width="10.98" height="2.07"/>
		</g>
		<g>
			<rect x="362.73" y="316.98" class="st5" width="10.98" height="2.07"/>
		</g>
		<g>
			<rect x="379.07" y="316.98" class="st5" width="6.13" height="2.07"/>
		</g>
		<g>
			<rect x="331.28" y="242.63" class="st5" width="34.15" height="2.07"/>
		</g>
		<g>
			<rect x="330.63" y="297.34" class="st5" width="10.98" height="2.07"/>
		</g>
		<g>
			<rect x="345.27" y="297.34" class="st5" width="6.35" height="2.07"/>
		</g>
		<g>
			<rect x="356.47" y="297.34" class="st5" width="17.92" height="2.07"/>
		</g>
	</g>
</g>
<g>
	<g>
		<g>
			<path class="st1" d="M340.77,121.55c-5.86-1.34-11.33-3.94-14.6-8.09c-5.84-2-12.32-3.02-19.15-2.81
				c-26.38,0.74-48.1,19.23-48.52,41.31c-0.06,5.04,0.94,9.94,2.88,14.19c3.82,10.17,12.98,21.72-3.77,35.38
				c16.05-2.66,21.66-8.61,24.31-15.54c7.54,3.34,15.54,4.91,23.64,4.62c26.38-0.74,48.1-19.24,48.52-41.31
				C354.28,138.34,349.18,128.54,340.77,121.55z"/>
		</g>
	</g>
	<g>
		<g>
			<rect x="283.85" y="126.19" class="st5" width="22.99" height="1.82"/>
		</g>
		<g>
			<rect x="289.21" y="141.99" class="st5" width="8.19" height="1.82"/>
		</g>
		<g>
			<rect x="324.85" y="159.72" class="st5" width="8.19" height="1.82"/>
		</g>
		<g>
			<rect x="289.21" y="173.79" class="st5" width="8.19" height="1.82"/>
		</g>
		<g>
			<rect x="301.02" y="173.79" class="st5" width="8.19" height="1.82"/>
		</g>
		<g>
			<rect x="301.02" y="159.72" class="st5" width="20.93" height="1.82"/>
		</g>
		<g>
			<rect x="313.21" y="173.79" class="st5" width="13.78" height="1.82"/>
		</g>
		<g>
			<rect x="301.5" y="141.99" class="st5" width="25.48" height="1.82"/>
		</g>
	</g>
</g>
<g>
	<g>
		<g>
			<g>
				<g>
					<polygon class="st8" points="511.11,584.74 498.51,580.77 501.45,548.17 514.04,552.15 					"/>
					<polygon class="st9" points="515.08,544.79 502.49,540.83 500.85,559.09 513.58,561.59 					"/>
				</g>
				<path class="st1" d="M585.65,383.43c0,0-86.61,7.72-84.48,47.42c1.74,32.51,6.31,23.67-2.66,120.32l21.79,1.27
					c0,0,22.16-79.06,19.17-110.47c24.41,0,80.3,2.26,88.42-20.99c4.03-11.81,5.99-24.29,5.79-36.84L585.65,383.43z"/>
			</g>
			<polygon class="st10" points="523.76,556.89 495.29,551.75 495.76,538.45 525.23,545.37 			"/>
		</g>
		<g>
			<path class="st10" d="M497.22,575.3l14.55,3.04c0.51,0.08,0.88,0.65,0.83,1.29l-1.21,14.52c-0.22,1.56-1.4,2.63-2.66,2.39
				c-5.04-1.16-7.43-2.02-13.82-3.36c-3.94-0.82-12.94-2.82-18.42-3.47c-5.48-0.65-4.82-7.41-2.45-7.76
				c10.64-1.49,16.69-3.3,20.82-6.12C495.57,575.33,496.4,575.15,497.22,575.3z"/>
			<g>
				<path class="st1" d="M490.69,577.93c1.14,0.16,2.3,0.2,3.46,0.11c0.12,0,0.22-0.08,0.26-0.2c0.06-0.11,0.06-0.24,0-0.35
					c-0.36-0.38-3.63-3.65-5.3-3.28c-0.39,0.07-0.72,0.37-0.85,0.77c-0.28,0.58-0.24,1.28,0.1,1.82
					C488.98,577.46,489.81,577.87,490.69,577.93z M493.47,577.44c-2.4,0-4.09-0.29-4.6-1.04c-0.2-0.36-0.2-0.81,0-1.17
					c0.06-0.2,0.21-0.35,0.4-0.4C490.15,574.63,492.12,576.16,493.47,577.44z"/>
				<path class="st1" d="M494.16,578.04c0,0,0.09,0,0.14,0c0.1-0.04,0.18-0.13,0.21-0.24c0-0.16,0.95-4.05-0.16-5.6
					c-0.27-0.42-0.73-0.67-1.21-0.67c-0.53-0.08-1.05,0.24-1.24,0.77c-0.54,1.44,0.95,4.63,2.11,5.67
					C494.05,578.01,494.1,578.04,494.16,578.04z M493.26,572.18c0.24,0.04,0.46,0.19,0.6,0.4c0.51,1.44,0.56,3.01,0.16,4.49
					c-1.05-1.25-1.6-2.87-1.55-4.54c0-0.18,0.19-0.38,0.64-0.36L493.26,572.18z"/>
			</g>
		</g>
		<g>
			<g>
				<polygon class="st8" points="454.96,589.81 442.97,584.12 451.26,552.9 463.25,558.59 				"/>
				<polygon class="st9" points="465.28,550.55 453.29,544.86 449.02,560.97 461.01,566.66 				"/>
			</g>
			<g>
				<path class="st1" d="M559.88,383.43c-0.57,0-97.09,10.49-97.21,45.05C462.46,485.64,447,551.17,447,551.17l19.08,9.98
					c0,0,33.22-71.04,32.72-115.6c26.55-8.04,95.24,5.47,103.36-17.77c6.65-19.01,3.06-44.36,3.06-44.36L559.88,383.43z"/>
				<polygon class="st10" points="469.12,564.04 443.55,551.9 445.61,540.84 472.58,550.68 				"/>
			</g>
		</g>
		<g>
			<path class="st10" d="M444.16,573.63l14.58,3.2c0.5,0.1,0.86,0.73,0.81,1.42l-1.14,15.96c-0.19,1.73-1.38,2.92-2.64,2.65l0,0
				c-5.04-1.23-7.43-2.18-13.82-3.58c-3.94-0.85-14.67-3.6-20.07-5.09c-5.41-1.49-4.2-8.76-1.73-8.81
				c10.69-0.17,17.62-2.01,21.73-5.16C442.57,573.68,443.37,573.48,444.16,573.63z"/>
			<g>
				<path class="st1" d="M438.17,577.08c1.02-0.58,1.97-1.28,2.85-2.07c0.1-0.08,0.14-0.22,0.1-0.35c-0.04-0.12-0.14-0.2-0.25-0.21
					c-0.51-0.08-4.97-0.7-6.12,0.66c-0.26,0.32-0.35,0.75-0.23,1.15c0.1,0.64,0.52,1.18,1.1,1.41
					C436.51,577.82,437.42,577.61,438.17,577.08z M440.12,574.95c-1.88,1.55-3.45,2.31-4.28,2.04c-0.37-0.17-0.62-0.54-0.66-0.96
					c-0.07-0.19-0.02-0.41,0.11-0.56C435.91,574.82,438.33,574.77,440.12,574.95z"/>
				<path class="st1" d="M441.02,575l0.13-0.1c0.06-0.08,0.08-0.2,0.03-0.29c-0.09-0.13-1.51-3.87-3.27-4.44
					c-0.46-0.16-0.95-0.08-1.34,0.22c-0.47,0.28-0.71,0.86-0.57,1.41c0.37,1.5,3.35,3.13,4.88,3.24
					C440.93,575.04,440.97,575.03,441.02,575z M437,570.85c0.22-0.13,0.48-0.16,0.72-0.08c1.22,0.85,2.15,2.08,2.66,3.53
					c-1.55-0.34-2.92-1.31-3.82-2.69c-0.1-0.15-0.06-0.43,0.31-0.69L437,570.85z"/>
			</g>
		</g>
		<g>
			<path class="st8" d="M592.67,273.15c2.54,5.76,4.63,11.31,6.72,17.07c2.09,5.76,3.94,11.53,5.65,17.44s3.2,11.97,4.39,18.24
				c1.3,6.52,1.95,13.16,1.93,19.83c-0.02,3.91-0.57,7.8-1.64,11.55c-0.67,2.3-1.64,4.48-2.89,6.49c-0.72,1.14-1.55,2.2-2.47,3.17
				l-0.74,0.77c-0.41,0.36-0.86,0.77-1.3,1.08c-0.73,0.53-1.5,0.98-2.31,1.35c-1.2,0.56-2.45,0.98-3.73,1.26
				c-1.01,0.23-2.03,0.39-3.06,0.47c-1.75,0.12-3.51,0.12-5.27,0c-3.12-0.16-6.22-0.52-9.29-1.09c-11.47-2.2-22.7-5.6-33.53-10.14
				l2.51-10.05c10.97,1.39,22.17,2.86,32.72,3.37c2.63,0,5.18,0.13,7.57,0c1.06-0.06,2.12-0.2,3.16-0.42
				c0.86-0.16,1.61-0.49,1.35-0.47c-0.17,0.06-0.33,0.15-0.48,0.26c-0.17,0.11-0.34,0.24-0.48,0.38l0,0c0,0,0.09-0.15,0.16-0.31
				c0.22-0.52,0.4-1.07,0.52-1.62c0.39-2,0.54-4.05,0.47-6.09c-0.25-5.22-0.99-10.41-2.19-15.49c-1.17-5.47-2.7-10.8-4.35-16.22
				c-1.66-5.42-3.46-10.83-5.42-16.23c-1.97-5.4-4.04-10.82-6.08-15.91L592.67,273.15z"/>
			<path class="st8" d="M552.4,353.31l-11.45-6.8l-5.75,13.1c0,0,13.39,5.89,16.2,2.21L552.4,353.31z"/>
			<polygon class="st8" points="531.66,348.99 526.43,357.74 535.19,359.51 540.94,346.42 			"/>
		</g>
		<g>
			<path class="st8" d="M565.96,283.55c-2.19,5.82-4.49,11.38-6.91,17.02s-4.84,11.18-7.39,16.73
				c-5.15,11.29-10.92,22.25-17.28,32.83c-1.73,2.7-3.46,5.38-5.39,8.06c-0.97,1.35-2.04,2.68-3.18,4.05
				c-0.62,0.69-1.12,1.33-1.85,2.04l-1.04,1.06l-0.59,0.58c-1.64,1.49-3.58,2.57-5.67,3.17c-1.1,0.33-2.22,0.58-3.35,0.75
				c-1.85,0.24-3.71,0.32-5.56,0.24c-3.21-0.11-6.41-0.44-9.57-1c-11.71-2.18-23.19-5.62-34.24-10.25l2.52-10.07
				c11.18,1.42,22.6,2.94,33.34,3.41c2.53,0.1,5.07,0.07,7.6-0.11c1.02-0.08,2.03-0.26,3.02-0.51c0.32-0.08,0.64-0.2,0.93-0.36
				c0.1,0,0-0.13-0.47,0.18c-0.17,0.1-0.33,0.22-0.47,0.36c0,0,0.12-0.16,0.17-0.22l0.48-0.57c0.31-0.33,0.69-0.88,1.05-1.31
				c0.71-0.95,1.43-1.97,2.16-3.08c1.43-2.17,2.83-4.58,4.22-7.02c2.76-4.89,5.34-10.09,7.86-15.34c2.52-5.25,4.94-10.62,7.33-16.01
				c4.75-10.76,9.4-21.8,13.82-32.65L565.96,283.55z"/>
			<g>
				<path class="st8" d="M471.37,351.38l-11.47-6.89l-5.75,13.1c0,0,13.39,5.91,16.22,2.23L471.37,351.38z"/>
				<polygon class="st8" points="450.64,347.08 445.39,355.81 454.15,357.58 459.9,344.49 				"/>
			</g>
		</g>
		<g>
			<path class="st8" d="M595.62,218.83l-7.32,8.96L577.12,240c0.23,0.6,0.54,1.38,0.86,2.21c0.86,2.25,1.37,4.64,1.49,7.06
				c0.24,4.89-0.2,9.03-7.51,12.35c0,0-7.67,10.58,10.57,7.64c18.24-2.94,20.99-12.93,20.99-12.93
				C595.43,250.26,594.98,230.07,595.62,218.83z"/>
			<g>
				<path class="st10" d="M558.43,208.73c0,1.2-0.57,2.23-1.33,2.26c-0.76,0.04-1.36-0.91-1.38-2.12c-0.02-1.2,0.59-2.23,1.33-2.26
					C557.79,206.57,558.41,207.52,558.43,208.73z"/>
				<path class="st10" d="M562.24,204.24c-0.23,0-0.43-0.13-0.55-0.33c-0.91-1.57-2.45-2.61-4.18-2.81
					c-0.37-0.02-0.66-0.34-0.66-0.73c0.01-0.39,0.32-0.7,0.69-0.69l0,0l0,0c2.18,0.2,4.14,1.49,5.29,3.47
					c0.19,0.33,0.1,0.77-0.21,0.98C562.51,204.2,562.38,204.24,562.24,204.24z"/>
				<path class="st11" d="M558.01,209.4c-0.93,3.29-2.26,6.43-3.97,9.34c1.44,0.86,3.16,0.99,4.7,0.36L558.01,209.4z"/>
				<path class="st8" d="M596.66,202.65c-0.67,14.88-0.36,23.71-7.36,31.59c-6.82,7.93-18.43,8.53-25.94,1.33
					c-2.75-2.64-4.68-6.1-5.54-9.92c-3.18-13.19-1.52-35.31,12.09-41.95c9.18-4.8,20.31-0.84,24.86,8.86
					C596.24,195.69,596.89,199.17,596.66,202.65z"/>
			</g>
		</g>
		<g>
			<g>
				<path class="st10" d="M603.05,207.62c-2.04,6.31-5.13,12.18-9.16,17.33l-18.35,3.65c0,0-14.49-6.4-10.62-16.94
					c-2.45-2.19-1.54-8.96,0.19-12.68c2.76,2.33,7.31,2.54,9.8-0.27c2,3.89,8.02,4.43,10.62,0.93c2.99,3.5,9.36,2.43,11.16-1.9
					c2.21,1.53,5.39,1.31,7.39-0.51c0.09-0.09,0.17-0.16,0.26-0.26C604.64,199.63,604.35,203.11,603.05,207.62z"/>
				<path class="st12" d="M603.05,207.62c-2.04,6.31-5.13,12.18-9.16,17.33l-18.35,3.65c0,0-14.49-6.4-10.62-16.94
					c-2.45-2.19-1.54-8.96,0.19-12.68c2.76,2.33,7.31,2.54,9.8-0.27c2,3.89,8.02,4.43,10.62,0.93c2.99,3.5,9.36,2.43,11.16-1.9
					c2.21,1.53,5.39,1.31,7.39-0.51c0.09-0.09,0.17-0.16,0.26-0.26C604.64,199.63,604.35,203.11,603.05,207.62z"/>
			</g>
			<path class="st10" d="M605.7,189.58c1.04,2.44,0.47,5.53-1.35,7.39c-0.09,0.09-0.17,0.16-0.26,0.26c-2,1.82-5.18,2.04-7.39,0.51
				c-1.8,4.32-8.17,5.4-11.16,1.9c-2.61,3.5-8.62,2.95-10.62-0.93c-2.49,2.81-7.03,2.61-9.8,0.27c-0.73-0.6-1.33-1.37-1.73-2.26
				c-0.1-0.2-0.17-0.4-0.24-0.6c-0.16,0.18-0.31,0.35-0.48,0.49c-1.68,1.46-4.32,1.68-6.15,0.38c-1.5-1.06-2.33-3.03-2.21-4.91
				c0.02-0.4,0.09-0.78,0.19-1.17c-0.14,0.27-0.31,0.53-0.52,0.75c-1.5,1.7-4.68,1.77-6.15-0.16c-1.83-2.39-0.79-6.37,1.71-7.95
				c1-0.62,2.11-0.91,3.25-0.91c1.76,0,3.56,0.67,4.96,1.81c-1.5-2.28-0.97-5.76,1.14-7.42c2.11-1.64,5.42-1.19,7.05,0.98
				c-0.22-2.59,0.59-4.14,1.85-4.94c2.38-1.46,6.36-0.2,8.29,2.24c0,0,2.66-6.79,7.26-6.02c1,0.15,5.72,2.35,5.6,4.14
				c0,0.13-0.03,0.24-0.09,0.35c0.07-0.15,0.14-0.27,0.22-0.4c0.9-1.5,2.71-2.24,4.42-2.21c1.85,0.02,3.61,0.77,5.32,1.5
				c3.58,1.55,7.38,3.28,9.45,6.73C610.31,182.85,609.41,188.48,605.7,189.58z"/>
			<path class="st8" d="M573.02,213.03c-0.5,3.68-2.1,7.09-4.56,9.74c-3.13,3.16-5.79,0-5.82-4.8c0-4.34,1.54-11.22,5.18-12.49
				C571.47,204.2,573.7,208.31,573.02,213.03z"/>
		</g>
		<g>
			<path class="st10" d="M628.27,261.51c-1.3-3.65-7.34-7.3-11.06-7.3h-2.45c-4.28,0-9.62,0.36-14.81,1
				c-9.88,1.15-19.68,2.9-29.37,5.22c-4.46,1.24-8.76,2.81-12.18,4.16c-4.35,1.82-6.91,3.05-6.91,3.05s4.77,33.53,7.24,66.84
				c1.37,18.54,0.81,36.94,1.24,49.6h73.7c2.54-15.21,2.14-28.48,2.35-55.95C636.15,311.65,633.61,276.52,628.27,261.51z"/>
			<path class="st9" d="M557.14,315.87c0.55,6.99,1.12,14.32,1.73,21.65c8.64-13.32,13.42-49.74,13.42-49.74L557.14,315.87z"/>
		</g>
		<path class="st10" d="M547.33,270.09c-10.56,6.27-20.9,38.38-20.9,38.38l24.17,19.25c9.23-9.21,22.72-32.07,24.19-41.2
			C577.15,272.5,564.25,260.1,547.33,270.09z"/>
	</g>
	<g>
		<g>
			<path class="st10" d="M526.48,596.94c0,4.38-3.36,7.93-7.52,7.93c-4.15,0-7.52-3.55-7.52-7.93s3.36-7.93,7.52-7.93
				C523.11,589.01,526.48,592.56,526.48,596.94L526.48,596.94z"/>
			<path class="st10" d="M638.58,596.94c0,4.38,3.36,7.93,7.52,7.93c4.15,0,7.52-3.55,7.52-7.93s-3.36-7.93-7.52-7.93
				S638.58,592.56,638.58,596.94L638.58,596.94z"/>
			<path class="st10" d="M575.21,594.4c0,4.38,3.36,7.93,7.52,7.93c4.15,0,7.52-3.55,7.52-7.93s-3.36-7.93-7.52-7.93
				C578.58,586.47,575.21,590.02,575.21,594.4L575.21,594.4z"/>
		</g>
		<g>
			<path class="st10" d="M580.39,584.61v-15.34h-21.53c-4.23,0-8.44,0.42-12.59,1.24l-40.08,8.22c-1.98,0.41-3.27,2.43-2.88,4.51
				c0.34,1.85,1.91,3.17,3.69,3.11L580.39,584.61z"/>
			<path class="st10" d="M580.39,584.61v-15.34h21.54c4.23,0,8.44,0.42,12.59,1.24l45.05,7.6c1.98,0.41,3.27,2.43,2.88,4.51
				c-0.34,1.85-1.91,3.17-3.69,3.11L580.39,584.61z"/>
		</g>
		<g>
			<rect x="567.06" y="499.05" class="st10" width="26.66" height="70.24"/>
			<rect x="570.89" y="466.36" class="st10" width="19" height="32.67"/>
			<polygon class="st2" points="570.89,475.95 589.9,481.01 589.9,466.36 570.89,466.36 			"/>
		</g>
		<g>
			<g>
				<rect x="509.3" y="392.45" class="st10" width="9.66" height="43.5"/>
				<path class="st1" d="M567.38,466.36V277.24c0-7.16,2.93-13.97,8.03-18.69l12.77-11.8c4.29-3.96,9.8-6.15,15.5-6.15h46.12
					l22.54,25.32v200.44H567.38z"/>
				<path class="st1" d="M498.71,429.77h105.21v36.59H481.57c-6.87,0.01-12.44-5.87-12.45-13.12c0-2.36,0.6-4.67,1.74-6.7l0,0
					C476.69,436.14,487.28,429.77,498.71,429.77z"/>
				<path class="st13" d="M672.33,265.93v200.44H481.57c-6.86,0-12.44-5.87-12.44-13.13c0-2.35,0.59-4.67,1.73-6.69
					c5.82-10.38,16.38-16.76,27.8-16.76h52.99c8.69,0,15.73-7.44,15.73-16.61V277.24c0-7.15,2.92-13.97,8.03-18.68l12.77-11.8
					c4.28-3.98,9.8-6.15,15.5-6.15h46.11L672.33,265.93z"/>
				<g>
					<path class="st1" d="M582.73,466.36V277.24c0-7.16,2.93-13.97,8.03-18.69l12.77-11.8c4.29-3.96,9.8-6.15,15.5-6.15h35.95
						c6.49,0,12.7,2.83,17.14,7.83l9.19,10.32c4.1,4.61,6.38,10.69,6.38,17.01v171.66c0,10.46-8.03,18.94-17.93,18.94L582.73,466.36
						L582.73,466.36z"/>
					<path class="st3" d="M582.73,466.36V277.24c0-7.16,2.93-13.97,8.03-18.69l12.77-11.8c4.29-3.96,9.8-6.15,15.5-6.15h35.95
						c6.49,0,12.7,2.83,17.14,7.83l9.19,10.32c4.1,4.61,6.38,10.69,6.38,17.01v171.66c0,10.46-8.03,18.94-17.93,18.94L582.73,466.36
						L582.73,466.36z"/>
				</g>
			</g>
			<g>
				<path class="st1" d="M546.93,405.73c-21.25-7.83-44.4-7.83-65.65,0c-4.41,1.76-9.37-0.24-11.56-4.65l0,0
					c-1.97-4.4,0.67-10.09,6.03-12.07c24.82-9.16,51.85-9.16,76.67,0c5.36,1.97,8,7.68,6.03,12.07l0,0
					C556.26,405.47,551.33,407.46,546.93,405.73z"/>
				<path class="st13" d="M546.93,405.73c-21.25-7.83-44.4-7.83-65.65,0c-4.41,1.76-9.37-0.24-11.56-4.65l0,0
					c-1.97-4.4,0.67-10.09,6.03-12.07c24.82-9.16,51.85-9.16,76.67,0c5.36,1.97,8,7.68,6.03,12.07l0,0
					C556.26,405.47,551.33,407.46,546.93,405.73z"/>
			</g>
		</g>
	</g>
</g>
<g>
	<g id="_x3C_Group_x3E_">
		<g>
			<g>
				<path class="st10" d="M255.5,227.57c-0.36,1.08-0.1,2.15,0.57,2.39s1.5-0.42,1.85-1.5s0.1-2.17-0.55-2.41
					C256.71,225.81,255.87,226.47,255.5,227.57z"/>
				<path class="st14" d="M255.31,228.68c0.13,3.76,0.76,7.48,1.85,11.05c-1.76,0.53-3.65,0.23-5.18-0.84L255.31,228.68z"/>
				<path class="st10" d="M253.84,220.23c0.13,0.05,0.27,0.05,0.4,0c1.54-0.54,3.23-0.27,4.54,0.73c0.29,0.22,0.69,0.15,0.89-0.15
					c0.18-0.27,0.16-0.64-0.06-0.87c-1.65-1.29-3.78-1.67-5.74-1c-0.33,0.12-0.51,0.5-0.4,0.86c0.06,0.2,0.21,0.35,0.4,0.42
					L253.84,220.23z"/>
				<path class="st15" d="M217.62,231.54c1.93,10.38,3.85,29.4-3.02,36.33c0,0,2.7,10.52,20.97,10.52c20.09,0,9.61-10.52,9.61-10.52
					c-10.97-2.77-9.21-11.36-7.29-19.43L217.62,231.54z"/>
				<path class="st15" d="M222.09,212.72c-3.59,13.57-6.36,21.32-2.25,30.46c6.17,13.77,27.72,15.56,33.6-0.21
					c4.47-14.51,8.9-29.85-1.68-39.65c-7.52-7.05-19.03-6.33-25.71,1.61C224.19,207.16,222.82,209.83,222.09,212.72z"/>
			</g>
			<path class="st10" d="M208.16,217.23c-0.94-5-1.18-10.47,1.19-14.91c2.36-4.44,8.09-7.17,12.25-4.58
				c3.59-7.99,12.26-13.07,20.58-12.06c8.32,1.02,15.67,8.05,17.44,16.7c1.77,8.64-2.18,18.25-9.36,22.8
				c0.96-3.73,1.92-7.46,2.88-11.19c-0.82,5.15-3.5,9.95-7.36,13.22c0.56-3.73,1.11-7.46,1.67-11.19
				c-0.51,5.27-3.51,10.2-7.85,12.86c0.67-2.61,1.34-5.22,2.02-7.83c-0.3,1.15-2.98,9.36-3.9,10.48c-1.7,2.09-2.83,15.8-8.79,16.23
				C208.57,252.08,210.34,228.91,208.16,217.23z"/>
			<path class="st15" d="M235.65,223.73c-0.35,3.48,0.39,6.98,2.11,9.98c2.3,3.9,5.67,2.41,6.91-1.59
				c1.11-3.65,1.23-9.94-1.97-12.48C239.5,217.11,236.13,219.54,235.65,223.73z"/>
		</g>
		<g>
			<path class="st15" d="M186.95,355.2c-2.2-0.77-12.48-6.35-14.11-5.35c4.74-12.78,7.7-14.74,9.86-22.88
				c1.21-4.55,0.38-8.09-2.3-11.87c-3.04-4.29-4.1-6.47-9.15-5.94c-6.95,12.26-15.69,27.39-19.11,41.21
				c-1.15,4.65-1.99,8.18,0.64,12.12c2.31,3.47,6.59,4.86,10.58,5.24c9.63,0.91,23.91-0.96,23.73-6.99
				C186.98,356.93,186.95,355.2,186.95,355.2z"/>
			<g>
				<path class="st15" d="M185.32,354.75l8.16-2.8l-0.73,15.56c0,0-6.54,0.25-10.02-4.37L185.32,354.75z"/>
				<polygon class="st15" points="203.68,351.7 202.51,364.54 192.76,367.51 193.48,351.95 				"/>
			</g>
		</g>
		<g>
			<path class="st15" d="M297.18,365.79c0,0-11.37-9.41-26.31-40.52c-2.21-4.35-4.33-8.73-6.36-13.15
				c-2.03-4.46-3.99-8.83-5.85-13.52l17.65-8.03c3.64,8.36,9.3,16.98,13.3,25.28c4.01,8.3,13.47,27.95,14.65,29.79
				c0.59,0.94,1.23,1.73,1.84,2.6l0.91,1.28l-11.39,13.9L297.18,365.79z"/>
			<g>
				<g>
					<path class="st15" d="M312.11,305.32l-3.54-4.45l-1.63-6.66l10.66-10.46c0,0,2.58,3.35,4.38,6.96c0.28,0.55,0.39,1.18,0.37,1.8
						l-0.43,11.72L312.11,305.32z"/>
					<polygon class="st15" points="307.1,286.99 315.07,279.34 317.6,283.8 306.94,294.21 					"/>
				</g>
				<path class="st15" d="M312.27,302.06c0.28-1.25,0.53,1.2,1.31,0.22c2.36-2.98,5.78-3.3,7.82-0.07
					c2.04,3.23,0.3,35.78-2.96,45.98c-2.16,6.77-3.31,12.18-8.85,16.3c-2.29,1.7-4.97,2.99-7.77,2.94s-5.68-1.66-6.74-4.4
					c-1.64-4.25,4.46-19.57,6.64-24.52C308.54,323.03,309,316.76,312.27,302.06z"/>
			</g>
			<g>
				<g>
					<path class="st1" d="M289.41,300.66c4.71-0.05,9.42-0.1,14.12-0.14c2.01-0.02,4.1-0.06,5.91-0.99
						c2.37-1.22,3.87-3.77,4.83-6.36c2-5.41,2.16-11.34,2.96-17.08c0.79-5.74,2.43-11.74,6.54-15.58
						c-7.5,1.05-20.76-1.43-26.52,5.06C294.19,269,288.83,300.67,289.41,300.66z"/>
					<path class="st3" d="M289.41,300.66c4.71-0.05,9.42-0.1,14.12-0.14c2.01-0.02,4.1-0.06,5.91-0.99
						c2.37-1.22,3.87-3.77,4.83-6.36c2-5.41,2.16-11.34,2.96-17.08c0.79-5.74,2.43-11.74,6.54-15.58
						c-7.5,1.05-20.76-1.43-26.52,5.06C294.19,269,288.83,300.67,289.41,300.66z"/>
				</g>
				<path class="st15" d="M313.56,278.52L313.56,278.52c-0.81,0.23-1.35,3.29-1.17,4.15l0.79,1.49l1.61,7.39l5.39-3.15l-4.86-9.1
					C314.97,278.66,314.25,278.33,313.56,278.52z"/>
			</g>
		</g>
		<path class="st1" d="M191.81,270.48c-12.61,3.05-31.26,44.53-31.26,44.53l25.31,18.24c6.29-9.53,14.87-23.94,19.69-34.38
			C213.04,282.35,204.7,267.36,191.81,270.48z"/>
		<g>
			<path class="st10" d="M210.24,271.49c-1.45-3.34-3.02-7.15,0.24-8.34c3.61-1.31,23.37-2.66,30.18-0.2
				c3.74,1.07,5.94,5.14,4.93,9.09c-0.01,0.05-0.02,0.09-0.04,0.14L210.24,271.49z"/>
			<path class="st9" d="M199.61,294.44l-17.99,35.76l4.24,3.06c0,0,8.15-11.98,13.75-22.34V294.44z"/>
			<path class="st1" d="M268.49,288.73c2.73,14.56-3.64,49.19-3.58,105.74H193c-0.47-11.43,7.4-38.5-2.38-92.42
				c-0.32-1.75-0.46-31.27,1.2-31.58c6.96-1.29,13.99-2.17,21.05-2.62c10.18-0.63,20.39-0.63,30.58,0
				c4.16,0.44,10.72,3.17,14.85,4.74C264.74,275.05,267.17,281.63,268.49,288.73z"/>
			<path class="st9" d="M249.46,303.23c1.88,11.99,9.32,27.82,16.74,37.11c0.29-6.8,0.94-13.91,0.92-19.36L249.46,303.23z"/>
		</g>
		<path class="st1" d="M244.35,285.22c-1.73,13.44,23.32,47.77,23.32,47.77l25.21-18.24c0,0-7-18.91-18.76-31.32
			C260.71,269.21,246.32,270.59,244.35,285.22z"/>
		<g>
			<polygon class="st15" points="326.73,582.75 340.17,582.75 343.23,549.86 329.79,549.86 			"/>
			<polygon class="st9" points="343.03,551.87 341.47,568.81 328.01,568.81 329.59,551.87 			"/>
		</g>
		<g>
			<polygon class="st15" points="273.71,582.75 287.15,582.75 293.91,549.86 280.47,549.86 			"/>
			<g class="st16">
				<polygon points="280.18,551.62 293.62,551.62 290.13,568.56 276.69,568.56 				"/>
			</g>
		</g>
		<path class="st10" d="M340.93,576.38h-14.67c-0.56,0-1.04,0.53-1.16,1.27l-2.66,16.24c-0.25,1.43,0.4,2.87,1.45,3.21
			c0.16,0.05,0.32,0.08,0.48,0.07c5.29-0.12,12.94-0.54,19.59-0.54c7.79,0,14.51,0.57,23.63,0.57c5.53,0,7.07-7.63,4.75-8.31
			c-10.52-3.14-19.11-3.47-28.19-11.14C343.2,576.89,342.08,576.42,340.93,576.38z"/>
		<g>
			<path class="st1" d="M351.61,581.66c1.73,0,3.46-0.26,3.96-1.08c0.29-0.44,0.29-1.03,0-1.48c-0.23-0.38-0.59-0.66-1-0.78
				c-2.25-0.64-6.91,2.19-7.14,2.32c-0.12,0.06-0.19,0.21-0.16,0.35c0.02,0.13,0.12,0.24,0.24,0.27
				C348.87,581.52,350.24,581.65,351.61,581.66z M353.75,578.9c0.2-0.03,0.4-0.03,0.6,0c0.26,0.05,0.49,0.23,0.62,0.47
				c0.22,0.42,0.16,0.62,0,0.73c-0.62,0.93-4.03,0.95-6.53,0.57C350.09,579.72,351.89,579.12,353.75,578.9z"/>
			<path class="st1" d="M347.55,581.26h0.14c1.62-0.77,4.84-3.83,4.58-5.47c0-0.38-0.31-0.84-1.17-0.95
				c-0.63-0.06-1.25,0.15-1.73,0.58c-1.73,1.48-2.07,5.31-2.09,5.47c-0.01,0.12,0.03,0.24,0.12,0.31
				C347.44,581.23,347.5,581.25,347.55,581.26z M350.83,575.51h0.19c0.57,0,0.6,0.31,0.62,0.38c0.16,0.97-2.04,3.37-3.7,4.41
				c0.14-1.61,0.74-3.13,1.73-4.36C350,575.66,350.41,575.5,350.83,575.51z"/>
		</g>
		<path class="st10" d="M288.1,576.38H273c-0.55,0.01-1.03,0.54-1.14,1.27l-2.66,16.24c-0.23,1.47,0.46,2.91,1.53,3.22
			c0.14,0.04,0.29,0.06,0.44,0.06c5.27-0.12,7.84-0.54,14.48-0.54c4.09,0,9.33,0.57,14.98,0.57c5.65,0,6.37-7.63,4.06-8.31
			c-10.37-3.09-11.07-7.37-14.39-11.45C289.69,576.73,288.91,576.35,288.1,576.38z"/>
		<g>
			<path class="st1" d="M296,583.46c1.15,0.16,2.32-0.18,3.23-0.93c0.33-0.47,0.33-1.11,0-1.59c-0.21-0.41-0.57-0.69-1-0.78
				c-1.97-0.49-5.68,2.19-5.84,2.3c-0.1,0.08-0.15,0.21-0.14,0.35c0.03,0.13,0.12,0.23,0.24,0.26
				C293.64,583.33,294.82,583.46,296,583.46z M297.73,580.76c0.13-0.02,0.25-0.02,0.38,0c0.25,0.04,0.47,0.2,0.59,0.44
				c0.29,0.57,0.12,0.78,0,0.88c-0.57,0.78-3.32,0.8-5.34,0.46c1.3-0.93,2.78-1.53,4.34-1.77h0.03V580.76z"/>
			<path class="st1" d="M292.58,583.08h0.14c1.4-0.8,4.09-3.9,3.8-5.47c-0.09-0.52-0.52-0.89-1.02-0.89
				c-0.49-0.06-0.98,0.1-1.35,0.44c-1.55,1.35-1.88,5.47-1.9,5.62c0,0.12,0.06,0.24,0.16,0.31
				C292.46,583.1,292.52,583.1,292.58,583.08z M295.29,577.33h0.14c0.41,0,0.45,0.26,0.47,0.35c0.17,0.93-1.55,3.28-2.94,4.4
				c0.09-1.62,0.65-3.17,1.59-4.45C294.75,577.44,295.02,577.33,295.29,577.33L295.29,577.33z"/>
		</g>
		<g>
			<g>
				<path class="st10" d="M243.36,394.5c0,0,63.66,27.75,76.82,49.08c-7.83,54.24-21.87,116.04-21.87,116.04h-23.94
					c0,0-0.66-34.36,6.2-79.82c3.46-66.3-109.56,2.3-87.6-85.31h50.39V394.5z"/>
				<path class="st17" d="M287.37,440.22c-4.46,0.18-8.88,0.9-13.29,1.62c-4.65,0.76-9.3,1.51-13.95,2.27
					c7.19,6.38,14.79,12.24,22.73,17.55c4.82,3.22,10.06,6.32,15.76,6.35c6.38,0.03,23.73-8.66,20.85-17.64
					C316.55,441.26,294.63,439.93,287.37,440.22z"/>
			</g>
			<path class="st10" d="M264.92,394.5c0,0,58.84,8.01,91.28,27.52c9.99,6,8.59,25.29,8.33,37.98
				c-0.71,34.07-6.92,67.76-18.35,99.63h-19.97c0,0,1.02-34.42,0.35-89.96c-0.21-16.65-32.05-22.14-63.16-24.08
				c-26.88-1.78-50.47-19.51-60.88-45.73l-2.12-5.36L264.92,394.5L264.92,394.5z"/>
			<path class="st1" d="M351.07,553.97c0.1,0-1.3,9.98-1.3,9.98h-27.64l-0.76-8.9L351.07,553.97z"/>
			<path class="st1" d="M300.63,553.97c0.1,0-2.54,9.98-2.54,9.98h-27.64l0.5-8.9L300.63,553.97z"/>
		</g>
		<g>
			<g>
				<polygon class="st1" points="226.35,444.83 206.54,598.97 202.96,598.45 218.25,443.66 				"/>
				<polygon class="st7" points="225.64,450.35 206.54,598.97 202.96,598.45 217.59,450.33 				"/>
			</g>
			<g>
				<path class="st1" d="M296.02,450.35h-112.3c0-7.47,5.74-13.53,12.82-13.53l0,0h86.66C290.28,436.81,296.02,442.87,296.02,450.35
					L296.02,450.35z"/>
				<path class="st13" d="M296.02,450.35h-112.3c0-7.47,5.74-13.53,12.82-13.53l0,0h86.66
					C290.28,436.81,296.02,442.87,296.02,450.35L296.02,450.35z"/>
			</g>
			<polygon class="st1" points="188.92,450.33 171.99,600.19 175.62,600.19 197.09,450.33 			"/>
			<g>
				<polygon class="st1" points="290.82,450.33 307.75,600.19 304.12,600.19 282.66,450.33 				"/>
				<polygon class="st7" points="290.82,450.33 307.75,600.19 304.12,600.19 282.66,450.33 				"/>
			</g>
			<polygon class="st1" points="268.17,450.33 268.49,600.19 264.88,600.19 260,450.33 			"/>
		</g>
	</g>
</g>
<rect x="148.2" y="27.72" class="st18" width="532.48" height="86.32"/>
<rect x="601.13" y="263.4" class="st18" width="79.97" height="38.89"/>
<text transform="matrix(1 0 0 1 601.1334 273.6041)"><tspan x="0" y="0" class="st19 st20 st21">የ</tspan><tspan x="4.8" y="0" class="st22 st20 st21"> </tspan><tspan x="8.41" y="0" class="st20 st21">ሶፍትዌር</tspan><tspan x="0" y="14.4" class="st23 st20 st21">ኢንጅነር</tspan><tspan x="38.62" y="14.4" class="st20 st21"> </tspan><tspan x="42.23" y="14.4" class="st24 st20 st21">ወንበር</tspan><tspan x="70.39" y="14.4" class="st25 st20 st21">።</tspan></text>
</svg>
