<?xml version="1.0" encoding="utf-8"?>
<!-- Generator: Adobe Illustrator 24.0.1, SVG Export Plug-In . SVG Version: 6.00 Build 0)  -->
<svg version="1.1" id="Layer_1" xmlns="http://www.w3.org/2000/svg" xmlns:xlink="http://www.w3.org/1999/xlink" x="0px" y="0px"
	 viewBox="0 0 792 720" style="enable-background:new 0 0 792 720;" xml:space="preserve">
<style type="text/css">
	.st0{fill:#C939A0;stroke:#A967AA;stroke-miterlimit:10;}
	.st1{fill:none;}
</style>
<g id="Shadow--inject-214">
	<path class="st0" d="M392.9,14C202.4,14,48,165.6,48,352.5S202.4,691,392.9,691s344.9-151.6,344.9-338.5S583.4,14,392.9,14z
		 M226.5,415.5c-0.1,0.4-0.2,0.8-0.3,0.9c-1,3.3-3,6.2-5.9,8.1c-5.7,3.9-12.9,3.8-19.4,5.4c-5.5,1.3-11.2,1.9-16.8,3.3
		c-1,0.3-2.1,0.6-3.1,0.9c-0.4,1.8-0.9,3.5-1.5,5.3c-2,6-10.1,8.6-14.6,4.3c-0.1,0-0.2-0.1-0.3-0.1c-4.6-1.2-7.6-6.4-6.2-10.9
		c1.3-4.3,3.6-7.4,6.5-9.9c1.7-15.5-2.4-31.2-6.7-46.2c-5.6-19.7-12.5-39.8-12.2-60.6c0.2-11.4,17.9-11.4,17.7,0
		c-0.6,33.8,19.1,65.9,19.3,99.3c3-0.6,6-1.1,8.9-1.7c2.8-0.5,5.5-1.3,8.2-2c2.6-0.7,5.2-0.6,7.8-1c0.4-0.1,1-0.2,1.4-0.2
		c0.1-0.5,0.3-1,0.4-1.3c0.4-1.4,1-2.9,1.7-4.2c2.2-3.6,6.1-5.7,10.1-6.4c4.7-0.8,9.5,1.2,10.9,6.2
		C233.7,408.8,231.1,414.6,226.5,415.5z M306.6,404.7c-7.2,23.7-33.7,17.4-52.3,21.8c-3.7,0.9-8.2-0.5-10-4.1
		c-7-13.7-10-29-12.3-44.1c-2.3-15.7-3.7-31.5-4.9-47.4c-0.9-11.4,16.8-11.3,17.7,0c1.1,14.2,2.2,28.5,4.3,42.6
		c1.7,11.5,3.6,23.6,8,34.5c7.1-0.9,14.4-0.9,21.3-1.8c3.3-0.4,6.5-1.1,8.9-2.9c-0.1,0,0.8-0.9,1.1-1.2c0.1-0.3,0.9-1.8,0.9-1.7
		c0.6-1.5,0.9-3.9,1.2-5.7c1.5-11-2.8-21.4-6.3-31.5c-3.7-10.7-6.2-21.4-3.8-32.7c2.4-11.2,19.5-6.4,17.1,4.7
		c-2.3,10.8,3.6,22.1,6.9,32.1C308.4,379.5,310.4,392.4,306.6,404.7z M434.7,406.3c-14.9-13.2-31.3-24.6-47.4-36.3
		c-0.9,2.1-1.7,4.2-2.5,6.4c-2.9,7.8-4.8,15.6-7.3,23.5c-2.8,8.6-9.1,14.5-18.5,14.1c-11.4-0.5-11.4-18.2,0-17.7
		c0.5-0.1,0.9-0.1,1.1-0.1c0.1-0.3,0.3-0.7,0.4-1c1-3.1,1.4-6.3,2.3-9.4c2.5-8.6,5.9-16.9,9.4-25.1c0.2-0.5,0.4-1,0.6-1.5
		c-8.7-6.8-17.2-13.9-25.1-21.8c-8.1-8,4.4-20.6,12.5-12.5c6.5,6.5,13.5,12.5,20.6,18.2c6.1-10.8,13.6-20.8,22.8-29.2
		c8.4-7.7,21,4.8,12.5,12.5c-8.7,7.9-15.6,17.4-21.2,27.6c17.6,13.1,35.8,25.4,52.2,39.9C455.8,401.3,443.3,413.8,434.7,406.3z
		 M653.5,315.4c-3.7-13.7-11.2-26.8-18.9-39.3c-4.1-6.6-8.5-13.2-13.8-19c-1.1-1.2-2.7-2.8-4.1-4.2c-4.9,17.1-3.4,36.1-3.5,53.5
		c-0.1,20.8-1.1,43.4-13.5,61.1c-3,4.3-10,6.5-13.9,1.8c-10.1-12-15-26.9-20.2-41.5c-2.7-7.6-5.4-16.5-9.9-23.9
		c-5,27.2-2.6,56.4-18,80.6c-3.6,5.6-11.7,5.8-15.3,0c-8.2-13.4-11.1-30-11.2-45.5c-0.1-11.4,17.6-11.4,17.7,0
		c0,5.7,0.5,11.5,1.6,17.2c2.1-8,3.2-16.3,4.1-24.4c1.8-16.1,2.8-32.7,7.9-48.1c1.7-5,8.1-8.8,13-5.3c13.1,9.3,19.6,23.7,24.9,38.4
		c3.4,9.2,6.1,19.4,10.6,28.5c4.8-14.1,4.4-30.1,4.4-44.8c0-22-0.2-44.4,9-64.9c1.6-3.7,6.5-4.8,10-4.1c6.9,1.4,12.8,6.6,17.5,11.5
		c6.3,6.6,11.7,14.3,16.6,22c8.9,14,17.7,29.6,22.1,45.7C673.5,321.7,656.4,326.3,653.5,315.4z"/>
</g>
<rect x="148.2" y="27.7" class="st1" width="532.5" height="86.3"/>
<path class="st1" d="M613.1,302.3h35.7c-3.9-9-9-17.8-14.3-26.3c-2.7-4.3-5.5-8.6-8.6-12.6h-11.6C612.4,276.2,613,289.6,613.1,302.3
	z"/>
<path class="st1" d="M647.5,263.4c0.3,0.5,0.7,1,1,1.6c7.4,11.5,14.6,24.2,19.4,37.3h13.2v-38.9H647.5z"/>
</svg>
