<?xml version="1.0" encoding="utf-8"?>
<!-- Generator: Adobe Illustrator 24.0.1, SVG Export Plug-In . SVG Version: 6.00 Build 0)  -->
<svg version="1.1" id="Layer_1" xmlns="http://www.w3.org/2000/svg" xmlns:xlink="http://www.w3.org/1999/xlink" x="0px" y="0px"
	 viewBox="0 0 204 204" style="enable-background:new 0 0 204 204;" xml:space="preserve">
<style type="text/css">
	.st0{fill:none;}
	.st1{fill:#93278F;stroke:#B824EE;stroke-miterlimit:10;}
</style>
<rect x="67.5" y="80.3" class="st0" width="10.7" height="3.5"/>
<rect x="118.8" y="75.8" class="st0" width="8.8" height="3.5"/>
<path class="st1" d="M103.6,199.7L103.6,199.7c-52.1,0-94.2-42.2-94.2-94.2v0c0-52.1,42.2-94.2,94.2-94.2h0
	c52.1,0,94.2,42.2,94.2,94.2v0C197.9,157.5,155.7,199.7,103.6,199.7z"/>
<image style="overflow:visible;" width="187" height="187" xlink:href="B4CA8810.png"  transform="matrix(1 0 0 1 9 12)">
</image>
<image style="overflow:visible;" width="143" height="90" xlink:href="B4CA8811.png"  transform="matrix(1 0 0 1 37 109)">
</image>
<g>
	<g>
		<image style="overflow:visible;" width="42" height="98" xlink:href="B4CA8836.png"  transform="matrix(1 0 0 1 148 43)">
		</image>
	</g>
	<g>
		<g>
			<image style="overflow:visible;" width="40" height="98" xlink:href="B4CA8839.png"  transform="matrix(1 0 0 1 20 54)">
			</image>
		</g>
		<image style="overflow:visible;" width="16" height="22" xlink:href="B4CA883A.png"  transform="matrix(1 0 0 1 31 50)">
		</image>
		<image style="overflow:visible;" width="13" height="16" xlink:href="B4CA883B.png"  transform="matrix(1 0 0 1 154 118)">
		</image>
		<image style="overflow:visible;" width="19" height="20" xlink:href="B4CA883C.png"  transform="matrix(1 0 0 1 141 120)">
		</image>
	</g>
</g>
</svg>
