<?xml version="1.0" encoding="utf-8"?>
<!-- Generator: Adobe Illustrator 24.0.1, SVG Export Plug-In . SVG Version: 6.00 Build 0)  -->
<svg version="1.1" id="Layer_1" xmlns="http://www.w3.org/2000/svg" xmlns:xlink="http://www.w3.org/1999/xlink" x="0px" y="0px"
	 viewBox="0 0 576 288" style="enable-background:new 0 0 576 288;" xml:space="preserve">
<style type="text/css">
	.st0{fill:#53C6DA;}
	.st1{fill:#F79869;}
	.st2{fill:#702365;}
	.st3{display:none;fill:none;}
</style>
<g transform="matrix(1,0,0,1,-1.2121212121212466,-0.803802796136722)">
	<g id="tight-bounds" transform="matrix(1,0,0,1,0.2400000000000091,0.15937469233745105)">
		<g>
			<g transform="matrix(1,0,0,1,191.18285455951755,44.56622391461016)">
				<g id="textblocktransform">
					<g>
						<g transform="matrix(1,0,0,1,0,0)">
							<path id="text-0" class="st0" d="M52.6,92.2v34.2c0,4.4-0.8,7.5-2.3,9.3c-1.6,1.9-3.9,2.8-7.1,2.8l0,0
								c-3.1,0-5.4-0.8-6.9-2.5c-1.5-1.7-2.2-4.7-2.2-9l0,0l-0.1-9.1H17.6v8.5c0,4.4-0.8,7.5-2.3,9.3s-3.9,2.7-7.2,2.7l0,0
								c-3.1,0-5.4-0.8-6.9-2.5c-1.5-1.7-2.2-4.7-2.2-9l0,0l-0.2-34c0-3.3,0.8-5.8,2.5-7.3c1.7-1.6,3.9-2.3,6.7-2.3l0,0
								c3.2,0,5.6,0.6,7.1,1.8c1.5,1.2,2.3,3.6,2.3,7.2l0,0v13.5h16.4V92.9c0-2.3,0.4-4.1,1.3-5.6c0.8-1.5,1.9-2.5,3.2-3.1
								c1.3-0.6,2.9-0.9,4.7-0.9l0,0c3.1,0,5.5,0.6,7.1,1.8C51.8,86.2,52.6,88.6,52.6,92.2L52.6,92.2z M75.3,138.9L75.3,138.9
								c-4.2,0-7.8-1.7-10.6-5.2c-2.8-3.5-4.2-8.2-4.2-14.2l0,0c0-6.1,1.4-11,4.1-14.6c2.8-3.6,6.3-5.4,10.6-5.4l0,0
								c4.4,0,8.4,1.5,12.1,4.6l0,0c1.5-2.7,3.8-4,7-4l0,0c2.9,0,5.2,0.6,6.8,1.9c1.6,1.3,2.4,3.6,2.4,7l0,0v21c0,3.2-0.7,5.5-2,6.7
								c-1.3,1.3-3.7,1.9-7.1,1.9l0,0c-3.5,0-5.9-1-7-3l0,0C84,137.8,80,138.9,75.3,138.9z M86.2,126.8v-15.1
								c-0.9-1.6-2.1-2.3-3.5-2.3l0,0c-1.4,0-2.5,1-3.4,3.1c-0.9,2-1.3,4.4-1.3,7l0,0c0,2.5,0.4,4.7,1.2,6.6
								c0.8,1.9,1.9,2.9,3.4,2.9l0,0C84.1,129,85.3,128.3,86.2,126.8L86.2,126.8z M128.5,113.6v16.2c0,3.2-0.7,5.5-2,6.7
								c-1.3,1.3-3.7,1.9-7.2,1.9l0,0c-3.2,0-5.3-0.7-6.4-2.2c-1.1-1.5-1.7-3.9-1.7-7.3l0,0v-19.8c0-1.8,0.3-3.4,1-4.8
								c0.6-1.4,1.6-2.4,2.8-3.2c1.2-0.8,2.7-1.1,4.4-1.1l0,0c4.1,0,6.8,1.2,8.1,3.5l0,0c3.1-2.4,6.1-3.5,9-3.5l0,0
								c5.6,0,8.5,2.7,8.5,8.1l0,0c0,2.1-0.6,3.9-1.9,5.2c-1.2,1.3-2.8,2-4.8,2l0,0c-1.2,0-2.1-0.2-2.9-0.7c-0.7-0.5-1.4-1-2-1.5
								c-0.6-0.5-1.3-0.7-2.1-0.7l0,0C130,112.4,129.1,112.8,128.5,113.6L128.5,113.6z M148.9,88.8L148.9,88.8
								c0-1.8,0.8-3.2,2.3-4.4c1.5-1.2,3.7-1.7,6.5-1.7l0,0c5.9,0,8.8,2,8.8,6.1l0,0c0,2.3-0.7,3.8-2.2,4.8
								c-1.5,0.9-3.7,1.4-6.6,1.4l0,0c-2.5,0-4.6-0.5-6.3-1.5C149.8,92.5,148.9,90.9,148.9,88.8z M166.4,108.9v21
								c0,3.2-0.7,5.5-2,6.7c-1.3,1.3-3.7,1.9-7.1,1.9l0,0c-3.2,0-5.3-0.7-6.5-2.2c-1.2-1.5-1.7-3.9-1.7-7.3l0,0v-19.8
								c0-2.7,0.7-4.9,2.2-6.6c1.5-1.7,3.4-2.5,5.9-2.5l0,0c2.9,0,5.2,0.6,6.8,1.9C165.6,103.2,166.4,105.5,166.4,108.9L166.4,108.9
								z M197.4,96L197.4,96c-1.1,0.9-1.7,3-1.7,6.4l0,0c3.6,0,6.1,0.3,7.5,1c1.4,0.7,2.1,2.1,2.1,4.4l0,0c0,1.8-0.8,3-2.3,3.6
								c-1.5,0.6-3.9,0.9-7.3,0.9l0,0v14.1c0,4.6-0.7,7.7-2.1,9.5c-1.4,1.8-3.7,2.6-6.7,2.6l0,0c-3,0-5.2-0.8-6.6-2.5
								c-1.4-1.7-2.1-4.7-2.1-9l0,0l0.1-14.7c-4-0.1-6-1.6-6-4.7l0,0c0-3.2,2-4.9,6-5.1l0,0c0.1-6.9,1.1-11.9,3-14.8
								c2-2.9,5.7-4.4,11.3-4.4l0,0c4.5,0,7.9,0.9,10.4,2.7c2.5,1.8,3.7,3.7,3.7,5.6l0,0c0,0.8-0.3,1.5-1,2.1
								c-0.7,0.6-1.6,0.9-2.9,0.9l0,0C200.3,94.7,198.4,95.1,197.4,96z M252.3,99.4L252.3,99.4c5,0,9.2,1,12.5,3.1
								c3.3,2,5,4.3,5,6.7l0,0c0,0.7-0.3,1.3-0.9,1.9s-1.3,0.9-2.3,0.9l0,0c-0.8,0-1.7-0.3-2.7-0.9c-1-0.6-1.9-1.2-2.7-1.8
								c-0.9-0.6-2-1.2-3.4-1.8c-1.4-0.5-2.9-0.8-4.4-0.8l0,0c-2.1,0-3.1,0.6-3.1,1.9l0,0c0,0.9,0.5,1.6,1.6,2.2s2.6,1.1,4.7,1.7
								c2.1,0.6,3.6,1.2,4.7,1.7l0,0c4,1.6,6.8,3.2,8.3,5c1.5,1.8,2.3,4.2,2.3,7.1l0,0c0,1.5-0.4,2.9-1.2,4.3c-0.8,1.4-2,2.8-3.6,4
								c-1.6,1.3-3.8,2.3-6.6,3c-2.8,0.8-5.9,1.2-9.5,1.2l0,0c-6.9,0-12.1-1.6-15.6-4.8l0,0c-1.7-1.6-2.5-3.2-2.5-4.8l0,0
								c0-1,0.3-1.8,1-2.4c0.7-0.6,1.6-0.9,2.9-0.9l0,0c1.2,0,3.1,0.6,5.6,1.8c2.5,1.2,4.9,1.8,7,1.8l0,0c3,0,4.4-0.7,4.4-2.2l0,0
								c0-0.8-0.8-1.4-2.3-1.8c-1.6-0.5-3.6-1-6.1-1.6c-2.5-0.6-4.5-1.5-6-2.4l0,0c-2.4-1-4-2.3-5-3.8c-0.9-1.5-1.4-3.4-1.4-5.6l0,0
								c0-3.8,1.8-6.8,5.4-9.2C242,100.6,246.6,99.4,252.3,99.4z M278.4,88.8L278.4,88.8c0-1.8,0.8-3.2,2.3-4.4
								c1.5-1.2,3.7-1.7,6.5-1.7l0,0c5.9,0,8.8,2,8.8,6.1l0,0c0,2.3-0.7,3.8-2.2,4.8c-1.5,0.9-3.7,1.4-6.6,1.4l0,0
								c-2.5,0-4.6-0.5-6.3-1.5C279.3,92.5,278.4,90.9,278.4,88.8z M295.9,108.9v21c0,3.2-0.7,5.5-2,6.7c-1.3,1.3-3.7,1.9-7.1,1.9
								l0,0c-3.2,0-5.3-0.7-6.5-2.2c-1.2-1.5-1.7-3.9-1.7-7.3l0,0v-19.8c0-2.7,0.7-4.9,2.2-6.6c1.5-1.7,3.4-2.5,5.9-2.5l0,0
								c2.9,0,5.2,0.6,6.8,1.9C295.1,103.2,295.9,105.5,295.9,108.9L295.9,108.9z M307.3,121.2L307.3,121.2v-9.5
								c-1.3-0.1-2.4-0.3-3.2-0.7c-0.8-0.4-1.4-0.9-1.7-1.6c-0.4-0.6-0.5-1.5-0.5-2.4l0,0c0-3.1,1.9-4.7,5.6-5l0,0v-7.5
								c0-2,1.5-3.9,4.4-5.5c3-1.6,5.9-2.4,8.8-2.4l0,0c1.8,0,2.9,0.5,3.5,1.5c0.5,1,0.8,2.6,0.8,4.6l0,0l0.1,9.3h2.2
								c3,0,5,0.4,6.1,1.2c1.1,0.8,1.6,2.2,1.6,4.2l0,0c0,0.9-0.2,1.6-0.5,2.2c-0.3,0.6-0.8,1-1.6,1.4c-0.7,0.3-1.6,0.5-2.6,0.7
								c-1,0.1-2.3,0.2-3.8,0.2l0,0h-1.5v8.9c0,0.9,0,1.6,0.1,2.1c0.1,0.6,0.2,1,0.4,1.3c0.2,0.3,0.4,0.5,0.7,0.6
								c0.3,0.1,0.7,0.2,1.1,0.2l0,0c0.6,0,1.2-0.2,1.6-0.7c0.4-0.5,0.8-1,1-1.5c0.2-0.6,0.6-1.1,1-1.5c0.4-0.5,0.9-0.7,1.4-0.7l0,0
								c1.2,0,2.2,0.3,2.9,0.9c0.7,0.6,1,1.3,1,2.2l0,0c0,1.5-0.3,3-0.8,4.7c-0.6,1.7-1.4,3.3-2.5,4.8s-2.6,2.8-4.5,3.9
								c-1.9,1-4.1,1.5-6.4,1.5l0,0c-5.3,0-9.1-1.3-11.3-4C308.4,131.7,307.3,127.3,307.3,121.2z M364.6,138.9L364.6,138.9
								c-6.6,0-12-1.7-16.2-5.1c-4.3-3.4-6.4-8-6.4-13.9l0,0c0-6.3,2.1-11.4,6.3-15c4.2-3.7,9.7-5.5,16.3-5.5l0,0
								c6.3,0,10.9,1.1,13.8,3.3c2.9,2.2,4.4,5.3,4.4,9.2l0,0c0,0.8-0.1,1.5-0.3,2.2c-0.2,0.7-0.5,1.4-0.9,2
								c-0.4,0.7-0.9,1.3-1.6,1.9c-0.7,0.6-1.4,1.1-2.3,1.5c-0.9,0.5-1.9,0.8-3.1,1c-1.2,0.2-2.4,0.4-3.8,0.4l0,0l-11.4,0.1
								c0.5,1.7,1.5,3.1,2.9,4.1c1.4,1,3.2,1.5,5.3,1.5l0,0c2.3,0,4.7-0.3,7.1-0.9l0,0c1-0.3,2.1-0.7,3.3-1.3
								c1.2-0.6,2.1-0.9,2.6-0.9l0,0c0.9,0,1.6,0.3,2.1,0.8c0.5,0.5,0.8,1.2,0.8,2l0,0c0,1-0.4,2.1-1.3,3.5
								c-0.9,1.4-2.1,2.7-3.6,4.1c-1.5,1.4-3.6,2.5-6.1,3.5C370.2,138.4,367.5,138.9,364.6,138.9z M359.1,115.9L359.1,115.9
								c3.7-0.1,5.7-0.1,6-0.1l0,0c0.8,0,1.4-0.5,1.8-1.5l0,0c0.3-0.7,0.4-1.7,0.4-2.9l0,0c0-3.4-1-5.1-3.1-5.1l0,0
								c-0.8,0-1.5,0.4-2.2,1.2c-0.7,0.8-1.3,1.9-1.9,3.4C359.6,112.5,359.3,114.1,359.1,115.9z"/>
						</g>
					</g>
					<g transform="matrix(1,0,0,1,0,71.56775976638325)">
						<g transform="matrix(1,0,0,1,0,0)">
							<path id="text-1" class="st1" d="M9.2,89.3h3.1v0.6H7.5l-1.9-6.1H5.5l-1.9,6.1h-4.8v-0.6H2L-1,81h1.6l2.3,6.4l2-6.4h1.4
								l2,6.4l2.3-6.4h1.6L9.2,89.3z M12.3,89.3h1.2V81h6.3v1.4H15v2.4h4.3v1.3H15v2.4H20v0.9h1.2v0.6h-8.9V89.3z M20.7,89.3h3.5
								v0.6h-3.5V89.3z M31.9,89.3h1.7v0.6h-9.4v-0.6H27c-0.7-0.4-1.2-0.9-1.6-1.6c-0.4-0.7-0.6-1.5-0.6-2.3l0,0
								c0-1.3,0.5-2.4,1.4-3.3c0.9-0.9,2.1-1.3,3.4-1.3c1.4,0,2.5,0.5,3.5,1.5l0,0l-1,1c-0.4-0.4-0.8-0.7-1.2-0.9
								c-0.4-0.2-0.8-0.2-1.3-0.2l0,0c-0.9,0-1.7,0.3-2.3,0.9c-0.6,0.6-0.9,1.3-0.9,2.2c0,0.9,0.3,1.7,0.9,2.3
								c0.6,0.6,1.3,0.9,2.2,0.9l0,0c0.5,0,1-0.1,1.3-0.3c0.4-0.2,0.8-0.5,1.2-0.8l0,0l1,1C32.6,88.8,32.2,89.1,31.9,89.3L31.9,89.3
								z M42,89.3h1.2v0.6h-2.8l-2.1-3h-2v3h-2.8v-0.6h1.2V81h3.3c1.4,0,2.3,0.2,2.9,0.7c0.6,0.5,0.9,1.2,0.9,2.2l0,0
								c0,1.5-0.6,2.4-1.9,2.8l0,0L42,89.3z M38.2,85.5c0.9,0,1.4-0.1,1.7-0.4c0.3-0.3,0.5-0.7,0.5-1.3c0-0.6-0.2-1-0.5-1.2
								c-0.3-0.2-0.9-0.3-1.7-0.3l0,0h-1.9v3.2H38.2z M42.9,89.3h1.2V81h6.3v1.4h-4.8v2.4h4.3v1.3h-4.3v2.4h4.9v0.9h1.2v0.6h-8.9
								V89.3z M60.5,89.3H62v0.6h-2.9l-0.9-2h-4.5l-0.9,2H50v-0.6h1.5l3.7-8.4h1.6L60.5,89.3z M54.4,86.5h3.2L56,82.8L54.4,86.5z
								 M65.4,89.3h3.1v0.6h-7.7v-0.6h3.1v-7h-2.7V81h6.9v1.4h-2.7V89.3z M68.5,89.3h1.2V81H76v1.4h-4.8v2.4h4.3v1.3h-4.3v2.4h4.9
								v0.9h1.2v0.6h-8.9V89.3z M76.8,89.3h3.5v0.6h-3.5V89.3z M87.7,89.3h1.7v0.6h-9v-0.6h1.2V81h3.5c0.6,0,1.1,0.1,1.6,0.2
								c0.4,0.1,0.8,0.3,1,0.6l0,0c0.4,0.5,0.6,1,0.6,1.6l0,0c0,0.7-0.2,1.2-0.7,1.6l0,0c-0.2,0.1-0.3,0.2-0.3,0.2
								c-0.1,0-0.2,0.1-0.3,0.1l0,0c0.6,0.1,1,0.4,1.3,0.7c0.3,0.4,0.5,0.9,0.5,1.4l0,0C88.7,88.3,88.4,88.9,87.7,89.3L87.7,89.3z
								 M83.1,86.1v2.4h2.4c0.6,0,1-0.1,1.3-0.3c0.3-0.2,0.4-0.5,0.4-1l0,0c0-0.8-0.6-1.2-1.9-1.2l0,0H83.1z M83.1,82.3v2.3H85
								c1.1,0,1.6-0.4,1.6-1.1l0,0c0-0.4-0.1-0.7-0.4-0.9c-0.3-0.2-0.7-0.3-1.2-0.3l0,0H83.1z M89.4,89.3h1.2V81h6.3v1.4h-4.8v2.4
								h4.3v1.3h-4.3v2.4H97v0.9h1.2v0.6h-8.9V89.3z M104.9,89.3h2.7v0.6h-9.8v-0.6h2.6c-1-0.7-1.5-1.8-1.5-3.4l0,0v-5h1.5v5
								c0,0.8,0.2,1.5,0.6,1.9s1,0.7,1.7,0.7c0.7,0,1.3-0.2,1.7-0.7s0.6-1.1,0.6-1.9l0,0v-5h1.5v5C106.4,87.5,105.9,88.6,104.9,89.3
								L104.9,89.3z M112.2,89.3h3.1v0.6h-7.7v-0.6h3.1v-7H108V81h6.9v1.4h-2.7V89.3z M115.3,89.3h1.2V81h1.5v8.4h1.2v0.6h-4V89.3z
								 M122,89.3h5v0.6h-7.7v-0.6h1.2V81h6l0,1.4H122v2.5h4v1.4h-4V89.3z M134.2,89.3h2.7v0.6H127v-0.6h2.6c-1-0.7-1.5-1.8-1.5-3.4
								l0,0v-5h1.5v5c0,0.8,0.2,1.5,0.6,1.9c0.4,0.5,1,0.7,1.7,0.7c0.7,0,1.3-0.2,1.7-0.7c0.4-0.5,0.6-1.1,0.6-1.9l0,0v-5h1.5v5
								C135.7,87.5,135.2,88.6,134.2,89.3L134.2,89.3z M143.7,89.3h1.2v0.6h-8.1v-0.6h1.2V81h1.5v7.5h4.1V89.3z M150.9,89.3h1.2v0.6
								h-8.1v-0.6h1.2V81h1.5v7.5h4.1V89.3z M151.3,89.3h3.5v0.6h-3.5V89.3z M165.1,89.3h3.1v0.6h-4.8l-1.9-6.1h-0.1l-1.9,6.1h-4.8
								v-0.6h3.1L155,81h1.6l2.3,6.4l2-6.4h1.4l2,6.4l2.3-6.4h1.6L165.1,89.3z M168.2,89.3h1.2V81h6.3v1.4H171v2.4h4.3v1.3H171v2.4
								h4.9v0.9h1.2v0.6h-8.9V89.3z M184,89.3h1.7v0.6h-9v-0.6h1.2V81h3.5c0.6,0,1.1,0.1,1.6,0.2c0.4,0.1,0.8,0.3,1,0.6l0,0
								c0.4,0.5,0.6,1,0.6,1.6l0,0c0,0.7-0.2,1.2-0.7,1.6l0,0c-0.2,0.1-0.3,0.2-0.3,0.2c-0.1,0-0.2,0.1-0.3,0.1l0,0
								c0.6,0.1,1,0.4,1.3,0.7c0.3,0.4,0.5,0.9,0.5,1.4l0,0C185,88.3,184.6,88.9,184,89.3L184,89.3z M179.3,86.1v2.4h2.4
								c0.6,0,1-0.1,1.3-0.3c0.3-0.2,0.4-0.5,0.4-1l0,0c0-0.8-0.6-1.2-1.9-1.2l0,0H179.3z M179.3,82.3v2.3h1.9
								c1.1,0,1.6-0.4,1.6-1.1l0,0c0-0.4-0.1-0.7-0.4-0.9s-0.7-0.3-1.2-0.3l0,0H179.3z M192.1,89.3h1.6v0.6h-8.1v-0.6h1.6
								c-0.4-0.2-0.8-0.5-1.1-0.8l0,0l0.9-1.1c0.9,0.8,1.8,1.2,2.8,1.2l0,0c0.5,0,0.9-0.1,1.2-0.3c0.3-0.2,0.4-0.5,0.4-0.8
								c0-0.3-0.1-0.6-0.4-0.8c-0.3-0.2-0.7-0.4-1.4-0.5c-0.7-0.2-1.2-0.3-1.5-0.4c-0.3-0.1-0.6-0.3-0.9-0.5l0,0
								c-0.5-0.4-0.8-1-0.8-1.8c0-0.8,0.3-1.5,0.9-1.9c0.6-0.4,1.3-0.7,2.2-0.7l0,0c0.6,0,1.1,0.1,1.7,0.3s1,0.5,1.5,0.8l0,0
								l-0.8,1.1c-0.3-0.2-0.6-0.4-1.1-0.6c-0.5-0.2-0.9-0.2-1.3-0.2c-0.4,0-0.8,0.1-1.1,0.3c-0.3,0.2-0.4,0.4-0.4,0.8
								c0,0.4,0.1,0.6,0.4,0.8c0.3,0.2,0.9,0.4,1.8,0.6c0.9,0.2,1.6,0.5,2.1,0.9c0.5,0.4,0.7,1,0.7,1.7l0,0
								C193.1,88.2,192.7,88.8,192.1,89.3L192.1,89.3z M193.7,89.3h1.2V81h1.5v8.4h1.2v0.6h-4V89.3z M202.3,89.3h3.1v0.6h-7.7v-0.6
								h3.1v-7h-2.7V81h6.9v1.4h-2.7V89.3z M205.4,89.3h1.2V81h6.3v1.4h-4.8v2.4h4.3v1.3h-4.3v2.4h4.9v0.9h1.2v0.6h-8.9V89.3z
								 M214.9,84.1h-0.2V81h1v3.1h-0.2v5.2h1.2v0.6h-3v-0.6h1.2V84.1z M223.2,89.3h1.6v0.6h-8.1v-0.6h1.6c-0.4-0.2-0.8-0.5-1.1-0.8
								l0,0l0.9-1.1c0.9,0.8,1.8,1.2,2.8,1.2l0,0c0.5,0,0.9-0.1,1.2-0.3c0.3-0.2,0.4-0.5,0.4-0.8c0-0.3-0.1-0.6-0.4-0.8
								c-0.3-0.2-0.7-0.4-1.4-0.5c-0.7-0.2-1.2-0.3-1.5-0.4c-0.3-0.1-0.6-0.3-0.9-0.5l0,0c-0.5-0.4-0.8-1-0.8-1.8
								c0-0.8,0.3-1.5,0.9-1.9c0.6-0.4,1.3-0.7,2.2-0.7l0,0c0.6,0,1.1,0.1,1.7,0.3s1,0.5,1.5,0.8l0,0l-0.8,1.1
								c-0.3-0.2-0.6-0.4-1.1-0.6c-0.5-0.2-0.9-0.2-1.3-0.2c-0.4,0-0.8,0.1-1.1,0.3c-0.3,0.2-0.4,0.4-0.4,0.8c0,0.4,0.1,0.6,0.4,0.8
								c0.3,0.2,0.9,0.4,1.8,0.6c0.9,0.2,1.6,0.5,2.1,0.9c0.5,0.4,0.7,1,0.7,1.7l0,0C224.2,88.2,223.8,88.8,223.2,89.3L223.2,89.3z"
								/>
						</g>
					</g>
				</g>
			</g>
			<g>
				<g>
					<g>
						<g>
							<path class="st2" d="M58,249.4c-0.5,0-0.9-0.1-1.4-0.3c-1.8-0.7-2.7-2.8-2-4.7l64.8-158.3c0.8-1.8,2.9-2.7,4.7-2
								c1.8,0.7,2.7,2.8,2,4.7L61.4,247.2C60.8,248.5,59.4,249.4,58,249.4z"/>
						</g>
						<g>
							<path class="st2" d="M130,220.6c-0.8,0-1.7-0.3-2.3-0.9c-1.5-1.3-1.7-3.6-0.4-5.1l41.2-48l-41.2-48c-1.3-1.5-1.1-3.8,0.4-5.1
								c1.5-1.3,3.8-1.1,5.1,0.4l43.2,50.4c1.2,1.3,1.2,3.3,0,4.7l-43.2,50.4C132,220.2,131,220.6,130,220.6z"/>
						</g>
						<g>
							<path class="st2" d="M50.8,220.6c-1,0-2-0.4-2.7-1.3L4.9,169c-1.2-1.3-1.2-3.3,0-4.7l43.2-50.4c1.3-1.5,3.6-1.7,5.1-0.4
								c1.5,1.3,1.7,3.6,0.4,5.1l-41.2,48l41.2,48c1.3,1.5,1.1,3.8-0.4,5.1C52.5,220.3,51.6,220.6,50.8,220.6z"/>
						</g>
					</g>
				</g>
			</g>
		</g>
		<rect x="4" y="83.9" class="st3" width="570.8" height="165.5"/>
	</g>
</g>
</svg>
