<?xml version="1.0" encoding="utf-8"?>
<!-- Generator: Adobe Illustrator 24.0.1, SVG Export Plug-In . SVG Version: 6.00 Build 0)  -->
<svg version="1.1" id="Layer_1" xmlns="http://www.w3.org/2000/svg" xmlns:xlink="http://www.w3.org/1999/xlink" x="0px" y="0px"
	 viewBox="0 0 36 5.04" style="enable-background:new 0 0 36 5.04;" xml:space="preserve">
<style type="text/css">
	.st0{fill:#9E1F63;}
</style>
<g>
	<g>
		<path class="st0" d="M0.36,1.77h1.21v2.42h2.42v0.6H0.36C0.36,4.8,0.36,1.77,0.36,1.77z"/>
		<path class="st0" d="M7.39,2.44v-2.1h1.39v2.1c0,0.58-0.21,1.08-0.62,1.49c-0.41,0.41-0.9,0.61-1.47,0.61
			c-0.58,0-1.08-0.2-1.49-0.61c-0.41-0.41-0.61-0.9-0.61-1.49v-2.1h1.39v2.1c0,0.2,0.07,0.36,0.2,0.5c0.13,0.13,0.3,0.2,0.5,0.2
			c0.18,0,0.35-0.07,0.49-0.2C7.32,2.8,7.39,2.64,7.39,2.44z"/>
		<path class="st0" d="M9.84,4.9c-0.12,0-0.22-0.02-0.3-0.07c-0.09-0.05-0.15-0.11-0.2-0.18C9.3,4.57,9.28,4.49,9.28,4.4
			c0-0.1,0.02-0.18,0.07-0.25c0.05-0.07,0.12-0.12,0.2-0.16c0.09-0.03,0.17-0.06,0.26-0.06c0.07,0,0.14,0.01,0.2,0.03
			c0.06,0.02,0.12,0.05,0.16,0.08c0.05,0.03,0.08,0.07,0.11,0.13c0.02,0.05,0.04,0.1,0.04,0.17c0,0.03,0,0.06-0.01,0.08
			c-0.01,0.02-0.01,0.05-0.01,0.07c-0.01,0.02-0.01,0.04-0.01,0.06c0,0.03,0.02,0.06,0.04,0.06c0.04,0,0.1-0.05,0.18-0.16
			c0.07-0.1,0.16-0.25,0.26-0.44c0.1-0.18,0.2-0.4,0.3-0.63l0.1,0.14h-0.07c-0.15,0.33-0.29,0.6-0.42,0.8
			c-0.13,0.2-0.26,0.35-0.4,0.44C10.16,4.85,10.01,4.9,9.84,4.9z M11.54,4.8V4.73l0.41-0.07L9.71,1.48L9.29,1.41V1.34h1.65v0.07
			l-0.4,0.07l2.25,3.18l0.41,0.07V4.8H11.54z M12.78,2.19c-0.1,0-0.18-0.02-0.25-0.06c-0.07-0.03-0.13-0.09-0.17-0.14
			c-0.04-0.06-0.06-0.13-0.06-0.2c0-0.04,0.01-0.08,0.02-0.11c0.01-0.03,0.02-0.06,0.03-0.09c0.01-0.03,0.02-0.05,0.02-0.07
			c0-0.02-0.01-0.03-0.03-0.03c-0.06,0-0.13,0.06-0.22,0.19s-0.2,0.29-0.3,0.5c-0.1,0.21-0.21,0.43-0.31,0.67l-0.09-0.14h0.06
			c0.17-0.37,0.32-0.66,0.46-0.88s0.27-0.37,0.4-0.47c0.13-0.09,0.27-0.14,0.42-0.14c0.12,0,0.23,0.02,0.31,0.07
			c0.08,0.05,0.14,0.1,0.19,0.18c0.05,0.07,0.07,0.15,0.07,0.24c0,0.1-0.02,0.18-0.07,0.25c-0.05,0.07-0.12,0.13-0.2,0.16
			C12.98,2.18,12.89,2.19,12.78,2.19z"/>
		<path class="st0" d="M16.31,1.74c0-0.09-0.03-0.17-0.1-0.24s-0.15-0.1-0.24-0.1c-0.1,0-0.19,0.03-0.25,0.1
			c-0.06,0.07-0.1,0.15-0.1,0.24c0,0.47,0,0.93,0,1.4s0,0.93,0,1.39h-0.7V1.74c0-0.09-0.03-0.17-0.1-0.24
			c-0.07-0.07-0.15-0.1-0.24-0.1c-0.1,0-0.19,0.03-0.25,0.1c-0.06,0.07-0.1,0.15-0.1,0.24v2.79h-0.7V1.4c0-0.28,0.1-0.52,0.31-0.73
			s0.45-0.32,0.74-0.32c0.29,0,0.54,0.1,0.75,0.32c0.25-0.21,0.59-0.32,1-0.32c0.39,0,0.71,0.1,0.98,0.32
			c0.27,0.21,0.41,0.45,0.41,0.73v3.14h-1.39L16.31,1.74L16.31,1.74z"/>
	</g>
</g>
</svg>
