<?xml version="1.0" encoding="utf-8"?>
<!-- Generator: Adobe Illustrator 24.0.1, SVG Export Plug-In . SVG Version: 6.00 Build 0)  -->
<svg version="1.1" id="Layer_1" xmlns="http://www.w3.org/2000/svg" xmlns:xlink="http://www.w3.org/1999/xlink" x="0px" y="0px"
	 viewBox="0 0 36 5" style="enable-background:new 0 0 36 5;" xml:space="preserve">
<style type="text/css">
	.st0{fill:#9E1F63;}
</style>
<g>
	<g>
		<path class="st0" d="M0.4,1.8h1.2v2.4H4v0.6H0.4C0.4,4.8,0.4,1.8,0.4,1.8z"/>
		<path class="st0" d="M7.4,2.4V0.3h1.4v2.1c0,0.6-0.2,1.1-0.6,1.5S7.3,4.5,6.7,4.5c-0.6,0-1.1-0.2-1.5-0.6S4.6,3,4.6,2.4V0.3H6v2.1
			C6,2.6,6,2.8,6.2,2.9c0.1,0.1,0.3,0.2,0.5,0.2c0.2,0,0.3-0.1,0.5-0.2C7.3,2.8,7.4,2.6,7.4,2.4z"/>
		<path class="st0" d="M9.8,4.9c-0.1,0-0.2,0-0.3-0.1C9.4,4.8,9.4,4.7,9.3,4.7c0-0.1-0.1-0.2-0.1-0.3c0-0.1,0-0.2,0.1-0.3
			C9.4,4.1,9.5,4,9.5,4c0.1,0,0.2-0.1,0.3-0.1c0.1,0,0.1,0,0.2,0C10.1,4,10.1,4,10.2,4c0.1,0,0.1,0.1,0.1,0.1c0,0.1,0,0.1,0,0.2
			c0,0,0,0.1,0,0.1s0,0.1,0,0.1c0,0,0,0,0,0.1c0,0,0,0.1,0,0.1c0,0,0.1-0.1,0.2-0.2c0.1-0.1,0.2-0.3,0.3-0.4
			c0.1-0.2,0.2-0.4,0.3-0.6l0.1,0.1h-0.1c-0.1,0.3-0.3,0.6-0.4,0.8s-0.3,0.3-0.4,0.4C10.2,4.8,10,4.9,9.8,4.9z M11.5,4.8L11.5,4.8
			l0.4-0.1L9.7,1.5L9.3,1.4V1.3h1.6v0.1l-0.4,0.1l2.3,3.2l0.4,0.1v0.1H11.5z M12.8,2.2c-0.1,0-0.2,0-0.3-0.1c-0.1,0-0.1-0.1-0.2-0.1
			c0-0.1-0.1-0.1-0.1-0.2c0,0,0-0.1,0-0.1s0-0.1,0-0.1c0,0,0,0,0-0.1c0,0,0,0,0,0c-0.1,0-0.1,0.1-0.2,0.2S11.9,2,11.8,2.2
			s-0.2,0.4-0.3,0.7l-0.1-0.1h0.1c0.2-0.4,0.3-0.7,0.5-0.9s0.3-0.4,0.4-0.5c0.1-0.1,0.3-0.1,0.4-0.1c0.1,0,0.2,0,0.3,0.1
			c0.1,0,0.1,0.1,0.2,0.2c0.1,0.1,0.1,0.1,0.1,0.2c0,0.1,0,0.2-0.1,0.3c-0.1,0.1-0.1,0.1-0.2,0.2C13,2.2,12.9,2.2,12.8,2.2z"/>
		<path class="st0" d="M16.3,1.7c0-0.1,0-0.2-0.1-0.2S16.1,1.4,16,1.4c-0.1,0-0.2,0-0.3,0.1s-0.1,0.1-0.1,0.2c0,0.5,0,0.9,0,1.4
			s0,0.9,0,1.4h-0.7V1.7c0-0.1,0-0.2-0.1-0.2c-0.1-0.1-0.1-0.1-0.2-0.1c-0.1,0-0.2,0-0.3,0.1s-0.1,0.1-0.1,0.2v2.8h-0.7V1.4
			c0-0.3,0.1-0.5,0.3-0.7s0.4-0.3,0.7-0.3s0.5,0.1,0.8,0.3c0.3-0.2,0.6-0.3,1-0.3c0.4,0,0.7,0.1,1,0.3c0.3,0.2,0.4,0.4,0.4,0.7v3.1
			h-1.4L16.3,1.7L16.3,1.7z"/>
	</g>
</g>
</svg>
