<?xml version="1.0" encoding="utf-8"?>
<!-- Generator: Adobe Illustrator 24.0.1, SVG Export Plug-In . SVG Version: 6.00 Build 0)  -->
<svg version="1.1" id="Layer_1" xmlns="http://www.w3.org/2000/svg" xmlns:xlink="http://www.w3.org/1999/xlink" x="0px" y="0px"
	 viewBox="0 0 36 36" style="enable-background:new 0 0 36 36;" xml:space="preserve">
<style type="text/css">
	.st0{fill:#FFFFFF;}
</style>
<g>
	<g>
		<path class="st0" d="M2.98,14.11h2.1v4.2h4.2v1.05h-6.3V14.11z"/>
		<path class="st0" d="M15.18,15.27v-3.64h2.42v3.64c0,1.01-0.36,1.87-1.08,2.58c-0.72,0.71-1.57,1.06-2.56,1.06
			c-1.01,0-1.87-0.35-2.58-1.06c-0.71-0.71-1.06-1.57-1.06-2.58v-3.64h2.42v3.64c0,0.34,0.12,0.63,0.35,0.86
			c0.23,0.23,0.52,0.35,0.86,0.35c0.32,0,0.61-0.12,0.85-0.35C15.06,15.9,15.18,15.62,15.18,15.27z"/>
		<path class="st0" d="M19.44,19.54c-0.2,0-0.38-0.04-0.52-0.12c-0.15-0.08-0.26-0.19-0.34-0.32c-0.08-0.13-0.12-0.27-0.12-0.43
			c0-0.18,0.04-0.32,0.13-0.44s0.21-0.21,0.35-0.28c0.15-0.06,0.3-0.1,0.46-0.1c0.13,0,0.24,0.02,0.35,0.05
			c0.1,0.04,0.2,0.08,0.28,0.14c0.08,0.06,0.14,0.13,0.19,0.22c0.04,0.09,0.07,0.18,0.07,0.29c0,0.05,0,0.1-0.01,0.14
			s-0.01,0.09-0.02,0.13c-0.01,0.04-0.02,0.07-0.02,0.1c0,0.06,0.03,0.1,0.07,0.1c0.07,0,0.17-0.09,0.31-0.28
			c0.13-0.18,0.28-0.44,0.46-0.76c0.17-0.32,0.35-0.69,0.52-1.1l0.18,0.24h-0.13c-0.26,0.58-0.5,1.04-0.73,1.39
			c-0.23,0.35-0.46,0.61-0.69,0.77C19.99,19.46,19.73,19.54,19.44,19.54z M22.39,19.36v-0.12l0.71-0.12l-3.89-5.52l-0.72-0.12v-0.12
			h2.87v0.12l-0.7,0.12l3.9,5.52l0.71,0.12v0.12H22.39z M24.55,14.84c-0.17,0-0.31-0.03-0.44-0.1c-0.13-0.06-0.22-0.15-0.29-0.25
			c-0.07-0.1-0.1-0.22-0.1-0.34c0-0.07,0.01-0.14,0.04-0.19c0.02-0.06,0.04-0.11,0.06-0.16c0.02-0.05,0.03-0.09,0.03-0.12
			c0-0.03-0.02-0.05-0.06-0.05c-0.1,0-0.23,0.11-0.39,0.33c-0.16,0.22-0.34,0.51-0.52,0.87s-0.36,0.75-0.54,1.16l-0.16-0.24h0.11
			c0.3-0.64,0.56-1.15,0.8-1.53s0.47-0.65,0.7-0.81s0.47-0.24,0.73-0.24c0.21,0,0.4,0.04,0.54,0.12c0.14,0.08,0.25,0.18,0.33,0.31
			s0.12,0.26,0.12,0.41c0,0.17-0.04,0.31-0.13,0.44s-0.2,0.22-0.34,0.28C24.9,14.81,24.73,14.84,24.55,14.84z"/>
		<path class="st0" d="M30.68,14.06c0-0.16-0.06-0.3-0.18-0.42c-0.12-0.12-0.26-0.18-0.42-0.18c-0.18,0-0.33,0.06-0.44,0.18
			c-0.11,0.12-0.17,0.26-0.17,0.42c0,0.81,0,1.62,0,2.44c0,0.82,0,1.62,0,2.41h-1.21v-4.85c0-0.16-0.06-0.3-0.18-0.42
			c-0.12-0.12-0.26-0.18-0.42-0.18c-0.18,0-0.33,0.06-0.44,0.18c-0.11,0.12-0.17,0.26-0.17,0.42v4.85h-1.21v-5.45
			c0-0.48,0.18-0.91,0.53-1.27c0.35-0.36,0.78-0.55,1.29-0.55c0.5,0,0.94,0.18,1.3,0.55c0.44-0.36,1.02-0.55,1.73-0.55
			c0.67,0,1.24,0.18,1.71,0.55c0.47,0.36,0.71,0.79,0.71,1.27v5.45h-2.42V14.06z"/>
	</g>
</g>
</svg>
