<?xml version="1.0" encoding="utf-8"?>
<!-- Generator: Adobe Illustrator 24.0.1, SVG Export Plug-In . SVG Version: 6.00 Build 0)  -->
<svg version="1.1" id="Layer_1" xmlns="http://www.w3.org/2000/svg" xmlns:xlink="http://www.w3.org/1999/xlink" x="0px" y="0px"
	 viewBox="0 0 204 204" style="enable-background:new 0 0 204 204;" xml:space="preserve">
<style type="text/css">
	.st0{fill:#D3D2EB;}
	.st1{fill:#AF3F3F;stroke:#A9ADAA;stroke-miterlimit:10;}
	.st2{fill:#4E4408;}
	.st3{fill:#2B454E;}
	.st4{fill:#375A64;}
	.st5{fill:#62563F;stroke:#ED0973;stroke-miterlimit:10;}
	.st6{opacity:0.6;fill:#62563F;stroke:#ED0973;stroke-miterlimit:10;enable-background:new    ;}
	.st7{opacity:0.5;fill:#62563F;stroke:#ED0973;stroke-miterlimit:10;enable-background:new    ;}
	.st8{fill:#62563F;stroke:#AB3192;stroke-miterlimit:10;}
	.st9{opacity:0.4;fill:#62563F;stroke:#AB3192;stroke-miterlimit:10;enable-background:new    ;}
	.st10{opacity:0.15;enable-background:new    ;}
	.st11{fill:#1A2E35;stroke:#A82D25;stroke-miterlimit:10;}
	.st12{fill:#2B454E;stroke:#A82D25;stroke-miterlimit:10;}
	.st13{fill:#00DFBF;}
	.st14{opacity:0.15;stroke:#854500;stroke-miterlimit:10;enable-background:new    ;}
	.st15{fill:#E7E7E7;stroke:#854500;stroke-miterlimit:10;}
	.st16{fill:#E1E1E1;stroke:#854500;stroke-miterlimit:10;}
	.st17{fill:#F5F5F5;stroke:#854500;stroke-miterlimit:10;}
	.st18{fill:#ECECEC;stroke:#854500;stroke-miterlimit:10;}
	.st19{fill:#375A64;stroke:#854500;stroke-miterlimit:10;}
	.st20{fill:#2B454E;stroke:#854500;stroke-miterlimit:10;}
	.st21{fill:#FFFFFF;stroke:#854500;stroke-miterlimit:10;}
	.st22{fill:#00DFBF;stroke:#854500;stroke-miterlimit:10;}
	.st23{opacity:0.5;fill:#FFFFFF;stroke:#854500;stroke-miterlimit:10;enable-background:new    ;}
	.st24{fill:#1A2E35;stroke:#854500;stroke-miterlimit:10;}
	.st25{opacity:0.8;}
	.st26{fill:#375A64;stroke:#B1C6C9;stroke-miterlimit:10;}
	.st27{fill:#00DFBF;stroke:#B1C6C9;stroke-miterlimit:10;}
	.st28{opacity:0.5;}
	.st29{fill:#FFFFFF;stroke:#B1C6C9;stroke-miterlimit:10;}
	.st30{opacity:0.15;stroke:#B1C6C9;stroke-miterlimit:10;enable-background:new    ;}
	.st31{opacity:0.9;}
	.st32{fill:#2B454E;stroke:#B1C6C9;stroke-miterlimit:10;}
	.st33{fill:#E7E7E7;stroke:#B1C6C9;stroke-miterlimit:10;}
	.st34{opacity:0.6;fill:#FFFFFF;stroke:#B1C6C9;stroke-miterlimit:10;enable-background:new    ;}
	.st35{opacity:0.6;fill:#00DFBF;stroke:#B1C6C9;stroke-miterlimit:10;enable-background:new    ;}
	.st36{fill:#1A2E35;}
	.st37{fill:#4F0000;stroke:#008378;stroke-miterlimit:10;}
	.st38{opacity:0.7;}
	.st39{opacity:0.3;}
	.st40{fill:#00DFBF;stroke:#008378;stroke-miterlimit:10;}
	.st41{opacity:0.25;}
	.st42{stroke:#008378;stroke-miterlimit:10;}
	.st43{fill:#FFFFFF;stroke:#008378;stroke-miterlimit:10;}
	.st44{opacity:0.1;stroke:#008378;stroke-miterlimit:10;enable-background:new    ;}
	.st45{fill:#5A3B00;}
	.st46{opacity:0.4;fill:#AB9796;enable-background:new    ;}
	.st47{fill:#FAFAFA;}
	.st48{opacity:0.4;fill:#080F73;enable-background:new    ;}
	.st49{opacity:0.4;}
	.st50{opacity:0.5;enable-background:new    ;}
	.st51{fill:#A97195;}
	.st52{fill:#821E70;}
	.st53{fill:#934E09;}
	.st54{fill:none;stroke:#1A2E35;stroke-width:1.207;stroke-miterlimit:10;}
	.st55{fill:#703901;}
	.st56{fill:#7D5800;}
	.st57{fill:none;stroke:#1A2E35;stroke-width:1.027;stroke-miterlimit:10;}
	.st58{fill:#00DFBF;stroke:#8A322A;stroke-miterlimit:10;}
	.st59{opacity:0.75;fill:#FFFFFF;stroke:#00AAA5;stroke-miterlimit:10;enable-background:new    ;}
	.st60{opacity:0.1;fill:#00DFBF;stroke:#8A322A;stroke-miterlimit:10;enable-background:new    ;}
	.st61{fill:#AD206E;stroke:#F48F9F;stroke-miterlimit:10;}
	.st62{opacity:0.3;fill:#AD206E;stroke:#F48F9F;stroke-miterlimit:10;enable-background:new    ;}
	.st63{fill:#AD206E;stroke:#00B07D;stroke-miterlimit:10;}
	.st64{fill:none;}
</style>
<ellipse id="Floor_10_" class="st0" cx="102.7" cy="151.7" rx="95.9" ry="55.5"/>
<path id="Shadow_10_" class="st1" d="M189.1,143.1l-53.5,32.3c-0.4,0.2-1,0.2-1.4,0l-77.1-46.5c-0.4-0.2-0.4-0.6,0-0.9l53.5-32.3
	c0.4-0.2,1-0.2,1.4,0l77.1,46.5C189.5,142.5,189.5,142.9,189.1,143.1z"/>
<ellipse id="Shadow_5_" class="st2" cx="160.2" cy="172.1" rx="15.9" ry="9.6"/>
<g id="Desk">
	<g id="Table_2_">
		<g id="XMLID_3957_">
			<path id="XMLID_3960_" class="st3" d="M136.8,117.7v49.6c0,0.3-0.2,0.7-0.5,0.9l-1,0.6c-0.3,0.2-0.7,0.2-1,0l-1-0.6
				c-0.3-0.2-0.5-0.5-0.5-0.9v-49.6c0-0.3,0.2-0.4,0.5-0.3l1,0.6c0.3,0.2,0.7,0.2,1,0l1-0.6C136.6,117.3,136.8,117.4,136.8,117.7z"
				/>
			<path id="XMLID_3959_" class="st4" d="M134.3,168.9l-1-0.6c-0.3-0.2-0.5-0.5-0.5-0.9v-49.6c0-0.3,0.2-0.4,0.5-0.3l1,0.6
				c0.3,0.2,0.5,0.5,0.5,0.9v49.6C134.8,168.9,134.6,169,134.3,168.9z"/>
		</g>
		<g id="XMLID_3954_">
			<path id="XMLID_3956_" class="st3" d="M180.2,91.5v49.6c0,0.3-0.2,0.7-0.5,0.9l-1,0.6c-0.3,0.2-0.7,0.2-1,0l-1-0.6
				c-0.3-0.2-0.5-0.5-0.5-0.9V91.5c0-0.3,0.2-0.4,0.5-0.3l1,0.6c0.3,0.2,0.7,0.2,1,0l1-0.6C180,91.1,180.2,91.2,180.2,91.5z"/>
			<path id="XMLID_3955_" class="st4" d="M177.8,142.6l-1-0.6c-0.3-0.2-0.5-0.5-0.5-0.9V91.5c0-0.3,0.2-0.4,0.5-0.3l1,0.6
				c0.3,0.2,0.5,0.5,0.5,0.9v49.6C178.2,142.7,178,142.8,177.8,142.6z"/>
		</g>
		<g id="XMLID_3951_">
			<path id="XMLID_3953_" class="st3" d="M78.3,82.5v49.6c0,0.3-0.2,0.7-0.5,0.9l-1,0.6c-0.3,0.2-0.7,0.2-1,0l-1-0.6
				c-0.3-0.2-0.5-0.5-0.5-0.9V82.5c0-0.3,0.2-0.4,0.5-0.3l1,0.6c0.3,0.2,0.7,0.2,1,0l1-0.6C78.1,82,78.3,82.1,78.3,82.5z"/>
			<path id="XMLID_3952_" class="st4" d="M75.8,133.6l-1-0.6c-0.3-0.2-0.5-0.5-0.5-0.9V82.5c0-0.3,0.2-0.4,0.5-0.3l1,0.6
				c0.3,0.2,0.5,0.5,0.5,0.9v49.6C76.3,133.6,76.1,133.7,75.8,133.6z"/>
		</g>
		<g id="XMLID_3938_">
			<g id="XMLID_3949_">
				<path id="XMLID_3950_" class="st5" d="M189.7,95v-0.4c0-0.6-0.4-1.3-0.9-1.6l-76.6-46.2c-0.5-0.3-1.3-0.3-1.7,0L63.3,75.4
					c-0.5,0.3-0.9,1-0.9,1.6v0.4c0,0.6,0.4,1.3,0.9,1.6l76.6,46.2c0.5,0.3,1.3,0.3,1.7,0l47.1-28.5C189.3,96.3,189.7,95.6,189.7,95z
					"/>
				<path id="XMLID_339_" class="st6" d="M189.7,95v-0.4c0-0.6-0.4-1.3-0.9-1.6l-76.6-46.2c-0.5-0.3-1.3-0.3-1.7,0L63.3,75.4
					c-0.5,0.3-0.9,1-0.9,1.6v0.4c0,0.6,0.4,1.3,0.9,1.6l76.6,46.2c0.5,0.3,1.3,0.3,1.7,0l47.1-28.5C189.3,96.3,189.7,95.6,189.7,95z
					"/>
			</g>
			<g id="XMLID_3947_">
				<path id="XMLID_3948_" class="st5" d="M140.8,122.8v2.5c0.3,0,0.6-0.1,0.9-0.2l47.1-28.5c0.5-0.3,0.9-1,0.9-1.6v-0.4
					c0-0.5-0.3-1.1-0.7-1.5c0.3,0.3,0.3,0.7-0.2,0.9l-47.1,28.5C141.4,122.8,141.1,122.8,140.8,122.8z"/>
				<path id="XMLID_3946_" class="st7" d="M140.8,122.8v2.5c0.3,0,0.6-0.1,0.9-0.2l47.1-28.5c0.5-0.3,0.9-1,0.9-1.6v-0.4
					c0-0.5-0.3-1.1-0.7-1.5c0.3,0.3,0.3,0.7-0.2,0.9l-47.1,28.5C141.4,122.8,141.1,122.8,140.8,122.8z"/>
			</g>
			<g>
				<path id="XMLID_3942_" class="st8" d="M188.8,94.2l-47.1,28.5c-0.5,0.3-1.3,0.3-1.7,0L63.3,76.4c-0.5-0.3-0.5-0.8,0-1.1
					l47.1-28.5c0.5-0.3,1.3-0.3,1.7,0L188.7,93C189.3,93.4,189.3,93.9,188.8,94.2z"/>
				<path id="XMLID_337_" class="st9" d="M188.8,94.2l-47.1,28.5c-0.5,0.3-1.3,0.3-1.7,0L63.3,76.4c-0.5-0.3-0.5-0.8,0-1.1
					l47.1-28.5c0.5-0.3,1.3-0.3,1.7,0L188.7,93C189.3,93.4,189.3,93.9,188.8,94.2z"/>
			</g>
		</g>
	</g>
	<g id="Keyboard_1_">
		<path id="Shadow_30_" class="st10" d="M135,93.5l-11.2,6.8c-0.3,0.2-0.9,0.2-1.3,0l-33-19.9c-0.3-0.2-0.3-0.5,0-0.8l11.2-6.8
			c0.3-0.2,0.9-0.2,1.3,0l33,19.9C135.4,93,135.4,93.3,135,93.5z"/>
		<g id="Keyboard_4_">
			<g id="XMLID_3931_">
				<path id="XMLID_3936_" class="st11" d="M90.3,78.5c0-0.1,0.1-0.3,0.3-0.4l10.5-6.3c0.3-0.2,0.9-0.2,1.3,0l32,19.3
					c0.2,0.1,0.3,0.2,0.3,0.4c0,0.1,0,1,0,1.1s-0.1,0.3-0.3,0.4l-10.5,6.3c-0.3,0.2-0.9,0.2-1.3,0L90.6,80c-0.2-0.1-0.3-0.2-0.3-0.4
					C90.3,79.5,90.3,78.6,90.3,78.5z"/>
				<path id="XMLID_3935_" class="st12" d="M123.8,98.2l10.5-6.3c0.3-0.2,0.3-0.5,0-0.8l-32-19.3c-0.3-0.2-0.9-0.2-1.3,0l-10.5,6.3
					c-0.3,0.2-0.3,0.5,0,0.8l32,19.3C122.9,98.4,123.5,98.4,123.8,98.2z"/>
				<path id="XMLID_3933_" class="st11" d="M123.2,98.3v1.2c0.2,0,0.4-0.1,0.6-0.2l10.5-6.3c0.2-0.1,0.3-0.2,0.3-0.4v-1.2
					c0,0.1-0.1,0.3-0.3,0.4l-10.5,6.3C123.6,98.3,123.4,98.3,123.2,98.3z"/>
			</g>
			<path id="XMLID_3768_" class="st13" d="M92.2,78.5L92.2,78.5l1-0.6l1.4,0.8l-1,0.6L92.2,78.5L92.2,78.5z M93.9,77.6
				C93.9,77.6,93.9,77.5,93.9,77.6l1-0.6l1.1,0.7l-1,0.6L93.9,77.6L93.9,77.6z M94.2,79.7L94.2,79.7l1-0.6l1.1,0.7l-1,0.6L94.2,79.7
				L94.2,79.7z M95.5,76.6L95.5,76.6l1-0.6l1.8,1.1l-1,0.6L95.5,76.6L95.5,76.6z M95.5,78.6L95.5,78.6l1-0.6l0.9,0.5l-1,0.6
				L95.5,78.6L95.5,78.6z M95.9,80.7L95.9,80.7l1-0.6l1.1,0.7l-1,0.6L95.9,80.7L95.9,80.7z M97,79.4L97,79.4l1-0.6l0.9,0.5l-1,0.6
				L97,79.4L97,79.4z M97.1,75.6L97.1,75.6l1-0.6l1.4,0.9l-1,0.6L97.1,75.6L97.1,75.6z M97.5,81.7L97.5,81.7l1-0.6l8,4.8l-1,0.6
				L97.5,81.7L97.5,81.7z M97.8,78L97.8,78l1-0.6l0.9,0.5l-1,0.6L97.8,78L97.8,78z M98.4,80.3L98.4,80.3l1-0.6l0.9,0.5l-1,0.6
				L98.4,80.3L98.4,80.3z M98.7,74.6L98.7,74.6l1-0.6l0.9,0.5l-1,0.6L98.7,74.6L98.7,74.6z M99.1,76.8L99.1,76.8l1-0.6l0.9,0.5
				l-1,0.6L99.1,76.8L99.1,76.8z M99.3,78.9L99.3,78.9l1-0.6l0.9,0.5l-1,0.6L99.3,78.9L99.3,78.9z M99.8,81.2L99.8,81.2l1-0.6
				l0.9,0.5l-1,0.6L99.8,81.2L99.8,81.2z M100.2,75.5L100.2,75.5l1-0.6l0.9,0.5l-1,0.6L100.2,75.5L100.2,75.5z M100.5,77.7
				C100.5,77.6,100.5,77.6,100.5,77.7l1-0.6l0.9,0.5l-1,0.6L100.5,77.7L100.5,77.7z M100.7,79.7L100.7,79.7l1-0.6l0.9,0.5l-1,0.6
				L100.7,79.7L100.7,79.7z M100.7,73.4L100.7,73.4l1-0.6l1.1,0.7l-1,0.6L100.7,73.4L100.7,73.4z M101.3,82L101.3,82l1-0.6l0.9,0.5
				l-1,0.6L101.3,82L101.3,82z M101.6,76.4C101.6,76.3,101.6,76.3,101.6,76.4l1-0.6l0.9,0.5l-1,0.6L101.6,76.4L101.6,76.4z
				 M102,78.5L102,78.5l1-0.6l0.9,0.5l-1,0.6L102,78.5L102,78.5z M102.1,80.6C102.1,80.6,102.2,80.6,102.1,80.6l1-0.6l0.9,0.5
				l-1,0.6L102.1,80.6L102.1,80.6z M102.7,82.9L102.7,82.9l1-0.6l0.9,0.5l-1,0.6L102.7,82.9L102.7,82.9z M103,74.8L103,74.8l1-0.6
				l0.9,0.5l-1,0.6L103,74.8L103,74.8z M103,77.2C103,77.2,103.1,77.2,103,77.2l1-0.6l0.9,0.5l-1,0.6L103,77.2L103,77.2z
				 M103.4,79.4L103.4,79.4l1-0.6l0.9,0.5l-1,0.6L103.4,79.4L103.4,79.4z M103.6,81.5L103.6,81.5l1-0.6l0.9,0.5l-1,0.6L103.6,81.5
				L103.6,81.5z M104.2,83.8L104.2,83.8l1-0.6l0.9,0.5l-1,0.6L104.2,83.8L104.2,83.8z M104.4,75.7L104.4,75.7l1-0.6l0.9,0.5l-1,0.6
				L104.4,75.7L104.4,75.7z M104.5,78.1L104.5,78.1l1-0.6l0.9,0.5l-1,0.6L104.5,78.1L104.5,78.1z M104.8,80.3
				C104.8,80.3,104.8,80.2,104.8,80.3l1-0.6l0.9,0.5l-1,0.6L104.8,80.3L104.8,80.3z M105,82.3L105,82.3l1-0.6l0.9,0.5l-1,0.6
				L105,82.3L105,82.3z M105.6,84.6L105.6,84.6l1-0.6l0.9,0.5l-1,0.6L105.6,84.6L105.6,84.6z M105.9,76.5L105.9,76.5l1-0.6l0.9,0.5
				l-1,0.6L105.9,76.5L105.9,76.5z M105.9,79C105.9,78.9,105.9,78.9,105.9,79l1-0.6l0.9,0.5l-1,0.6L105.9,79L105.9,79z M106.1,86.9
				L106.1,86.9l1-0.6l1.1,0.7l-1,0.6L106.1,86.9L106.1,86.9z M106.3,81.1L106.3,81.1l1-0.6l0.9,0.5l-1,0.6L106.3,81.1L106.3,81.1z
				 M106.5,83.2L106.5,83.2l1-0.6l0.9,0.5l-1,0.6L106.5,83.2L106.5,83.2z M107,85.5L107,85.5l1-0.6l0.9,0.5l-1,0.6L107,85.5
				L107,85.5z M107.3,77.4L107.3,77.4l1-0.6l0.9,0.5l-1,0.6L107.3,77.4L107.3,77.4z M107.4,79.8L107.4,79.8l1-0.6l0.9,0.5l-1,0.6
				L107.4,79.8L107.4,79.8z M107.7,82L107.7,82l1-0.6l0.9,0.5l-1,0.6L107.7,82L107.7,82z M107.7,87.9
				C107.7,87.9,107.8,87.9,107.7,87.9l1-0.6l1.1,0.7l-1,0.6L107.7,87.9L107.7,87.9z M107.9,84.1L107.9,84.1l1-0.6l0.9,0.5l-1,0.6
				L107.9,84.1L107.9,84.1z M108.5,86.4L108.5,86.4l1-0.6l0.9,0.5l-1,0.6L108.5,86.4L108.5,86.4z M108.8,80.7L108.8,80.7l1-0.6
				l0.9,0.5l-1,0.6L108.8,80.7L108.8,80.7z M109.1,82.9C109.1,82.9,109.1,82.8,109.1,82.9l1-0.6l0.9,0.5l-1,0.6L109.1,82.9
				L109.1,82.9z M109.3,84.9L109.3,84.9l1-0.6l0.9,0.5l-1,0.6L109.3,84.9L109.3,84.9z M109.4,78.7C109.4,78.7,109.4,78.6,109.4,78.7
				l1-0.6l0.9,0.5l-1,0.6L109.4,78.7L109.4,78.7z M109.4,88.9L109.4,88.9l1-0.6l1.1,0.7l-1,0.6L109.4,88.9L109.4,88.9z M109.9,87.2
				L109.9,87.2l1-0.6l0.9,0.5l-1,0.6L109.9,87.2L109.9,87.2z M110.2,81.6C110.2,81.6,110.2,81.5,110.2,81.6l1-0.6l0.9,0.5l-1,0.6
				L110.2,81.6L110.2,81.6z M110.6,83.7L110.6,83.7l1-0.6l0.9,0.5l-1,0.6L110.6,83.7L110.6,83.7z M110.8,85.8L110.8,85.8l1-0.6
				l0.9,0.5l-1,0.6L110.8,85.8L110.8,85.8z M110.8,79.5L110.8,79.5l1-0.6l0.9,0.5l-1,0.6L110.8,79.5L110.8,79.5z M111.1,89.9
				L111.1,89.9l1-0.6l1.4,0.9l-1,0.6L111.1,89.9L111.1,89.9z M111.3,88.1L111.3,88.1l1-0.6l2.8,1.7l-1,0.6L111.3,88.1L111.3,88.1z
				 M111.7,82.4L111.7,82.4l1-0.6l0.9,0.5l-1,0.6L111.7,82.4L111.7,82.4z M112,84.6L112,84.6l1-0.6l0.9,0.5l-1,0.6L112,84.6
				L112,84.6z M112.2,86.7L112.2,86.7l1-0.6l0.9,0.5l-1,0.6L112.2,86.7L112.2,86.7z M112.2,80.4C112.2,80.4,112.3,80.4,112.2,80.4
				l1-0.6l0.9,0.5l-1,0.6L112.2,80.4L112.2,80.4z M113.1,83.3L113.1,83.3l1-0.6l0.9,0.5l-1,0.6L113.1,83.3L113.1,83.3z M113.3,91.3
				C113.3,91.3,113.4,91.3,113.3,91.3l1-0.6l0.9,0.5l-1,0.6L113.3,91.3L113.3,91.3z M113.5,85.5L113.5,85.5l1-0.6l0.9,0.5l-1,0.6
				L113.5,85.5L113.5,85.5z M113.6,87.5C113.6,87.5,113.7,87.5,113.6,87.5l1-0.6l0.8,0.5c0.1,0,0.2,0.1,0.3,0.1c0.1,0,0.2,0,0.3-0.1
				l1.4-0.8l1,0.6l-2.7,1.6L113.6,87.5L113.6,87.5z M113.7,81.3C113.7,81.3,113.7,81.2,113.7,81.3l1-0.6l0.9,0.5l-1,0.6L113.7,81.3
				L113.7,81.3z M114.5,84.2C114.5,84.2,114.6,84.2,114.5,84.2l1-0.6l0.9,0.5l-1,0.6L114.5,84.2L114.5,84.2z M114.8,92.2
				C114.8,92.1,114.8,92.1,114.8,92.2l1-0.6l0.9,0.5l-1,0.6L114.8,92.2L114.8,92.2z M114.9,86.3L114.9,86.3l1-0.6l0.9,0.5l-1,0.6
				L114.9,86.3L114.9,86.3z M115.8,82.5L115.8,82.5l1-0.6l0.9,0.5l-1,0.6L115.8,82.5L115.8,82.5z M116,85L116,85l1-0.6l0.9,0.5
				l-1,0.6L116,85L116,85z M116.2,93L116.2,93l1-0.6l0.9,0.5l-1,0.6L116.2,93L116.2,93z M116.4,91.2L116.4,91.2l1-0.6l0.9,0.5
				l-1,0.6L116.4,91.2L116.4,91.2z M117.2,83.4L117.2,83.4l1-0.6l0.9,0.5l-1,0.6L117.2,83.4L117.2,83.4z M117.4,85.9L117.4,85.9
				l1-0.6l1.6,0.9l-1,0.6L117.4,85.9L117.4,85.9z M118,94.1L118,94.1l1-0.6l2.3,1.4l-1,0.6L118,94.1L118,94.1z M118.2,88.3
				L118.2,88.3l1-0.6l0.9,0.5l-1,0.6L118.2,88.3L118.2,88.3z M118.6,84.2L118.6,84.2l1-0.6l0.9,0.5l-1,0.6L118.6,84.2L118.6,84.2z
				 M119.6,93.1L119.6,93.1l1-0.6l0.9,0.5l-1,0.6L119.6,93.1L119.6,93.1z M119.7,89.2L119.7,89.2l1-0.6l0.9,0.5l-1,0.6L119.7,89.2
				L119.7,89.2z M119.8,87.4C119.8,87.4,119.9,87.3,119.8,87.4l1-0.6l0.9,0.5l-1,0.6L119.8,87.4L119.8,87.4z M120.1,85.1L120.1,85.1
				l1-0.6L122,85l-1,0.6L120.1,85.1L120.1,85.1z M120.8,95.8L120.8,95.8l1-0.6l0.9,0.5l-1,0.6L120.8,95.8L120.8,95.8z M121,94
				C121,94,121,93.9,121,94l1-0.6l0.9,0.5l-1,0.6L121,94L121,94z M121.1,90.1L121.1,90.1l1-0.6L123,90l-1,0.6L121.1,90.1L121.1,90.1
				z M121.2,92.1L121.2,92.1l1-0.6l0.9,0.5l-1,0.6L121.2,92.1L121.2,92.1z M121.3,88.2L121.3,88.2l1-0.6l0.9,0.5l-1,0.6L121.3,88.2
				L121.3,88.2z M121.8,86.2L121.8,86.2l1-0.6l0.9,0.5l-1,0.6L121.8,86.2L121.8,86.2z M122.3,96.7L122.3,96.7l2.7-1.6l0.9,0.5
				l-2.7,1.6L122.3,96.7L122.3,96.7z M122.5,94.8L122.5,94.8l1-0.6l0.9,0.5l-1,0.6L122.5,94.8L122.5,94.8z M122.6,93
				C122.6,93,122.7,93,122.6,93l1-0.6l0.9,0.5l-1,0.6L122.6,93L122.6,93z M122.7,89.1L122.7,89.1l1-0.6l0.9,0.5l-1,0.6L122.7,89.1
				L122.7,89.1z M122.8,91.1L122.8,91.1l1-0.6l0.9,0.5l-1,0.6L122.8,91.1L122.8,91.1z M123.3,87L123.3,87l1-0.6l0.9,0.5l-1,0.6
				L123.3,87L123.3,87z M124.1,93.8L124.1,93.8l1-0.6l0.9,0.5l-1,0.6L124.1,93.8L124.1,93.8z M124.3,92L124.3,92l1-0.6l0.9,0.5
				l-1,0.6L124.3,92L124.3,92z M124.5,90.1L124.5,90.1l1-0.6l0.9,0.5l-1,0.6L124.5,90.1L124.5,90.1z M124.7,87.9L124.7,87.9l1-0.6
				l0.9,0.5l-1,0.6L124.7,87.9L124.7,87.9z M125.5,94.7L125.5,94.7l2.7-1.6l0.9,0.5l-2.7,1.6L125.5,94.7L125.5,94.7z M125.7,92.9
				L125.7,92.9l1-0.6l0.9,0.5l-1,0.6L125.7,92.9L125.7,92.9z M125.9,91L125.9,91l1-0.6l0.9,0.5l-1,0.6L125.9,91L125.9,91z
				 M126.9,88.7L126.9,88.7l0.4-0.3l0.9,0.5l-0.5,0.3L126.9,88.7L126.9,88.7z M127.3,91.9L127.3,91.9l1-0.6l0.9,0.5l-1,0.6
				L127.3,91.9L127.3,91.9z M128.3,89.6L128.3,89.6l0.4-0.3l0.9,0.5l-0.5,0.3L128.3,89.6L128.3,89.6z M128.8,92.8
				C128.8,92.7,128.8,92.7,128.8,92.8l1-0.6l0.9,0.5l-1,0.6L128.8,92.8L128.8,92.8z M129.7,90.4L129.7,90.4l0.4-0.3l0.9,0.5
				l-0.5,0.3L129.7,90.4L129.7,90.4z M131.2,91.3L131.2,91.3l0.4-0.3l0.9,0.5l-0.5,0.3L131.2,91.3L131.2,91.3z"/>
		</g>
	</g>
	<g id="Device">
		<polygon id="Shadow_29_" class="st14" points="182.9,107.4 192.7,101.5 143.6,71.9 133.8,77.8 		"/>
		<g id="Monitor_2_">
			<g id="XMLID_3761_">
				<g id="XMLID_3766_">
					<path id="XMLID_3767_" class="st15" d="M134.3,84.2l-8.8-5.3c-0.9-0.5-1.4-1.3-1.4-2c0-0.8,0-1.3,0-1.3l8.3-4.9
						c0.5-0.3,0.9-1,0.9-1.6V57.8l15.3,9.3v11.3c0,0.6-0.4,1.3-0.9,1.6l-6.9,4.3C139.1,85.3,136.1,85.3,134.3,84.2z"/>
				</g>
				<path id="XMLID_3765_" class="st16" d="M145,80.4v1.3l2.8-1.8c0.5-0.3,0.9-1,0.9-1.6V67l-2.9-1.8c0,0.8-0.1,1.6-0.1,2.4l2,1.3
					v8.9c0,0.6-0.4,1.3-0.9,1.6L145,80.4z"/>
				<path id="XMLID_3764_" class="st17" d="M147.6,77.8c0,0.6-0.4,1.3-0.9,1.6l-5.9,3.5c-1.8,1.1-4.8,1.1-6.5,0l-8.8-5.3
					c-1.8-1.1-1.8-2.9,0-4l5.9-3.5c0.5-0.3,0.9-1,0.9-1.6v-8.9l15.3,9.3V77.8z"/>
				<path id="XMLID_3763_" class="st18" d="M129.5,71.1L129.5,71.1l1.8-1.1c0.5-0.3,0.9-1,0.9-1.6v-8.9l15.3,9.3v8.9
					c0,0.6-0.4,1.3-0.9,1.6l-1.8,1L129.5,71.1z"/>
				<path id="XMLID_3762_" class="st18" d="M124.1,75.7c0,0,0,0.5,0,1.3c0,0.8,0.5,1.4,1.4,2l8.8,5.3c0.9,0.5,2,0.8,3.1,0.8v-1.3
					c-1.1,0-2.3-0.3-3.1-0.8l-8.8-5.3C124.6,77,124.1,76.3,124.1,75.7z"/>
			</g>
			<path id="XMLID_3760_" class="st19" d="M172.4,90c-0.6,0.4-1.5,0.4-2.1,0c-7.5-4.5-51.9-31.4-59.5-35.9c-0.6-0.4-1.1-1.3-1.1-2
				V-2.3c0-0.8,0.5-1.6,1-1.9c0.6-0.4,1.5-0.4,2.1,0l59.5,35.9c0.6,0.4,1.1,1.3,1.1,2v54.4C173.4,88.8,172.9,89.6,172.4,90z"/>
			<path id="XMLID_3758_" class="st20" d="M170.2,90l-59.5-35.9c-0.6-0.4-1.1-1.3-1.1-2V-2.3c0-0.8,0.5-1,1.1-0.6L170.2,33
				c0.6,0.4,1.1,1.3,1.1,2v54.4C171.2,90,170.9,90.3,170.2,90z"/>
			<path id="XMLID_3757_" class="st16" d="M170.4,90.2c0.6,0.3,1.5,0.3,2,0c0.6-0.4,1-1.3,1-2v-6.2l-2,1.3v6.2
				C171.2,90.1,170.9,90.3,170.4,90.2z"/>
			<path id="XMLID_3756_" class="st21" d="M171.2,83.3v6.2c0,0.8-0.5,1-1.1,0.6l-59.5-35.9c-0.6-0.4-1.1-1.3-1.1-2V46L171.2,83.3z"
				/>
			<path id="XMLID_3755_" class="st22" d="M169.2,78.7V35.6c0-0.4-0.3-1-0.6-1.1L112.3,0.6c-0.4-0.3-0.6,0-0.6,0.4V44
				c0,0.4,0.3,1,0.6,1.1L168.6,79C169,79.3,169.2,79,169.2,78.7z"/>
			<path id="XMLID_3754_" class="st23" d="M169.2,78.7V35.6c0-0.4-0.3-1-0.6-1.1L112.3,0.6c-0.4-0.3-0.6,0-0.6,0.4V44
				c0,0.4,0.3,1,0.6,1.1L168.6,79C169,79.3,169.2,79,169.2,78.7z"/>
			<path id="XMLID_3658_" class="st19" d="M140.5,67c0.6,0.4,1,1.1,1,1.9c0,0.6-0.5,1-1,0.6c-0.6-0.4-1-1.1-1-1.9
				C139.5,67,139.8,66.7,140.5,67z"/>
			<path id="XMLID_3657_" class="st24" d="M171,33.7c0.3,0.4,0.4,0.8,0.4,1.1v48.5l2-1.3V33.6c0-0.4-0.1-0.8-0.4-1.1L171,33.7z"/>
		</g>
	</g>
	<g id="Window_4_">
		<g id="XMLID_3556_">
			<g id="XMLID_3571_" class="st25">
				<path class="st26" d="M171.6,56.9V91c0,0.5,0.3,1,0.7,1.2l18.8,11.3c0.1,0,0.2,0.1,0.2,0.1h0.1c0,0,0,0,0.1,0l0,0l0,0l0,0
					c0.1-0.1,0.1-0.1,0.1-0.2s0.1-0.2,0.1-0.4V69c0-0.5-0.3-1-0.7-1.2l-18.8-11.3c-0.2-0.1-0.3-0.1-0.5-0.1c0,0,0,0-0.1,0l0,0l0,0
					l0,0l0,0v0.1c0,0,0,0,0,0.1l0,0C171.6,56.7,171.6,56.8,171.6,56.9C171.6,56.8,171.6,56.8,171.6,56.9z"/>
			</g>
			<g id="XMLID_3563_">
				<g id="XMLID_3568_">
					<path class="st27" d="M171.8,56.4c0.1-0.1,0.3,0,0.5,0.1L191,67.8c0.4,0.2,0.7,0.8,0.7,1.2v2.3l1.1-0.7v-2.3
						c0-0.5-0.3-1-0.7-1.2l-18.8-11.3c-0.2-0.1-0.4-0.1-0.5,0C172.7,55.9,172,56.3,171.8,56.4z"/>
				</g>
				<path id="XMLID_3567_" class="st27" d="M171.6,56.9c0-0.4,0.3-0.6,0.7-0.4L191,67.8c0.4,0.2,0.7,0.8,0.7,1.2v2.3l-20.1-12.1
					L171.6,56.9L171.6,56.9z"/>
				<g id="XMLID_3566_" class="st28">
					<path class="st29" d="M172.3,56.5L191,67.8c0.2,0.1,0.4,0.3,0.5,0.5l1.1-0.6c-0.1-0.2-0.3-0.4-0.5-0.5l-18.8-11.3
						c-0.2-0.1-0.4-0.1-0.5,0s-0.9,0.5-1,0.6C171.9,56.3,172.1,56.4,172.3,56.5z"/>
				</g>
				<path id="XMLID_3564_" class="st30" d="M192.8,70.7v-2.3c0-0.2-0.1-0.5-0.2-0.7l-1.1,0.6c0.1,0.2,0.2,0.5,0.2,0.7v2.3
					L192.8,70.7z"/>
			</g>
			<g id="XMLID_3559_">
				<path id="XMLID_3562_" class="st26" d="M190.7,68.7c0.2,0.1,0.4,0.5,0.4,0.8s-0.2,0.5-0.4,0.4s-0.4-0.5-0.4-0.8
					C190.3,68.8,190.5,68.6,190.7,68.7z"/>
				<path id="XMLID_3561_" class="st26" d="M189.4,67.9c0.2,0.1,0.4,0.5,0.4,0.8s-0.2,0.5-0.4,0.4s-0.4-0.5-0.4-0.8
					C189,67.9,189.1,67.8,189.4,67.9z"/>
				<path id="XMLID_3560_" class="st26" d="M188,67.1c0.2,0.1,0.4,0.5,0.4,0.8s-0.2,0.5-0.4,0.4s-0.4-0.5-0.4-0.8
					C187.6,67.1,187.8,66.9,188,67.1z"/>
			</g>
			<g id="XMLID_3558_" class="st31">
				<path class="st32" d="M191.5,103.6L191.5,103.6c0.1-0.1,0.2-0.1,0.3-0.2l0,0c0,0,0.1,0,0.1-0.1l0,0c0.1,0,0.1-0.1,0.2-0.1
					c0.1,0,0.3-0.2,0.4-0.2h0.1l0.1-0.1l0.1-0.1c0-0.1,0.1-0.2,0.1-0.4V70.7l-1.1,0.7V103c0,0.1,0,0.3-0.1,0.4
					C191.6,103.4,191.6,103.5,191.5,103.6L191.5,103.6L191.5,103.6z"/>
			</g>
		</g>
		<g id="XMLID_2916_">
			<path id="XMLID_3489_" class="st27" d="M173.4,66.2l11.3,6.8c0.1,0.1,0.2,0.3,0.2,0.4c0,0.2-0.1,0.2-0.2,0.1l-11.3-6.8
				c-0.1-0.1-0.2-0.3-0.2-0.4C173.1,66.2,173.2,66.1,173.4,66.2z"/>
			<path id="XMLID_3488_" class="st33" d="M177,75l11.3,6.8c0.1,0.1,0.2,0.3,0.2,0.4s-0.1,0.2-0.2,0.1L177,75.5
				c-0.1-0.1-0.2-0.3-0.2-0.4C176.7,74.9,176.8,74.9,177,75z"/>
			<path id="XMLID_3480_" class="st33" d="M177,79.3l5.4,3.3c0.1,0.1,0.2,0.3,0.2,0.4c0,0.2-0.1,0.2-0.2,0.1l-5.4-3.3
				c-0.1-0.1-0.2-0.3-0.2-0.4C176.7,79.3,176.8,79.2,177,79.3z"/>
			<path id="XMLID_3458_" class="st27" d="M185.6,73.6l4.5,2.7c0.1,0.1,0.2,0.3,0.2,0.4c0,0.2-0.1,0.2-0.2,0.1l-4.5-2.7
				c-0.1-0.1-0.2-0.3-0.2-0.4C185.3,73.6,185.4,73.5,185.6,73.6z"/>
			<path id="XMLID_3455_" class="st27" d="M173.4,90.2l11.3,6.8c0.1,0.1,0.2,0.3,0.2,0.4c0,0.2-0.1,0.2-0.2,0.1l-11.3-6.8
				c-0.1-0.1-0.2-0.3-0.2-0.4C173.1,90.2,173.2,90.2,173.4,90.2z"/>
			<path id="XMLID_3452_" class="st27" d="M185.6,97.6l4.5,2.7c0.1,0.1,0.2,0.3,0.2,0.4c0,0.2-0.1,0.2-0.2,0.1l-4.5-2.7
				c-0.1-0.1-0.2-0.3-0.2-0.4C185.3,97.6,185.4,97.5,185.6,97.6z"/>
			<path id="XMLID_3448_" class="st27" d="M185.6,91.1l4.5,2.7c0.1,0.1,0.2,0.3,0.2,0.4c0,0.2-0.1,0.2-0.2,0.1l-4.5-2.7
				c-0.1-0.1-0.2-0.3-0.2-0.4C185.3,91.1,185.4,91,185.6,91.1z"/>
			<path id="XMLID_3288_" class="st27" d="M185.6,93.3l4.5,2.7c0.1,0.1,0.2,0.3,0.2,0.4c0,0.2-0.1,0.2-0.2,0.1l-4.5-2.7
				c-0.1-0.1-0.2-0.3-0.2-0.4C185.3,93.2,185.4,93.2,185.6,93.3z"/>
			<path id="XMLID_3285_" class="st27" d="M181.7,88.8l2.5,1.5c0.1,0.1,0.2,0.3,0.2,0.4c0,0.2-0.1,0.2-0.2,0.1l-2.5-1.5
				c-0.1-0.1-0.2-0.3-0.2-0.4C181.5,88.7,181.6,88.7,181.7,88.8z"/>
			<g id="XMLID_3242_">
				<path id="XMLID_3244_" class="st27" d="M173.4,68.4l6.6,4c0.1,0.1,0.2,0.3,0.2,0.4c0,0.2-0.1,0.2-0.2,0.1l-6.6-4
					c-0.1-0.1-0.2-0.3-0.2-0.4C173.1,68.4,173.2,68.3,173.4,68.4z"/>
				<path id="XMLID_3243_" class="st34" d="M173.4,68.4l6.6,4c0.1,0.1,0.2,0.3,0.2,0.4c0,0.2-0.1,0.2-0.2,0.1l-6.6-4
					c-0.1-0.1-0.2-0.3-0.2-0.4C173.1,68.4,173.2,68.3,173.4,68.4z"/>
			</g>
			<g id="XMLID_3239_">
				<path id="XMLID_3241_" class="st27" d="M173.4,70.6l2.2,1.3c0.1,0.1,0.2,0.3,0.2,0.4c0,0.2-0.1,0.2-0.2,0.1l-2.2-1.3
					c-0.1-0.1-0.2-0.3-0.2-0.4C173.1,70.6,173.2,70.5,173.4,70.6z"/>
				<path id="XMLID_3240_" class="st34" d="M173.4,70.6l2.2,1.3c0.1,0.1,0.2,0.3,0.2,0.4c0,0.2-0.1,0.2-0.2,0.1l-2.2-1.3
					c-0.1-0.1-0.2-0.3-0.2-0.4C173.1,70.6,173.2,70.5,173.4,70.6z"/>
			</g>
			<g id="XMLID_3236_">
				<path id="XMLID_3238_" class="st27" d="M173.4,72.8l2.2,1.3c0.1,0.1,0.2,0.3,0.2,0.4s-0.1,0.2-0.2,0.1l-2.2-1.3
					c-0.1-0.1-0.2-0.3-0.2-0.4C173.1,72.7,173.2,72.7,173.4,72.8z"/>
				<path id="XMLID_3237_" class="st34" d="M173.4,72.8l2.2,1.3c0.1,0.1,0.2,0.3,0.2,0.4s-0.1,0.2-0.2,0.1l-2.2-1.3
					c-0.1-0.1-0.2-0.3-0.2-0.4C173.1,72.7,173.2,72.7,173.4,72.8z"/>
			</g>
			<g id="XMLID_3234_">
				<path id="XMLID_3235_" class="st27" d="M173.4,75l2.2,1.3c0.1,0.1,0.2,0.3,0.2,0.4c0,0.2-0.1,0.2-0.2,0.1l-2.2-1.3
					c-0.1-0.1-0.2-0.3-0.2-0.4C173.1,74.9,173.2,74.9,173.4,75z"/>
			</g>
			<path id="XMLID_3233_" class="st34" d="M173.4,75l2.2,1.3c0.1,0.1,0.2,0.3,0.2,0.4c0,0.2-0.1,0.2-0.2,0.1l-2.2-1.3
				c-0.1-0.1-0.2-0.3-0.2-0.4C173.1,74.9,173.2,74.9,173.4,75z"/>
			<path id="XMLID_3232_" class="st35" d="M177,77.1l6.6,4c0.1,0.1,0.2,0.3,0.2,0.4c0,0.2-0.1,0.2-0.2,0.1l-6.6-4
				c-0.1-0.1-0.2-0.3-0.2-0.4C176.7,77.1,176.8,77.1,177,77.1z"/>
			<path id="XMLID_3228_" class="st35" d="M184.5,81.7l2.9,1.7c0.1,0.1,0.2,0.3,0.2,0.4c0,0.2-0.1,0.2-0.2,0.1l-2.9-1.7
				c-0.1-0.1-0.2-0.3-0.2-0.4C184.2,81.6,184.4,81.6,184.5,81.7z"/>
			<path id="XMLID_3205_" class="st34" d="M177,77.1l6.6,4c0.1,0.1,0.2,0.3,0.2,0.4c0,0.2-0.1,0.2-0.2,0.1l-6.6-4
				c-0.1-0.1-0.2-0.3-0.2-0.4C176.7,77.1,176.8,77.1,177,77.1z"/>
			<path id="XMLID_3204_" class="st34" d="M184.5,81.7l2.9,1.7c0.1,0.1,0.2,0.3,0.2,0.4c0,0.2-0.1,0.2-0.2,0.1l-2.9-1.7
				c-0.1-0.1-0.2-0.3-0.2-0.4C184.2,81.6,184.4,81.6,184.5,81.7z"/>
			<g id="XMLID_3201_">
				<path id="XMLID_3203_" class="st27" d="M173.4,77.1l2.2,1.3c0.1,0.1,0.2,0.3,0.2,0.4c0,0.2-0.1,0.2-0.2,0.1l-2.2-1.3
					c-0.1-0.1-0.2-0.3-0.2-0.4C173.1,77.1,173.2,77.1,173.4,77.1z"/>
				<path id="XMLID_3202_" class="st34" d="M173.4,77.1l2.2,1.3c0.1,0.1,0.2,0.3,0.2,0.4c0,0.2-0.1,0.2-0.2,0.1l-2.2-1.3
					c-0.1-0.1-0.2-0.3-0.2-0.4C173.1,77.1,173.2,77.1,173.4,77.1z"/>
			</g>
			<g id="XMLID_3198_">
				<path id="XMLID_3200_" class="st27" d="M180.9,72.9l2.9,1.7c0.1,0.1,0.2,0.3,0.2,0.4c0,0.2-0.1,0.2-0.2,0.1l-2.9-1.7
					c-0.1-0.1-0.2-0.3-0.2-0.4C180.6,72.9,180.7,72.9,180.9,72.9z"/>
				<path id="XMLID_3199_" class="st34" d="M180.9,72.9l2.9,1.7c0.1,0.1,0.2,0.3,0.2,0.4c0,0.2-0.1,0.2-0.2,0.1l-2.9-1.7
					c-0.1-0.1-0.2-0.3-0.2-0.4C180.6,72.9,180.7,72.9,180.9,72.9z"/>
			</g>
			<g id="XMLID_3196_">
				<path id="XMLID_3197_" class="st29" d="M179.7,83.1l6.6,4c0.1,0.1,0.2,0.3,0.2,0.4s-0.1,0.2-0.2,0.1l-6.6-4
					c-0.1-0.1-0.2-0.3-0.2-0.4S179.6,83.1,179.7,83.1z"/>
			</g>
			<g id="XMLID_3194_">
				<path id="XMLID_3195_" class="st29" d="M183.5,87.6l6.6,4c0.1,0.1,0.2,0.3,0.2,0.4c0,0.2-0.1,0.2-0.2,0.1l-6.6-4
					c-0.1-0.1-0.2-0.3-0.2-0.4C183.2,87.6,183.3,87.5,183.5,87.6z"/>
			</g>
			<g id="XMLID_3094_">
				<path id="XMLID_3193_" class="st29" d="M187.2,87.7l2.9,1.7c0.1,0.1,0.2,0.3,0.2,0.4c0,0.2-0.1,0.2-0.2,0.1l-2.9-1.7
					c-0.1-0.1-0.2-0.3-0.2-0.4S187.1,87.6,187.2,87.7z"/>
			</g>
			<g id="XMLID_2998_">
				<path id="XMLID_2999_" class="st33" d="M187.2,96.3l2.9,1.7c0.1,0.1,0.2,0.3,0.2,0.4c0,0.2-0.1,0.2-0.2,0.1l-2.9-1.7
					c-0.1-0.1-0.2-0.3-0.2-0.4S187.1,96.2,187.2,96.3z"/>
			</g>
			<g id="XMLID_2995_">
				<path id="XMLID_2997_" class="st27" d="M177,72.8l6.6,4c0.1,0.1,0.2,0.3,0.2,0.4s-0.1,0.2-0.2,0.1l-6.6-4
					c-0.1-0.1-0.2-0.3-0.2-0.4C176.7,72.7,176.8,72.7,177,72.8z"/>
				<path id="XMLID_2996_" class="st34" d="M177,72.8l6.6,4c0.1,0.1,0.2,0.3,0.2,0.4s-0.1,0.2-0.2,0.1l-6.6-4
					c-0.1-0.1-0.2-0.3-0.2-0.4C176.7,72.7,176.8,72.7,177,72.8z"/>
			</g>
			<g id="XMLID_2918_">
				<path id="XMLID_2922_" class="st27" d="M184.5,77.3l2.9,1.7c0.1,0.1,0.2,0.3,0.2,0.4c0,0.2-0.1,0.2-0.2,0.1l-2.9-1.7
					c-0.1-0.1-0.2-0.3-0.2-0.4C184.2,77.3,184.4,77.2,184.5,77.3z"/>
				<path id="XMLID_2919_" class="st34" d="M184.5,77.3l2.9,1.7c0.1,0.1,0.2,0.3,0.2,0.4c0,0.2-0.1,0.2-0.2,0.1l-2.9-1.7
					c-0.1-0.1-0.2-0.3-0.2-0.4C184.2,77.3,184.4,77.2,184.5,77.3z"/>
			</g>
		</g>
	</g>
	<g id="Mouse_2_">
		<path class="st10" d="M139.6,102.3l4,2.4c1.3,0.8,3.3,0.7,4.4-0.2l6.7-5.1c1.2-0.9,1.1-2.3-0.2-3l-2-1.2c-1.3-0.8-3.4-0.8-4.7-0.1
			l-8.2,4.7C138.4,100.4,138.4,101.6,139.6,102.3z"/>
		<path class="st3" d="M154.9,97.2l-4.6,3.8l-3.4,2.8c-0.3,0.2-0.7,0.3-1.1,0.3c-0.6,0-1.2-0.1-1.6-0.4l-3.6-2.2l0,0l0,0
			c-1.3-0.8-1.6-2.6-0.7-3.8c0-0.1,0.1-0.1,0.1-0.2c0.7-1,1.7-1.7,2.9-1.9l1.8-0.4c3-0.6,5.4-0.9,5.7-0.7L154.9,97.2L154.9,97.2z"/>
		<path class="st13" d="M152.3,99.3l0.3-0.2l-4.1-2.4l3.6-1.1c-0.1-0.1-0.2-0.1-0.4-0.2l-3.6,1.1l-2.4-1.5c-0.2,0-0.3,0.1-0.5,0.1
			L152.3,99.3z"/>
		<path class="st36" d="M147.3,103.5L147.3,103.5L147.3,103.5l3.3-2.5l4.4-3.3v-0.5l0,0l0,0c-0.3-0.1-2.2,0.5-4.5,1.4l-1.5,0.6
			c-0.5,0.2-0.9,0.5-1.3,0.8c-1.1,0.9-1.7,2.4-1.7,3.9v0.1c0.4,0,0.8-0.1,1.1-0.3L147.3,103.5z"/>
	</g>
</g>
<g id="Pot_1_">
	<g id="XMLID_3653_">
		<g id="XMLID_3654_">
			<g id="XMLID_3655_">
				<g id="XMLID_3717_">
					<path id="XMLID_3718_" class="st37" d="M155.3,171c-4.4-4.8-7-24.3-2.7-28.1h22c4.3,3.8,1.7,23.3-2.7,28.1l-0.1,0.1
						c-0.1,0.1-0.1,0.1-0.2,0.2c-0.1,0.1-0.3,0.3-0.4,0.4l-0.1,0.1c-0.1,0.1-0.2,0.2-0.3,0.3c-0.2,0.1-0.4,0.3-0.6,0.4
						c-3.7,2.2-9.6,2.2-13.2,0l0,0l0,0c-0.2-0.1-0.4-0.2-0.6-0.4c-0.1-0.1-0.2-0.2-0.3-0.2l-0.1-0.1c-0.1-0.1-0.3-0.2-0.4-0.4
						c-0.1-0.1-0.1-0.1-0.2-0.2C155.4,171.1,155.3,171.1,155.3,171z"/>
				</g>
				<g id="XMLID_3668_" class="st28">
					<path id="XMLID_3669_" class="st37" d="M155.3,171c-4.4-4.8-7-24.3-2.7-28.1h22c4.3,3.8,1.7,23.3-2.7,28.1l-0.1,0.1
						c-0.1,0.1-0.1,0.1-0.2,0.2c-0.1,0.1-0.3,0.3-0.4,0.4l-0.1,0.1c-0.1,0.1-0.2,0.2-0.3,0.3c-0.2,0.1-0.4,0.3-0.6,0.4
						c-3.7,2.2-9.6,2.2-13.2,0l0,0l0,0c-0.2-0.1-0.4-0.2-0.6-0.4c-0.1-0.1-0.2-0.2-0.3-0.2l-0.1-0.1c-0.1-0.1-0.3-0.2-0.4-0.4
						c-0.1-0.1-0.1-0.1-0.2-0.2C155.4,171.1,155.3,171.1,155.3,171z"/>
				</g>
				<g id="XMLID_3666_">
					<path id="XMLID_3667_" class="st37" d="M172.7,141.4c5,3.1,5,8,0,11.1s-13.2,3.1-18.2,0s-5-8,0-11.1
						C159.5,138.4,167.7,138.4,172.7,141.4z"/>
				</g>
				<g id="XMLID_3664_" class="st38">
					<path id="XMLID_3665_" class="st37" d="M172.7,141.4c5,3.1,5,8,0,11.1s-13.2,3.1-18.2,0s-5-8,0-11.1
						C159.5,138.4,167.7,138.4,172.7,141.4z"/>
				</g>
				<g id="XMLID_3662_">
					<path id="XMLID_3663_" class="st37" d="M170.3,142.9c3.7,2.3,3.7,5.9,0,8.2s-9.7,2.3-13.4,0s-3.7-5.9,0-8.2
						C160.6,140.7,166.6,140.7,170.3,142.9z"/>
				</g>
				<g id="XMLID_3660_" class="st39">
					<path id="XMLID_3661_" class="st37" d="M170.3,142.9c3.7,2.3,3.7,5.9,0,8.2s-9.7,2.3-13.4,0s-3.7-5.9,0-8.2
						C160.6,140.7,166.6,140.7,170.3,142.9z"/>
				</g>
				<g id="XMLID_3656_">
					<path id="XMLID_3659_" class="st37" d="M156.9,146.8c3.7-2.3,9.7-2.3,13.4,0c1,0.6,1.8,1.4,2.2,2.1c-0.5,0.8-1.2,1.5-2.2,2.1
						c-3.7,2.3-9.7,2.3-13.4,0c-1-0.6-1.8-1.4-2.2-2.1C155.2,148.1,155.9,147.4,156.9,146.8z"/>
				</g>
			</g>
		</g>
	</g>
	<g id="Plants_20_">
		<g id="XMLID_3595_">
			<g id="XMLID_3645_">
				<path id="XMLID_3652_" class="st40" d="M161.8,136.9c-0.2-0.5-0.5-1.1-0.6-1.7c-0.2-1.4,0.1-3,1.2-3.9c0.4-0.3,1-0.6,1.2-1.1
					c0.1-0.3,0.1-0.6,0-0.9c-0.2-1.2-0.6-2.4-0.3-3.6c0.3-1.1,1.2-1.9,2.1-2.4c1-0.5,2.1-0.7,3.1-0.9c0.6-0.1,1.1-0.2,1.6-0.5
					c0.6-0.4,0.8-1,1.2-1.6s1-1.2,1.5-1.7c1.1-1,2.5-1.9,4.1-1.8c3.2,0.1,3.1,3.1,2.2,5.3c-0.9,2.2-1.2,2.9,0.8,5.2
					c2,2.3,2,5.1-0.4,6.7c-2.4,1.6-4,1.8-3,4.9c0.9,2.7,1.4,5.1-1,8c-1.6,1.9-3.7,3.2-6.4,3.1c-0.8,0-2.4-0.4-3.1-0.8
					c-0.7-0.4-0.2-1-0.5-1.7c-0.5-1.6-1.1-3.3-1.6-4.9c-0.4-1.3-0.7-2.7-1.3-3.9C162.5,138.2,162.1,137.6,161.8,136.9z"/>
			</g>
			<g id="XMLID_3643_" class="st41">
				<path id="XMLID_3644_" class="st42" d="M161.8,136.9c-0.2-0.5-0.5-1.1-0.6-1.7c-0.2-1.4,0.1-3,1.2-3.9c0.4-0.3,1-0.6,1.2-1.1
					c0.1-0.3,0.1-0.6,0-0.9c-0.2-1.2-0.6-2.4-0.3-3.6c0.3-1.1,1.2-1.9,2.1-2.4c1-0.5,2.1-0.7,3.1-0.9c0.6-0.1,1.1-0.2,1.6-0.5
					c0.6-0.4,0.8-1,1.2-1.6s1-1.2,1.5-1.7c1.1-1,2.5-1.9,4.1-1.8c3.2,0.1,3.1,3.1,2.2,5.3c-0.9,2.2-1.2,2.9,0.8,5.2
					c2,2.3,2,5.1-0.4,6.7c-2.4,1.6-4,1.8-3,4.9c0.9,2.7,1.4,5.1-1,8c-1.6,1.9-3.7,3.2-6.4,3.1c-0.8,0-2.4-0.4-3.1-0.8
					c-0.7-0.4-0.2-1-0.5-1.7c-0.5-1.6-1.1-3.3-1.6-4.9c-0.4-1.3-0.7-2.7-1.3-3.9C162.5,138.2,162.1,137.6,161.8,136.9z"/>
			</g>
			<g id="XMLID_3641_">
				<path id="XMLID_3642_" class="st43" d="M166.2,149.3c0.1,0,0.2-0.1,0.2-0.2c-0.1-16.7,8.7-26.7,8.8-26.8c0.1-0.1,0.1-0.3,0-0.4
					s-0.2-0.1-0.3,0s-9,10.2-8.9,27.2C165.9,149.2,166,149.3,166.2,149.3C166.1,149.3,166.2,149.3,166.2,149.3z"/>
			</g>
			<g id="XMLID_3598_">
				<path id="XMLID_3640_" class="st43" d="M168.8,133.8L168.8,133.8c2.9-1.9,8-3.3,8.1-3.3s0.2-0.2,0.2-0.3s-0.2-0.2-0.3-0.2
					c-0.2,0.1-5.2,1.4-8.2,3.4c-0.1,0.1-0.1,0.2-0.1,0.3S168.7,133.8,168.8,133.8z"/>
			</g>
			<g id="XMLID_3596_">
				<path id="XMLID_3597_" class="st43" d="M169.7,131.5L169.7,131.5c0.1-0.1,0.2-0.2,0.1-0.3c-1-2.6-2.6-4.6-2.6-4.7
					c-0.1-0.1-0.2-0.1-0.3,0s-0.1,0.2,0,0.4c0,0,1.6,2,2.6,4.5C169.4,131.5,169.5,131.5,169.7,131.5z"/>
			</g>
		</g>
		<g id="XMLID_3098_">
			<path id="XMLID_3594_" class="st40" d="M163.9,151.1c0,0-3,1.2-7,0.3s-6.5-4.9-6.5-4.9s4.4-1.8,6.9-2c0,0-3.9-0.7-7.6,0.2
				c0,0-2.3-0.9-1.9-5c0,0,2.2-1.7,7.3-1c0,0-2.5-1.9-7-2.4c-0.3,0,0.1-5.4,0.5-7.8c0.4-2.4,1.3-2,3.1-1.8s7.2,1.5,7.9,2.9
				s0,4.9,0,4.9s1.5-1.9,1.5-4.6c0,0,2,0.8,3.1,1.8s1.6,1.8,1.9,2.5c-0.3,1.9-1.1,4.8-2.3,6.4c0,0,2.7-1.8,3.3-5.1
				c0,0,2.1,2.9,2.1,6.6C169.2,146.1,167.4,149.2,163.9,151.1z"/>
			<path id="XMLID_3719_" class="st44" d="M163.9,151.1c0,0-3,1.2-7,0.3s-6.5-4.9-6.5-4.9s4.4-1.8,6.9-2c0,0-3.9-0.7-7.6,0.2
				c0,0-2.3-0.9-1.9-5c0,0,2.2-1.7,7.3-1c0,0-2.5-1.9-7-2.4c-0.3,0,0.1-5.4,0.5-7.8c0.4-2.4,1.3-2,3.1-1.8s7.2,1.5,7.9,2.9
				s0,4.9,0,4.9s1.5-1.9,1.5-4.6c0,0,2,0.8,3.1,1.8s1.6,1.8,1.9,2.5c-0.3,1.9-1.1,4.8-2.3,6.4c0,0,2.7-1.8,3.3-5.1
				c0,0,2.1,2.9,2.1,6.6C169.2,146.1,167.4,149.2,163.9,151.1z"/>
			<g id="XMLID_3578_">
				<path id="XMLID_3579_" class="st43" d="M164.5,150.8c-0.1,0-0.1-0.1-0.1-0.2c-0.6-8-9.2-20.5-12.9-23c-0.1-0.1-0.1-0.2-0.1-0.3
					c0.1-0.1,0.2-0.1,0.3-0.1c3.8,2.5,12.5,15.2,13.1,23.3c0,0.1-0.1,0.3-0.2,0.3C164.5,150.8,164.5,150.8,164.5,150.8z"/>
			</g>
		</g>
	</g>
</g>
<g id="Character_1_">
	<g id="XMLID_179_">
		<g id="XMLID_183_">
			<g id="XMLID_191_">
				<path id="XMLID_192_" class="st45" d="M87.2,145.8c0-0.1-1.4-5.3-1.4-5.3s0.4,0.5,3.3-0.3c1.5-0.4,3.1-1.4,3.1-1.4l0.8,3.8
					c0.8,1.5,3.3,0.8,6.1,0.5c0.5-0.1,0.9-0.1,1.4-0.2l0,0c1.5-0.1,3,0.9,1.4,2.2s-4.1,1.8-6.5,2.3
					C92.7,147.9,87.7,148.7,87.2,145.8z"/>
			</g>
			<g id="XMLID_184_">
				<path id="XMLID_190_" class="st36" d="M107.1,145.3c0,0,0.3,0.6,0.2,1.6c-0.1,0.6-1.4,2.5-3.8,3.7s-5.4,1.3-6.8,1.7
					s-2.7,1.3-4.3,1.7c-1.7,0.4-3.3,0.6-4.9-0.5c-0.3-0.5-0.6-1.6-0.5-1.7C87.1,151.5,107.1,145.3,107.1,145.3z"/>
				<path id="XMLID_189_" class="st13" d="M93.5,143.1c1.1,0.8,3.3,0.2,5.6,0c2.2-0.3,4.8-1.1,6.3-0.5s2.8,2.4,0.7,4.8
					c-0.6,0.7-1.9,1.9-2.9,2.3c-2.6,1-4.9,1-6.5,1.5c-2.1,0.6-3.3,1.5-5.3,1.8c-2.6,0.3-4.2-0.4-4.6-1.1c-0.4-0.7-0.9-6.5,0.2-6.4
					c0,0,0.5,1.9,4.6,0.1C93.6,144.7,93.6,143.5,93.5,143.1z"/>
				<path id="XMLID_188_" class="st46" d="M93.5,143.1c1.1,0.8,3.3,0.2,5.6,0c2.2-0.3,4.8-1.1,6.3-0.5s2.8,2.4,0.7,4.8
					c-0.6,0.7-1.9,1.9-2.9,2.3c-2.6,1-4.9,1-6.5,1.5c-2.1,0.6-3.3,1.5-5.3,1.8c-2.6,0.3-4.2-0.4-4.6-1.1c-0.4-0.7-0.9-6.5,0.2-6.4
					c0,0,0.5,1.9,4.6,0.1C93.6,144.7,93.6,143.5,93.5,143.1z"/>
				<path id="XMLID_187_" class="st47" d="M100.6,146.2c0,0-0.2-2.4-2-3.1c0,0-0.6-0.3-0.9,0.1c0,0,1.6,0.2,2.1,3.1
					c0,0,0.1,0.2,0.4,0.1C100.4,146.5,100.6,146.4,100.6,146.2z"/>
				<path id="XMLID_186_" class="st47" d="M96.2,143.5c0,0,0-0.1,0.4-0.2c0.3-0.1,0.5,0.1,0.5,0.1s1.3,0.6,1.5,3.1
					c0,0,0,0.3-0.4,0.4c-0.4,0.1-0.5-0.2-0.5-0.2S97.5,143.9,96.2,143.5z"/>
				<path id="XMLID_185_" class="st47" d="M94.8,143.5c0,0,0.1-0.2,0.4-0.2c0.4,0,0.5,0.2,0.5,0.2s0.9,1,0.9,3.1c0,0,0,0.4-0.4,0.4
					c-0.5,0-0.4-0.4-0.4-0.4S95.6,143.9,94.8,143.5z"/>
			</g>
		</g>
		<g id="XMLID_180_">
			<g id="XMLID_181_">
				<path id="XMLID_182_" class="st3" d="M85.4,110.5c2.1,6.6,7.7,29.3,7.7,29.3s-3.6,3.4-7.5,1.9l-9.4-28.3L85.4,110.5z"/>
			</g>
		</g>
	</g>
	<g id="XMLID_166_">
		<g id="XMLID_169_">
			<g id="XMLID_177_">
				<path id="XMLID_178_" class="st45" d="M101.6,153.1c-0.4-0.7-2-5.3-2-5.3s1.7,1,4.6,0.3c1.5-0.4,2.8-2,2.8-2l1.2,4.4
					c0.7,1.5,3.1,1,5.9,0.7c0.5,0,0.9-0.1,1.4-0.2l0,0c1.5,0,3,0.9,1.4,2.2s-4.2,1.7-6.5,2.1C107.5,155.9,103.2,155.6,101.6,153.1z"
					/>
			</g>
			<g id="XMLID_170_">
				<path id="XMLID_176_" class="st36" d="M123.1,153c0,0,0.3,0.7,0.2,1.7c-0.1,0.6-1.6,2.7-4.2,3.9s-5.8,1.2-7.3,1.6
					c-1.5,0.4-2.9,1.3-4.7,1.7c-1.8,0.4-3.5,0.6-5.3-0.7c-0.3-0.5-0.6-1.8-0.5-1.9C101.6,159.1,123.1,153,123.1,153z"/>
				<path id="XMLID_175_" class="st13" d="M108.6,150.2c0.2,0.1,0.3,0.2,0.5,0.3s0.4,0.1,0.6,0.1c0.5,0.1,0.9,0.1,1.4,0
					c1.2-0.1,2.3-0.2,3.5-0.4c2.4-0.2,5.1-1,6.8-0.4c1.6,0.6,3.1,2.7,0.8,5.2c-0.7,0.7-2,2-3,2.4c-2.7,1.2-5.5,1-7.3,1.4
					c-2.3,0.5-3.6,1.6-5.7,1.8c-2.8,0.3-4.5-0.5-4.9-1.3c-0.3-0.4,0-2.7-0.3-4.5c-0.3-1.5-0.2-2.5,0.3-2.5c0.1,0.2,0.3,0.4,0.4,0.5
					c0.2,0.2,0.4,0.4,0.6,0.5c0.3,0.2,0.7,0.3,1,0.4c0.6,0.2,1.3,0.3,1.9,0.3c0.2,0,0.4-0.1,0.5-0.2c0.2-0.2,0.3-0.4,0.3-0.7
					c0-0.2,0.1-0.4,0.1-0.7c0-0.1,0.1-0.2,0.1-0.3c0.1-0.1,0.2-0.2,0.3-0.3c0.4-0.2,0.8-0.4,1.1-0.8c0.2-0.3,0.3-0.7,0.3-1
					c0-0.1,0-0.1,0.1-0.2c0.1-0.1,0.2,0,0.3,0C108.4,150,108.5,150.1,108.6,150.2z"/>
				<path id="XMLID_174_" class="st48" d="M108.6,150.2c0.2,0.1,0.3,0.2,0.5,0.3s0.4,0.1,0.6,0.1c0.5,0.1,0.9,0.1,1.4,0
					c1.2-0.1,2.3-0.2,3.5-0.4c2.4-0.2,5.1-1,6.8-0.4c1.6,0.6,3.1,2.7,0.8,5.2c-0.7,0.7-2,2-3,2.4c-2.7,1.2-5.5,1-7.3,1.4
					c-2.3,0.5-3.6,1.6-5.7,1.8c-2.8,0.3-4.5-0.5-4.9-1.3c-0.3-0.4,0-2.7-0.3-4.5c-0.3-1.5-0.2-2.5,0.3-2.5c0.1,0.2,0.3,0.4,0.4,0.5
					c0.2,0.2,0.4,0.4,0.6,0.5c0.3,0.2,0.7,0.3,1,0.4c0.6,0.2,1.3,0.3,1.9,0.3c0.2,0,0.4-0.1,0.5-0.2c0.2-0.2,0.3-0.4,0.3-0.7
					c0-0.2,0.1-0.4,0.1-0.7c0-0.1,0.1-0.2,0.1-0.3c0.1-0.1,0.2-0.2,0.3-0.3c0.4-0.2,0.8-0.4,1.1-0.8c0.2-0.3,0.3-0.7,0.3-1
					c0-0.1,0-0.1,0.1-0.2c0.1-0.1,0.2,0,0.3,0C108.4,150,108.5,150.1,108.6,150.2z"/>
				<path id="XMLID_173_" class="st47" d="M116.1,153.7c0,0-0.2-2.6-2-3.4c0,0-0.6-0.3-1,0.1c0,0,1.7,0.3,2.2,3.4
					c0,0,0.1,0.2,0.5,0.1C115.9,154,116.2,154,116.1,153.7z"/>
				<path id="XMLID_172_" class="st47" d="M111.5,150.7c0,0,0-0.1,0.4-0.2c0.3-0.1,0.5,0.1,0.5,0.1s1.4,0.7,1.6,3.4
					c0,0,0,0.3-0.4,0.4c-0.4,0.1-0.5-0.3-0.5-0.3S112.9,151.2,111.5,150.7z"/>
				<path id="XMLID_171_" class="st47" d="M110,150.7c0,0,0.1-0.2,0.4-0.2c0.4,0,0.5,0.2,0.5,0.2s1,1.1,0.9,3.4c0,0,0,0.4-0.5,0.4
					s-0.4-0.4-0.4-0.4S110.8,151.2,110,150.7z"/>
			</g>
		</g>
		<g id="XMLID_167_">
			<path id="XMLID_168_" class="st4" d="M100.2,118.3c1.7,5.3,5.9,20.4,7.8,28.2c0,0-3.5,3.3-7.9,3l-10.7-29.1l4.3-2.8L100.2,118.3z
				"/>
		</g>
	</g>
	<g id="XMLID_144_">
		<g id="XMLID_164_">
			<path id="XMLID_165_" class="st4" d="M64.8,191c0.4,0,0.7-0.3,0.7-0.7v-46.8c0-0.4-0.3-0.7-0.7-0.7c-0.4,0-0.7,0.3-0.7,0.7v46.8
				C64.1,190.6,64.4,191,64.8,191z"/>
		</g>
		<g id="XMLID_162_">
			<path id="XMLID_163_" class="st4" d="M37.1,173.9c0.3,0,0.5-0.2,0.6-0.5l13.7-36.3c0.1-0.4,0-0.8-0.4-0.9c-0.4-0.1-0.8,0-0.9,0.4
				l-13.7,36.3c-0.1,0.4,0,0.8,0.4,0.9C37,173.9,37.1,173.9,37.1,173.9z"/>
		</g>
		<g id="XMLID_160_">
			<path id="XMLID_161_" class="st4" d="M38.8,169.6c0.2,0,0.4-0.1,0.5-0.2l25.5-28.3l25.5,28.1c0.3,0.3,0.7,0.3,1,0s0.3-0.7,0-1
				l-26-28.7c-0.1-0.1-0.3-0.2-0.5-0.2l0,0c-0.2,0-0.4,0.1-0.5,0.2l-26,28.8c-0.3,0.3-0.3,0.8,0,1C38.4,169.5,38.6,169.6,38.8,169.6
				z"/>
		</g>
		<g id="XMLID_158_">
			<path id="XMLID_159_" class="st4" d="M92.5,173.9c0.1,0,0.2,0,0.3-0.1c0.4-0.1,0.5-0.6,0.4-0.9l-13.7-36.3
				c-0.1-0.4-0.5-0.6-0.9-0.4c-0.4,0.1-0.5,0.6-0.4,0.9l13.7,36.3C92,173.8,92.2,173.9,92.5,173.9z"/>
		</g>
		<g id="XMLID_156_">
			<path id="XMLID_157_" class="st13" d="M92.8,127.4c0.5-2.9-1.8-5.2-6.1-8.3c-4.3-3-9.8-6-12.5-7.3c-3.6-1.7-7.3-1.6-11.9,0.9
				c-6.4,3.4-25.7,15.7-25.7,15.7s28.8,17,34.3,16.2s19.4-10.2,20.5-13.5C92.7,127.8,92.8,127.4,92.8,127.4z"/>
		</g>
		<g id="XMLID_154_" class="st49">
			<path id="XMLID_155_" d="M92.8,127.4c0.5-2.9-1.8-5.2-6.1-8.3c-4.3-3-9.8-6-12.5-7.3c-3.6-1.7-7.3-1.6-11.9,0.9
				c-6.4,3.4-25.7,15.7-25.7,15.7s28.8,17,34.3,16.2s19.4-10.2,20.5-13.5C92.7,127.8,92.8,127.4,92.8,127.4z"/>
		</g>
		<g id="XMLID_152_">
			<path id="XMLID_153_" class="st13" d="M68.3,141c4.1,3.9,8.5,0.5,15.3-4.1c7.7-5.3,9.3-9.5,9.3-9.5s0,3.2-0.6,4.7
				s-1.8,3.2-7.4,7.2s-9.6,6-13.4,6.8l-3-0.4"/>
		</g>
		<path id="XMLID_151_" class="st50" d="M83.6,136.9c7.7-5.3,9.3-9.5,9.3-9.5s0,3.2-0.6,4.7s-1.8,3.2-7.4,7.2s-9.6,6-13.4,6.8
			l-3-0.4l-0.2-4.7C72.4,145,76.8,141.6,83.6,136.9z"/>
		<g id="XMLID_149_">
			<path id="XMLID_150_" class="st51" d="M38.2,168.2l-2.1,5.1v0.1v0.1c0,0.1,0.1,0.2,0.3,0.3c0.3,0.2,0.8,0.2,1.1,0.1
				c0.1-0.1,0.2-0.1,0.2-0.2l0,0v-0.1l2-4.8L38.2,168.2z"/>
		</g>
		<g id="XMLID_147_">
			<path id="XMLID_148_" class="st52" d="M91.6,168.4l1.8,5v0.1v0.1c0,0.1-0.1,0.2-0.3,0.3c-0.3,0.2-0.8,0.2-1.1,0
				c-0.1-0.1-0.2-0.2-0.2-0.2l0,0v-0.1l-1.7-4.7L91.6,168.4z"/>
		</g>
		<g id="XMLID_145_">
			<path id="XMLID_146_" class="st51" d="M64,186.6v4.1c0,0.1,0.1,0.2,0.2,0.3c0.3,0.2,0.8,0.2,1.1,0c0.2-0.1,0.2-0.2,0.2-0.3v-4.1
				C65.1,186.3,64.6,186.3,64,186.6z"/>
		</g>
	</g>
	<g>
		<g>
			<g id="XMLID_125_">
				<g id="XMLID_128_">
					<path id="XMLID_143_" class="st3" d="M48.3,109.9c1.6,2,16.6-2.5,20.5-3.1c6.4-0.9,11.6-1.6,13.7-0.9c2.2,0.7,3.1,1.9,3.7,4.6
						c0.8,3.2,1.2,4.8,1.2,4.8s-10.6,4.3-19,5.3C60.2,121.6,48.3,109.9,48.3,109.9z"/>
				</g>
				<g id="XMLID_126_">
					<path id="XMLID_127_" class="st4" d="M45.5,112.8c-1.7,6.6-3.1,14.3,0.7,18.5c2.6,2.8,15.5,10.2,23.9,7.3
						c8.2-2.9,25.3-16.1,27-17.4c1.7-1.3,3.3-2.2,3.1-2.8c-2.3-8-5.7-8.6-11.9-7.2c-7.6,1.8-24.4,8.9-24.4,8.9L45.5,112.8z"/>
				</g>
			</g>
		</g>
		<g>
			<g id="XMLID_122_">
				<g id="XMLID_123_">
					<polygon id="XMLID_124_" class="st53" points="83.3,70.4 77.6,77.2 68.3,72.6 74.8,63.2 					"/>
				</g>
			</g>
			<g id="XMLID_117_">
				<g id="XMLID_120_">
					<path id="XMLID_121_" class="st45" d="M90.5,57.5c0,0,2.4,3.6,2.1,3.9c-0.3,0.4-1.9,0.7-1.9,0.7L90.5,57.5z"/>
				</g>
				<ellipse class="st54" cx="90.5" cy="56.9" rx="2.6" ry="2.7"/>
				<g id="XMLID_118_">
					<path id="XMLID_119_" class="st55" d="M83.9,47.7c4.6,0.9,6,3,6.6,10.6c0.6,8-0.1,10.5-1.1,11.6c-0.7,0.7-4.4,1-6.3,0.5
						c-2.4-0.6-7.8-2.5-10.4-6.4c-3.1-4.7-4-11-0.9-13.7C76.2,46.3,82.1,47.3,83.9,47.7z"/>
				</g>
				<path class="st56" d="M83.3,70.4c2,0.5,5,0.2,5.9-0.4c-0.1,0-1.5,0.4-3.3-0.1c-1.9-0.6-3.1-1.4-3.1-1.4L83.3,70.4z"/>
			</g>
			<g id="XMLID_110_">
				<g id="XMLID_114_">
					<g id="XMLID_115_">
						<path id="XMLID_116_" class="st36" d="M91.4,50.8L91.4,50.8c-1.3,0.9-2.9,1.3-4.4,1.6c0.1,1.3-0.3,2.6-0.7,3.8
							c-0.3,0.9-1.2,3.5-2.3,2.1c-0.8-1.1-1.4-2-2.9-1.8c-2.4,0.4-2.6,3.6-1.1,5.5c1.6,1.9,2.9,1.1,2.9,1.1s0.2,3.4-1.5,5.9
							c0,0-2.6,1.7-6.2,0.4c-2.3-0.8-5.6-3.8-6.8-6.2C65,56.7,65,50.5,69.1,48.6c0.4-3.1,2.7-4.6,5.3-5.3c3.7-1,7.5,1.4,11-0.2
							c0.7-0.3,1.4-0.8,2.2-1.1c0.4-0.2,0.9-0.3,1.3,0c0.3,0.2,0.5,0.7,0.6,1.1c0.2,0.7,0.2,1.6-0.1,2.2c0.5-0.3,1.1-0.5,1.7-0.6
							s1.2,0,1.7,0.4c0.4,0.4,0.6,1,0.7,1.5C93.6,48.3,92.7,49.8,91.4,50.8z"/>
					</g>
				</g>
				<g id="XMLID_111_">
					<g id="XMLID_112_">
						<path id="XMLID_113_" class="st36" d="M94.8,47.6l-4.1,3.3c-0.4-0.4,0.2-1.6,1.3-2.5C93.2,47.5,94.4,47.1,94.8,47.6z"/>
					</g>
				</g>
			</g>
			<line class="st57" x1="84" y1="58.2" x2="93" y2="56.5"/>
		</g>
		<path class="st45" d="M102.7,74.4c-0.2-0.4-0.8-0.5-1.2-0.7c-0.8-0.3-1.5-1-2.3-1.4c-0.9-0.4-1.9-0.4-2.8-0.2
			c-0.3,0.1-0.6,0.2-1,0.3c-0.6,0.2-1.2,0.6-1.7,0.9c-2.3,1.4-4,4.6-6.2,6c-0.8,0.5-1.6,1-2.4,1.5l5.3,5c1.1-0.9,2.1-1.8,2.6-2.1
			c1.3-0.8,2.6-0.8,4.1-1.1c1-0.2,2-0.5,3-0.8c0.3-0.1,0.7-0.3,0.9-0.6c0.2-0.4-0.1-1-0.6-1.1C100.1,80,99.5,80,99,80
			c-0.4-0.1-1.4,0.2-1.6-0.2c-0.1-0.2,0-0.5,0.2-0.7c0.9-1.2,2.1-2.5,3.6-2.9c0.5-0.1,0.9-0.2,1.3-0.5
			C102.8,75.4,103,74.8,102.7,74.4z"/>
		<path class="st13" d="M70.9,68.8c-5.7-3.2-10.8-1.2-12.7,3C56.5,75.6,53,90.1,53,90.1C54.8,93.4,70.9,68.8,70.9,68.8z"/>
		<g>
			<path class="st58" d="M70.1,70l0.8-1.2c-6.4-3.2-12.1,1-17.1,9.2c-5.4,8.8-8.3,21.5-8.3,34.9c0,0,1.1,6,8.3,9
				c7.7,3.2,18.4,1.8,21.8-6.5c0,0,0.1-8.3,2.5-12.4c1.6-2.7,5.2-8.6,7.9-12.8c2.4-3.7,4.2-12.1-0.7-15.1c-1.4-0.9-2.1-1.2-4-2.1
				C76.8,74.4,69.5,71.9,70.1,70z"/>
			<path class="st59" d="M70.1,70l0.8-1.2c-6.4-3.2-12.1,1-17.1,9.2c-5.4,8.8-8.3,21.5-8.3,34.9c0,0,1.1,6,8.3,9
				c7.7,3.2,18.4,1.8,21.8-6.5c0,0,0.1-8.3,2.5-12.4c1.6-2.7,5.2-8.6,7.9-12.8c2.4-3.7,4.2-12.1-0.7-15.1c-1.4-0.9-2.1-1.2-4-2.1
				C76.8,74.4,69.5,71.9,70.1,70z"/>
			<path class="st60" d="M88.1,84.8c0.3-1.6,0.4-3.3,0.2-4.9l0,0c-1.2,2.8-2.8,5.5-4.8,7.7c-2.6,2.9-5.8,5.1-8.2,8.1
				c-2.6,3.2-4.4,7.1-6.5,10.6c-0.9,1.4-2,4.1-3.6,4.2c-1.9,0.1-3.8-2.3-4.9-4c-1.7-2.7-3.1-6.1-5.2-8.5c-1.8-2.1-4.7-4.8-7.2-3.6
				l0,0c-0.2,0.7-0.4,1.4-0.5,2.1c-0.2,0.7-0.3,1.4-0.5,2.2v0.1c-0.1,0.7-0.3,1.5-0.4,2.2v0.1c-0.1,0.7-0.2,1.4-0.3,2.2
				c-0.4,3.1-0.6,6.3-0.6,9.6c0,0,1.1,6,8.3,9c7.7,3.2,18.4,1.8,21.8-6.5c0,0,0.1-8.3,2.5-12.4c0.2-0.4,0.5-0.9,0.9-1.5l0,0
				c0,0,0-0.1,0.1-0.1c0.3-0.5,0.6-1,0.9-1.5c0,0,0-0.1,0.1-0.1l0,0c0.7-1.1,1.5-2.4,2.3-3.7c0.1-0.2,0.2-0.4,0.4-0.6
				c0.8-1.2,1.6-2.5,2.3-3.7l0,0c0.3-0.4,0.5-0.8,0.7-1.2c0.1-0.2,0.2-0.3,0.3-0.5l0,0c0.1-0.1,0.2-0.3,0.3-0.4l0.1-0.1
				c0.1-0.1,0.1-0.2,0.2-0.3c0,0,0.1-0.1,0.1-0.2c0.1-0.1,0.1-0.3,0.2-0.4v-0.1c0.1-0.2,0.2-0.4,0.2-0.5l0,0l0,0
				c0.1-0.2,0.1-0.3,0.2-0.5v-0.1c0.1-0.2,0.1-0.3,0.2-0.5l0,0c0,0,0,0,0-0.1c0.1-0.3,0.2-0.6,0.3-1l0,0C88,85.5,88,85.1,88.1,84.8
				L88.1,84.8L88.1,84.8z"/>
		</g>
		<g>
			<path class="st45" d="M117.7,92.9c-0.4,0.5-0.9,1-1.3,1.4c-2,1.8-4.2,2.7-6.9,4.5c-2.1,1.5-5.4,3.6-8.2,5.4c-3.1,2-6.9,3.7-9,4.3
				c-2.6,0.8-4,0.8-5.6-3.5c-0.8-2.1-1.3-4.3-2-6.5c-1-3.2-1.9-6.4-2.8-9.7c0,0-3.4-8.9,4.3-13.3c3.3,2,4.6,2.8,5.7,7
				c1.3,5,3.3,14.9,3.3,14.9c2.7-1,5.4-2.2,8-3.5c1-0.5,2.2-0.9,2.9-1.8c0.5-0.6,0.9-1.3,1.2-2c0.3-0.6,0.6-1.3,0.9-1.9
				c0.7-1.1,1.6-2,2.5-2.9c0.2-0.2,0.4-0.4,0.6-0.4c0.3,0,0.5,0.2,0.6,0.4c0.3,0.5,0,1-0.1,1.6c-0.2,0.6-0.3,1.2-0.5,1.8
				c2-1.2,3.6-2.8,4.9-4.8c0.1-0.2,0.2-0.4,0.4-0.5c0.2-0.1,0.4-0.2,0.6-0.2c0.5,0.1,1,0.9,1.1,1.4c0,0.5-0.1,1,0,1.5
				s0.4,0.9,0.6,1.3c0.1,0.4,0.2,1,0.3,1.4c0.1,1.1-0.3,2.1-0.8,3C118.1,92.3,117.9,92.6,117.7,92.9z"/>
			<path class="st13" d="M85.7,75.2c2.9,1.2,5,2.6,6.4,7.3c1.3,4.7,2.8,12.2,2.8,12.2s0,1.6-3.5,3.8c-3.6,2.2-6.9,1-6.9,1l-2.7-9
				C81.8,90.4,77,78.4,85.7,75.2z"/>
		</g>
	</g>
	<g id="XMLID_105_">
		<path id="XMLID_109_" class="st61" d="M68.5,145.7c-2.4-0.1-4.2-1.9-9.8-4.4c-10.3-4.5-18.1-8.1-21-13.8c-3-5.7-5-22-4.3-29.1
			c0.1-0.9,0.3-1.7,0.5-2.3L33.2,96l1.9-1.7l0,0c1.9-1.6,5.1-0.2,7.4,1.2c6.8,3.9,12.1,7.6,16.2,21.1c3.1,10.2,5.2,19.4,9.6,24.4"/>
		<path id="XMLID_108_" class="st62" d="M33.9,96.2l-0.7-0.1l1.9-1.7l0,0c1.9-1.6,5.1-0.2,7.4,1.2c6.8,3.9,12.1,7.6,16.2,21.1
			c3.1,10.2,5.2,19.4,9.6,24.4l0.2,4.7c-2.4-0.1-4.2-1.9-9.8-4.4c-10.3-4.5-18.1-8.1-21-13.8c-3-5.7-5-22-4.3-29.1
			C33.5,97.6,33.7,96.8,33.9,96.2z"/>
		<g id="XMLID_106_">
			<path id="XMLID_107_" class="st63" d="M40.5,97.3c6.8,3.9,12.1,7.6,16.2,21.1c4.2,13.5,6.5,25.4,14.7,27.8c0,0-3.7,1.5-15.2-3.5
				c-3.6-1.6-8-4.5-10.9-6.2c-5.7-3.3-9.1-6.1-9.7-7.1c-3-5.6-5-22-4.3-29.1C32.2,93.2,37.1,95.4,40.5,97.3z"/>
		</g>
	</g>
</g>
<rect x="1.8" y="94.5" class="st64" width="12.9" height="4.2"/>
</svg>
