<?xml version="1.0" encoding="utf-8"?>
<!-- Generator: Adobe Illustrator 24.0.1, SVG Export Plug-In . SVG Version: 6.00 Build 0)  -->
<svg version="1.1" id="Layer_1" xmlns="http://www.w3.org/2000/svg" xmlns:xlink="http://www.w3.org/1999/xlink" x="0px" y="0px"
	 viewBox="0 0 204 204" style="enable-background:new 0 0 204 204;" xml:space="preserve">
<style type="text/css">
	.st0{fill:#007CFF;}
	.st1{opacity:0.5;fill:#FFFFFF;}
	.st2{opacity:0.5;}
	.st3{fill:#AE9760;}
	.st4{fill:#73A353;}
	.st5{stroke:#007CFF;stroke-miterlimit:10;}
	.st6{fill:#ECC65F;}
</style>
<g>
	<g>
		<g>
			<rect x="87.06" y="139.73" class="st0" width="19.05" height="42.33"/>
			<rect x="87.06" y="139.73" class="st1" width="19.05" height="42.33"/>
		</g>
		<g>
			<polygon class="st0" points="114.71,182.82 78.62,182.82 87.42,174.34 105.9,174.34 			"/>
			<polygon class="st1" points="114.71,182.82 78.62,182.82 87.42,174.34 105.9,174.34 			"/>
		</g>
	</g>
	<g>
		<path class="st0" d="M14.02,39.54h164.21c1.72,0,3.12,1.53,3.12,3.41V153.1c0,1.88-1.39,3.41-3.12,3.41H14.02
			c-1.72,0-3.12-1.53-3.12-3.41V42.94C10.9,41.06,12.3,39.54,14.02,39.54z"/>
		<rect x="17.09" y="46.84" class="st2" width="157.88" height="101.93"/>
	</g>
	<g>
		<g>
			<path class="st3" d="M38.53,103.15h-2.91v-2.91h4.51h4.22v14.55h5.82v-2.91h2.91c0,1.02,0,2,0,2.95s0,1.9,0,2.87H35.62v-2.91
				h2.91V103.15z"/>
			<path class="st4" d="M84.82,104.03c0,10.74-7.44,15.42-14.46,15.42c-7.86,0-13.92-5.76-13.92-14.94c0-9.72,6.36-15.42,14.4-15.42
				C79.18,89.09,84.82,95.15,84.82,104.03z M61.78,104.33c0,6.36,3.66,11.16,8.82,11.16c5.04,0,8.82-4.74,8.82-11.28
				c0-4.92-2.46-11.16-8.7-11.16C64.48,93.05,61.78,98.81,61.78,104.33z"/>
			<path class="st5" d="M102.64,131.69c-1.96,0-3.78-0.22-5.46-0.66c-1.68-0.44-3.14-1.02-4.38-1.74c-1.24-0.72-2.22-1.53-2.94-2.43
				c-0.72-0.9-1.08-1.81-1.08-2.73c0-0.88,0.22-1.65,0.66-2.31c0.44-0.66,1.03-1.16,1.77-1.5c0.74-0.34,1.57-0.51,2.49-0.51
				c1.44,0,2.6,0.32,3.48,0.96c0.88,0.64,1.32,1.48,1.32,2.52c0,0.84-0.17,1.51-0.51,2.01c-0.34,0.5-0.77,0.91-1.29,1.23
				c-0.52,0.32-1.04,0.57-1.56,0.75c-0.52,0.18-0.96,0.36-1.32,0.54c-0.36,0.18-0.54,0.37-0.54,0.57c0,0.4,0.39,0.78,1.17,1.14
				c0.78,0.36,1.8,0.66,3.06,0.9c1.26,0.24,2.61,0.36,4.05,0.36c2.32,0,4.35-0.33,6.09-0.99s3.08-1.57,4.02-2.73
				c0.94-1.16,1.41-2.52,1.41-4.08c0-1.4-0.38-2.6-1.14-3.6c-0.76-1-1.95-1.8-3.57-2.4c-1.62-0.6-3.76-1.04-6.42-1.32
				c-2.66-0.28-5.91-0.42-9.75-0.42v-0.9l7.68-6.12l0.66,0.48l-4.38,3.66l0.24,0.54c3.28,0,6.19,0.11,8.73,0.33
				c2.54,0.22,4.73,0.58,6.57,1.08s3.36,1.11,4.56,1.83c1.2,0.72,2.08,1.58,2.64,2.58c0.56,1,0.84,2.14,0.84,3.42
				c0,2.16-0.7,3.94-2.1,5.34c-1.4,1.4-3.38,2.45-5.94,3.15S106.12,131.69,102.64,131.69z M104.26,109.19
				c-2.08,0-4.02-0.22-5.82-0.66c-1.8-0.44-3.38-1.07-4.74-1.89c-1.36-0.82-2.43-1.85-3.21-3.09c-0.78-1.24-1.17-2.68-1.17-4.32
				c0-1.64,0.38-3.15,1.14-4.53c0.76-1.38,1.81-2.58,3.15-3.6c1.34-1.02,2.93-1.81,4.77-2.37c1.84-0.56,3.84-0.84,6-0.84
				c1.96,0,3.83,0.27,5.61,0.81c1.78,0.54,3.38,1.3,4.8,2.28c1.42,0.98,2.54,2.17,3.36,3.57c0.82,1.4,1.23,2.96,1.23,4.68
				c0,1.36-0.31,2.64-0.93,3.84s-1.55,2.26-2.79,3.18c-1.24,0.92-2.82,1.64-4.74,2.16C109,108.93,106.78,109.19,104.26,109.19z
				 M104.38,108.41c1.76,0,3.25-0.35,4.47-1.05c1.22-0.7,2.16-1.7,2.82-3s0.99-2.83,0.99-4.59c0-2.08-0.32-3.95-0.96-5.61
				c-0.64-1.66-1.57-2.99-2.79-3.99c-1.22-1-2.73-1.5-4.53-1.5c-1.76,0-3.27,0.5-4.53,1.5c-1.26,1-2.21,2.33-2.85,3.99
				c-0.64,1.66-0.96,3.53-0.96,5.61c0,1.72,0.33,3.23,0.99,4.53c0.66,1.3,1.62,2.31,2.88,3.03
				C101.17,108.04,102.66,108.41,104.38,108.41z M109.3,89.27l-3.42-1.14c0.88,0,1.77-0.1,2.67-0.3c0.9-0.2,1.79-0.47,2.67-0.81
				c0.88-0.34,1.72-0.69,2.52-1.05c0.8-0.36,1.55-0.7,2.25-1.02c0.7-0.32,1.31-0.6,1.83-0.84l1.68,4.2h-10.2V89.27z"/>
			<path class="st6" d="M122.86,96.29h27v22.5h-27V96.29z M131.86,114.29h9v-13.5h-9V114.29z"/>
		</g>
	</g>
</g>
</svg>
