<?xml version="1.0" encoding="utf-8"?>
<!-- Generator: Adobe Illustrator 24.0.1, SVG Export Plug-In . SVG Version: 6.00 Build 0)  -->
<svg version="1.1" id="Layer_1" xmlns="http://www.w3.org/2000/svg" xmlns:xlink="http://www.w3.org/1999/xlink" x="0px" y="0px"
	 viewBox="0 0 204 204" style="enable-background:new 0 0 204 204;" xml:space="preserve">
<style type="text/css">
	.st0{fill:#007CFF;}
	.st1{opacity:0.5;fill:#FFFFFF;}
	.st2{opacity:0.4;fill:#FFFFFF;}
	.st3{opacity:0.5;}
	.st4{opacity:0.4;}
	.st5{fill:#FFFFFF;}
</style>
<g>
	<g>
		<g>
			<rect x="81.95" y="139.73" class="st0" width="19.05" height="42.33"/>
			<rect x="81.95" y="139.73" class="st1" width="19.05" height="42.33"/>
		</g>
		<g>
			<polygon class="st0" points="109.6,182.82 73.51,182.82 82.31,174.34 100.8,174.34 			"/>
			<polygon class="st1" points="109.6,182.82 73.51,182.82 82.31,174.34 100.8,174.34 			"/>
		</g>
	</g>
	<g>
		<g>
			<g>
				<polygon class="st0" points="188.95,169.11 98.73,169.11 115.03,182.87 205.23,182.87 				"/>
				<polygon class="st2" points="188.95,169.11 98.73,169.11 115.03,182.87 205.23,182.87 				"/>
			</g>
		</g>
		<g>
			<polygon class="st0" points="100.81,182.87 98.73,169.11 115.03,182.87 			"/>
			<polygon class="st3" points="100.81,182.87 98.73,169.11 115.03,182.87 			"/>
		</g>
	</g>
	<g>
		<path class="st0" d="M8.91,39.54h164.21c1.72,0,3.12,1.53,3.12,3.41V153.1c0,1.88-1.39,3.41-3.12,3.41H8.91
			c-1.72,0-3.12-1.53-3.12-3.41V42.94C5.8,41.06,7.19,39.54,8.91,39.54z"/>
		<rect x="11.99" y="46.84" class="st3" width="157.88" height="101.93"/>
	</g>
	<g>
		<g>
			<rect x="84.84" y="67.47" class="st4" width="79.67" height="60"/>
			<rect x="84.84" y="67.47" class="st0" width="79.67" height="5.5"/>
		</g>
		<g>
			<path class="st5" d="M99.44,100.65l13.03,7.9c0.65,0.4,1.09,0.76,1.3,1.07c0.22,0.31,0.32,0.72,0.32,1.2
				c0,0.62-0.2,1.15-0.61,1.6c-0.41,0.45-0.88,0.68-1.41,0.68c-0.35,0-0.88-0.21-1.59-0.64l-16.8-10.22c-1.13-0.69-1.13-2.47,0-3.16
				l16.8-10.22c0.71-0.42,1.23-0.62,1.57-0.62c0.55,0,1.03,0.22,1.43,0.67c0.41,0.44,0.61,0.97,0.61,1.59c0,0.49-0.11,0.89-0.32,1.2
				c-0.22,0.31-0.65,0.67-1.3,1.07L99.44,100.65z"/>
			<path class="st5" d="M132.95,85.93l-12.89,30.38c-0.33,0.76-0.62,1.25-0.88,1.48c-0.34,0.3-0.75,0.45-1.24,0.45
				c-0.55,0-1.02-0.21-1.42-0.64c-0.4-0.43-0.6-0.91-0.6-1.46c0-0.39,0.16-0.95,0.47-1.7l12.93-30.36c0.33-0.76,0.61-1.25,0.86-1.48
				c0.35-0.3,0.77-0.45,1.24-0.45c0.55,0,1.02,0.21,1.41,0.63c0.39,0.42,0.59,0.9,0.59,1.45C133.43,84.62,133.27,85.19,132.95,85.93
				z"/>
			<path class="st5" d="M149.16,100.65l-13.03-7.9c-0.65-0.4-1.09-0.76-1.3-1.07c-0.22-0.31-0.32-0.72-0.32-1.2
				c0-0.62,0.2-1.14,0.61-1.59c0.41-0.44,0.88-0.67,1.43-0.67c0.34,0,0.86,0.21,1.57,0.62l16.8,10.22c1.13,0.69,1.13,2.47,0,3.16
				l-16.8,10.22c-0.71,0.43-1.23,0.64-1.57,0.64c-0.56,0-1.04-0.23-1.45-0.68c-0.39-0.43-0.59-0.99-0.59-1.59
				c0-0.49,0.11-0.89,0.32-1.2c0.22-0.31,0.65-0.67,1.3-1.07L149.16,100.65z"/>
		</g>
	</g>
	<g>
		<g>
			<rect x="18.46" y="56.26" class="st5" width="5.39" height="5.9"/>
			<rect x="18.46" y="71.53" class="st5" width="5.39" height="5.9"/>
			<rect x="18.46" y="86.8" class="st5" width="5.39" height="5.9"/>
			<rect x="18.46" y="102.08" class="st5" width="5.39" height="5.9"/>
			<rect x="18.46" y="117.35" class="st5" width="5.39" height="5.9"/>
			<rect x="18.46" y="132.62" class="st5" width="5.39" height="5.9"/>
		</g>
		<g>
			<rect x="28.98" y="57.58" class="st5" width="21.5" height="1.77"/>
		</g>
		<g>
			<rect x="33.99" y="72.9" class="st5" width="7.66" height="1.77"/>
		</g>
		<g>
			<rect x="67.32" y="90.08" class="st5" width="7.66" height="1.77"/>
		</g>
		<g>
			<rect x="33.99" y="103.71" class="st5" width="7.66" height="1.77"/>
		</g>
		<g>
			<rect x="45.03" y="103.71" class="st5" width="7.66" height="1.77"/>
		</g>
		<g>
			<rect x="45.03" y="90.08" class="st5" width="19.57" height="1.77"/>
		</g>
		<g>
			<rect x="56.43" y="103.71" class="st5" width="12.88" height="1.77"/>
		</g>
		<g>
			<rect x="56.39" y="136.46" class="st5" width="7.66" height="1.77"/>
		</g>
		<g>
			<rect x="67.43" y="136.46" class="st5" width="7.66" height="1.77"/>
		</g>
		<g>
			<rect x="78.83" y="136.46" class="st5" width="4.28" height="1.77"/>
		</g>
		<g>
			<rect x="45.49" y="72.9" class="st5" width="23.83" height="1.77"/>
		</g>
		<g>
			<rect x="45.03" y="119.66" class="st5" width="7.66" height="1.77"/>
		</g>
		<g>
			<rect x="55.25" y="119.66" class="st5" width="4.43" height="1.77"/>
		</g>
		<g>
			<rect x="63.06" y="119.66" class="st5" width="12.51" height="1.77"/>
		</g>
	</g>
</g>
</svg>
