<?xml version="1.0" encoding="utf-8"?>
<!-- Generator: Adobe Illustrator 24.0.1, SVG Export Plug-In . SVG Version: 6.00 Build 0)  -->
<svg version="1.1" id="Layer_1" xmlns="http://www.w3.org/2000/svg" xmlns:xlink="http://www.w3.org/1999/xlink" x="0px" y="0px"
	 viewBox="0 0 204 204" style="enable-background:new 0 0 204 204;" xml:space="preserve">
<style type="text/css">
	.st0{fill:#E18256;}
	.st1{fill:#A2BBD4;}
	.st2{fill:#478EB0;}
	.st3{fill:#E3BC3D;}
	.st4{fill:#7E82AD;}
	.st5{fill:#2D441E;}
	.st6{fill:#547B80;}
</style>
<g>
	<g>
		<path class="st0" d="M53.88,55.2c0.64-0.32,1.23-0.57,1.78-0.74c0.54-0.18,0.99-0.26,1.34-0.26c1.31,0,2.22,0.49,2.71,1.46
			c0.5,0.98,0.74,2.28,0.74,3.91c0,1.41-0.13,2.86-0.38,4.34c-0.26,1.49-0.54,2.97-0.86,4.44l-0.24,1.2c-0.1,0.51-0.2,1.2-0.31,2.06
			c-0.11,0.86-0.21,1.8-0.29,2.81c-0.08,1.01-0.16,2.04-0.24,3.1c-0.08,1.06-0.15,2.03-0.22,2.93c-0.06,0.9-0.11,1.68-0.14,2.35
			c-0.03,0.67-0.05,1.12-0.05,1.34c0,0.16,0.01,0.31,0.02,0.46c0.02,0.14,0.04,0.3,0.07,0.46v0.43c0,0.13,0.02,0.21,0.05,0.24
			c0,0.1,0.02,0.18,0.05,0.24v0.19c0,0.42-0.13,0.77-0.38,1.06c-0.26,0.29-0.85,0.43-1.78,0.43c-0.77,0-1.32-0.42-1.66-1.25
			c-0.34-0.83-0.54-1.89-0.6-3.17c-0.06-1.28-0.02-2.69,0.12-4.22c0.14-1.54,0.34-3.02,0.58-4.44c0.24-1.42,0.48-2.69,0.72-3.79
			c0.24-1.1,0.41-1.85,0.5-2.23c0.61-2.18,1.05-3.98,1.32-5.42c0.27-1.44,0.41-2.54,0.41-3.31c0-0.93-0.18-1.5-0.55-1.73
			c-0.37-0.22-0.82-0.34-1.37-0.34c-0.19,0-0.34,0.02-0.43,0.05c-2.14,0.48-3.82,0.92-5.02,1.32c-1.2,0.4-2.1,0.76-2.71,1.08
			c-0.61,0.32-0.98,0.62-1.13,0.89c-0.14,0.27-0.22,0.54-0.22,0.79v0.29c0,0.22,0.03,0.4,0.1,0.53c0.06,0.16,0.14,0.43,0.22,0.82
			c0.08,0.38,0.12,0.7,0.12,0.96c0,0.61-0.3,1.3-0.89,2.06c-0.59,0.77-1.37,1.49-2.33,2.16s-2.03,1.24-3.22,1.7
			c-1.18,0.46-2.37,0.7-3.55,0.7c-0.42,0-0.8-0.12-1.15-0.36c-0.35-0.24-0.66-0.52-0.91-0.84c-0.26-0.32-0.47-0.65-0.65-0.98
			c-0.18-0.34-0.3-0.62-0.36-0.84c0-0.58,0-1.05,0-1.42c0-0.37,0.02-0.7,0.07-0.98c0.05-0.29,0.12-0.6,0.22-0.94
			c0.1-0.34,0.24-0.78,0.43-1.32c0.54-1.54,1.21-2.74,1.99-3.6c0.78-0.86,1.64-1.5,2.57-1.9c0.93-0.4,1.9-0.64,2.93-0.72
			c1.02-0.08,2.03-0.12,3.02-0.12c1.63,0,3.19-0.09,4.68-0.26C50.49,56.63,52.12,56.1,53.88,55.2z M38.28,67.78
			c0.51,0,1.09-0.15,1.73-0.46c0.64-0.3,1.23-0.69,1.78-1.15c0.54-0.46,1.01-0.98,1.39-1.56c0.38-0.58,0.58-1.14,0.58-1.68
			c0-0.74-0.31-1.29-0.94-1.66c-0.62-0.37-1.29-0.55-1.99-0.55c-0.67,0-1.3,0.17-1.87,0.5s-1.08,0.76-1.51,1.27
			c-0.43,0.51-0.77,1.06-1.01,1.66c-0.24,0.59-0.36,1.16-0.36,1.7c0,0.7,0.2,1.2,0.6,1.49C37.07,67.63,37.61,67.78,38.28,67.78z"/>
		<path class="st1" d="M66.07,60.53v-0.1c0.03-0.16,0.06-0.3,0.07-0.43c0.02-0.13,0.02-0.27,0.02-0.43
			c0.06-0.64,0.17-1.28,0.31-1.92c0.14-0.64,0.33-1.22,0.55-1.75c0.22-0.53,0.49-0.95,0.79-1.27c0.3-0.32,0.66-0.48,1.08-0.48
			c0.67,0,1.01,0.59,1.01,1.78c0,0.54-0.04,1.22-0.12,2.02c-0.08,0.8-0.18,1.68-0.31,2.64c-0.29,2.11-0.58,4.66-0.86,7.63
			c-0.29,2.98-0.43,6.58-0.43,10.8c0,1.54,0.24,2.78,0.72,3.74s1.33,1.44,2.54,1.44c0.13,0,0.32-0.09,0.58-0.26
			c0.26-0.18,0.52-0.38,0.79-0.62c0.27-0.24,0.52-0.48,0.74-0.72c0.22-0.24,0.38-0.42,0.48-0.55c0.51-0.67,1.05-1.34,1.61-2.02
			c0.56-0.67,1.14-1.28,1.75-1.82c0.61-0.54,1.23-0.98,1.87-1.32c0.64-0.34,1.31-0.5,2.02-0.5c0.9,0,1.63,0.26,2.21,0.79
			c0.58,0.53,1.15,1.16,1.73,1.9c0.74,0.83,1.42,1.41,2.06,1.73c0.64,0.32,1.3,0.48,1.97,0.48c0.54,0,1.09-0.07,1.63-0.22
			c0.54-0.14,1.12-0.33,1.73-0.55c0.8-0.29,1.64-0.56,2.52-0.82c0.88-0.26,1.83-0.38,2.86-0.38c0.19,0,0.37,0.09,0.53,0.26
			c0.16,0.18,0.29,0.37,0.38,0.58c0.1,0.21,0.18,0.42,0.24,0.62c0.06,0.21,0.1,0.36,0.1,0.46c0,0.13-0.03,0.24-0.1,0.34
			c-0.22,0.35-0.54,0.58-0.94,0.67c-0.4,0.1-0.82,0.18-1.27,0.24c-0.45,0.06-0.89,0.13-1.32,0.19c-0.43,0.06-0.86,0.18-1.27,0.34
			c-0.7,0.32-1.5,0.64-2.38,0.96c-0.88,0.32-1.78,0.48-2.71,0.48c-0.67,0-1.3-0.1-1.87-0.29c-0.58-0.19-1.11-0.44-1.61-0.74
			c-0.5-0.3-0.96-0.64-1.39-1.01c-0.43-0.37-0.84-0.73-1.22-1.08c-0.42-0.38-0.82-0.73-1.22-1.03c-0.4-0.3-0.82-0.46-1.27-0.46
			c-0.67,0-1.29,0.32-1.85,0.96c-0.56,0.64-1.16,1.39-1.8,2.26c-0.38,0.51-0.78,1.05-1.2,1.61c-0.42,0.56-0.88,1.06-1.39,1.49
			c-0.51,0.43-1.07,0.79-1.68,1.08c-0.61,0.29-1.28,0.43-2.02,0.43c-1.06,0-1.93-0.31-2.62-0.94c-0.69-0.62-1.22-1.48-1.61-2.57
			c-0.38-1.09-0.65-2.36-0.79-3.82c-0.14-1.46-0.22-3-0.22-4.63c0-1.25,0.03-2.54,0.1-3.86c0.06-1.33,0.13-2.66,0.19-4.01
			c0.06-1.28,0.13-2.54,0.19-3.77C66.04,62.83,66.07,61.65,66.07,60.53z"/>
		<path class="st2" d="M107.49,54.05c0.35,0,0.75,0.08,1.2,0.24c0.45,0.16,0.67,0.46,0.67,0.91v3.17c0,0.32-0.02,0.87-0.07,1.66
			c-0.05,0.78-0.1,1.61-0.17,2.47c-0.06,0.86-0.15,1.7-0.26,2.5c-0.11,0.8-0.22,1.39-0.31,1.78c-0.16,0.48-0.3,1.01-0.43,1.58
			c-0.13,0.58-0.19,1.14-0.19,1.68c0,0.96,0.14,1.44,0.43,1.44c0.03,0,0.06-0.02,0.1-0.05c0.1-0.1,0.27-0.18,0.53-0.24
			c0.26-0.06,0.54-0.13,0.86-0.19c0.32-0.06,0.62-0.11,0.91-0.14c0.29-0.03,0.51-0.05,0.67-0.05c0.8,0,1.54,0.35,2.21,1.06
			c0.67,0.7,1.29,1.57,1.85,2.59c0.56,1.02,1.05,2.1,1.46,3.24c0.42,1.14,0.77,2.14,1.06,3c0.06,0.26,0.14,0.48,0.22,0.67
			c0.08,0.19,0.15,0.38,0.22,0.58c0.22,0.7,0.37,1.06,0.43,1.06h2.45c0.16,0.03,0.43,0.05,0.82,0.05c0.1,0,0.2,0,0.31,0
			c0.11,0,0.25,0.02,0.41,0.05c0.29,0.03,0.64,0.06,1.06,0.07s0.82,0.02,1.2,0.02c0.67,0,1.32-0.04,1.94-0.12
			c0.62-0.08,1.18-0.23,1.68-0.46c0.5-0.22,0.9-0.54,1.2-0.96c0.3-0.42,0.46-0.94,0.46-1.58c0-0.26-0.14-0.46-0.43-0.62
			c-0.29-0.16-0.63-0.27-1.03-0.34c-0.4-0.06-0.81-0.1-1.22-0.12c-0.42-0.02-0.77-0.02-1.06-0.02c-0.48,0-0.79-0.07-0.94-0.22
			c-0.14-0.14-0.22-0.47-0.22-0.98c0-0.9,0.27-1.55,0.82-1.97c0.54-0.42,1.2-0.62,1.97-0.62c0.74,0,1.5,0.16,2.28,0.48
			c0.78,0.32,1.5,0.78,2.14,1.37c0.64,0.59,1.14,1.3,1.51,2.11c0.37,0.82,0.49,1.74,0.36,2.76c-0.16,1.25-0.69,2.25-1.58,3
			c-0.9,0.75-2.02,1.34-3.36,1.75c-1.34,0.42-2.82,0.69-4.42,0.82c-1.6,0.13-3.18,0.19-4.75,0.19c-0.9,0-1.75-0.01-2.57-0.02
			c-0.82-0.02-1.59-0.04-2.33-0.07h-0.82c-0.32-0.03-0.64-0.05-0.96-0.05c-0.32,0-0.62,0-0.91,0h-0.62h-2.02
			c-2.14,0-3.79-0.57-4.92-1.7c-1.14-1.14-1.7-3.13-1.7-5.98c0-1.5,0.14-3.16,0.41-4.97c0.27-1.81,0.58-3.56,0.94-5.26
			c0.16-0.74,0.31-1.69,0.46-2.86c0.14-1.17,0.28-2.4,0.41-3.7c0.13-1.3,0.22-2.56,0.29-3.79c0.06-1.23,0.1-2.26,0.1-3.1V55.2
			c0.16-0.45,0.33-0.75,0.5-0.91C106.88,54.13,107.14,54.05,107.49,54.05z M106.49,81.17c0,0.67,0.13,1.2,0.38,1.58
			c0.26,0.38,0.58,0.68,0.98,0.89c0.4,0.21,0.85,0.34,1.34,0.41c0.5,0.06,0.97,0.1,1.42,0.1h1.25c0.16,0,0.29,0.02,0.38,0.05h0.19
			c0.16,0,0.39-0.02,0.7-0.07c0.3-0.05,0.62-0.1,0.94-0.17c0.32-0.06,0.59-0.14,0.82-0.24s0.34-0.19,0.34-0.29v-0.1l-0.05-0.05
			v-0.58c0-0.74-0.03-1.58-0.1-2.54c-0.06-0.96-0.23-1.88-0.5-2.76c-0.27-0.88-0.69-1.62-1.25-2.23c-0.56-0.61-1.35-0.91-2.38-0.91
			c-0.8,0-1.48,0.19-2.04,0.58c-0.56,0.38-1.02,0.9-1.39,1.54c-0.37,0.64-0.63,1.38-0.79,2.21
			C106.56,79.41,106.49,80.27,106.49,81.17z"/>
		<path class="st3" d="M144.5,54.15c0.58,0,1.06,0.19,1.44,0.58c0.38,0.38,0.58,0.86,0.58,1.44v0.19c0,0.42-0.15,0.77-0.46,1.06
			c-0.3,0.29-0.54,0.51-0.7,0.67c-0.93,0.67-1.69,1.26-2.28,1.78c-0.59,0.51-0.89,1.17-0.89,1.97c0,0.51,0.16,1.02,0.48,1.54
			c0.32,0.51,0.88,0.77,1.68,0.77c0.64,0,1.27-0.21,1.9-0.62c0.62-0.42,1.33-0.94,2.14-1.58c1.6-1.25,3.23-1.87,4.9-1.87
			c0.83,0,1.66,0.16,2.47,0.48c0.82,0.32,1.59,0.85,2.33,1.58c0.54,0.51,0.98,0.98,1.32,1.39c0.34,0.42,0.62,0.84,0.84,1.27
			s0.41,0.92,0.55,1.46c0.14,0.54,0.31,1.22,0.5,2.02c0.64,2.5,1.1,5.06,1.39,7.68c0.29,2.62,0.43,5.23,0.43,7.82
			c0,0.35,0,0.58,0,0.67c0,0.1-0.02,0.19-0.05,0.29c-0.03,0.1-0.06,0.19-0.07,0.29c-0.02,0.1-0.02,0.22-0.02,0.38
			c-0.06,0.74-0.3,1.3-0.72,1.7c-0.42,0.4-0.83,0.6-1.25,0.6c-0.32,0-0.58-0.13-0.77-0.38c-0.19-0.26-0.34-0.61-0.43-1.06
			c-0.1-0.45-0.16-0.96-0.19-1.54c-0.03-0.58-0.05-1.2-0.05-1.87v-5.33c0-1.76-0.04-3.51-0.12-5.26s-0.3-3.3-0.67-4.68
			c-0.37-1.38-0.93-2.49-1.68-3.34c-0.75-0.85-1.78-1.27-3.1-1.27c-0.35,0-0.82,0.04-1.42,0.12c-0.59,0.08-1.17,0.21-1.73,0.38
			c-0.56,0.18-1.04,0.41-1.44,0.7c-0.4,0.29-0.6,0.66-0.6,1.1c0,0.13,0.34,0.35,1.01,0.67c0.35,0.16,0.75,0.38,1.2,0.67
			s0.67,0.7,0.67,1.25c0,0.64-0.1,1.26-0.29,1.87c-0.19,0.61-0.44,1.2-0.74,1.78c-0.3,0.58-0.65,1.14-1.03,1.68
			c-0.38,0.54-0.75,1.07-1.1,1.58c0.93,0.26,1.59,0.86,1.99,1.82s0.6,2.08,0.6,3.36c0,1.06-0.11,2.06-0.34,3
			c-0.22,0.94-0.52,1.76-0.89,2.45c-0.37,0.69-0.78,1.23-1.22,1.63c-0.45,0.4-0.91,0.6-1.39,0.6c-0.26,0-0.47-0.06-0.65-0.19
			c-0.18-0.13-0.31-0.29-0.41-0.48s-0.17-0.4-0.22-0.62c-0.05-0.22-0.07-0.42-0.07-0.58c0-0.29,0.03-0.52,0.1-0.7
			c0.06-0.18,0.13-0.31,0.19-0.41c0.19-0.29,0.38-0.63,0.58-1.03c0.19-0.4,0.38-0.82,0.55-1.25c0.18-0.43,0.32-0.86,0.43-1.27
			c0.11-0.42,0.17-0.78,0.17-1.1c0-0.54-0.1-0.88-0.29-1.01c-0.19-0.13-0.43-0.19-0.72-0.19h-1.01c-0.32,0-0.67-0.04-1.06-0.12
			c-0.38-0.08-0.74-0.21-1.08-0.38c-0.34-0.18-0.62-0.4-0.84-0.67c-0.22-0.27-0.34-0.62-0.34-1.03c0-0.64,0.27-1.26,0.82-1.85
			c0.54-0.59,1.14-1.16,1.78-1.7c0.7-0.61,1.34-1.22,1.9-1.85s0.84-1.35,0.84-2.18l-0.29-0.29l-0.58-0.29l-0.58,0.29h-0.86
			c-1.18,0-2.18-0.17-3-0.5c-0.82-0.34-1.48-0.79-1.99-1.37c-0.51-0.58-0.88-1.24-1.1-1.99c-0.22-0.75-0.34-1.54-0.34-2.38
			c0-1.06,0.15-2.09,0.46-3.1c0.3-1.01,0.71-1.9,1.22-2.66s1.08-1.39,1.7-1.87S143.86,54.15,144.5,54.15z"/>
		<path class="st4" d="M33.79,112.49c3.82-3.76,8.39-5.64,13.7-5.64c5.31,0,9.89,1.88,13.73,5.64c3.84,3.76,5.76,8.3,5.76,13.61
			c0,5.31-1.91,9.83-5.74,13.56c-3.82,3.73-8.41,5.59-13.75,5.59H28.05V126.1C28.05,120.79,29.97,116.25,33.79,112.49z
			 M47.49,137.62c3.17,0,5.85-1.13,8.04-3.38c2.19-2.26,3.29-4.97,3.29-8.14s-1.1-5.9-3.29-8.18c-2.19-2.29-4.87-3.43-8.04-3.43
			s-5.85,1.14-8.04,3.43c-2.19,2.29-3.29,5.02-3.29,8.18v11.52H47.49z"/>
		<path class="st5" d="M85.03,120.53c2.56,0,4.68,0.51,6.36,1.54s2.94,2.41,3.79,4.15c0.85,1.75,1.27,3.74,1.27,5.98H77.49v-0.48
			l14.06-0.53c0-2.11-0.24-3.91-0.72-5.4s-1.2-2.63-2.16-3.43c-0.96-0.8-2.18-1.2-3.65-1.2c-1.5,0-2.82,0.43-3.94,1.3
			c-1.12,0.86-1.98,2.16-2.59,3.89c-0.61,1.73-0.91,3.87-0.91,6.43c0,1.5,0.21,2.94,0.62,4.3c0.42,1.36,1.01,2.58,1.78,3.65
			c0.77,1.07,1.71,1.91,2.83,2.52c1.12,0.61,2.4,0.91,3.84,0.91c0.96,0,1.9-0.13,2.83-0.38c0.93-0.26,1.79-0.63,2.59-1.13
			c0.8-0.5,1.53-1.1,2.18-1.82c0.66-0.72,1.22-1.56,1.7-2.52l0.48,0.48c-0.7,1.41-1.5,2.58-2.4,3.5c-0.9,0.93-1.87,1.66-2.93,2.21
			c-1.06,0.54-2.14,0.93-3.26,1.15c-1.12,0.22-2.26,0.34-3.41,0.34c-1.92,0-3.63-0.34-5.14-1.01c-1.5-0.67-2.78-1.58-3.84-2.71
			c-1.06-1.14-1.86-2.46-2.42-3.96c-0.56-1.5-0.84-3.1-0.84-4.8c0-1.95,0.32-3.72,0.96-5.3c0.64-1.58,1.53-2.95,2.66-4.1
			c1.14-1.15,2.49-2.03,4.06-2.64S83.17,120.53,85.03,120.53z"/>
		<path class="st0" d="M111.57,145.97c-1.44,0-2.79-0.13-4.06-0.38c-1.26-0.26-2.38-0.64-3.36-1.15c-0.98-0.51-1.74-1.12-2.28-1.82
			s-0.82-1.49-0.82-2.35c0-0.64,0.18-1.18,0.55-1.61c0.37-0.43,0.84-0.76,1.42-0.98c0.58-0.22,1.18-0.34,1.82-0.34
			s1.25,0.1,1.82,0.31c0.58,0.21,1.04,0.5,1.39,0.89c0.35,0.38,0.53,0.85,0.53,1.39c0,0.45-0.1,0.85-0.31,1.2
			c-0.21,0.35-0.52,0.69-0.94,1.01c-0.51,0.35-0.86,0.64-1.06,0.86c-0.19,0.22-0.29,0.46-0.29,0.72c0,0.26,0.22,0.51,0.67,0.77
			c0.45,0.26,1.08,0.47,1.9,0.65c0.81,0.18,1.73,0.26,2.76,0.26c1.44,0,2.7-0.18,3.79-0.55c1.09-0.37,1.95-0.9,2.57-1.61
			c0.63-0.7,0.94-1.6,0.94-2.69c0-0.83-0.26-1.58-0.77-2.26s-1.36-1.31-2.54-1.92c-1.19-0.61-2.8-1.23-4.85-1.87
			c-2.27-0.77-4.07-1.54-5.4-2.3c-1.33-0.77-2.27-1.58-2.83-2.45c-0.56-0.86-0.84-1.81-0.84-2.83c0-1.95,0.97-3.5,2.9-4.66
			c1.94-1.15,4.55-1.73,7.85-1.73c1.79,0,3.44,0.24,4.94,0.72s2.72,1.14,3.65,1.99c0.93,0.85,1.39,1.85,1.39,3
			c0,0.61-0.18,1.11-0.53,1.51c-0.35,0.4-0.81,0.7-1.37,0.89c-0.56,0.19-1.14,0.29-1.75,0.29c-0.48,0-0.95-0.06-1.42-0.17
			c-0.46-0.11-0.88-0.27-1.25-0.48c-0.37-0.21-0.67-0.48-0.89-0.82c-0.22-0.34-0.34-0.73-0.34-1.18c0-0.86,0.48-1.62,1.44-2.26
			c0.51-0.32,0.87-0.59,1.06-0.82c0.19-0.22,0.29-0.43,0.29-0.62c0-0.16-0.13-0.34-0.38-0.53c-0.26-0.19-0.62-0.36-1.08-0.5
			c-0.46-0.14-0.98-0.25-1.56-0.34c-0.58-0.08-1.2-0.12-1.87-0.12c-1.44,0-2.72,0.16-3.84,0.48c-1.12,0.32-2,0.79-2.64,1.42
			c-0.64,0.62-0.96,1.38-0.96,2.28c0,0.8,0.3,1.56,0.91,2.28c0.61,0.72,1.5,1.38,2.69,1.97c1.18,0.59,2.64,1.18,4.37,1.75
			c2.4,0.83,4.29,1.62,5.69,2.35c1.39,0.74,2.39,1.5,3,2.28s0.91,1.69,0.91,2.71c0,1.18-0.29,2.24-0.86,3.17
			c-0.58,0.93-1.36,1.7-2.35,2.3c-0.99,0.61-2.15,1.07-3.48,1.39C114.59,145.81,113.14,145.97,111.57,145.97z"/>
		<path class="st6" d="M126.84,145.25v-0.48l2.69-0.48v-21.6h-2.98v-0.53l8.26-1.63v23.76l2.64,0.48v0.48H126.84z M131.88,116.64
			c-0.83,0-1.57-0.13-2.21-0.38c-0.64-0.26-1.14-0.61-1.49-1.06c-0.35-0.45-0.53-0.96-0.53-1.54c0-0.61,0.18-1.13,0.53-1.56
			c0.35-0.43,0.85-0.78,1.49-1.03c0.64-0.26,1.38-0.38,2.21-0.38c0.83,0,1.57,0.13,2.21,0.38c0.64,0.26,1.14,0.6,1.51,1.03
			c0.37,0.43,0.55,0.95,0.55,1.56c0,0.58-0.18,1.09-0.55,1.54c-0.37,0.45-0.87,0.8-1.51,1.06
			C133.45,116.52,132.71,116.64,131.88,116.64z"/>
		<path class="st4" d="M151.99,155.57c-1.57,0-3.02-0.18-4.37-0.53c-1.34-0.35-2.51-0.82-3.5-1.39c-0.99-0.58-1.78-1.22-2.35-1.94
			s-0.86-1.45-0.86-2.18c0-0.71,0.18-1.32,0.53-1.85c0.35-0.53,0.82-0.93,1.42-1.2c0.59-0.27,1.26-0.41,1.99-0.41
			c1.15,0,2.08,0.25,2.78,0.77c0.7,0.51,1.06,1.18,1.06,2.02c0,0.67-0.14,1.21-0.41,1.61c-0.27,0.4-0.62,0.73-1.03,0.98
			c-0.42,0.25-0.83,0.46-1.25,0.6s-0.77,0.29-1.06,0.43c-0.29,0.14-0.43,0.3-0.43,0.46c0,0.32,0.31,0.62,0.94,0.91
			s1.44,0.53,2.45,0.72c1.01,0.19,2.09,0.29,3.24,0.29c1.86,0,3.48-0.26,4.87-0.79c1.39-0.53,2.46-1.26,3.22-2.18
			c0.75-0.93,1.13-2.02,1.13-3.26c0-1.12-0.3-2.08-0.91-2.88c-0.61-0.8-1.56-1.44-2.86-1.92c-1.3-0.48-3.01-0.83-5.14-1.06
			c-2.13-0.22-4.73-0.34-7.8-0.34v-0.72l6.14-4.9l0.53,0.38l-3.5,2.93l0.19,0.43c2.62,0,4.95,0.09,6.98,0.26
			c2.03,0.18,3.78,0.46,5.26,0.86c1.47,0.4,2.69,0.89,3.65,1.46s1.66,1.26,2.11,2.06c0.45,0.8,0.67,1.71,0.67,2.74
			c0,1.73-0.56,3.15-1.68,4.27s-2.7,1.96-4.75,2.52C157.19,155.29,154.77,155.57,151.99,155.57z M153.28,137.57
			c-1.66,0-3.22-0.18-4.66-0.53c-1.44-0.35-2.71-0.86-3.79-1.51c-1.09-0.66-1.94-1.48-2.57-2.47c-0.62-0.99-0.94-2.14-0.94-3.46
			c0-1.31,0.3-2.52,0.91-3.62c0.61-1.1,1.45-2.06,2.52-2.88c1.07-0.82,2.34-1.45,3.82-1.9c1.47-0.45,3.07-0.67,4.8-0.67
			c1.57,0,3.06,0.22,4.49,0.65c1.42,0.43,2.7,1.04,3.84,1.82c1.13,0.78,2.03,1.74,2.69,2.86c0.66,1.12,0.98,2.37,0.98,3.74
			c0,1.09-0.25,2.11-0.74,3.07s-1.24,1.81-2.23,2.54c-0.99,0.74-2.26,1.31-3.79,1.73S155.3,137.57,153.28,137.57z M153.38,136.95
			c1.41,0,2.6-0.28,3.58-0.84c0.98-0.56,1.73-1.36,2.26-2.4c0.53-1.04,0.79-2.26,0.79-3.67c0-1.66-0.26-3.16-0.77-4.49
			c-0.51-1.33-1.26-2.39-2.23-3.19c-0.98-0.8-2.18-1.2-3.62-1.2c-1.41,0-2.62,0.4-3.62,1.2c-1.01,0.8-1.77,1.87-2.28,3.19
			c-0.51,1.33-0.77,2.82-0.77,4.49c0,1.38,0.26,2.58,0.79,3.62c0.53,1.04,1.3,1.85,2.3,2.42S152,136.95,153.38,136.95z
			 M157.32,121.63l-2.74-0.91c0.7,0,1.42-0.08,2.14-0.24s1.43-0.38,2.14-0.65c0.7-0.27,1.38-0.55,2.02-0.84
			c0.64-0.29,1.24-0.56,1.8-0.82c0.56-0.26,1.05-0.48,1.46-0.67l1.34,3.36h-8.16V121.63z"/>
	</g>
</g>
</svg>
