<?xml version="1.0" encoding="utf-8"?>
<!-- Generator: Adobe Illustrator 24.0.1, SVG Export Plug-In . SVG Version: 6.00 Build 0)  -->
<svg version="1.1" id="Layer_1" xmlns="http://www.w3.org/2000/svg" xmlns:xlink="http://www.w3.org/1999/xlink" x="0px" y="0px"
	 viewBox="0 0 204 204" style="enable-background:new 0 0 204 204;" xml:space="preserve">
<style type="text/css">
	.st0{fill:#ECECEC;}
	.st1{fill:#DCDCDC;}
	.st2{fill:#FFFFFF;}
	.st3{fill:#C8C8C8;}
	.st4{fill:none;stroke:#ECECEC;stroke-miterlimit:10;}
	.st5{fill:none;stroke:#DCDCDC;stroke-miterlimit:10;}
	.st6{fill:#1A2E35;}
	.st7{fill:#FFC800;}
	.st8{fill:#375A64;}
	.st9{fill:#2B454E;}
	.st10{fill:none;stroke:#2B454E;stroke-width:0.5;stroke-miterlimit:10;}
	.st11{fill:#A8A8A8;}
	.st12{fill-rule:evenodd;clip-rule:evenodd;fill:#ECECEC;}
	.st13{fill-rule:evenodd;clip-rule:evenodd;fill:#FFC800;}
	.st14{fill-rule:evenodd;clip-rule:evenodd;fill:#375A64;}
	.st15{opacity:0.1;}
	.st16{fill:#FB6A55;}
</style>
<g>
	<g>
		<path class="st0" d="M177.7,143.2c2.1-0.1,4.1-0.2,6.1-0.3c2-0.1,3.9-0.2,5.9-0.2l-0.5,0.5c0-1.7,0-3.4,0-5l0.5,0.5
			c-2,0-4,0-6-0.1c-2,0-4-0.1-6-0.2l0.3-0.3c0,0.8-0.1,1.6-0.1,2.5L177.7,143.2z M177.7,143.2l-0.1-2.5c0-0.8-0.1-1.7-0.1-2.6l0-0.3
			l0.3,0c2-0.1,4-0.2,6-0.2c2,0,4,0,6-0.1l0.5,0l0,0.5c0,1.7,0,3.4,0,5l0,0.5l-0.4,0c-2,0-4.1-0.1-6.1-0.2
			C181.6,143.4,179.6,143.3,177.7,143.2z"/>
	</g>
	<g>
		<path class="st0" d="M184.4,149.6c2.1-0.1,4.1-0.2,6.1-0.3c2-0.1,3.9-0.2,5.9-0.2l-0.5,0.5c0-1.7,0-3.4,0-5l0.5,0.5
			c-2,0-4,0-6-0.1c-2,0-4-0.1-6-0.2l0.3-0.3c0,0.8-0.1,1.6-0.1,2.5L184.4,149.6z M184.4,149.6l-0.1-2.5c0-0.8-0.1-1.7-0.1-2.6l0-0.3
			l0.3,0c2-0.1,4-0.2,6-0.2c2,0,4,0,6-0.1l0.5,0l0,0.5c0,1.7,0,3.4,0,5l0,0.5l-0.4,0c-2,0-4.1-0.1-6.1-0.2
			C188.2,149.8,186.3,149.7,184.4,149.6z"/>
	</g>
	<g>
		<path class="st0" d="M171.1,149.6c2.1-0.1,4.1-0.2,6.1-0.3c2-0.1,3.9-0.2,5.9-0.2l-0.5,0.5c0-1.7,0-3.4,0-5l0.5,0.5
			c-2,0-4,0-6-0.1c-2,0-4-0.1-6-0.2l0.3-0.3c0,0.8-0.1,1.6-0.1,2.5L171.1,149.6z M171.1,149.6l-0.1-2.5c0-0.8-0.1-1.7-0.1-2.6l0-0.3
			l0.3,0c2-0.1,4-0.2,6-0.2c2,0,4,0,6-0.1l0.5,0l0,0.5c0,1.7,0,3.4,0,5l0,0.5l-0.4,0c-2,0-4.1-0.1-6.1-0.2
			C174.9,149.8,173,149.7,171.1,149.6z"/>
	</g>
	<g>
		<path class="st0" d="M10.5,149.6c2.1-0.1,4.1-0.2,6.1-0.3c2-0.1,3.9-0.2,5.9-0.2l-0.5,0.5c0-1.7,0-3.4,0-5l0.5,0.5c-2,0-4,0-6-0.1
			c-2,0-4-0.1-6-0.2l0.3-0.3c0,0.8-0.1,1.6-0.1,2.5L10.5,149.6z M10.5,149.6l-0.1-2.5c0-0.8-0.1-1.7-0.1-2.6l0-0.3l0.3,0
			c2-0.1,4-0.2,6-0.2c2,0,4,0,6-0.1l0.5,0l0,0.5c0,1.7,0,3.4,0,5l0,0.5l-0.4,0c-2,0-4.1-0.1-6.1-0.2
			C14.3,149.8,12.4,149.7,10.5,149.6z"/>
	</g>
	<g>
		<path class="st0" d="M17.1,13.8c2.1-0.1,4.1-0.2,6.1-0.3c2-0.1,3.9-0.2,5.9-0.2l-0.5,0.5c0-1.7,0-3.4,0-5l0.5,0.5c-2,0-4,0-6-0.1
			c-2,0-4-0.1-6-0.2l0.3-0.3c0,0.8-0.1,1.6-0.1,2.5L17.1,13.8z M17.1,13.8L17,11.4c0-0.8-0.1-1.7-0.1-2.6l0-0.3l0.3,0
			c2-0.1,4-0.2,6-0.2c2,0,4,0,6-0.1l0.5,0l0,0.5c0,1.7,0,3.4,0,5l0,0.5l-0.4,0c-2,0-4.1-0.1-6.1-0.2C21,14,19,13.9,17.1,13.8z"/>
	</g>
	<g>
		<path class="st0" d="M10.5,20.2c2.1-0.1,4.1-0.2,6.1-0.3c2-0.1,3.9-0.2,5.9-0.2L22,20.2c0-1.7,0-3.4,0-5l0.5,0.5c-2,0-4,0-6-0.1
			c-2,0-4-0.1-6-0.2l0.3-0.3c0,0.8-0.1,1.6-0.1,2.5L10.5,20.2z M10.5,20.2l-0.1-2.5c0-0.8-0.1-1.7-0.1-2.6l0-0.3l0.3,0
			c2-0.1,4-0.2,6-0.2c2,0,4,0,6-0.1l0.5,0l0,0.5c0,1.7,0,3.4,0,5l0,0.5l-0.4,0c-2,0-4.1-0.1-6.1-0.2C14.3,20.4,12.4,20.3,10.5,20.2z
			"/>
	</g>
	<g>
		<path class="st0" d="M184.4,13.8c2.1-0.1,4.1-0.2,6.1-0.3c2-0.1,3.9-0.2,5.9-0.2l-0.5,0.5c0-1.7,0-3.4,0-5l0.5,0.5c-2,0-4,0-6-0.1
			c-2,0-4-0.1-6-0.2l0.3-0.3c0,0.8-0.1,1.6-0.1,2.5L184.4,13.8z M184.4,13.8l-0.1-2.5c0-0.8-0.1-1.7-0.1-2.6l0-0.3l0.3,0
			c2-0.1,4-0.2,6-0.2c2,0,4,0,6-0.1l0.5,0l0,0.5c0,1.7,0,3.4,0,5l0,0.5l-0.4,0c-2,0-4.1-0.1-6.1-0.2C188.2,14,186.3,13.9,184.4,13.8
			z"/>
	</g>
	<g>
		<path class="st0" d="M93.5,111.3c-2.1,0.1-4.1,0.2-6.1,0.3c-2,0.1-3.9,0.2-5.9,0.2l0.5-0.5c0,1.7,0,3.4,0,5l-0.5-0.5
			c2,0,4,0,6,0.1c2,0,4,0.1,6,0.2l-0.3,0.3c0-0.8,0.1-1.6,0.1-2.5L93.5,111.3z M93.5,111.3l0.1,2.5c0,0.8,0.1,1.7,0.1,2.6l0,0.3
			l-0.3,0c-2,0.1-4,0.2-6,0.2c-2,0-4,0-6,0.1l-0.5,0l0-0.5c0-1.7,0-3.4,0-5l0-0.5l0.4,0c2,0,4.1,0.1,6.1,0.2
			C89.7,111,91.6,111.2,93.5,111.3z"/>
	</g>
	<g>
		<path class="st0" d="M86.9,104.9c-2.1,0.1-4.1,0.2-6.1,0.3c-2,0.1-3.9,0.2-5.9,0.2l0.5-0.5c0,1.7,0,3.4,0,5l-0.5-0.5
			c2,0,4,0,6,0.1c2,0,4,0.1,6,0.2l-0.3,0.3c0-0.8,0.1-1.6,0.1-2.5L86.9,104.9z M86.9,104.9l0.1,2.5c0,0.8,0.1,1.7,0.1,2.6l0,0.3
			l-0.3,0c-2,0.1-4,0.2-6,0.2c-2,0-4,0-6,0.1l-0.5,0l0-0.5c0-1.7,0-3.4,0-5l0-0.5l0.4,0c2,0,4.1,0.1,6.1,0.2
			C83,104.7,85,104.8,86.9,104.9z"/>
	</g>
</g>
<g>
	<g>
		<rect x="19.7" y="17.7" class="st1" width="22.2" height="26.9"/>
		<rect x="22.3" y="20.1" class="st2" width="17.1" height="22"/>
		<rect x="22.3" y="20.1" class="st3" width="0.7" height="22"/>
		<rect x="41.9" y="17.7" class="st3" width="0.7" height="26.9"/>
		<rect x="31.2" y="25.2" transform="matrix(-1 -1.224647e-16 1.224647e-16 -1 66.4418 62.41)" class="st1" width="4" height="12"/>
		
			<rect x="26.2" y="23.1" transform="matrix(-1 -1.224647e-16 1.224647e-16 -1 63.2406 52.1779)" class="st4" width="10.8" height="5.9"/>
	</g>
	<g>
		<rect x="44.5" y="48.8" class="st1" width="22.2" height="26.9"/>
		<rect x="47" y="51.2" class="st2" width="17.1" height="22"/>
		<rect x="47" y="51.2" class="st3" width="0.7" height="22"/>
		<rect x="66.6" y="48.8" class="st3" width="0.7" height="26.9"/>
		<rect x="53.9" y="56.9" class="st0" width="3.5" height="8.7"/>
		<rect x="51.7" y="62.2" class="st5" width="9.3" height="6"/>
	</g>
</g>
<g>
	<path class="st0" d="M127.1,9v84.5h64.6V9H127.1z M128.8,10.7H190v81h-61.2V10.7z"/>
	<polygon class="st2" points="128.8,10.7 128.8,91.8 157.9,91.8 157.9,11.2 159.6,11.2 159.6,91.8 190,91.8 190,10.7 	"/>
	<rect x="157.9" y="11.2" class="st0" width="1.7" height="81.5"/>
	<g>
		<g>
			<rect x="125.6" y="12.5" class="st0" width="67.7" height="2.4"/>
			<rect x="125.6" y="15.1" class="st0" width="67.7" height="2.4"/>
			<rect x="125.6" y="17.8" class="st0" width="67.7" height="2.4"/>
			<rect x="125.6" y="20.5" class="st0" width="67.7" height="2.4"/>
			<rect x="125.6" y="23.1" class="st0" width="67.7" height="2.4"/>
			<rect x="125.6" y="25.8" class="st0" width="67.7" height="2.4"/>
			<rect x="125.6" y="28.5" class="st0" width="67.7" height="2.4"/>
			<rect x="125.6" y="31.1" class="st0" width="67.7" height="2.4"/>
			<rect x="125.6" y="33.8" class="st0" width="67.7" height="2.4"/>
		</g>
		<g>
			<g>
				<rect x="187.8" y="12" class="st6" width="0.4" height="54.7"/>
				<polygon class="st6" points="188.8,68.7 187.3,68.7 187.6,66.5 188.4,66.5 				"/>
			</g>
			<g>
				<rect x="189.3" y="12" class="st6" width="0.4" height="79.1"/>
				<polygon class="st6" points="190.3,92.7 188.8,92.7 189.2,90.5 189.9,90.5 				"/>
			</g>
		</g>
		<rect x="122.9" y="8.7" class="st1" width="73" height="5"/>
	</g>
</g>
<g>
	<polygon class="st6" points="10.7,166.4 33.9,166.1 57,166 103.4,165.9 149.8,166 173,166.1 196.1,166.4 173,166.6 149.8,166.8 
		103.4,166.9 57,166.8 33.9,166.6 	"/>
</g>
<g>
	<g>
		<g>
			<path class="st7" d="M182.1,146.7c0,0,3.5-12.5,6.3-16.8c2.8-4.3,8-8.9,8-8.9S196.2,140.3,182.1,146.7z"/>
			<path class="st6" d="M182.3,146.5c1.2-1.9,2.2-4,3.2-6.1c0.4-2.2,1-4.5,1.7-6.6c0,0,0.1,0,0.1,0c-0.5,2-1,3.9-1.5,5.9
				c1.4-3,2.7-6.1,4.4-9c0.3-1.4,1-2.7,1.6-4c0,0,0.1,0,0.1,0c-0.4,1-0.8,2-1.1,3c0.8-1.3,1.7-2.5,2.7-3.7c0.1-0.1,0.2,0,0.1,0.1
				c-2.2,2.9-3.8,6.1-5.3,9.4c1.6-1.7,3-3.6,4.4-5.5c0,0,0,0,0,0c-1.4,2.2-3,4.2-4.7,6.1c-1.1,2.4-2.1,4.8-3.4,7.1
				c2.6-2.2,4.5-5,6.5-7.7c0-0.1,0.1,0,0.1,0.1c-1.9,3-4,5.8-6.8,7.9c-0.6,1-1.2,2-1.9,2.9C182.4,146.8,182.2,146.6,182.3,146.5z"/>
		</g>
		<g>
			<path class="st7" d="M181,147.8c0,0,6.3-11.6,4.5-22.8c-1.8-11.2-3.8-15.2-3.8-15.2S171.8,127.3,181,147.8z"/>
			<g>
				<path class="st6" d="M178.4,129.6c0.5,3.2,1.4,6.3,2.4,9.3c0-4.1,0.1-8.2,0.2-12.3c-0.7-2.5-1.1-5.1-1.2-7.7
					c0-0.1,0.1-0.1,0.1,0c0.2,2.2,0.6,4.4,1.1,6.6c0.1-3.4,0.2-6.8,0.3-10.2c0-0.1,0.1-0.1,0.1,0c0,5.3,0,10.6,0,15.9
					c0.8-2,1.3-4.1,1.8-6.3c0,0,0,0,0,0c-0.2,2.5-0.9,4.9-1.9,7.2c0,3.4-0.1,6.8-0.1,10.2c1.1-3.6,2.2-7.1,2.5-10.9
					c0-0.1,0.1-0.1,0.1,0c-0.1,4.2-1.2,8.5-2.5,12.4c0,0,0,0.1-0.1,0.1c0,1.2-0.1,2.5-0.1,3.7c0,0.2-0.3,0.2-0.3,0
					c0-2.5-0.1-5.1-0.1-7.6C179.4,136.8,178.7,133.2,178.4,129.6C178.3,129.6,178.4,129.6,178.4,129.6z"/>
				<path class="st6" d="M178.8,127.9c0.2,1,0.4,2,0.4,3.1c0,0-0.1,0-0.1,0c-0.3-1-0.4-2-0.5-3C178.7,127.8,178.8,127.8,178.8,127.9
					z"/>
				<path class="st6" d="M182.5,119.4C182.5,119.4,182.6,119.4,182.5,119.4c0.1,0.7-0.1,1.4-0.3,2.1c0,0.1-0.1,0-0.1,0
					C182.3,120.8,182.4,120.1,182.5,119.4z"/>
			</g>
		</g>
		<g>
			<path class="st7" d="M178.7,148.7c0,0,0.3-12.1-3.2-18.1c-3.5-6-9.2-9-9.2-9S168.6,142.8,178.7,148.7z"/>
			<g>
				<path class="st6" d="M172.4,138.4c1.5,2.1,2.9,4.1,4.7,5.9c-0.7-2.5-1.5-4.9-2.4-7.3c-1.9-1.7-3.9-3.5-5.1-5.8c0,0,0-0.1,0.1,0
					c1.3,2.1,3,3.7,4.8,5.3c-1.4-3.6-3-7.1-4.8-10.5c0-0.1,0.1-0.2,0.1-0.1c1.1,1.8,2.1,3.6,3,5.5c-0.3-1.3-0.6-2.6-0.9-3.9
					c0,0,0,0,0.1,0c0.6,1.6,1.2,3.4,1.4,5.1c1.2,2.7,2.2,5.4,3,8.3c-0.1-1.8-0.2-3.6-0.4-5.4c0,0,0.1,0,0.1,0c0.4,2,0.6,4,0.5,6.1
					c0.5,1.8,0.9,3.6,1.3,5.4c0,0-0.1,0.1-0.1,0c-0.2-0.8-0.4-1.5-0.6-2.3c0,0,0,0,0,0C175.3,142.9,173.5,140.8,172.4,138.4
					C172.4,138.4,172.4,138.4,172.4,138.4z"/>
				<path class="st6" d="M168.4,128.6c0.4,0.4,0.7,0.9,1.1,1.3c0.3,0.4,0.7,0.7,1,1.2c0,0,0,0,0,0c-0.4-0.3-0.8-0.7-1.2-1.1
					C168.9,129.5,168.6,129.1,168.4,128.6C168.3,128.6,168.4,128.5,168.4,128.6z"/>
			</g>
		</g>
	</g>
	<g>
		<g>
			<path class="st8" d="M188.8,147.2l-0.4,4.8l-1.3,14.4H176l-1.3-14.4l-0.4-4.8c0.5,0,7.2,0,7.2,0S188.3,147.2,188.8,147.2z"/>
			<path class="st9" d="M188.8,147.2l-0.4,4.8h-13.6l-0.4-4.8c0.5,0,7.2,0,7.2,0S188.3,147.2,188.8,147.2z"/>
		</g>
		
			<rect x="173" y="144.4" transform="matrix(-1 -1.224647e-16 1.224647e-16 -1 362.9801 293.2126)" class="st8" width="17" height="4.4"/>
	</g>
</g>
<g>
	<ellipse class="st0" cx="103.4" cy="185" rx="92.8" ry="11.3"/>
</g>
<g>
	<g>
		<rect x="27.5" y="99.2" class="st9" width="151.9" height="5.4"/>
	</g>
	<g>
		<rect x="30" y="104.6" class="st8" width="146.8" height="3.4"/>
		<g>
			<g>
				<rect x="123.1" y="107.9" class="st8" width="39.2" height="73.6"/>
				<rect x="123.1" y="107.9" class="st6" width="39.2" height="4.2"/>
				<g>
					<g>
						<rect x="126.8" y="116.2" class="st10" width="30.8" height="16.8"/>
						<g>
							<rect x="138.1" y="121" class="st9" width="5.8" height="3.3"/>
							<rect x="139.8" y="121.3" class="st10" width="5.8" height="2.8"/>
						</g>
					</g>
					<g>
						<rect x="126.8" y="136.4" class="st10" width="30.8" height="16.8"/>
						<g>
							<rect x="138.1" y="141.3" class="st9" width="5.8" height="3.3"/>
							<rect x="139.8" y="141.5" class="st10" width="5.8" height="2.8"/>
						</g>
					</g>
					<g>
						<rect x="126.8" y="156.6" class="st10" width="30.8" height="16.8"/>
						<g>
							<rect x="138.1" y="161.5" class="st9" width="5.8" height="3.3"/>
							<rect x="139.8" y="161.7" class="st10" width="5.8" height="2.8"/>
						</g>
					</g>
				</g>
			</g>
			<g>
				<polygon class="st8" points="41.5,107.9 41.4,112.1 39.9,181.6 32.8,181.6 32.8,107.9 				"/>
				<polygon class="st6" points="32.8,107.9 41.5,107.9 41.4,112.1 32.8,112.1 				"/>
			</g>
			<g>
				<rect x="162.3" y="107.9" class="st9" width="11.7" height="73.6"/>
				<rect x="162.3" y="107.9" class="st6" width="11.7" height="4.2"/>
			</g>
		</g>
	</g>
</g>
<g>
	<g>
		<rect x="83.9" y="46" class="st6" width="65.4" height="43.3"/>
		<rect x="86.8" y="48.9" class="st2" width="59.5" height="31.1"/>
		<rect x="83.9" y="82.9" class="st0" width="65.4" height="6.4"/>
		<rect x="104.1" y="97.1" class="st1" width="24.8" height="2.1"/>
		<path class="st9" d="M117.6,85.7c0,0.6-0.5,1.1-1.1,1.1c-0.6,0-1.1-0.5-1.1-1.1s0.5-1.1,1.1-1.1C117.1,84.6,117.6,85.1,117.6,85.7
			z"/>
		<g>
			<g>
				<polygon class="st0" points="126,97.1 107.1,97.1 107.6,93.5 107.6,93.3 107.6,93 107.7,92.8 107.7,92.5 107.7,92.5 107.7,92.3 
					107.8,92 107.8,91.8 108.1,89.3 124.9,89.3 125.3,91.7 125.3,91.8 125.3,92.2 125.3,92.3 125.4,92.5 125.4,92.7 125.4,92.8 
					125.5,93.2 125.5,93.3 				"/>
			</g>
			<g>
				<polygon class="st1" points="125.4,92.5 107.7,92.5 107.7,92.3 107.8,92 107.8,91.8 108.1,89.3 124.9,89.3 125.3,91.7 
					125.3,91.8 125.3,92.2 125.3,92.3 				"/>
			</g>
		</g>
	</g>
	<g>
		<rect x="86.8" y="48.9" class="st11" width="59.5" height="31.1"/>
		<rect x="86.8" y="48.9" class="st8" width="59.5" height="1.2"/>
		<g>
			<path class="st3" d="M87.8,49.5c0,0.2-0.1,0.3-0.3,0.3c-0.2,0-0.3-0.1-0.3-0.3s0.1-0.3,0.3-0.3C87.6,49.2,87.8,49.3,87.8,49.5z"
				/>
			<path class="st2" d="M89,49.5c0,0.2-0.1,0.3-0.3,0.3c-0.2,0-0.3-0.1-0.3-0.3s0.1-0.3,0.3-0.3C88.9,49.2,89,49.3,89,49.5z"/>
			<path class="st7" d="M90.3,49.5c0,0.2-0.1,0.3-0.3,0.3s-0.3-0.1-0.3-0.3s0.1-0.3,0.3-0.3S90.3,49.3,90.3,49.5z"/>
		</g>
		<g>
			<rect x="93.4" y="50.9" class="st2" width="39.8" height="26.6"/>
			<g>
				<path class="st12" d="M102.6,55.3c-0.2,2.3-0.7,4.5-1.1,5c-0.3,0.3-1.2,0.6-2.3,0.7c-0.1,0-0.3,0-0.4,0c-1.7,0.1-3.7,0-4.5-0.8
					c-0.3-0.2-0.5-0.7-0.7-1.4v-8h8.9c0.2,0.4,0.3,1.1,0.3,1.8C102.7,53.5,102.7,54.4,102.6,55.3z"/>
				<path class="st13" d="M102.4,52.8c-0.5,0.4-0.2,2.2,0.1,2.5c0.3,0.3,1.4,0.2,1.6,0s0.4-1.8,0.2-2.2
					C104.1,52.7,102.8,52.5,102.4,52.8z"/>
				<path class="st12" d="M133.3,60.8v16.7H128c-2.5-0.9-4.8-2.3-5.2-3.5c-0.4-1.1,0-3.4,0.6-5.9c0-0.1,0.1-0.3,0.1-0.4
					c0.1-0.4,0.2-0.8,0.3-1.1c0-0.2,0.1-0.3,0.1-0.5c0.4-1.1,0.8-2.2,1.1-3c0.5-1.2,1-2.1,1.4-2.4c0.3-0.3,1-0.4,1.8-0.5
					C129.7,60.1,131.6,60.3,133.3,60.8z"/>
				<path class="st14" d="M131.9,50.9c-0.4,1.1-0.9,2-1.4,2.4c-4.1,3.1-16.5,1.8-18.3-0.4c-0.4-0.4-0.7-1.1-0.9-2H131.9z"/>
				<path class="st13" d="M116.3,77.4H93.4v-2.1c1.2-3.2,3.5-6.8,5.7-7.5c1.2-0.4,3.3-0.2,5.7,0.5c1.2,0.3,2.5,0.8,3.7,1.3
					c1,0.4,2,0.9,2.9,1.4c0.1,0.1,0.3,0.2,0.4,0.2c2.2,1.3,3.9,2.9,4.3,4.6C116.3,76.4,116.3,76.9,116.3,77.4z"/>
				<path class="st13" d="M123.4,57c-1.1,1-0.5,4.8,0.2,5.6c0.8,0.7,3.3,0.6,4,0c0.7-0.5,1-4.2,0.1-5.4
					C127.3,56.5,124.4,56,123.4,57z"/>
				<path class="st13" d="M99,52.4c0-0.2-0.2-0.2-0.2,0c-0.2,4.5-0.1,9.1,0,13.7c0,0.1,0.2,0.1,0.2,0C99.2,61.5,99.3,56.9,99,52.4z"
					/>
				<path class="st13" d="M100.8,50.9c0,2.9-0.1,5.8-0.2,8.7c0,0.1-0.2,0.1-0.2,0c-0.1-2.9-0.2-5.8-0.2-8.7H100.8z"/>
				<path class="st12" d="M111.8,77.4h-0.5c0-2.1,0-4.3,0.1-6.4c0-0.5,0-1,0.1-1.5c0-0.2,0.2-0.2,0.2,0c0,0.6,0.1,1.1,0.1,1.7
					C111.9,73.3,111.9,75.4,111.8,77.4z"/>
				<path class="st12" d="M110.1,77.4h-0.5c0-1.4,0-2.8,0.1-4.2c0-0.2,0.2-0.2,0.2,0C110.1,74.6,110.1,76,110.1,77.4z"/>
				<path class="st13" d="M127,66.4c0.2,0,0.2-0.2,0-0.2c-4.5-0.2-9.1-0.1-13.7,0c-0.1,0-0.1,0.2,0,0.2
					C117.8,66.5,122.4,66.6,127,66.4z"/>
				<path class="st13" d="M133.3,67.7V68c-3.3,0.2-6.6,0.1-9.9,0.1c-1.2,0-2.4-0.1-3.5-0.1c-0.1,0-0.1-0.2,0-0.2
					c1.2,0,2.4-0.1,3.6-0.1C126.7,67.6,130,67.5,133.3,67.7z"/>
				<path class="st14" d="M105.2,66.5c-0.8,0.7-0.4,3.4,0.2,3.9c0.5,0.5,2.3,0.4,2.8,0c0.5-0.4,0.7-2.9,0.1-3.8
					C108,66.2,105.9,65.8,105.2,66.5z"/>
			</g>
		</g>
		<g>
			<rect x="87.6" y="50.9" class="st8" width="4.8" height="17.9"/>
			<g>
				<rect x="87.9" y="51" transform="matrix(0.7071 -0.7071 0.7071 0.7071 -10.4627 77.2039)" class="st0" width="0" height="0.4"/>
				
					<rect x="87.8" y="51.2" transform="matrix(0.7071 -0.7071 0.7071 0.7071 -10.4628 77.2035)" class="st0" width="0.4" height="0"/>
			</g>
			<g>
				<g>
					
						<rect x="91.8" y="51.2" transform="matrix(0.7069 -0.7073 0.7073 0.7069 -9.3706 79.9972)" class="st0" width="0" height="0.2"/>
					<rect x="91.7" y="51.1" transform="matrix(0.7065 -0.7077 0.7077 0.7065 -9.2506 80.01)" class="st0" width="0.2" height="0"/>
				</g>
				<g>
					<rect x="92" y="51.2" transform="matrix(0.7072 -0.707 0.707 0.7072 -9.3255 80.0935)" class="st0" width="0" height="0.2"/>
					
						<rect x="91.9" y="51.1" transform="matrix(0.7071 -0.7071 0.7071 0.7071 -9.2177 80.0635)" class="st0" width="0.2" height="0"/>
				</g>
			</g>
			<path class="st0" d="M88.9,53.9l-0.2-0.5l-0.4,0.3v-1.6l1.1,1.1L89,53.2l0.2,0.5L88.9,53.9z M88.7,53.2l0.2,0.5l0.1-0.1l-0.2-0.5
				l0.4-0.1l-0.9-0.9v1.2L88.7,53.2z"/>
			<polygon class="st0" points="91.4,53.2 91.6,53.7 91.4,53.8 91.2,53.3 90.9,53.6 90.9,52.1 91.9,53.1 			"/>
			<g>
				
					<rect x="88.1" y="55.8" transform="matrix(0.6144 -0.789 0.789 0.6144 -9.7743 91.6241)" class="st0" width="1.6" height="0.1"/>
				<polygon class="st0" points="88.8,55.3 88.5,55.4 88.5,55.6 88.4,55.4 88.2,55.3 88.4,55.3 88.5,55 88.5,55.3 				"/>
				<polygon class="st0" points="89.3,54.9 89.1,54.9 89.1,55.1 89.1,54.9 88.9,54.9 89.1,54.9 89.1,54.7 89.1,54.9 				"/>
				<polygon class="st0" points="89.4,55.7 89.4,55.7 89.4,55.8 89.3,55.7 89.3,55.7 89.3,55.7 89.4,55.6 89.4,55.7 				"/>
			</g>
			<g>
				
					<rect x="90.4" y="60.2" transform="matrix(0.6144 -0.789 0.789 0.6144 -12.3923 95.1483)" class="st0" width="1.6" height="0.1"/>
			</g>
			<g>
				<polygon class="st0" points="91.4,56 91.6,56.5 91.4,56.6 91.2,56.1 90.9,56.4 90.9,55 91.9,56 				"/>
				<path class="st0" d="M90.8,55.8c-0.2,0-0.4-0.1-0.4-0.2c-0.1-0.2,0-0.5,0.5-0.8c0.4-0.2,0.8-0.1,0.9,0c0,0.1,0,0.2,0,0.3
					c-0.1,0.2-0.2,0.4-0.6,0.6l0,0C91.1,55.8,90.9,55.8,90.8,55.8z M91.3,54.8c-0.1,0-0.3,0-0.5,0.1c-0.5,0.2-0.5,0.5-0.5,0.7
					c0.1,0.1,0.4,0.2,0.7,0l0,0c0.3-0.1,0.5-0.4,0.5-0.5c0-0.1,0-0.2,0-0.2C91.6,54.9,91.5,54.8,91.3,54.8z"/>
				<path class="st0" d="M90.6,55.9c-0.1,0-0.1,0-0.1-0.1v0c0-0.1-0.1-0.1,0-0.2c0-0.1,0.1-0.1,0.2-0.1c0.1,0,0.1,0,0.2,0.1
					c0.1,0.1,0,0.2-0.1,0.2C90.6,55.9,90.6,55.9,90.6,55.9z M90.5,55.8c0,0.1,0.1,0.1,0.2,0c0,0,0.1-0.1,0-0.1c0,0-0.1-0.1-0.1-0.1
					C90.5,55.6,90.5,55.7,90.5,55.8C90.4,55.8,90.4,55.8,90.5,55.8L90.5,55.8z"/>
				<path class="st0" d="M90.8,56.1L90.8,56.1c0-0.1,0-0.1,0-0.1c0,0-0.1-0.1-0.1-0.1l0-0.1c0,0,0.2,0.1,0.2,0.2
					C90.9,56.1,90.8,56.1,90.8,56.1z"/>
			</g>
			<g>
				<path class="st0" d="M88.4,57.9c0,0,0.3-0.3,0.8-0.4l0.2,0.2c-0.1,0.5-0.4,0.8-0.4,0.8c-0.4-0.1-0.7,0.2-0.7,0.2l0,0l0.5-0.5
					c0,0,0.1,0,0.1,0c0,0,0-0.1,0-0.2c0,0-0.1,0-0.2,0c0,0,0,0.1,0,0.1l-0.5,0.5l0,0C88.2,58.6,88.5,58.3,88.4,57.9z"/>
				
					<rect x="89" y="57.4" transform="matrix(-0.7071 -0.7071 0.7071 -0.7071 111.7429 161.3711)" class="st0" width="0.5" height="0.2"/>
			</g>
			<rect x="90.1" y="57" class="st6" width="1.9" height="1.8"/>
			<g>
				<g>
					<path class="st0" d="M90.8,57.9c0,0,0.3-0.3,0.8-0.4l0.2,0.2c-0.1,0.5-0.4,0.8-0.4,0.8c-0.4-0.1-0.7,0.2-0.7,0.2l0,0l0.5-0.5
						c0,0,0.1,0,0.1,0c0,0,0-0.1,0-0.2c0,0-0.1,0-0.2,0c0,0,0,0.1,0,0.1l-0.5,0.5l0,0C90.6,58.6,90.9,58.3,90.8,57.9z"/>
					
						<rect x="91.5" y="57.4" transform="matrix(-0.7071 -0.7071 0.7071 -0.7071 115.919 163.1009)" class="st0" width="0.5" height="0.2"/>
				</g>
				<path class="st0" d="M90.6,58.7c-0.1,0-0.2,0-0.3-0.1c-0.1-0.1-0.1-0.3,0.1-0.6c0.1-0.1,0.1-0.2,0-0.3c-0.1-0.1-0.2-0.1-0.2-0.1
					l0-0.1c0,0,0.2,0,0.3,0.2c0.1,0.1,0,0.2,0,0.3c-0.1,0.3-0.1,0.4-0.1,0.5C90.5,58.6,90.6,58.6,90.6,58.7L90.6,58.7z"/>
			</g>
			<g>
				<path class="st0" d="M89.3,59.5v0.3h0h0h-0.1c0,0,0,0,0,0c0,0,0,0,0-0.1h-0.3v1c0,0,0,0,0.1,0c0,0,0,0,0,0c0,0,0,0,0,0
					c0,0,0,0,0,0.1v0.1h-0.1h-0.3h-0.1v-0.1c0,0,0-0.1,0-0.1c0,0,0,0,0,0c0,0,0,0,0,0c0,0,0,0,0.1,0v-1h-0.3c0,0,0,0.1,0,0.1
					c0,0,0,0,0,0h-0.1h0h0v-0.3h0h0H89.3L89.3,59.5z"/>
			</g>
			<path class="st0" d="M89.5,63.5h-1.4v-1.4h1.4V63.5z M88.3,63.3h1.1v-1.1h-1.1V63.3z"/>
			<g>
				<path class="st0" d="M91.7,67.5h-1.2v-1.1h1.2V67.5z M90.6,67.4h0.9v-0.8h-0.9V67.4z"/>
				<path class="st0" d="M91,67.8h-0.8v-0.7H91V67.8z M90.3,67.7h0.6v-0.5h-0.6V67.7z"/>
				
					<rect x="91.1" y="66.8" transform="matrix(0.7068 -0.7074 0.7074 0.7068 -20.5397 84.1734)" class="st0" width="0.4" height="0.1"/>
				<polygon class="st0" points="91.5,66.9 91.4,66.9 91.4,66.7 91.3,66.7 91.3,66.7 91.5,66.7 				"/>
			</g>
			<g>
				<path class="st0" d="M91.7,63.5h-1.4v-1.4H91c0-0.3,0.2-0.4,0.5-0.4c0.3,0,0.5,0.2,0.5,0.5c0,0.2-0.1,0.4-0.3,0.5V63.5z
					 M90.5,63.3h1.1v-0.8l0,0c0.2-0.1,0.3-0.2,0.3-0.4c0-0.2-0.2-0.4-0.4-0.4c-0.2,0-0.4,0.2-0.4,0.4l0,0.1h-0.6V63.3z"/>
				<path class="st0" d="M91.2,62.5c-0.2,0-0.2,0.2-0.2,0.3c0,0.1-0.1,0.2-0.2,0.2c0,0,0.3,0.1,0.5-0.1
					C91.4,62.7,91.4,62.5,91.2,62.5z"/>
				<path class="st0" d="M91.9,61.8l-0.5,0.7c0-0.1-0.1-0.1-0.2-0.1c0,0,0,0,0,0l0.4-0.6H91.9z"/>
			</g>
			<g>
				
					<rect x="88.5" y="64.6" transform="matrix(0.7071 0.7071 -0.7071 0.7071 72.045 -43.6761)" class="st0" width="0.5" height="1"/>
				
					<rect x="89" y="64.5" transform="matrix(0.7071 0.7071 -0.7071 0.7071 71.8369 -44.1787)" class="st0" width="0.5" height="0.2"/>
				<polygon class="st0" points="88.2,65.7 88.2,65.3 88.3,65.3 88.3,65.6 88.5,65.6 88.5,65.7 				"/>
			</g>
			<g>
				<g>
					<path class="st0" d="M91.5,65.1c-0.2,0-0.3-0.1-0.3-0.3c0-0.2,0.1-0.3,0.3-0.3c0.2,0,0.3,0.1,0.3,0.3
						C91.7,65,91.6,65.1,91.5,65.1z M91.5,64.7c-0.1,0-0.2,0.1-0.2,0.2c0,0.1,0.1,0.2,0.2,0.2c0.1,0,0.2-0.1,0.2-0.2
						C91.6,64.7,91.6,64.7,91.5,64.7z"/>
					<path class="st0" d="M90.2,65.5l1.1-0.6l0.2,0.1c0,0-0.8,0.5-0.9,0.5C90.4,65.6,90.2,65.5,90.2,65.5z"/>
				</g>
				<g>
					<path class="st0" d="M91.5,65.7c-0.2,0-0.3-0.1-0.3-0.3c0-0.2,0.1-0.3,0.3-0.3c0.2,0,0.3,0.1,0.3,0.3
						C91.7,65.6,91.6,65.7,91.5,65.7z M91.5,65.3c-0.1,0-0.2,0.1-0.2,0.2c0,0.1,0.1,0.2,0.2,0.2c0.1,0,0.2-0.1,0.2-0.2
						C91.6,65.3,91.5,65.3,91.5,65.3z"/>
					<path class="st0" d="M90.2,64.7l1.1,0.6l0.2-0.1c0,0-0.8-0.5-0.9-0.5C90.4,64.6,90.2,64.7,90.2,64.7z"/>
				</g>
			</g>
			<g>
				<path class="st0" d="M88.2,67.7v-1l0.6,0.5L88.2,67.7z M88.3,66.9v0.5l0.3-0.3L88.3,66.9z"/>
				<polygon class="st0" points="89.5,66.7 89.5,67.6 88.9,67.2 				"/>
				<path class="st0" d="M88.9,67.7L88.9,67.7l0-0.2h0V67.7z M88.9,67.4L88.9,67.4l0-0.2h0V67.4z M88.9,67.1L88.9,67.1l0-0.2h0V67.1
					z M88.9,66.8L88.9,66.8l0-0.2h0V66.8z"/>
			</g>
		</g>
		<g>
			<rect x="135.8" y="50.9" class="st8" width="9.8" height="5.8"/>
			<g>
				<polygon class="st0" points="136.3,51.4 136,51.1 136,51.1 136.3,51.4 				"/>
				<polygon class="st0" points="136,51.4 136,51.4 136.3,51.1 136.3,51.1 				"/>
			</g>
			<g>
				<g>
					
						<rect x="145" y="51.2" transform="matrix(0.7073 -0.7069 0.7069 0.7073 6.1885 117.5646)" class="st0" width="0" height="0.2"/>
					
						<rect x="144.9" y="51.1" transform="matrix(0.7077 -0.7065 0.7065 0.7077 6.2554 117.4436)" class="st0" width="0.2" height="0"/>
				</g>
				<g>
					
						<rect x="145.2" y="51.2" transform="matrix(0.7073 -0.7069 0.7069 0.7073 6.2457 117.7023)" class="st0" width="0" height="0.2"/>
					
						<rect x="145.1" y="51.1" transform="matrix(0.7071 -0.7071 0.7071 0.7071 6.3662 117.6935)" class="st0" width="0.2" height="0"/>
				</g>
			</g>
			<rect x="137.5" y="51.8" class="st0" width="0" height="3.8"/>
			<rect x="138.9" y="51.8" class="st0" width="0" height="3.8"/>
			<g>
				<path class="st0" d="M136.8,52.2c-0.3,0-0.4,0.2-0.4,0.2s0.1,0.2,0.4,0.2c0.3,0,0.4-0.2,0.4-0.2S137.1,52.2,136.8,52.2z
					 M136.8,52.6c-0.1,0-0.2-0.1-0.2-0.2c0-0.1,0.1-0.2,0.2-0.2c0.1,0,0.2,0.1,0.2,0.2C137,52.5,136.9,52.6,136.8,52.6z"/>
				<path class="st0" d="M136.9,52.4c0,0.1-0.1,0.1-0.1,0.1c-0.1,0-0.1-0.1-0.1-0.1c0-0.1,0.1-0.1,0.1-0.1
					C136.9,52.2,136.9,52.3,136.9,52.4z"/>
			</g>
			<g>
				<path class="st0" d="M136.8,53.5c-0.3,0-0.4,0.2-0.4,0.2s0.1,0.2,0.4,0.2c0.3,0,0.4-0.2,0.4-0.2S137.1,53.5,136.8,53.5z
					 M136.8,53.9c-0.1,0-0.2-0.1-0.2-0.2c0-0.1,0.1-0.2,0.2-0.2c0.1,0,0.2,0.1,0.2,0.2C137,53.8,136.9,53.9,136.8,53.9z"/>
				<path class="st0" d="M136.9,53.7c0,0.1-0.1,0.1-0.1,0.1c-0.1,0-0.1-0.1-0.1-0.1s0.1-0.1,0.1-0.1
					C136.9,53.6,136.9,53.6,136.9,53.7z"/>
			</g>
			<g>
				<path class="st0" d="M136.8,54.8c-0.3,0-0.4,0.2-0.4,0.2s0.1,0.2,0.4,0.2c0.3,0,0.4-0.2,0.4-0.2S137.1,54.8,136.8,54.8z
					 M136.8,55.2c-0.1,0-0.2-0.1-0.2-0.2c0-0.1,0.1-0.2,0.2-0.2c0.1,0,0.2,0.1,0.2,0.2C137,55.1,136.9,55.2,136.8,55.2z"/>
				<path class="st0" d="M136.9,55c0,0.1-0.1,0.1-0.1,0.1c-0.1,0-0.1-0.1-0.1-0.1c0-0.1,0.1-0.1,0.1-0.1
					C136.9,54.8,136.9,54.9,136.9,55z"/>
			</g>
			<rect x="136.2" y="53.1" class="st0" width="9" height="0"/>
			<rect x="136.2" y="54.3" class="st0" width="9" height="0"/>
			<g>
				<path class="st0" d="M140,52.7L140,52.7C140,52.7,140,52.7,140,52.7l0-0.6c0,0,0,0,0,0c0,0,0,0,0,0L140,52.7l0.3,0c0,0,0,0,0,0
					c0,0,0,0,0,0H140z"/>
				<path class="st0" d="M140.9,52.2v0.4c0,0,0,0,0,0c0,0,0,0,0,0v-0.1c0,0.1-0.1,0.1-0.2,0.1c-0.1,0-0.2-0.1-0.2-0.2
					c0-0.1,0.1-0.2,0.2-0.2C140.7,52.2,140.8,52.2,140.9,52.2L140.9,52.2C140.8,52.2,140.8,52.2,140.9,52.2
					C140.9,52.2,140.9,52.2,140.9,52.2z M140.8,52.4c0-0.1-0.1-0.2-0.2-0.2c-0.1,0-0.2,0.1-0.2,0.2c0,0.1,0.1,0.2,0.2,0.2
					C140.7,52.6,140.8,52.5,140.8,52.4z"/>
				<path class="st0" d="M141,52.2C141,52.2,141.1,52.2,141,52.2C141.1,52.2,141.1,52.2,141,52.2l0,0.2c0,0.1,0.1,0.1,0.1,0.1
					c0.1,0,0.1-0.1,0.1-0.1v-0.2c0,0,0,0,0,0c0,0,0,0,0,0c0,0,0,0,0,0c0,0,0,0,0,0h0c0,0,0,0,0,0h0h0c0,0,0,0,0,0c0,0,0,0,0,0
					c0,0,0,0,0,0v0.2v0v0.1c0,0.1-0.1,0.2-0.2,0.2c0,0-0.1,0-0.1,0c0,0,0,0,0,0c0,0,0,0,0,0c0,0,0,0,0.1,0c0.1,0,0.2-0.1,0.2-0.2v0
					c0,0-0.1,0.1-0.1,0.1c-0.1,0-0.2-0.1-0.2-0.2V52.2z"/>
				<path class="st0" d="M141.6,52.4c0-0.1,0.1-0.2,0.2-0.2c0.1,0,0.2,0.1,0.2,0.2v0v0c0,0,0,0,0,0L141.6,52.4
					c0,0.1,0.1,0.2,0.2,0.2c0.1,0,0.1,0,0.1-0.1c0,0,0,0,0,0c0,0,0,0,0,0c0,0.1-0.1,0.1-0.2,0.1C141.7,52.7,141.6,52.6,141.6,52.4z
					 M141.6,52.4h0.3c0-0.1-0.1-0.1-0.2-0.1C141.7,52.3,141.6,52.3,141.6,52.4z"/>
				<path class="st0" d="M142.2,52.2C142.2,52.2,142.2,52.2,142.2,52.2C142.2,52.2,142.2,52.2,142.2,52.2l0,0.1
					C142.2,52.3,142.2,52.3,142.2,52.2c0.1,0,0.1,0,0.2,0c0,0,0,0,0,0c0,0,0,0,0,0c-0.1,0-0.1,0-0.1,0.1c0,0,0,0.1-0.1,0.1
					c0,0,0,0,0,0v0.2c0,0,0,0,0,0c0,0,0,0,0,0V52.2z"/>
				<path class="st0" d="M142.9,52.1L142.9,52.1c-0.1,0.1-0.1,0.1-0.1,0.1c0,0,0,0,0,0c0,0,0,0,0,0L142.9,52.1
					C142.9,52,142.9,52,142.9,52.1C143,52,143,52,142.9,52.1l0,0.6c0,0,0,0,0,0c0,0,0,0,0,0V52.1z"/>
			</g>
			<g>
				<path class="st0" d="M140,54L140,54C140,54,140,54,140,54l0-0.6c0,0,0,0,0,0c0,0,0,0,0,0L140,54l0.3,0c0,0,0,0,0,0c0,0,0,0,0,0
					H140z"/>
				<path class="st0" d="M140.9,53.6V54c0,0,0,0,0,0c0,0,0,0,0,0v-0.1c0,0.1-0.1,0.1-0.2,0.1c-0.1,0-0.2-0.1-0.2-0.2
					c0-0.1,0.1-0.2,0.2-0.2C140.7,53.5,140.8,53.6,140.9,53.6L140.9,53.6C140.8,53.6,140.8,53.5,140.9,53.6
					C140.9,53.5,140.9,53.6,140.9,53.6z M140.8,53.8c0-0.1-0.1-0.2-0.2-0.2c-0.1,0-0.2,0.1-0.2,0.2s0.1,0.2,0.2,0.2
					C140.7,54,140.8,53.9,140.8,53.8z"/>
				<path class="st0" d="M141,53.6C141,53.6,141.1,53.5,141,53.6C141.1,53.5,141.1,53.6,141,53.6l0,0.2c0,0.1,0.1,0.1,0.1,0.1
					c0.1,0,0.1-0.1,0.1-0.1v-0.2c0,0,0,0,0,0c0,0,0,0,0,0c0,0,0,0,0,0c0,0,0,0,0,0h0c0,0,0,0,0,0h0h0c0,0,0,0,0,0c0,0,0,0,0,0
					c0,0,0,0,0,0v0.2v0V54c0,0.1-0.1,0.2-0.2,0.2c0,0-0.1,0-0.1,0c0,0,0,0,0,0c0,0,0,0,0,0c0,0,0,0,0.1,0c0.1,0,0.2-0.1,0.2-0.2v0
					c0,0-0.1,0.1-0.1,0.1c-0.1,0-0.2-0.1-0.2-0.2V53.6z"/>
				<path class="st0" d="M141.6,53.8c0-0.1,0.1-0.2,0.2-0.2c0.1,0,0.2,0.1,0.2,0.2v0v0c0,0,0,0,0,0L141.6,53.8
					c0,0.1,0.1,0.2,0.2,0.2c0.1,0,0.1,0,0.1-0.1c0,0,0,0,0,0c0,0,0,0,0,0c0,0.1-0.1,0.1-0.2,0.1C141.7,54,141.6,53.9,141.6,53.8z
					 M141.6,53.7h0.3c0-0.1-0.1-0.1-0.2-0.1C141.7,53.6,141.6,53.7,141.6,53.7z"/>
				<path class="st0" d="M142.2,53.6C142.2,53.6,142.2,53.5,142.2,53.6C142.2,53.5,142.2,53.6,142.2,53.6l0,0.1
					C142.2,53.7,142.2,53.7,142.2,53.6c0.1,0,0.1,0,0.2,0c0,0,0,0,0,0c0,0,0,0,0,0c-0.1,0-0.1,0-0.1,0.1c0,0,0,0.1-0.1,0.1
					c0,0,0,0,0,0V54c0,0,0,0,0,0c0,0,0,0,0,0V53.6z"/>
				<path class="st0" d="M142.8,54l0.3-0.3c0,0,0.1-0.1,0.1-0.1c0,0,0-0.1,0-0.1c0,0-0.1-0.1-0.1-0.1c0,0-0.1,0-0.1,0l0,0
					c0,0,0,0,0,0c0,0,0,0,0,0l0,0c0,0,0.1-0.1,0.1-0.1c0.1,0,0.1,0,0.2,0.1c0,0,0.1,0.1,0.1,0.1c0,0.1,0,0.1-0.1,0.2L142.8,54l0.4,0
					c0,0,0,0,0,0c0,0,0,0,0,0L142.8,54L142.8,54C142.8,54,142.8,54,142.8,54C142.8,54,142.8,54,142.8,54z"/>
			</g>
			<g>
				<path class="st0" d="M140,55.3L140,55.3C140,55.3,140,55.3,140,55.3l0-0.6c0,0,0,0,0,0c0,0,0,0,0,0L140,55.3l0.3,0c0,0,0,0,0,0
					c0,0,0,0,0,0H140z"/>
				<path class="st0" d="M140.9,54.9v0.4c0,0,0,0,0,0c0,0,0,0,0,0v-0.1c0,0.1-0.1,0.1-0.2,0.1c-0.1,0-0.2-0.1-0.2-0.2
					c0-0.1,0.1-0.2,0.2-0.2C140.7,54.9,140.8,54.9,140.9,54.9L140.9,54.9C140.8,54.9,140.8,54.9,140.9,54.9
					C140.9,54.9,140.9,54.9,140.9,54.9z M140.8,55.1c0-0.1-0.1-0.2-0.2-0.2c-0.1,0-0.2,0.1-0.2,0.2c0,0.1,0.1,0.2,0.2,0.2
					C140.7,55.3,140.8,55.2,140.8,55.1z"/>
				<path class="st0" d="M141,54.9C141,54.9,141.1,54.9,141,54.9C141.1,54.9,141.1,54.9,141,54.9l0,0.2c0,0.1,0.1,0.1,0.1,0.1
					c0.1,0,0.1-0.1,0.1-0.1v-0.2c0,0,0,0,0,0c0,0,0,0,0,0c0,0,0,0,0,0c0,0,0,0,0,0h0c0,0,0,0,0,0h0h0c0,0,0,0,0,0c0,0,0,0,0,0
					c0,0,0,0,0,0v0.2v0v0.1c0,0.1-0.1,0.2-0.2,0.2c0,0-0.1,0-0.1,0c0,0,0,0,0,0c0,0,0,0,0,0c0,0,0,0,0.1,0c0.1,0,0.2-0.1,0.2-0.2v0
					c0,0-0.1,0.1-0.1,0.1c-0.1,0-0.2-0.1-0.2-0.2V54.9z"/>
				<path class="st0" d="M141.6,55.1c0-0.1,0.1-0.2,0.2-0.2c0.1,0,0.2,0.1,0.2,0.2v0v0c0,0,0,0,0,0L141.6,55.1
					c0,0.1,0.1,0.2,0.2,0.2c0.1,0,0.1,0,0.1-0.1c0,0,0,0,0,0c0,0,0,0,0,0c0,0.1-0.1,0.1-0.2,0.1C141.7,55.3,141.6,55.2,141.6,55.1z
					 M141.6,55.1h0.3c0-0.1-0.1-0.1-0.2-0.1C141.7,54.9,141.6,55,141.6,55.1z"/>
				<path class="st0" d="M142.2,54.9C142.2,54.9,142.2,54.9,142.2,54.9C142.2,54.9,142.2,54.9,142.2,54.9l0,0.1
					C142.2,55,142.2,55,142.2,54.9c0.1,0,0.1,0,0.2,0c0,0,0,0,0,0c0,0,0,0,0,0c-0.1,0-0.1,0-0.1,0.1c0,0,0,0.1-0.1,0.1c0,0,0,0,0,0
					v0.2c0,0,0,0,0,0c0,0,0,0,0,0V54.9z"/>
				<path class="st0" d="M143.2,54.7l-0.2,0.2c0,0,0.1,0,0.1,0.1c0,0,0.1,0.1,0.1,0.2c0,0.1,0,0.1-0.1,0.2c0,0-0.1,0.1-0.2,0.1
					c-0.1,0-0.1,0-0.2-0.1c0,0,0,0,0,0c0,0,0,0,0,0c0,0,0.1,0.1,0.1,0.1s0.1,0,0.1-0.1c0,0,0.1-0.1,0.1-0.1c0,0,0-0.1-0.1-0.1
					c0,0-0.1-0.1-0.1-0.1c0,0,0,0,0,0h0c0,0,0,0,0,0L143.2,54.7l-0.3,0c0,0,0,0,0,0c0,0,0,0,0,0L143.2,54.7
					C143.2,54.7,143.2,54.7,143.2,54.7C143.2,54.7,143.2,54.7,143.2,54.7C143.2,54.7,143.2,54.7,143.2,54.7z"/>
			</g>
			<rect x="139" y="53.2" class="st8" width="0.3" height="1.1"/>
			<rect x="139" y="54.4" class="st6" width="0.3" height="1.1"/>
			<rect x="139" y="51.8" class="st7" width="0.3" height="1.1"/>
			<rect x="136.2" y="56.2" class="st0" width="1.7" height="0"/>
			<g>
				<rect x="137.9" y="52.3" class="st0" width="0.6" height="0.5"/>
				<path class="st0" d="M138.5,52.4L138.5,52.4l-0.1-0.1c0-0.1-0.1-0.2-0.2-0.2c-0.2,0-0.2,0.2-0.2,0.2v0.1H138v-0.1
					c0-0.1,0.1-0.3,0.2-0.3c0.1,0,0.2,0.1,0.2,0.3V52.4z"/>
			</g>
			<path class="st0" d="M144.4,52.7c-0.2,0-0.3-0.1-0.3-0.3c0-0.2,0.1-0.3,0.3-0.3c0.2,0,0.3,0.1,0.3,0.3
				C144.7,52.6,144.5,52.7,144.4,52.7z M144.4,52.1c-0.1,0-0.3,0.1-0.3,0.3c0,0.1,0.1,0.3,0.3,0.3c0.1,0,0.3-0.1,0.3-0.3
				C144.6,52.2,144.5,52.1,144.4,52.1z"/>
			<path class="st0" d="M144.4,54c-0.2,0-0.3-0.1-0.3-0.3c0-0.2,0.1-0.3,0.3-0.3c0.2,0,0.3,0.1,0.3,0.3
				C144.7,53.9,144.5,54,144.4,54z M144.4,53.5c-0.1,0-0.3,0.1-0.3,0.3c0,0.1,0.1,0.3,0.3,0.3c0.1,0,0.3-0.1,0.3-0.3
				C144.6,53.6,144.5,53.5,144.4,53.5z"/>
			<path class="st0" d="M144.4,55.3c-0.2,0-0.3-0.1-0.3-0.3c0-0.2,0.1-0.3,0.3-0.3c0.2,0,0.3,0.1,0.3,0.3
				C144.7,55.2,144.5,55.3,144.4,55.3z M144.4,54.8c-0.1,0-0.3,0.1-0.3,0.3s0.1,0.3,0.3,0.3c0.1,0,0.3-0.1,0.3-0.3
				S144.5,54.8,144.4,54.8z"/>
		</g>
	</g>
</g>
<g>
	<g>
		<g>
			<polygon class="st8" points="110.3,99.3 106.4,99.3 102.8,93.1 106.8,93.1 			"/>
			<polygon class="st9" points="102.8,93.1 102.8,99.3 106.4,99.3 			"/>
		</g>
		<g>
			<polygon class="st8" points="88.1,99.3 84.1,99.3 80.6,93.1 84.5,93.1 			"/>
			<polygon class="st6" points="80.6,93.1 80.6,99.3 84.1,99.3 			"/>
		</g>
	</g>
	<g>
		<polygon class="st6" points="104.7,99.3 72.1,99.3 80.1,77.5 112.6,77.5 		"/>
		<polygon class="st9" points="103.5,99.3 70.9,99.3 78.9,77.5 111.5,77.5 		"/>
		<g>
			<polygon class="st2" points="102.1,98 73.4,98 80.3,78.9 109,78.9 			"/>
			<g>
				<path class="st12" d="M85.8,82c-0.7,1.6-1.7,3.3-2.1,3.6c-0.3,0.2-1,0.4-1.8,0.5c-0.1,0-0.2,0-0.3,0c-1.3,0.1-2.7,0-3.1-0.6
					c-0.1-0.2-0.2-0.5-0.2-1l2.1-5.8h6.4c0,0.3-0.1,0.8-0.3,1.3C86.3,80.7,86.1,81.4,85.8,82z"/>
				<path class="st13" d="M86.3,80.2c-0.4,0.3-0.7,1.6-0.6,1.8c0.1,0.2,1,0.1,1.2,0c0.2-0.1,0.8-1.3,0.7-1.6
					C87.6,80.2,86.6,80.1,86.3,80.2z"/>
				<path class="st12" d="M106.4,86l-4.4,12h-3.8c-1.6-0.6-2.8-1.6-2.8-2.5c0-0.8,0.9-2.5,2-4.2c0.1-0.1,0.1-0.2,0.2-0.3
					c0.2-0.3,0.4-0.6,0.5-0.8c0.1-0.1,0.2-0.2,0.2-0.3c0.5-0.8,1.1-1.6,1.6-2.2c0.7-0.9,1.3-1.5,1.6-1.7c0.3-0.2,0.8-0.3,1.4-0.3
					C104,85.5,105.3,85.6,106.4,86z"/>
				<path class="st14" d="M108,78.9c-0.6,0.8-1.2,1.4-1.6,1.7c-3.7,2.2-12.3,1.3-13.1-0.3c-0.1-0.3-0.2-0.8-0.1-1.4H108z"/>
				<path class="st13" d="M89.8,98H73.4l0.6-1.5c1.7-2.3,4.3-4.9,6.1-5.4c0.9-0.3,2.4-0.1,4,0.4c0.8,0.2,1.6,0.6,2.3,1
					c0.6,0.3,1.2,0.7,1.7,1c0.1,0.1,0.1,0.1,0.2,0.2c1.2,1,2,2.1,1.9,3.3C90.1,97.2,90,97.6,89.8,98z"/>
				<path class="st13" d="M100.3,83.2c-1.1,0.7-1.7,3.5-1.3,4c0.4,0.5,2.3,0.4,2.9,0c0.6-0.4,1.8-3,1.5-3.9
					C103.2,82.9,101.3,82.6,100.3,83.2z"/>
				<path class="st13" d="M84,80c0-0.1-0.1-0.1-0.2,0c-1.4,3.3-2.5,6.6-3.6,9.8c0,0.1,0.1,0.1,0.1,0C81.7,86.5,83,83.2,84,80z"/>
				<path class="st13" d="M85.6,78.9c-0.7,2.1-1.6,4.2-2.4,6.2c0,0.1-0.1,0.1-0.1,0c0.7-2.1,1.4-4.2,2.1-6.2H85.6z"/>
				<path class="st12" d="M86.6,98h-0.3c0.5-1.5,1.1-3.1,1.7-4.6c0.1-0.4,0.3-0.7,0.4-1.1c0-0.1,0.2-0.1,0.2,0
					c-0.1,0.4-0.3,0.8-0.4,1.2C87.7,95,87.2,96.5,86.6,98z"/>
				<path class="st12" d="M85.4,98H85c0.4-1,0.8-2,1.2-3.1c0-0.1,0.2-0.1,0.2,0C86.1,95.9,85.8,97,85.4,98z"/>
				<path class="st13" d="M100.4,90c0.1,0,0.2-0.2,0.1-0.2c-3.2-0.2-6.5-0.1-9.9,0c-0.1,0-0.1,0.1,0,0.1
					C93.8,90.1,97.1,90.2,100.4,90z"/>
				<path class="st13" d="M104.6,91l-0.1,0.2c-2.4,0.1-4.8,0.1-7.1,0c-0.8,0-1.7,0-2.5-0.1c-0.1,0,0-0.1,0-0.1
					c0.9,0,1.8-0.1,2.7-0.1C99.9,90.9,102.3,90.9,104.6,91z"/>
				<path class="st14" d="M84.7,90.1c-0.7,0.5-1.2,2.4-0.9,2.8c0.3,0.4,1.6,0.3,2,0c0.4-0.3,1.3-2.1,1.1-2.7
					C86.8,89.9,85.4,89.6,84.7,90.1z"/>
			</g>
			<g>
				<g>
					<path class="st6" d="M84.2,87.9l0.6-1.7H85l-0.6,1.5h1l-0.1,0.1H84.2z"/>
					<path class="st6" d="M86.1,87.9c-0.1,0-0.2,0-0.2-0.1c-0.1,0-0.1-0.1-0.1-0.1c0-0.1-0.1-0.1-0.1-0.2c0-0.1,0-0.2,0-0.2
						c0-0.1,0.1-0.2,0.1-0.2c0.1-0.1,0.1-0.1,0.2-0.2c0.1-0.1,0.2-0.1,0.2-0.1c0.1,0,0.2-0.1,0.3-0.1c0.1,0,0.2,0,0.2,0.1
						c0.1,0,0.1,0.1,0.1,0.1c0,0.1,0.1,0.1,0.1,0.2c0,0.1,0,0.2,0,0.2c0,0.1-0.1,0.2-0.1,0.2c-0.1,0.1-0.1,0.1-0.2,0.2
						c-0.1,0.1-0.2,0.1-0.2,0.1C86.2,87.9,86.2,87.9,86.1,87.9z M85.8,87.3c0,0.1,0,0.1,0,0.2c0,0.1,0,0.1,0,0.2
						c0,0,0.1,0.1,0.1,0.1c0,0,0.1,0,0.2,0c0.1,0,0.1,0,0.2,0c0.1,0,0.1-0.1,0.2-0.1c0.1,0,0.1-0.1,0.2-0.2c0-0.1,0.1-0.1,0.1-0.2
						c0-0.1,0-0.1,0-0.2c0-0.1,0-0.1,0-0.2c0,0-0.1-0.1-0.1-0.1c0,0-0.1,0-0.2,0s-0.1,0-0.2,0c-0.1,0-0.1,0.1-0.2,0.1
						c-0.1,0-0.1,0.1-0.2,0.2C85.9,87.2,85.9,87.2,85.8,87.3z"/>
					<path class="st6" d="M88,86.8c-0.1,0-0.2,0-0.3,0.1c-0.1,0.1-0.2,0.1-0.3,0.2l-0.3,0.8H87l0.4-1.2h0.2L87.5,87
						c0.1-0.1,0.2-0.2,0.3-0.2c0.1-0.1,0.2-0.1,0.3-0.1c0,0,0,0,0,0L88,86.8z"/>
					<path class="st6" d="M88.3,87.9c-0.1,0-0.2,0-0.2-0.1c-0.1,0-0.1-0.1-0.1-0.1c0-0.1-0.1-0.1-0.1-0.2c0-0.1,0-0.2,0-0.2
						c0-0.1,0.1-0.2,0.1-0.2c0.1-0.1,0.1-0.1,0.2-0.2c0.1-0.1,0.2-0.1,0.2-0.1c0.1,0,0.2-0.1,0.3-0.1c0.1,0,0.2,0,0.2,0.1
						c0.1,0,0.1,0.1,0.1,0.1c0,0.1,0,0.1,0.1,0.2c0,0.1,0,0.2,0,0.2c0,0,0,0,0,0c0,0,0,0,0,0H88c0,0.1,0,0.1,0,0.2
						c0,0.1,0,0.1,0,0.1c0,0,0.1,0.1,0.1,0.1c0,0,0.1,0,0.2,0c0,0,0.1,0,0.1,0c0,0,0.1,0,0.1,0c0,0,0.1,0,0.1-0.1
						c0,0,0.1-0.1,0.1-0.1l0.1,0c0,0-0.1,0.1-0.1,0.1c0,0-0.1,0.1-0.2,0.1c-0.1,0-0.1,0-0.2,0.1C88.4,87.9,88.3,87.9,88.3,87.9z
						 M89,87.2c0-0.1,0-0.1,0-0.2c0-0.1,0-0.1,0-0.1c0,0-0.1-0.1-0.1-0.1c0,0-0.1,0-0.2,0c-0.1,0-0.1,0-0.2,0
						c-0.1,0-0.1,0.1-0.2,0.1c-0.1,0-0.1,0.1-0.1,0.1c0,0.1-0.1,0.1-0.1,0.2H89z"/>
					<path class="st6" d="M91,87.9h-0.2l0.3-0.7c0.1-0.1,0.1-0.2,0-0.3c0-0.1-0.1-0.1-0.2-0.1c0,0-0.1,0-0.1,0c0,0-0.1,0-0.1,0.1
						c0,0-0.1,0.1-0.1,0.1c0,0-0.1,0.1-0.1,0.1l-0.3,0.8H90l0.3-0.7c0.1-0.1,0.1-0.3,0.1-0.3c0-0.1-0.1-0.1-0.2-0.1
						c-0.1,0-0.2,0-0.3,0.1c-0.1,0.1-0.2,0.2-0.2,0.3l-0.3,0.8h-0.2l0.4-1.2h0.1L89.6,87c0.1-0.1,0.2-0.2,0.3-0.2
						c0.1-0.1,0.2-0.1,0.3-0.1c0.1,0,0.2,0,0.2,0.1c0,0.1,0.1,0.1,0,0.2c0.2-0.2,0.4-0.3,0.6-0.3c0.1,0,0.1,0,0.2,0
						c0,0,0.1,0.1,0.1,0.1c0,0,0,0.1,0,0.2c0,0.1,0,0.1-0.1,0.2L91,87.9z"/>
					<path class="st6" d="M92.5,86.4l0.1-0.2h0.2l-0.1,0.2H92.5z M91.9,87.9l0.4-1.2h0.2l-0.4,1.2H91.9z"/>
					<path class="st6" d="M93,87.9c-0.1,0-0.2,0-0.2-0.1c-0.1-0.1-0.1-0.1-0.1-0.2l-0.3,0.8h-0.2l0.6-1.7H93l-0.1,0.2
						c0.1-0.1,0.2-0.1,0.3-0.2c0.1,0,0.2-0.1,0.3-0.1c0.1,0,0.2,0,0.2,0.1c0.1,0,0.1,0.1,0.1,0.1c0,0.1,0,0.1,0,0.2
						c0,0.1,0,0.2,0,0.2c0,0.1-0.1,0.2-0.1,0.2c-0.1,0.1-0.1,0.1-0.2,0.2c-0.1,0.1-0.1,0.1-0.2,0.1C93.2,87.9,93.1,87.9,93,87.9z
						 M93.1,87.8c0.1,0,0.1,0,0.2,0c0.1,0,0.1-0.1,0.2-0.1c0.1,0,0.1-0.1,0.1-0.2c0-0.1,0.1-0.1,0.1-0.2c0-0.1,0-0.1,0-0.2
						c0-0.1,0-0.1,0-0.2c0,0-0.1-0.1-0.1-0.1c0,0-0.1,0-0.2,0c0,0-0.1,0-0.1,0c-0.1,0-0.1,0-0.1,0.1c0,0-0.1,0.1-0.1,0.1
						c0,0-0.1,0.1-0.1,0.1l-0.1,0.4c0,0,0,0.1,0,0.1c0,0,0,0.1,0.1,0.1c0,0,0.1,0,0.1,0.1C93,87.8,93,87.8,93.1,87.8z"/>
					<path class="st6" d="M94.3,87.9c-0.1,0-0.2,0-0.3,0c-0.1,0-0.1-0.1-0.2-0.1l0.1-0.1c0,0.1,0.1,0.1,0.2,0.1c0.1,0,0.1,0,0.2,0
						c0.1,0,0.2,0,0.3-0.1c0.1,0,0.1-0.1,0.2-0.2c0,0,0-0.1,0-0.1c0,0,0,0,0-0.1c0,0-0.1,0-0.1,0c0,0-0.1,0-0.1,0
						c-0.1,0-0.1,0-0.2-0.1c0,0-0.1,0-0.1-0.1c0,0,0,0,0-0.1c0,0,0-0.1,0-0.1c0-0.1,0.1-0.1,0.1-0.2c0,0,0.1-0.1,0.1-0.1
						c0.1,0,0.1-0.1,0.2-0.1c0.1,0,0.1,0,0.2,0c0.1,0,0.2,0,0.2,0c0.1,0,0.1,0.1,0.1,0.1L95,86.9c0,0-0.1-0.1-0.1-0.1
						c-0.1,0-0.1,0-0.2,0c0,0-0.1,0-0.1,0c0,0-0.1,0-0.1,0c0,0-0.1,0-0.1,0.1c0,0,0,0.1-0.1,0.1c0,0,0,0.1,0,0.1c0,0,0,0,0,0.1
						c0,0,0,0,0.1,0c0,0,0.1,0,0.1,0c0.1,0,0.1,0,0.2,0.1c0.1,0,0.1,0,0.1,0.1c0,0,0.1,0.1,0.1,0.1c0,0,0,0.1,0,0.1
						c0,0.1-0.1,0.2-0.2,0.3C94.6,87.9,94.4,87.9,94.3,87.9z"/>
					<path class="st6" d="M95.4,87.9c-0.1,0-0.2,0-0.3-0.1c0-0.1,0-0.2,0-0.4l0.3-0.7h0.2l-0.3,0.7c-0.1,0.3-0.1,0.4,0.1,0.4
						c0,0,0.1,0,0.1,0c0.1,0,0.1,0,0.2-0.1c0,0,0.1-0.1,0.1-0.1c0,0,0.1-0.1,0.1-0.1l0.3-0.8h0.2l-0.4,1c0,0,0,0.1,0,0.1l-0.1,0.1
						c0,0,0,0,0,0c0,0,0,0,0,0c0,0-0.1,0-0.1,0c0,0,0-0.1,0-0.1l0.1-0.1c-0.1,0.1-0.2,0.2-0.3,0.2C95.6,87.9,95.5,87.9,95.4,87.9z"
						/>
					<path class="st6" d="M98.3,87.9h-0.2l0.3-0.7c0.1-0.1,0.1-0.2,0-0.3c0-0.1-0.1-0.1-0.2-0.1c0,0-0.1,0-0.1,0c0,0-0.1,0-0.1,0.1
						c0,0-0.1,0.1-0.1,0.1c0,0-0.1,0.1-0.1,0.1l-0.3,0.8h-0.2l0.3-0.7c0.1-0.1,0.1-0.3,0.1-0.3c0-0.1-0.1-0.1-0.2-0.1
						c-0.1,0-0.2,0-0.3,0.1C97,87,97,87.1,96.9,87.2l-0.3,0.8h-0.2l0.4-1.2H97L96.9,87c0.1-0.1,0.2-0.2,0.3-0.2
						c0.1-0.1,0.2-0.1,0.3-0.1c0.1,0,0.2,0,0.2,0.1c0,0.1,0.1,0.1,0,0.2c0.2-0.2,0.4-0.3,0.6-0.3c0.1,0,0.1,0,0.2,0
						c0,0,0.1,0.1,0.1,0.1c0,0,0,0.1,0,0.2c0,0.1,0,0.1-0.1,0.2L98.3,87.9z"/>
				</g>
				<g>
					<polygon class="st6" points="99.3,89.3 99.1,89.3 99.1,89.2 99.2,89.2 99.3,89.1 99.3,89.1 					"/>
					<path class="st6" d="M98.8,89.3h-0.3l0-0.1L98.8,89.3L98.8,89.3z M98.3,89.3H98l0-0.1L98.3,89.3L98.3,89.3z M97.8,89.3h-0.3
						l0-0.1L97.8,89.3L97.8,89.3z M97.3,89.3H97l0-0.1L97.3,89.3L97.3,89.3z M96.7,89.3h-0.3l0-0.1L96.7,89.3L96.7,89.3z M96.2,89.3
						h-0.3l0-0.1L96.2,89.3L96.2,89.3z M95.7,89.3h-0.3l0-0.1L95.7,89.3L95.7,89.3z M95.1,89.3h-0.3l0-0.1L95.1,89.3L95.1,89.3z
						 M94.6,89.3h-0.3l0-0.1L94.6,89.3L94.6,89.3z M94.1,89.3h-0.3l0-0.1L94.1,89.3L94.1,89.3z M93.5,89.3h-0.3l0-0.1L93.5,89.3
						L93.5,89.3z M93,89.3h-0.3l0-0.1L93,89.3L93,89.3z M92.5,89.3h-0.3l0-0.1L92.5,89.3L92.5,89.3z M92,89.3h-0.3l0-0.1L92,89.3
						L92,89.3z M91.4,89.3h-0.3l0-0.1L91.4,89.3L91.4,89.3z M90.9,89.3h-0.3l0-0.1L90.9,89.3L90.9,89.3z M90.4,89.3h-0.3l0-0.1
						L90.4,89.3L90.4,89.3z M89.8,89.3h-0.3l0-0.1L89.8,89.3L89.8,89.3z M89.3,89.3H89l0-0.1L89.3,89.3L89.3,89.3z M88.8,89.3h-0.3
						l0-0.1L88.8,89.3L88.8,89.3z M88.2,89.3H88l0-0.1L88.2,89.3L88.2,89.3z M87.7,89.3h-0.3l0-0.1L87.7,89.3L87.7,89.3z M87.2,89.3
						h-0.3l0-0.1L87.2,89.3L87.2,89.3z M86.7,89.3h-0.3l0-0.1L86.7,89.3L86.7,89.3z M86.1,89.3h-0.3l0-0.1L86.1,89.3L86.1,89.3z
						 M85.6,89.3h-0.3l0-0.1L85.6,89.3L85.6,89.3z M85.1,89.3h-0.3l0-0.1L85.1,89.3L85.1,89.3z M84.5,89.3h-0.3l0-0.1L84.5,89.3
						L84.5,89.3z M84,89.3h-0.3l0-0.1L84,89.3L84,89.3z M83.5,89.3h-0.3l0-0.1L83.5,89.3L83.5,89.3z M82.9,89.3h-0.3l0-0.1
						L82.9,89.3L82.9,89.3z"/>
					<polygon class="st6" points="82.4,89.3 82.3,89.3 82.3,89.1 82.4,89.1 82.3,89.2 82.4,89.2 					"/>
					<path class="st6" d="M82.5,88.8L82.5,88.8l0-0.3h0.1L82.5,88.8z M82.7,88.3L82.7,88.3l0-0.3h0.1L82.7,88.3z M82.8,87.8
						L82.8,87.8l0-0.3h0.1L82.8,87.8z M83,87.3L83,87.3l0-0.3h0.1L83,87.3z M83.2,86.8L83.2,86.8l0-0.3h0.1L83.2,86.8z M83.4,86.3
						L83.4,86.3l0-0.3h0.1L83.4,86.3z M83.6,85.8L83.6,85.8l0-0.3h0.1L83.6,85.8z"/>
					<polygon class="st6" points="83.8,85.3 83.7,85.3 83.8,85.1 83.9,85.1 83.9,85.2 83.8,85.2 					"/>
					<path class="st6" d="M100.3,85.2h-0.3l0-0.1L100.3,85.2L100.3,85.2z M99.8,85.2h-0.3l0-0.1L99.8,85.2L99.8,85.2z M99.3,85.2H99
						l0-0.1L99.3,85.2L99.3,85.2z M98.7,85.2h-0.3l0-0.1L98.7,85.2L98.7,85.2z M98.2,85.2h-0.3l0-0.1L98.2,85.2L98.2,85.2z
						 M97.7,85.2h-0.3l0-0.1L97.7,85.2L97.7,85.2z M97.2,85.2h-0.3l0-0.1L97.2,85.2L97.2,85.2z M96.6,85.2h-0.3l0-0.1L96.6,85.2
						L96.6,85.2z M96.1,85.2h-0.3l0-0.1L96.1,85.2L96.1,85.2z M95.6,85.2h-0.3l0-0.1L95.6,85.2L95.6,85.2z M95,85.2h-0.3l0-0.1
						L95,85.2L95,85.2z M94.5,85.2h-0.3l0-0.1L94.5,85.2L94.5,85.2z M94,85.2h-0.3l0-0.1L94,85.2L94,85.2z M93.4,85.2h-0.3l0-0.1
						L93.4,85.2L93.4,85.2z M92.9,85.2h-0.3l0-0.1L92.9,85.2L92.9,85.2z M92.4,85.2h-0.3l0-0.1L92.4,85.2L92.4,85.2z M91.9,85.2
						h-0.3l0-0.1L91.9,85.2L91.9,85.2z M91.3,85.2h-0.3l0-0.1L91.3,85.2L91.3,85.2z M90.8,85.2h-0.3l0-0.1L90.8,85.2L90.8,85.2z
						 M90.3,85.2H90l0-0.1L90.3,85.2L90.3,85.2z M89.7,85.2h-0.3l0-0.1L89.7,85.2L89.7,85.2z M89.2,85.2h-0.3l0-0.1L89.2,85.2
						L89.2,85.2z M88.7,85.2h-0.3l0-0.1L88.7,85.2L88.7,85.2z M88.1,85.2h-0.3l0-0.1L88.1,85.2L88.1,85.2z M87.6,85.2h-0.3l0-0.1
						L87.6,85.2L87.6,85.2z M87.1,85.2h-0.3l0-0.1L87.1,85.2L87.1,85.2z M86.6,85.2h-0.3l0-0.1L86.6,85.2L86.6,85.2z M86,85.2h-0.3
						l0-0.1L86,85.2L86,85.2z M85.5,85.2h-0.3l0-0.1L85.5,85.2L85.5,85.2z M85,85.2h-0.3l0-0.1L85,85.2L85,85.2z M84.4,85.2h-0.3
						l0-0.1L84.4,85.2L84.4,85.2z"/>
					<polygon class="st6" points="100.7,85.3 100.7,85.3 100.7,85.2 100.6,85.2 100.6,85.1 100.8,85.1 					"/>
					<path class="st6" d="M99.4,88.8L99.4,88.8l0-0.3h0.1L99.4,88.8z M99.6,88.3L99.6,88.3l0-0.3h0.1L99.6,88.3z M99.8,87.8
						L99.8,87.8l0-0.3h0.1L99.8,87.8z M100,87.3L100,87.3l0-0.3h0.1L100,87.3z M100.2,86.8L100.2,86.8l0-0.3h0.1L100.2,86.8z
						 M100.4,86.3L100.4,86.3l0-0.3h0.1L100.4,86.3z M100.5,85.8L100.5,85.8l0-0.3h0.1L100.5,85.8z"/>
				</g>
				<polygon class="st6" points="98.6,88 83.7,88 83.8,87.9 98.7,87.9 				"/>
				<g>
					<polygon class="st2" points="83.9,85.3 83.5,85.3 83.6,84.9 84.1,84.9 					"/>
					<path class="st6" d="M83.9,85.4h-0.5l0.2-0.5h0.5L83.9,85.4z M83.5,85.3h0.4l0.1-0.4h-0.4L83.5,85.3z"/>
				</g>
				<g>
					<polygon class="st2" points="82.4,89.4 82,89.4 82.2,89 82.6,89 					"/>
					<path class="st6" d="M82.5,89.5h-0.5l0.2-0.5h0.5L82.5,89.5z M82,89.4h0.4l0.1-0.4h-0.4L82,89.4z"/>
				</g>
				<g>
					<polygon class="st2" points="100.9,85.3 100.4,85.3 100.6,84.9 101,84.9 					"/>
					<path class="st6" d="M100.9,85.4h-0.5l0.2-0.5h0.5L100.9,85.4z M100.5,85.3h0.4l0.1-0.4h-0.4L100.5,85.3z"/>
				</g>
				<g>
					<polygon class="st2" points="99.4,89.4 98.9,89.4 99.1,89 99.6,89 					"/>
					<path class="st6" d="M99.4,89.5h-0.5l0.2-0.5h0.5L99.4,89.5z M99,89.4h0.4l0.1-0.4h-0.4L99,89.4z"/>
				</g>
				<g>
					<polygon class="st2" points="83.2,87.4 82.8,87.4 82.9,87 83.3,87 					"/>
					<path class="st6" d="M83.2,87.4h-0.4l0.2-0.4h0.4L83.2,87.4z M82.8,87.3h0.3l0.1-0.3h-0.3L82.8,87.3z"/>
				</g>
				<g>
					<polygon class="st2" points="92.4,85.3 92,85.3 92.1,84.9 92.5,84.9 					"/>
					<path class="st6" d="M92.4,85.3H92l0.2-0.4h0.4L92.4,85.3z M92,85.3h0.3l0.1-0.3h-0.3L92,85.3z"/>
				</g>
				<g>
					<polygon class="st2" points="90.9,89.4 90.5,89.4 90.7,89 91,89 					"/>
					<path class="st6" d="M90.9,89.4h-0.4l0.2-0.4h0.4L90.9,89.4z M90.6,89.4h0.3l0.1-0.3h-0.3L90.6,89.4z"/>
				</g>
				<g>
					<polygon class="st2" points="100.1,87.4 99.7,87.4 99.9,87 100.3,87 					"/>
					<path class="st6" d="M100.1,87.4h-0.4l0.2-0.4h0.4L100.1,87.4z M99.8,87.3h0.3l0.1-0.3h-0.3L99.8,87.3z"/>
				</g>
			</g>
		</g>
	</g>
</g>
<g>
	<g>
		<polygon class="st6" points="171,96.4 171.9,96.3 172.2,64.5 157,56.2 156.6,56.9 171.4,65 		"/>
		<path class="st7" d="M173,64.8c0,0.6-0.5,1.2-1.2,1.2c-0.6,0-1.2-0.5-1.2-1.2c0-0.6,0.5-1.2,1.2-1.2C172.4,63.6,173,64.1,173,64.8
			z"/>
		<path class="st7" d="M158.1,56.5c0,0.6-0.5,1.2-1.2,1.2c-0.6,0-1.2-0.5-1.2-1.2c0-0.6,0.5-1.2,1.2-1.2
			C157.6,55.4,158.1,55.9,158.1,56.5z"/>
	</g>
	<g>
		<g>
			<polygon class="st7" points="149.2,57.6 154.6,63.6 157.2,60.6 158.7,58.7 154.6,54.1 152.6,55.4 			"/>
			<polygon class="st15" points="149.2,57.6 154.6,63.6 157.2,60.6 152.6,55.4 			"/>
		</g>
		<polygon class="st7" points="141.4,60.6 150.8,71.1 157.1,63.1 150,55.2 		"/>
	</g>
	<polygon class="st7" points="164,99.2 178,99.2 177.2,94.8 164.9,94.8 	"/>
</g>
<g>
	<g>
		<path class="st8" d="M160.8,80.5c0,0,0.5-2.1-1-2.4c-1.5-0.3-1.7,2-1.7,2L160.8,80.5z"/>
		<g>
			<polygon class="st8" points="155.6,95.3 155.6,95.3 156.2,97.4 156.5,98.1 156.9,97.5 158.2,95.8 158.2,95.8 158.2,95.8 
				160.8,80.4 158.2,79.9 155.6,95.3 			"/>
			<polygon class="st9" points="156.2,97.4 156.5,98.1 156.9,97.5 			"/>
		</g>
		
			<rect x="157.9" y="80.1" transform="matrix(-0.986 -0.1665 0.1665 -0.986 303.2853 186.2075)" class="st6" width="3.1" height="0.6"/>
		
			<rect x="157.8" y="80.8" transform="matrix(-0.986 -0.1665 0.1665 -0.986 302.9451 187.5313)" class="st6" width="3.1" height="0.6"/>
		<polygon class="st6" points="160.8,81.6 159.8,81.5 159.4,87.1 159.8,87.2 		"/>
	</g>
	<g>
		<g>
			<polygon class="st3" points="155.1,83.9 153.8,85.6 154.1,94.1 154.4,94.7 155,94.3 155.6,84.3 			"/>
			<polygon class="st1" points="154.2,83.8 155.6,85.7 155.1,94.2 154.4,94.7 153.9,88.7 153.7,88.2 153.5,84.3 			"/>
			<path class="st6" d="M155,86.2c0,0.3-0.2,0.5-0.5,0.5c-0.3,0-0.5-0.2-0.5-0.5s0.2-0.5,0.5-0.5C154.8,85.8,155,86,155,86.2z"/>
		</g>
		<g>
			<path class="st7" d="M152,74.8c-1.9,0-2.5,1.7-2.5,2.9c0,2,2.2,2.7,2.8,3.6c0.8,1.1,0.9,3.6,0.9,3.6l1.2-0.9c0,0,0-4.7,0-6.2
				C154.4,76.3,154,74.8,152,74.8z M152.2,79.6c-1.1,0-1.9-1-1.9-2.1c0-0.9,0.7-1.8,1.6-1.8c1.2,0,1.6,1.1,1.6,1.8
				C153.7,78.2,153.5,79.6,152.2,79.6z"/>
			<polygon class="st7" points="154.4,79 154.4,77.7 154.6,77.9 154.6,78.7 			"/>
		</g>
		<g>
			<path class="st7" d="M154.8,77.8c0,1.5,0,6.2,0,6.2l1.2,0.9c0,0,0.1-2.6,0.9-3.6c0.6-0.8,2.8-1.6,2.8-3.6c0-1.1-0.6-2.9-2.5-2.9
				C155.2,74.8,154.8,76.3,154.8,77.8z M155.6,77.5c0.1-0.7,0.5-1.8,1.6-1.8c0.9,0,1.6,0.9,1.6,1.8c0,1.1-0.8,2.1-1.9,2.1
				C155.7,79.6,155.5,78.2,155.6,77.5z"/>
			<polygon class="st7" points="154.8,79 154.8,77.7 154.6,77.9 154.6,78.7 			"/>
		</g>
	</g>
	<g>
		<path class="st16" d="M152.7,96.5c0,0,0.5,2.2,2,1.8c1.5-0.4,0.7-2.6,0.7-2.6L152.7,96.5z"/>
		
			<rect x="150.3" y="80.5" transform="matrix(0.9579 -0.2872 0.2872 0.9579 -19.0275 47.303)" class="st9" width="2.7" height="16"/>
		
			<rect x="152.3" y="95.6" transform="matrix(0.9579 -0.2872 0.2872 0.9579 -21.0732 48.2603)" class="st3" width="3.2" height="0.6"/>
		
			<rect x="152.1" y="95" transform="matrix(0.9579 -0.2872 0.2872 0.9579 -20.8879 48.1732)" class="st3" width="3.2" height="0.6"/>
		<g>
			<path class="st0" d="M150.7,80.4l-1.6-1.6l-0.5-0.5l-0.1,0.7l-0.4,2.2l0.4,0.3c0,0,0.1-0.5,0.1-0.5l0.4,0.3c0,0,0.1-0.5,0.1-0.5
				l0.4,0.3c0,0,0.1-0.5,0.2-0.5l0.4,0.3c0,0,0.1-0.5,0.2-0.5l0.4,0.3C150.6,80.9,150.7,80.4,150.7,80.4z"/>
			<polygon class="st9" points="149.2,78.8 148.7,78.3 148.5,79 			"/>
		</g>
	</g>
	<g>
		<polygon class="st7" points="149.6,88 159.6,88 158.9,99.2 150.3,99.2 		"/>
		<polygon class="st15" points="159.6,88 159.4,90.5 149.8,90.5 149.6,88 		"/>
		<rect x="149" y="86.7" class="st7" width="11.3" height="2.3"/>
	</g>
</g>
<g>
	<g>
		<g>
			<g>
				<polygon class="st3" points="61.6,135.6 62.8,142.6 70.7,185.2 71.9,185.2 66.2,142.6 65.3,135.6 				"/>
			</g>
		</g>
		<polygon class="st11" points="65.3,135.6 61.6,135.6 62.8,142.6 66.2,142.6 		"/>
	</g>
	<g>
		<g>
			<g>
				<polygon class="st3" points="36.8,185.2 38.1,185.2 46,142.6 47.1,135.6 43.4,135.6 42.5,142.6 				"/>
			</g>
		</g>
		<polygon class="st11" points="43.4,135.6 42.5,142.6 46,142.6 47.1,135.6 		"/>
	</g>
	<g>
		<g>
			<g>
				<polygon class="st3" points="13.1,185.2 14.4,185.2 22.3,142.6 23.4,135.6 19.7,135.6 18.8,142.6 				"/>
			</g>
		</g>
		<polygon class="st11" points="18.8,142.6 22.3,142.6 23.4,135.6 19.7,135.6 		"/>
	</g>
	<polygon class="st3" points="15.1,138.9 73,138.9 73,132.8 51.3,132.8 44,81.4 17.3,81.4 	"/>
	<polygon class="st1" points="18.5,132.8 73,132.8 73,138.9 18.3,138.9 	"/>
	<polygon class="st1" points="15.1,138.9 18.3,138.9 20.3,81.4 17.3,81.4 	"/>
</g>
<g>
	<g>
		<g>
			<g>
				<path class="st16" d="M67.5,185.3c-1.1-0.1-28.3-13.7-29-14.9c-0.1-0.1,1.1-2.6,2.8-6c3.8-7.6,11.3-20.6,11.3-20.6l16.4,9.2
					l-9,17.1c0,0,3,3.7,5.5,6.8c0,0,0,0,0,0c1.5,1.9,2.8,3.6,3,4.1C69,182.4,68.5,185.5,67.5,185.3z"/>
				<path class="st0" d="M67.5,185.3c-1.1-0.1-28.3-13.7-29-14.9c-0.1-0.1,1.1-2.6,2.8-6c1.1-2.3,2.6-5.1,4.1-7.9l17.1,8.7l-2.6,4.9
					c0,0,3,3.7,5.5,6.8c0,0,0,0,0,0c1.5,1.9,2.8,3.6,3,4.1C69,182.4,68.5,185.5,67.5,185.3z"/>
				<g>
					<path class="st7" d="M67.5,185.4c-0.7-0.1-12.3-5.8-20.6-10.1c-1.9-1-3.7-1.9-5.1-2.7c-1.9-1.1-3.2-1.8-3.4-2.1
						c-0.3-0.5,2.7-6.5,5.9-12.4l17.3,8.7l-1.6,3.5c0,0,7.7,9.4,8.3,10.7C69.1,182.4,68.6,185.6,67.5,185.4z"/>
					<g>
						<g>
							<path class="st6" d="M67.6,184.1c-4.5-2.4-22.9-11.6-27.5-13.6c0,0-0.1,0,0,0C44.5,173,63,182.1,67.6,184.1
								C67.7,184.3,67.7,184.2,67.6,184.1z"/>
							<path class="st6" d="M60.9,169.2c-1.6-1.2-4-2-6-1.5c-0.1,0,0,0.1,0,0.1c2,0.3,3.9,0.8,5.8,1.5
								C60.9,169.4,61,169.2,60.9,169.2z"/>
							<path class="st6" d="M61.8,170.6c-1.6-1.2-4-2-6-1.5c-0.1,0,0,0.1,0,0.1c2,0.3,3.9,0.8,5.8,1.5
								C61.8,170.9,61.9,170.7,61.8,170.6z"/>
							<path class="st6" d="M62.7,172c-1.6-1.2-4-2-6-1.5c-0.1,0,0,0.1,0,0.1c2,0.3,3.9,0.8,5.8,1.5C62.7,172.3,62.8,172.1,62.7,172
								z"/>
							<path class="st6" d="M63.6,173.4c-1.6-1.2-4-2-6-1.5c-0.1,0,0,0.1,0,0.1c2,0.3,3.9,0.8,5.8,1.5
								C63.6,173.7,63.7,173.5,63.6,173.4z"/>
						</g>
						<g>
							<path class="st6" d="M66.3,166.7c-0.2-1.3-1.8-1.5-2.8-1.3c-1.7,0.4-3.6,1.5-4.8,2.7c0,0,0,0.1,0,0.1c-0.1,0.1,0,0.3,0.2,0.4
								c1.8,0.2,3.6,0.6,5.4,0.3C65.2,168.6,66.5,167.9,66.3,166.7z M61.5,168.3c-0.9-0.1-1.7-0.2-2.6-0.2c0.9-0.5,1.9-1.1,2.8-1.5
								c0.5-0.2,1-0.4,1.5-0.6c0.8-0.2,3.4-0.2,2.1,1.6C64.7,168.6,62.6,168.4,61.5,168.3z"/>
							<path class="st6" d="M54.3,165.4c1.2,1.4,2.9,2.2,4.4,3.1c0.2,0.1,0.3,0,0.4-0.2c0,0,0.1,0,0.1-0.1c-0.2-1.8-1-3.7-2.1-5.1
								c-0.7-0.9-2-1.6-3-0.7C53.1,163.2,53.6,164.6,54.3,165.4z M54.1,163.7c0.1-2.2,2.2-0.6,2.7,0c0.3,0.4,0.6,0.9,0.8,1.3
								c0.5,1,0.9,2,1.3,3c-0.7-0.5-1.5-0.9-2.2-1.4C55.9,166,54.1,164.9,54.1,163.7z"/>
						</g>
					</g>
				</g>
			</g>
			<g>
				<path class="st6" d="M65.2,164.4l-19-10c0,0,12.4-24.1,12-24.6c-1.3-1.7-17.4-0.9-24.3-7.8c-7.3-7.3-1.7-17.7-1.7-17.7h19.2
					c0,0-0.2,5.2,0.6,5.9c0.5,0.5,28.7,3.2,29.8,10.6C83.7,133.6,65.2,164.4,65.2,164.4z"/>
				<g>
					<path class="st9" d="M66.4,160.9c-2.3-1.4-4.6-2.6-7-3.9c-2.3-1.3-4.7-2.5-7.1-3.7c-1.3-0.7-2.7-1.3-4.1-1.9c0,0-0.1,0,0,0.1
						c1.2,0.6,2.3,1.3,3.5,2c1.2,0.6,2.3,1.3,3.5,1.9c2.4,1.2,4.7,2.5,7.1,3.7C63.6,159.6,65,160.3,66.4,160.9
						C66.4,161,66.4,160.9,66.4,160.9z"/>
					<path class="st9" d="M65.8,126.6c-0.5-1-1.7-1.1-2.7-1.3c-2.5-0.6-5.1-1.3-7.6-1.9c-4.5-1.1-9.2-2.2-13.2-4.6
						c-1.9-1.1-3.8-2.6-4.8-4.7c-0.9-2-1-4.3-1-6.5c0-0.5,0-1.1,0.1-1.6c0,0-0.1,0-0.1,0c-0.1,2.2-0.4,4.3,0.1,6.5
						c0.2,1,0.6,2,1.2,2.9c0.6,0.9,1.4,1.7,2.2,2.3c3.6,2.8,8.1,4.1,12.4,5.3c2.5,0.6,4.9,1.2,7.4,1.8c1.3,0.3,2.5,0.6,3.8,0.9
						c0.5,0.1,1.1,0.2,1.6,0.6c0.4,0.4,0.5,0.9,0.5,1.4c0,0.5-0.2,1-0.4,1.5c-0.2,0.6-0.5,1.2-0.7,1.8c-0.5,1.2-0.9,2.3-1.4,3.4
						c-1,2.3-2,4.6-3.1,6.9c-2.1,4.5-2.3,4.7-4.7,9.1c-0.3,0.6-0.6,1.1-0.9,1.7c0,0,0,0.1,0.1,0c2.5-4.4,2.7-4.6,4.9-9.1
						c2.2-4.5,4.3-9,6.1-13.7C65.9,128.5,66.2,127.5,65.8,126.6z"/>
				</g>
			</g>
		</g>
		<g>
			<g>
				<path class="st16" d="M119.2,186.3c-1,0.3-31.4,0-32.6-0.7c-0.1-0.1-0.1-6.6-0.1-6.6c-5-11.3-9.5-22.3-9.5-22.3l21.3,0l7.1,19.3
					c0,0,4.7,2,8.3,3.7c0,0,0,0,0,0c2.2,1.1,4.1,2,4.5,2.4C119.3,183,120.2,186,119.2,186.3z"/>
				<path class="st0" d="M119.2,186.3c-1,0.3-31.4,0-32.6-0.7c-0.1-0.1-0.1-6.6-0.1-6.6c-1.3-2.9-2.5-5.8-3.7-8.4h20.5l2,5.4
					c0,0,4.7,2,8.3,3.7c0,0,0,0,0,0c2.2,1.1,4.1,2,4.5,2.4C119.3,183,120.2,186,119.2,186.3z"/>
				<g>
					<path class="st7" d="M119.2,186.4c-0.7,0.2-13.6,0.2-22.9,0c-2.2-0.1-4.2-0.1-5.8-0.2c-2.2-0.1-3.7-0.2-3.9-0.4
						c-0.4-0.2-0.5-3.3-0.5-7.3c0-0.3-2.4-5-2.8-6.4l20.9,0.2l1.2,3.6c0,0,11.6,5.3,12.8,6.3C119.3,183,120.3,186.1,119.2,186.4z"/>
					<g>
						<g>
							<path class="st6" d="M118.8,185.2c-5.1-0.2-25.7-0.4-30.7-0.1c0,0,0,0,0,0C93.1,185.4,113.7,185.4,118.8,185.2
								C118.9,185.3,118.9,185.2,118.8,185.2z"/>
							<path class="st6" d="M106.1,174.7c-2-0.4-4.5-0.1-6,1.3c-0.1,0.1,0,0.1,0.1,0.1c2-0.6,3.8-1,5.9-1.2
								C106.3,174.9,106.3,174.7,106.1,174.7z"/>
							<path class="st6" d="M107.6,175.6c-2-0.4-4.5-0.1-6,1.3c-0.1,0.1,0,0.1,0.1,0.1c2-0.6,3.8-1,5.9-1.2
								C107.7,175.8,107.7,175.6,107.6,175.6z"/>
							<path class="st6" d="M109,176.4c-2-0.4-4.5-0.1-6,1.3c-0.1,0.1,0,0.1,0.1,0.1c2-0.6,3.8-1,5.9-1.2
								C109.2,176.7,109.2,176.5,109,176.4z"/>
							<path class="st6" d="M110.5,177.3c-2-0.4-4.5-0.1-6,1.3c-0.1,0.1,0,0.1,0.1,0.1c2-0.6,3.8-1,5.9-1.2
								C110.6,177.6,110.6,177.4,110.5,177.3z"/>
						</g>
						<g>
							<path class="st6" d="M109.9,170.1c-0.8-1.1-2.2-0.6-3.1,0.1c-1.4,1.1-2.6,2.9-3.1,4.6c0,0,0,0.1,0,0.1c0,0.2,0.1,0.3,0.3,0.3
								c1.7-0.6,3.5-1,4.9-2.1C109.8,172.3,110.6,171.1,109.9,170.1z M106.4,173.6c-0.8,0.3-1.6,0.6-2.4,0.9
								c0.6-0.9,1.2-1.8,1.9-2.6c0.3-0.4,0.7-0.8,1.1-1.1c0.6-0.5,3-1.7,2.6,0.5C109.3,172.5,107.3,173.2,106.4,173.6z"/>
							<path class="st6" d="M98.6,174.2c1.6,0.7,3.5,0.7,5.3,0.9c0.2,0,0.3-0.2,0.2-0.3c0,0,0.1,0,0-0.1c-0.9-1.5-2.5-2.9-4.1-3.7
								c-1-0.5-2.5-0.6-3,0.7C96.5,172.8,97.6,173.7,98.6,174.2z M97.7,172.7c-0.9-2,1.7-1.5,2.4-1.1c0.5,0.2,0.9,0.5,1.3,0.8
								c0.9,0.6,1.7,1.4,2.5,2.1c-0.9-0.1-1.7-0.2-2.6-0.3C100.2,174.1,98.2,173.8,97.7,172.7z"/>
						</g>
					</g>
				</g>
			</g>
			<g>
				<g>
					<path class="st6" d="M103.2,168.6l-22.9-0.2c0,0-10.5-26.4-12.4-28.4c-0.9-1-7.3-2.1-14.8-3.8l0,0c-2.8-0.6-5.7-1.3-8.7-2.1
						c-7.6-2-14.9-4.7-18.2-8.3c-6.9-7.7,0-21.5,0-21.5h19.5c0,0,0.5,6-1,9.7c0,0,14.4,2.1,26.5,6c6.9,2.2,13,5,15.4,8.4
						C91.2,135,103.2,168.6,103.2,168.6z"/>
					<g>
						<path class="st9" d="M100.6,165.2c-2.7-0.2-5.3-0.3-8-0.3c-2.7-0.1-5.3-0.1-8-0.1c-1.5,0-3,0.1-4.5,0.1c0,0-0.1,0.1,0,0.1
							c1.3,0,2.7,0.1,4,0.2c1.3,0,2.6,0.1,4,0.1c2.7,0,5.3,0.1,8,0.1C97.6,165.4,99.1,165.3,100.6,165.2
							C100.6,165.3,100.7,165.2,100.6,165.2z"/>
						<path class="st9" d="M36.1,107.2c0,0.1-0.1,0.2-0.1,0.3c0,0,0,0,0,0c-0.3,0.8-0.4,1.7-0.6,2.5c-0.3,0.9-0.7,1.6-1.5,2.1
							c-1.5,1.1-3.3,1.5-5.1,2c-0.1,0,0,0.1,0,0.1c1,0,2.1-0.2,3-0.5c0.9-0.3,1.8-0.6,2.5-1.2c0.7-0.6,1.2-1.3,1.5-2.2
							c0.1-0.5,0.2-0.9,0.3-1.4c0.1-0.5,0.2-1.1,0.2-1.6C36.3,107.1,36.2,107.1,36.1,107.2z"/>
						<path class="st9" d="M48.3,112.7c-1.2,0.3-2.4,0.9-3.5,1.3c0,0,0,0-0.1,0c0-0.1,0-0.1,0.1-0.2c0-0.1,0-0.2,0-0.3
							c0-0.1,0-0.2,0-0.3c0,0,0-0.1,0-0.1c0,0,0,0,0,0c0.3,0,0.5-0.1,0.8-0.4c0.3-0.3,0.4-0.7,0.5-1.1c0.1-0.5,0.3-1,0.4-1.5
							c0.1-0.6,0.2-1.1,0.3-1.7c0.1-0.6,0.2-1.1,0.2-1.7c0-0.1-0.1-0.1-0.2,0c-0.1,0.5-0.2,1.1-0.3,1.6c-0.1,0.5-0.2,1.1-0.3,1.6
							c-0.1,0.5-0.3,1-0.4,1.6c-0.1,0.5-0.3,1.1-0.8,1.3c-1.1,0.3-0.6-2.2-0.6-2.6c0.1-1.1,0.2-2.3,0.4-3.4c0,0-0.1-0.1-0.1,0
							c-0.2,1-0.5,2-0.7,3c-0.1,0.5-0.2,1-0.2,1.5c0,0.4-0.1,0.9,0.1,1.3c0.2,0.3,0.4,0.5,0.7,0.5c0,0,0,0.1,0,0.1
							c0,0.1-0.1,0.2-0.1,0.2c0,0.1,0,0.2-0.1,0.2c0,0.1-0.1,0.2,0,0.3c0,0,0,0,0.1,0.1c-0.5,0.2-0.9,0.4-1.4,0.6
							c-0.6,0.3-1.2,0.5-1.7,0.8c-0.1,0,0,0.1,0,0.1c0.6-0.1,1.2-0.4,1.8-0.6c0.6-0.2,1.2-0.5,1.7-0.7c1.1-0.5,2.3-0.9,3.3-1.6
							C48.4,112.7,48.3,112.7,48.3,112.7z"/>
						<path class="st9" d="M75.7,148.5c-1.4-2.9-2.8-5.8-4.3-8.7c-0.6-1.2-1.2-2.5-2.6-3.2c-0.6-0.3-1.2-0.5-1.9-0.7
							c-0.8-0.2-1.5-0.4-2.3-0.6c-6.2-1.6-12.5-2.9-18.7-4.6c-3.1-0.9-6.2-1.8-9.1-3c-2.4-0.9-4.9-2.1-6.9-3.7
							c-1-0.8-1.8-1.7-2.5-2.8c-0.8-1.3-2.6-4.8,0.1-15.3c0,0-0.1-0.1-0.1,0c-2.1,7.5-1.7,11.6-1.3,13.1c0.3,1.3,0.9,2.5,1.7,3.5
							c1.6,2,3.8,3.4,6,4.5c2.7,1.3,5.5,2.3,8.4,3.1c6.2,1.9,12.5,3.3,18.8,4.8c1.6,0.4,3.1,0.7,4.7,1.1c1.4,0.4,3,0.6,4,1.8
							c0.5,0.6,0.8,1.3,1.2,1.9c0.4,0.7,0.7,1.4,1.1,2.2c0.7,1.5,1.5,3,2.2,4.5c2.8,5.9,7.3,16.2,7.5,17c0,0.1,0.1,0,0.1,0
							C80.9,160.1,77,151.4,75.7,148.5z"/>
						<path class="st9" d="M72.8,150.2c-0.4-1.4-4-9.9-5.2-10.7c-0.6-0.4-13.3-3.3-15.1-3.5c0,0,0,0.1,0,0.1
							c1.5,0.4,11.9,2.9,13.4,3.3c0.7,0.2,1.2,0.4,1.8,0.9c0.7,0.7,4.7,9.3,5,10.1C72.8,150.7,72.9,150.5,72.8,150.2z"/>
						<path class="st9" d="M81.9,124.4c-1-0.6-4.1-2.5-8.3-4c-2.2-0.8-4.4-1.4-6.7-2c-4.6-1.3-9.3-2.3-14-3.1
							c-1.3-0.2-2.7-0.5-4-0.7c-1.3-0.2-2.6-0.4-4-0.5c0,0-0.1,0.1,0,0.1c1.2,0.3,2.4,0.5,3.5,0.7c1.2,0.2,2.3,0.4,3.5,0.6
							c2.3,0.4,4.6,0.9,6.9,1.5c4.6,1,9.1,2.3,13.6,3.6c3.7,1.1,7.3,3.1,9.3,4C81.9,124.6,82,124.4,81.9,124.4z"/>
					</g>
				</g>
			</g>
		</g>
	</g>
	<g>
		<g>
			<path class="st16" d="M46,77.6c8.5,5.5,20.5,18.5,19.6,21.8c-1.1,3.8-13.3-4.1-13.1-4.6c0.2-0.5-5.8-7.5-9.6-14
				C39.1,74.6,43.9,76.3,46,77.6z"/>
			<g>
				<g>
					<path class="st7" d="M55.6,84.2l-10,2.9c0,0-2.6-4.6-3.7-7.3c-1.5-3.6-0.5-5,3.8-2.8C48.5,78.5,55.6,84.2,55.6,84.2z"/>
					<path class="st2" d="M52.6,82c-0.5,0.1-0.9,0-1.3,0c-0.4-0.1-0.9-0.2-1.3-0.3c0.5-0.1,0.9,0,1.3,0C51.7,81.7,52.2,81.8,52.6,82
						z M47.3,78c-0.1,0.1-0.2,0.2-0.4,0.2c-0.4,0.3-0.7,0.6-1,0.9c0.4-0.2,0.8-0.4,1.1-0.7c0.1-0.1,0.3-0.2,0.4-0.3
						C47.5,78.1,47.4,78.1,47.3,78z M44,84.1c-0.1-0.2-0.3-0.3-0.4-0.5c0.2,0.4,0.5,0.9,0.7,1.3c0.1,0.1,0.3,0.3,0.4,0.4
						C44.6,84.9,44.3,84.5,44,84.1z"/>
				</g>
				<path class="st6" d="M54.3,83.6c-1.5,0.3-3,0.7-4.4,1.1c-0.7,0.2-1.5,0.4-2.2,0.6c-0.7,0.2-1.4,0.5-2.2,0.7c0,0,0,0.1,0,0.1
					c0.7-0.3,1.5-0.4,2.2-0.6c0.7-0.2,1.5-0.4,2.2-0.6C51.4,84.4,52.8,84,54.3,83.6C54.4,83.6,54.3,83.6,54.3,83.6z"/>
				<path class="st15" d="M52.6,85.1l-7.1,2c0,0-2.6-4.6-3.7-7.3c-0.8-2.1-0.9-3.4,0.1-3.8L52.6,85.1z"/>
			</g>
		</g>
		<g>
			<path class="st7" d="M51.9,105.5l-27.6,2.2c0,0,7.8-23.8,13.5-29.8c3.2-3.4,5.7-1.9,7.8-0.1c0.5,0.4,5.9,8.1,6.4,11
				c0.5,2.6-1.6,5.5-1.6,5.5L51.9,105.5z"/>
			<path class="st2" d="M33.9,92c-0.1-0.5,0-0.9,0-1.3c0.1-0.4,0.2-0.9,0.3-1.3c0.1,0.5,0,0.9,0,1.3C34.2,91.2,34.1,91.6,33.9,92z
				 M43,101.8c0.1-0.4,0.1-0.9,0-1.3c-0.2,0.4-0.3,0.9-0.3,1.3c-0.1,0.4-0.1,0.9,0,1.3C42.8,102.7,42.9,102.3,43,101.8z M39.8,79.4
				c0.1-0.4,0.1-0.9,0-1.3c-0.2,0.4-0.3,0.9-0.3,1.3c-0.1,0.4-0.1,0.9,0,1.3C39.7,80.3,39.8,79.9,39.8,79.4z M25.4,104.6L25.4,104.6
				c0,0.2,0,0.3,0,0.5c0.2-0.4,0.3-0.9,0.3-1.3c0-0.1,0-0.2,0-0.3c0,0,0,0,0,0L25.4,104.6z M49.1,89c0.1-0.4,0.1-0.9,0-1.3
				c-0.2,0.4-0.3,0.9-0.3,1.3c-0.1,0.4-0.1,0.9,0,1.3C48.9,89.8,49,89.4,49.1,89z M41,88.9c-0.4-0.1-0.9-0.1-1.3,0
				c0.4,0.2,0.9,0.3,1.3,0.3c0.4,0.1,0.9,0.1,1.3,0C41.9,89,41.4,88.9,41,88.9z M47.5,105.8c0.1,0,0.2,0.1,0.2,0.1h0l0.9-0.1
				C48.3,105.8,47.9,105.7,47.5,105.8z M31.8,102c-0.4-0.1-0.9-0.1-1.3,0c0.4,0.2,0.9,0.3,1.3,0.3c0.4,0.1,0.9,0.1,1.3,0
				C32.7,102.2,32.3,102.1,31.8,102z M37.3,97.4c0.3-0.3,0.7-0.6,1-0.9c-0.4,0.2-0.8,0.4-1.1,0.7c-0.3,0.3-0.7,0.6-1,0.9
				C36.5,97.9,36.9,97.6,37.3,97.4z M51.1,99.9c-0.1,0-0.1,0.1-0.2,0.1c-0.3,0.3-0.7,0.6-1,0.9c0.4-0.2,0.8-0.4,1.1-0.7c0,0,0,0,0,0
				L51.1,99.9z M35,84.2c0.3-0.3,0.7-0.6,1-0.9c-0.4,0.2-0.8,0.4-1.1,0.7c-0.3,0.3-0.7,0.6-1,0.9C34.3,84.7,34.7,84.4,35,84.2z
				 M46.4,78.8c-0.1,0.1-0.3,0.3-0.4,0.4c0.2-0.1,0.3-0.2,0.5-0.2C46.4,78.9,46.4,78.8,46.4,78.8z M45.1,95c0.3,0.3,0.6,0.7,0.9,1
				c-0.2-0.4-0.4-0.8-0.7-1.1c-0.3-0.3-0.6-0.7-0.9-1C44.6,94.2,44.9,94.6,45.1,95z M43.8,84.3c0.3,0.3,0.6,0.7,0.9,1
				c-0.2-0.4-0.4-0.8-0.7-1.1c-0.3-0.3-0.6-0.7-0.9-1C43.3,83.6,43.5,84,43.8,84.3z M29,95.9c-0.1-0.1-0.2-0.2-0.3-0.4
				c0,0.1-0.1,0.2-0.1,0.3c0.1,0.1,0.1,0.2,0.2,0.2c0.3,0.3,0.6,0.7,0.9,1C29.5,96.6,29.3,96.2,29,95.9z M36.6,106.5
				c0,0.1,0.1,0.2,0.1,0.3l0.2,0C36.8,106.6,36.7,106.5,36.6,106.5z"/>
			<g>
				<path class="st6" d="M48,81.5c0.8,1.4,1.7,2.7,2.4,4c0.4,0.7,0.8,1.3,1.1,2c0.3,0.7,0.5,1.5,0.5,2.2c0.1-0.4,0.1-0.8,0-1.2
					c-0.1-0.4-0.2-0.8-0.3-1.1c-0.3-0.7-0.7-1.4-1.1-2.1c-0.4-0.6-0.8-1.2-1.2-1.8c-0.1-0.2-0.1-0.4-0.2-0.6
					c-0.1-0.3-0.2-0.6-0.4-0.9c0.1,0.3,0.2,0.6,0.3,0.9c0,0.1,0.1,0.2,0.1,0.2C48.9,82.6,48.5,82,48,81.5z"/>
			</g>
			<g>
				<path class="st6" d="M43,93.7c1.1,0,2.1,0.1,3.2,0.3c0.5,0.1,1,0.2,1.6,0.4c0.3,0.1,0.5,0.1,0.8,0.2c0.3,0.1,0.6,0.1,0.8,0.1
					c0,0,0,0,0,0c-0.3,0-0.5,0-0.8,0c-0.3,0-0.5-0.1-0.8-0.1c-0.5-0.1-1.1-0.2-1.6-0.3C45.2,94.2,44.1,94,43,93.7
					C43,93.8,43,93.7,43,93.7z"/>
				<path class="st6" d="M40.4,94.8c0.9-0.1,1.8-0.2,2.6-0.3c0.4,0,0.9,0,1.3,0c0.2,0,0.4,0,0.6,0c0.2,0,0.5,0.1,0.7,0.1
					c0,0,0,0,0,0c-0.2,0-0.4,0-0.7,0c-0.2,0-0.4,0-0.7,0c-0.4,0-0.9,0-1.3,0C42.2,94.8,41.3,94.9,40.4,94.8
					C40.4,94.9,40.4,94.9,40.4,94.8z"/>
			</g>
		</g>
		<g>
			<g>
				<path class="st16" d="M41.2,76.9c0,0.5,1.3,4.2,3.5,4.7c0.7,0.2,1.8-3.6,1.8-3.6l0.1-0.3l2-3.7l-3.7-4.3l-0.6-0.6
					c0,0-0.5,1-1.1,2.3c0,0.1-0.1,0.1-0.1,0.2c0,0.1-0.1,0.1-0.1,0.2c-0.1,0.2-0.2,0.4-0.3,0.6c-0.1,0.2-0.1,0.3-0.2,0.5
					c-0.1,0.2-0.1,0.3-0.2,0.5C41.8,75,41.2,76.7,41.2,76.9z"/>
				<path class="st6" d="M43.3,71.5c0.2,3.5,2.3,5.5,3.3,6.2l2-3.7l-3.7-4.3l-0.6-0.6C44.4,69.1,43.9,70.2,43.3,71.5z"/>
			</g>
			<g>
				<path class="st16" d="M55.6,68.5c-0.2,7.4-4.7,8-6.3,8c-1.4,0-6.3-0.4-6.9-7.7c-0.5-7.3,3-9.6,6.3-9.6
					C52,59.1,55.8,61.1,55.6,68.5z"/>
				<g>
					<path class="st6" d="M54.6,67.2c-0.2,0-0.3-0.1-0.5-0.1c-0.2-0.1-0.3-0.1-0.5-0.2c-0.1-0.1-0.1-0.2,0-0.3
						c0.2-0.2,0.4-0.2,0.6-0.1c0.2,0.1,0.4,0.2,0.6,0.4C55,67,54.8,67.2,54.6,67.2z"/>
					<path class="st6" d="M49.6,67.2c0.2,0,0.3,0,0.5-0.1c0.2,0,0.3,0,0.5-0.2c0.1-0.1,0.1-0.2,0-0.3c-0.2-0.2-0.4-0.2-0.6-0.2
						c-0.3,0-0.4,0.1-0.6,0.3C49.2,66.9,49.3,67.2,49.6,67.2z"/>
					<g>
						<g>
							<path class="st6" d="M50.6,68.8C50.6,68.7,50.6,68.8,50.6,68.8c0,0.5-0.1,1.1-0.6,1.3c0,0,0,0,0,0
								C50.6,70,50.7,69.2,50.6,68.8z"/>
							<path class="st6" d="M50.2,68.2c-0.8-0.1-0.9,1.5-0.2,1.6C50.7,69.9,50.8,68.3,50.2,68.2z"/>
						</g>
						<path class="st6" d="M49.8,68.3c-0.1,0.1-0.3,0.2-0.5,0.2c-0.2,0-0.3-0.2-0.5-0.3c0,0,0,0,0,0c0,0.3,0.1,0.6,0.4,0.7
							c0.3,0.1,0.5-0.2,0.6-0.5C49.9,68.3,49.9,68.3,49.8,68.3z"/>
					</g>
					<g>
						<g>
							<path class="st6" d="M53.4,68.9C53.4,68.8,53.4,68.9,53.4,68.9c0,0.5,0,1.1,0.4,1.3c0,0,0,0,0,0
								C53.3,70.1,53.3,69.3,53.4,68.9z"/>
							<path class="st6" d="M53.9,68.4c0.8,0,0.7,1.6,0,1.6C53.1,70,53.2,68.4,53.9,68.4z"/>
						</g>
						<path class="st6" d="M54.2,68.5c0.1,0.1,0.2,0.3,0.4,0.3c0.2,0,0.3-0.2,0.4-0.3c0,0,0,0,0,0c0,0.3-0.1,0.6-0.4,0.7
							c-0.3,0-0.5-0.2-0.5-0.5C54.1,68.5,54.2,68.4,54.2,68.5z"/>
					</g>
					<path class="st6" d="M50.3,72.9c0.1,0.1,0.2,0.3,0.4,0.3c0.2,0,0.4,0,0.5-0.1c0,0,0,0,0,0c-0.2,0.2-0.4,0.3-0.7,0.2
						C50.3,73.3,50.2,73.1,50.3,72.9C50.2,72.9,50.2,72.8,50.3,72.9z"/>
					<g>
						<path class="st6" d="M52.5,71.2c0,0,0.1,0.8,0,1.1c0,0-0.1,0-0.2,0c0,0,0,0,0,0c-0.6,0.1-1.2-0.2-1.6-0.7c0,0,0-0.1,0.1,0
							c0.4,0.4,1,0.5,1.5,0.5c0-0.1-0.1-1.3-0.1-1.3c0.2,0,0.6,0.1,0.8,0.2c-0.1-1.6-0.4-3.1-0.5-4.7c0-0.1,0.1-0.1,0.1,0
							c0.5,1.6,0.6,3.4,0.7,5C53.3,71.6,52.6,71.2,52.5,71.2z"/>
					</g>
				</g>
				<g>
					<path class="st6" d="M42.6,69.5c1.7-0.5,2-2.2,2-2.2c2.1-0.6,3.4-2,3.5-2.1c-0.1,0.1-0.6,1.2-0.8,1.7c4.7-0.2,6.6-3.6,6.6-3.6
						c1.3,1.7,1.5,2.7,1.6,3.2c0,0,0.4-2.8-0.8-4.9c-1.5-2.5-3.9-2.4-3.9-2.4s-3.5-0.9-6.7,1.7C40.7,63.7,42.6,69.5,42.6,69.5z"/>
					<path class="st6" d="M50.9,66.6c-0.8,0.3-1.6,0.5-2.5,0.6c0,0,0,0,0,0c1.3-0.2,2.6-0.7,3.6-1.6c0.4-0.4,0.8-0.8,1.2-1.3
						c0.4-0.5,0.7-1.1,0.8-1.7c0,0,0.1,0,0.1,0c-0.1,0.6-0.3,1.2-0.6,1.8c-0.3,0.5-0.7,1-1.2,1.4C51.9,66.1,51.4,66.4,50.9,66.6"/>
				</g>
				<g>
					<g>
						<path class="st16" d="M42.3,71.5c0.1,0.1,0.2,0.1,0.3,0.1c0.1,0,0.2,0.1,0.3,0.1c0.2,0,0.3,0,0.4-0.1c0.1,0,0.2-0.1,0.3-0.2
							c0.2-0.2,0.3-0.4,0.3-0.4l-0.2-2c0,0-1.3-2.5-2.4-2C40.4,67.4,41.2,70.9,42.3,71.5z"/>
						<path class="st6" d="M41.7,67.9C41.7,67.9,41.7,68,41.7,67.9c0.8,0.5,1.2,1.3,1.4,2.2c-0.2-0.3-0.5-0.6-1-0.3c0,0,0,0.1,0,0
							c0.4,0,0.6,0.1,0.8,0.4c0.1,0.2,0.2,0.5,0.3,0.7c0,0.1,0.2,0.1,0.2,0c0,0,0,0,0,0C43.6,69.8,42.9,68.2,41.7,67.9z"/>
					</g>
					<path class="st2" d="M42.5,71.2c0,0.2,0.2,0.3,0.4,0.3c0.2,0,0.3-0.2,0.3-0.4c0-0.2-0.2-0.3-0.4-0.3
						C42.6,70.8,42.5,71,42.5,71.2z"/>
					<path class="st2" d="M41.9,70.6c0,0.1,0.1,0.2,0.3,0.2c0.1,0,0.2-0.1,0.2-0.3c0-0.1-0.1-0.2-0.3-0.2
						C41.9,70.3,41.8,70.4,41.9,70.6z"/>
				</g>
				<g>
					<path class="st6" d="M45,60.8c1-0.7,3.4-6.2-1.3-8.8c-4.6-2.6-10.2,3.3-6.8,7.7C39.2,62.6,42.9,62.4,45,60.8z"/>
				</g>
			</g>
		</g>
		<g>
			<g>
				<path class="st16" d="M65.5,99.5c-1.1,2.6-5.2,3.9-15.4,8.4c-1.4,0.6-8.4-8.2-6.9-8.9c1.9-0.9,9.2-4.1,9.8-4.3
					C57.8,93.3,66.3,97.7,65.5,99.5z"/>
				<g>
					<path class="st16" d="M45.2,98c0,0-4.4,1.7-6.4,3.3c-2.7,2.1-4.2,5.1-4.7,6.3c-1.1,2.7-2,9.8,0,10.5c1.8,0.6,2.4-6.8,2.4-6.8
						s-1.8,7.5,0.6,7.7c2.3,0.3,2.4-8.4,2.4-8.4s-1.7,7.7,0.8,7.6c1.9-0.1,2.4-7.9,2.4-7.9s-1.4,6.6,0.5,6.6c2.1,0,3.1-7.2,3.1-7.2
						c4.8-0.8,6.8-3.2,8-5.1C54.6,104.2,45.2,98,45.2,98z"/>
					<g>
						<path class="st6" d="M37,108.6c-0.2,0.9-0.5,1.7-0.7,2.6c-0.2,0.9-0.3,1.8-0.4,2.7c-0.2,2.2,0,3.6,0,3.5
							c-0.1-2.1,0.4-5.3,0.6-6.2C36.7,110.4,36.8,109.5,37,108.6C37,108.6,37,108.6,37,108.6z"/>
						<path class="st6" d="M40.2,109.1c-0.3,1.1-0.6,2.2-0.8,3.4c-0.2,1.1-0.3,2.2-0.4,3.4c0,0.1,0,0.1,0.1,0
							c0.2-1.1,0.4-2.2,0.6-3.3C39.8,111.4,40,110.2,40.2,109.1C40.2,109.1,40.2,109.1,40.2,109.1z"/>
						<path class="st6" d="M43,109.1c-0.5,1.7-0.7,3.5-0.8,5.2c0,0.1,0.1,0,0.1,0C42.5,112.5,42.7,111.1,43,109.1
							C43.1,109,43,109,43,109.1z"/>
					</g>
				</g>
			</g>
			<path class="st6" d="M58,94.8c-0.8-0.3-3.1-0.9-5-0.1c0,0,0,0,0,0C54.6,94.3,57.2,94.6,58,94.8C58,94.8,58,94.8,58,94.8z"/>
		</g>
		<g>
			<g>
				<g>
					<path class="st6" d="M89.1,88.7c0.3,0.2,0.6,0.4,0.8,0.2l0,0c0.1-0.2-0.2-0.4-0.5-0.6L89.1,88.7z"/>
					<path class="st9" d="M86,88.9c0.3,0.2,2.5,0,3.3-0.1c0.2,0,0.3-0.2,0.3-0.4c-0.1-0.8-0.8-2.9-1.1-3.1c-0.2-0.1-1.2-0.4-2.1-0.8
						C85,84,70.9,75.1,70.7,75.1c-0.2,0-0.5,0.3-0.7,0.6c-0.1,0.2-0.4,0.6-0.3,0.8c0.1,0.2,13.7,9.8,14.7,10.8
						C85.1,88,85.8,88.8,86,88.9z"/>
					<path class="st11" d="M86,88.9c0,0,0.1,0,0.1,0c0.7-0.6,1.2-1.3,1.5-1.8c0.5-0.7,0.7-1.3,0.9-1.7c0-0.1-0.1-0.1-0.1-0.1
						c0,0-0.1-0.1-0.2-0.1c-0.2,0.6-0.7,2-2.4,3.6C85.9,88.8,85.9,88.9,86,88.9z"/>
					<g>
						<path class="st6" d="M85.6,86.1L85.6,86.1c0.1-0.2,0.1-0.5-0.1-0.6l-3.8-2.5c-0.2-0.1-0.5-0.1-0.6,0.1l0,0
							c-0.1,0.2-0.1,0.5,0.1,0.6l3.8,2.5C85.2,86.3,85.5,86.3,85.6,86.1z"/>
						<path class="st11" d="M85.4,86L85.4,86c0.1-0.1,0-0.3-0.1-0.4L82.9,84c-0.1-0.1-0.3,0-0.4,0.1l0,0c-0.1,0.1,0,0.3,0.1,0.4
							l2.4,1.6C85.2,86.1,85.4,86.1,85.4,86z"/>
						
							<rect x="84.2" y="85.2" transform="matrix(0.5561 -0.8311 0.8311 0.5561 -33.3959 108.0252)" class="st6" width="0.5" height="0.2"/>
					</g>
				</g>
				<path class="st16" d="M38.6,84.3c3.7,8.2,11.3,16.6,14,16.9c2.9,0.3,12.7-3.2,15.3-4.6c1.4-0.8-2.3-12.9-3.8-12
					c-2.4,1.6-9.4,5.1-10.2,4.8c-0.6-0.2-7.1-5.4-11.6-8.6C36,76.4,37.1,80.8,38.6,84.3z"/>
				<g>
					<path class="st16" d="M63.7,84.8c0,0,4.2-2.6,7-4.1c1.6-0.9,4.4-2.1,5.9-2.2c2.2-0.2,9.4,0.8,9.3,3c-0.1,2-6,0.2-6,0.2
						s8,0.9,7.4,3.3c-0.6,2.4-9.2-0.6-9.2-0.6s8.2,1.1,7.2,3.5c-0.7,1.8-8.7-0.5-8.7-0.5s7.1,0.2,6.4,2c-0.8,2.1-8.3,1.3-8.3,1.3
						c-2.6,4.5-5.6,5.6-7.9,6.1C66.5,97,63.7,84.8,63.7,84.8z"/>
					<g>
						<path class="st6" d="M77.1,81.1c0.9,0.1,1.9,0.1,2.8,0.3c0.9,0.2,1.9,0.3,2.8,0.6c2.2,0.6,3.6,1.3,3.5,1.3
							c-2-0.9-5.4-1.5-6.3-1.6C79,81.5,78.1,81.3,77.1,81.1C77.1,81.2,77.1,81.1,77.1,81.1z"/>
						<path class="st6" d="M76.5,84.5c1.2,0.1,2.4,0.2,3.6,0.4c1.2,0.2,2.3,0.5,3.5,0.8c0.1,0,0,0.1,0,0c-1.2-0.2-2.3-0.4-3.5-0.6
							C78.9,85,77.7,84.7,76.5,84.5C76.5,84.5,76.5,84.5,76.5,84.5z"/>
						<path class="st6" d="M75.5,87.3c2.5,0.1,4.9,0.6,7.3,1.2c0.1,0,0,0.1-0.1,0.1C80.2,88.1,78.3,87.8,75.5,87.3
							C75.4,87.4,75.4,87.3,75.5,87.3z"/>
					</g>
				</g>
			</g>
			<g>
				<g>
					<path class="st7" d="M42.6,93.5l4.8-9.3c0,0-4-3.5-6.4-5.1c-3.3-2.1-4.8-1.4-3.5,3.2C38.3,85.4,42.6,93.5,42.6,93.5z"/>
					<path class="st2" d="M39.9,78.5c0,0.3,0,0.6-0.1,0.9c-0.1,0.4-0.2,0.9-0.3,1.3c-0.1-0.5,0-0.9,0-1.3c0-0.3,0.1-0.6,0.2-1
						C39.8,78.5,39.8,78.5,39.9,78.5z M41,88.9c-0.3,0-0.5-0.1-0.8-0.1c0,0.1,0.1,0.2,0.1,0.2c0.2,0,0.4,0.1,0.6,0.1
						c0.4,0.1,0.9,0.1,1.3,0C41.9,89,41.4,88.9,41,88.9z M43.8,84.3c0.3,0.3,0.6,0.7,0.9,1c-0.2-0.4-0.4-0.8-0.7-1.1
						c-0.3-0.3-0.6-0.7-0.9-1C43.3,83.6,43.5,84,43.8,84.3z"/>
				</g>
				<g>
					<path class="st6" d="M46.8,85.4c0-0.1,0.5-1.1,0.6-1.1c-0.5-0.4-1-0.8-1.4-1.2c-0.2-0.2-0.5-0.4-0.7-0.6
						c-0.3-0.2-0.6-0.5-0.8-0.7c0,0,0-0.1,0-0.1c0.3,0.2,0.5,0.4,0.8,0.6c0.2,0.2,0.5,0.4,0.7,0.6c0.5,0.4,1,0.8,1.5,1.3
						C47.6,84.2,46.9,85.3,46.8,85.4C46.8,85.4,46.8,85.4,46.8,85.4z"/>
					<path class="st6" d="M42.2,92.1c0.6-1.4,1.2-2.8,1.9-4.1c0.3-0.7,0.7-1.4,1.1-2c0.4-0.7,0.8-1.3,1.2-2c0,0,0.1,0,0.1,0
						c-0.4,0.7-0.7,1.4-1,2c-0.4,0.7-0.7,1.4-1,2C43.6,89.4,42.9,90.8,42.2,92.1C42.2,92.2,42.2,92.2,42.2,92.1z"/>
					<g>
						<g>
							<path class="st6" d="M43.3,92.2c-0.1,0.5-0.3,1-0.5,1.4L42.6,94l-0.2-0.4c-0.7-1.1-1.4-2.2-1.9-3.4c-0.6-1.2-1-2.4-1.3-3.7
								c0.7,1.1,1.4,2.2,2,3.4c0.6,1.1,1.2,2.3,1.7,3.5l-0.4,0C42.7,93,43,92.6,43.3,92.2z"/>
						</g>
						<g>
							<path class="st6" d="M39.2,87.7c0.3,0.2,0.5,0.4,0.7,0.6c0.2,0.2,0.3,0.5,0.4,0.9c-0.4-0.1-0.6-0.3-0.8-0.5
								C39.3,88.3,39.2,88,39.2,87.7z"/>
						</g>
					</g>
				</g>
			</g>
			<g>
				<g>
					<path class="st6" d="M52,88.1c0.6,0.3,1.1,0.7,1.6,0.9c0.3,0.1,0.3,0.1,0.7,0c0.3-0.1,0.6-0.2,0.9-0.3c1.2-0.4,2.3-0.9,3.6-1.1
						c-1,0.8-2.1,1.4-3.3,1.8c-0.3,0.1-0.6,0.2-0.9,0.3c-0.2,0-0.3,0.1-0.6,0.1c-0.3,0-0.4-0.1-0.6-0.2C52.8,89.1,52.4,88.6,52,88.1
						z"/>
				</g>
				<g>
					<path class="st6" d="M46.8,96.6c0.6,0.6,1.3,1.2,2,1.8c0.7,0.6,1.3,1.2,2.1,1.6c0.4,0.2,0.7,0.4,1.1,0.6
						c0.4,0.2,0.7,0.2,1.1,0.2c0.8-0.1,1.7-0.2,2.6-0.4c1.7-0.4,3.4-0.8,5.1-1.3c1.7-0.5,3.4-1,5.1-1.6c-1.6,0.9-3.2,1.5-4.9,2.1
						c-1.7,0.6-3.4,1.1-5.2,1.5c-0.9,0.2-1.8,0.3-2.7,0.4c-0.5,0-1-0.1-1.5-0.3c-0.4-0.2-0.8-0.5-1.2-0.8C49,99.4,47.8,98,46.8,96.6
						z"/>
				</g>
			</g>
		</g>
	</g>
</g>
</svg>
